<?xml version="1.0" encoding="UTF-8"?>
<svg id="_レイヤー_47" data-name="レイヤー_47" xmlns="http://www.w3.org/2000/svg" viewBox="0 0 150 150">
  <defs>
    <style>
      .cls-1 {
        fill: #fff;
      }

      .cls-2 {
        fill: #999899;
      }
    </style>
  </defs>
  <rect class="cls-2" x="-.24" y="0" width="150" height="150" rx="22.24" ry="22.24"/>
  <g>
    <path class="cls-1" d="M17.52,65.59c-3.72-1.58-5.76-4.69-5.76-8.62,0-2.29.82-4.95,2.04-6.58.71-.92,1.07-1.27,3.47-3.52l-15.09.97v-6.73c4.08-1.48,14.48-6.37,22.44-10.61l-17.8.15v-8.06l33.91-.25v8.72l-16.01,7.8,20.55-.66v7.8l-6.38.2c-5.61.1-9.08.66-11.78,1.89-3.26,1.48-5.56,4.49-5.56,7.24,0,1.27.92,2.5,2.19,2.86,1.07.31,3.52.51,6.63.51,4.03,0,8.67-.31,12.8-.82v9.03c-8.57.36-9.08.36-13.41.36-6.48,0-9.28-.36-12.24-1.68Z"/>
    <path class="cls-1" d="M76.42,58.25c4.9-.15,7.14-.92,8.97-3.21,1.84-2.19,2.96-6.43,2.96-11.01,0-3.98-.87-7.34-2.45-9.69-1.07-1.58-2.35-2.29-5.1-2.7-1.99,12.7-2.65,16.17-4.28,21.67-1.38,4.64-2.7,7.24-4.59,8.92-1.68,1.53-3.82,2.45-5.81,2.45-3.31,0-7.14-2.09-9.48-5.1-2.4-3.16-3.88-8.36-3.88-13.82,0-5,1.17-9.74,3.42-13.36,3.88-6.43,10.5-9.59,19.99-9.59,13.92,0,21.01,7.19,21.01,21.32,0,8.06-2.6,14.84-7.04,18.46-3.31,2.7-7.34,3.88-13.26,3.88h-.46v-8.21ZM68.16,51.77c1.07-3.37,2.91-12.7,3.98-20.6-3.57.56-5.3,1.33-7.09,3.26-2.35,2.55-3.72,6.83-3.72,11.52,0,5.1,1.63,8.62,4.03,8.62,1.22,0,2.19-.97,2.8-2.8Z"/>
    <path class="cls-1" d="M106.36,46.37c-1.38,1.22-1.63,1.43-4.03,3.31v-11.78c4.08-3.98,7.09-10.2,8.16-16.88h8.57c-.92,5-2.19,8.72-4.79,14.02v32.18h-7.9v-20.86ZM118.96,58.96v-17.13l-3.01.31v-7.7l3.01-.36v-10.4h7.85v9.43l2.45-.36v-11.07h7.44v10.25l11.17-1.43v16.47c.15,5.3-2.4,7.55-8.52,7.34h-1.58v-7.34h1.99v-7.7l-3.06.46v16.52h-7.44v-15.6l-2.45.25v17.85h14.18c3.82-.2,5.97-.97,8.36-3.11v8.31c-1.68,1.68-4.39,2.55-7.85,2.6h-14.13c-6.07-.1-8.57-2.35-8.41-7.6Z"/>
    <path class="cls-1" d="M30.56,129.84h9.6v-4.14h-22.32v-8.64h22.32v-4.26c4.5-1.38,5.76-1.92,8.34-3.3h-24.66v-5.28h-5.16v-12.6h6.12l-3.18-7.2h9.9l3.24,7.2h4.86l-3.12-7.2h10.32l3,7.2h4.08l4.14-7.2h11.58l-4.02,7.2h5.46v12.84h-4.56v5.4c-7.98,3.66-9.06,4.14-15.3,6.84v.36h21.06v8.64h-21.06v3.48c.24,7.5-2.1,9.78-10.2,9.84h-10.44v-9.18ZM60.92,102.06v-2.76h-31.92v2.76h31.92Z"/>
    <path class="cls-1" d="M85.4,125.94c-2.82,4.62-4.14,6.12-7.56,8.7v-13.32c3.12-3.3,5.04-7.08,6.3-12.12h-6.36v-8.94h7.62v-5.4c-2.52.12-4.08.18-5.1.18-.54,0-1.32,0-2.34-.06v-8.16c9.72-.24,12.18-.36,22.5-1.44v8.28l-2.52.18-2.76.24v6.18h5.46v8.94h-5.46v2.34c2.7,2.16,3.06,2.52,5.7,4.86v12.72c-2.64-2.88-3.06-3.3-5.7-5.88v16.26h-9.78v-13.56ZM119.24,127.5l-17.1.78v-9.48l17.1-.78v-33.36h9.66v32.94l4.68-.18v9.48l-4.68.18v12.6h-9.66v-12.18ZM102.98,95.52v-9.78c8.04,1.98,9.78,2.52,13.74,4.2v10.02c-4.26-1.62-5.4-1.98-13.74-4.44ZM102.98,109.02v-9.3c5.88,1.38,9,2.34,13.74,4.32v10.08c-4.44-2.04-5.7-2.46-13.74-5.1Z"/>
  </g>
</svg>