<?xml version="1.0" encoding="UTF-8"?>
<svg id="_レイヤー_14" data-name="レイヤー_14" xmlns="http://www.w3.org/2000/svg" viewBox="0 0 150 150">
  <defs>
    <style>
      .cls-1 {
        fill: #a8519b;
      }

      .cls-2 {
        fill: #fff;
      }
    </style>
  </defs>
  <rect class="cls-1" y="0" width="150" height="150" rx="22.24" ry="22.24"/>
  <g>
    <path class="cls-2" d="M23.52,26.8l-14.36,7.16v-7.88l22.08-10.36c2.92-1.4,3.52-2.24,3.52-4.88v-1.08h7.32v1.96c0,3.8-1.64,6.52-5.04,8.24l-6.12,3.08v21.8h-7.4v-18.04Z"/>
    <path class="cls-2" d="M57.28,18.76l-7.2,15.52h-7.84l10.96-21.96h8.76l16.4,32h-8.28l-12.8-25.56ZM70.04,10.04h3.76v6.16h-3.76v-6.16ZM74.99,10.04h3.72v6.16h-3.72v-6.16Z"/>
    <path class="cls-2" d="M78.64,37.15h11.2c4.76-.04,8.64-.68,10.52-1.76,2.92-1.44,4.72-4.56,4.76-8.24v-13.48h7.12v12.04c-.04,7-1.88,11.4-6.08,14.52-3.52,2.72-7.96,3.76-16.44,3.84h-11.08v-6.92ZM78.96,17.44v-7.08c7.12,1.84,14.76,4.12,18.32,5.48v7.2c-6.2-2.12-13.12-4.24-18.32-5.6Z"/>
    <path class="cls-2" d="M117.08,9.52h7.32v10.68c9.32,2.24,12.72,3.2,18.6,5.24v7.4c-5.36-1.96-10.4-3.44-18.6-5.44v17.56h-7.32V9.52Z"/>
    <path class="cls-2" d="M34.68,84.7v-5.29c10.48-.15,22.15-1.91,29.84-5.1-.73-.29-1.42-.64-2.06-1.03-6.08,2.79-15.38,4.21-25.38,4.51v-2.2c-2.01.49-4.26.88-6.61,1.08v-6.91c5.58-.39,8.92-1.57,10.98-3.43h-10.98v-5.83h15.38l.83-2.11c-3.82.15-10,.2-14.41.2v-5.83h5.73l3.13-4.56h8.92l-3.28,4.36c6.96-.05,9.95-.15,14.36-.29-.73-1.27-.93-1.62-1.71-2.79h8.77c1.71,2.55,3.53,5.59,5.73,9.7h-8.62l-.93-1.57-8.18.44-.83,2.45h19.99v5.83h-11.56c2.5,1.76,7.15,3.04,11.56,3.48v7.06c-2.79-.34-5-.73-6.91-1.22v2.79c-10.19,4.9-19.99,6.17-33.76,6.27ZM71.96,85.38c-9.21,5.78-21.41,7.5-39.49,7.5v-6.52c18.91-.1,29.15-1.76,39.49-8.23v7.25ZM46.98,71.52c3.72-.44,7.1-1.13,10.19-2.06-1.03-1.03-1.91-2.11-2.6-3.09h-2.11c-1.32,1.71-2.84,3.48-5.49,5.14Z"/>
    <path class="cls-2" d="M79.71,63.78v-7.54h4.21v-7.74h7.59v7.74h10.53v25.62c0,7.54-3.33,10.88-10.93,10.88h-2.3v-7.84h2.25c2.25,0,3.38-1.52,3.38-4.56v-16.56h-2.94c-.39,9.26-.49,11.22-.78,13.38-.78,5.63-2.65,9.31-6.03,12.3-1.91,1.67-3.38,2.45-5.98,3.19v-9.21c2.3-1.32,3.72-3.28,4.31-5.98.69-3.18.88-6.32.88-13.67h-4.21ZM123.51,52.31v30.87c0,3.72-.29,5.34-1.47,6.81-1.22,1.52-3.48,2.35-6.61,2.35h-11.12v-40.03h19.21ZM115.62,84.55v-24.55h-3.92v24.55h3.92Z"/>
    <path class="cls-2" d="M34.63,113.8h8.18c-2.06,11.32-2.11,11.61-3.77,17.44h-8.43c2.2-7.1,2.94-10.34,4.02-17.44ZM31.84,134.47c6.96-1.13,9.06-1.86,14.85-5.19v-17.2h8.23v10.63c4.8-4.56,9.36-12.93,10.88-20.24h8.62c-1.18,5.73-3.67,11.71-7.1,16.95l8.33,2.3v8.13l-12.49-4.12c-4.75,4.7-5.49,5.39-8.57,7.99v1.71h12.84c2.4.1,5.34-1.03,6.96-2.65v8.23c-1.67,1.37-3.18,1.67-8.57,1.67h-10.39c-6.91,0-8.38-.73-8.72-4.12-5.63,2.5-9.55,3.58-14.85,4.12v-8.23ZM42.81,106.79v-7.45c6.42.34,12.94,1.18,19.45,2.55v8.18c-5.88-1.47-12.64-2.6-19.45-3.28Z"/>
    <path class="cls-2" d="M79.42,108.46c4.26-1.47,6.71-3.87,9.11-8.92h7.84c-1.08,3.87-2.79,6.66-6.32,10.39-3.48,3.43-5.93,4.8-10.63,5.83v-7.3ZM79.42,121.88c4.51-1.08,7.4-3.87,9.85-9.5h7.74c-3.23,9.21-9.11,15.09-17.59,17.54v-8.04ZM79.42,136.04c5.98-1.81,9.46-5.34,10.54-10.63h7.4c-1.57,9.65-8.72,17.05-17.93,18.47v-7.84ZM100.78,136.43h-2.5v-28.37h7.94l.79-1.67h-10v-6.66h28.17v6.66h-9.95l-.73,1.67h8.23v24.74c0,1.67-.69,2.65-2.5,3.62.93,2.06,1.18,2.4,4.21,7.1h-8.87c-1.86-3.53-2.4-4.61-3.48-7.1h-3.23c-.78,2.55-1.32,3.67-3.43,7.1h-9.46c2.5-2.94,3.43-4.36,4.8-7.1ZM114.6,116.05v-1.91h-8.67v1.91h8.67ZM114.6,123.55v-2.01h-8.67v2.01h8.67ZM114.6,130.6v-1.96h-8.67v1.96h8.67Z"/>
  </g>
</svg>