<?xml version="1.0" encoding="UTF-8"?>
<svg id="_レイヤー_8" data-name="レイヤー_8" xmlns="http://www.w3.org/2000/svg" viewBox="0 0 150 150">
  <defs>
    <style>
      .cls-1 {
        fill: #fff;
      }

      .cls-2 {
        fill: #1a479c;
      }
    </style>
  </defs>
  <rect class="cls-2" x="3.76" y="1.47" width="150" height="150" rx="22.24" ry="22.24"/>
  <path class="cls-1" d="M48.1,102.17c5.38-.21,6.94-.43,10.7-1.63l-6.66-2.98c-1.28-.64-1.98-1.7-1.98-3.05,0-.64.14-1.13.71-2.62l.85-2.05h-3.61v-7.93h7.44c.85-1.77.92-2.05,1.7-4.11h2.83v-4.68c-3.54,2.98-7.16,4.96-11.97,6.52v-10.06c4.04-1.35,5.88-2.13,8.86-4.18h-8.86v-9.07h2.91l-2.98-7.86h8.64l2.62,7.86h.78v-9.85h10.84v9.28l3.19-7.3h8.86l-3.68,7.86h1.84v9.07h-6.45c2.34,1.91,3.61,2.69,6.45,3.9v9.99c-3.47-1.35-6.59-3.4-10.2-6.66v5.24h-2.91l-1.84,4.04h14.95v7.93h-2.62c-1.42,3.9-1.63,4.46-3.26,8.29l4.25,1.49v10.77c-3.97-2.13-5.6-2.9-9.07-4.32-6.59,3.75-11.76,5.03-22.32,5.46v-9.35ZM67.73,89.85h-5.1l-1.42,2.9,4.53,1.56c1.06-2.05,1.2-2.34,1.98-4.46ZM80.83,99.62c5.31-2.55,7.08-3.83,10.27-7.51-3.33-7.37-3.75-8.57-4.96-13.67l-3.61,3.83v-17.07c3.26-5.74,5.38-11.83,6.38-18.7h10.77c-.5,3.83-1.06,5.95-2.55,10.2h15.73v10.13h-3.26c-1.42,10.84-2.62,15.52-6.09,23.8,3.05,3.75,4.82,5.1,9.35,7.3v13.04c-6.16-2.12-10.63-5.17-15.37-10.56-5.17,5.81-10.49,9.14-16.65,10.63v-11.41ZM98.9,66.82h-5.53c.99,5.46,1.49,7.65,3.12,13.11,1.56-6.02,1.91-8.08,2.41-13.11Z"/>
</svg>