<?xml version="1.0" encoding="UTF-8"?><svg id="ah" xmlns="http://www.w3.org/2000/svg" viewBox="0 0 150 150"><defs><style>.an{fill:#fff;}.an,.ao{stroke-width:0px;}.ao{fill:#e58f90;}</style></defs><rect class="an" x="1.5" y="1.62" width="147" height="147" rx="20.74" ry="20.74"/><path class="ao" d="m127.76,3.12c10.61,0,19.24,8.63,19.24,19.24v105.53c0,10.61-8.63,19.24-19.24,19.24H22.24c-10.61,0-19.24-8.63-19.24-19.24V22.35C3,11.75,11.63,3.12,22.24,3.12h105.53m0-3H22.24C9.96.12,0,10.07,0,22.35v105.53c0,12.28,9.96,22.24,22.24,22.24h105.53c12.28,0,22.24-9.96,22.24-22.24V22.35C150,10.07,140.04.12,127.76.12h0Z"/><path class="ao" d="m30.73,47.01l-26.47.37v-9.86l23.99-.25-1.86-6.32-20.09.37v-9.36l17.36-.12-1.8-5.83h11.22l1.74,5.64,17.11-.31v9.24l-14.57.25,1.92,6.2,14.94-.19v9.8l-12.34.19,2.29,8.56h-11.16l-2.29-8.37Zm-17.86,22.13c-4.21-1.55-7.13-5.46-7.13-9.49,0-2.6,1.24-6.14,3.04-8.37h10.29c-1.8,4.59-1.86,4.77-1.86,6.08,0,2.42,3.29,3.6,10.11,3.6s13.76-.43,24.49-1.49v10.48c-9.73.74-14.69.99-21.2.99-9.11,0-14.07-.5-17.73-1.8Z"/><path class="ao" d="m71.83,63.2c-2.85-.81-4.03-1.18-7.63-2.48v-8.93l2.36.81c3.91,1.43,4.09,1.49,6.32,1.92.5-5.08.62-7.07.62-9.55,0-1.43-.06-2.48-.25-4.9-4.28,2.05-6.01,3.41-8.43,6.88-3.16,4.53-4.59,8.74-4.59,13.33,0,.81.06,1.98.12,3.53h-9.11c-.37-7.81-.5-11.78-.5-17.92,0-7.19.12-10.85.74-18.66h9.61c-.37,5.27-.43,7.38-.43,12.15v2.67c2.42-5.39,7.69-10.17,12.09-11.04-.12-3.22-.19-3.78-.68-7.38h10.54l.5,6.14c5.83.25,8.62.99,12.09,3.41,4.46,3.04,6.76,7.32,6.76,12.65,0,5.64-2.29,10.35-6.63,13.58-3.47,2.6-6.51,3.66-13.14,4.46-.5,3.53-.62,4.03-1.3,7.56h-10.85c.93-3.84,1.05-4.4,1.8-8.25Zm16.12-10.79c2.42-1.67,3.78-3.97,3.78-6.32s-1.24-4.84-3.1-6.14c-1.24-.93-2.6-1.3-5.39-1.43.19,3.1.25,4.53.25,6.51,0,3.16-.12,5.77-.5,9.36,2.42-.56,3.53-.99,4.96-1.98Z"/><path class="ao" d="m103.83,59.91h19.16c4.34,0,7.01-.81,9.18-2.67,2.36-2.11,3.47-4.4,3.47-7.25,0-2.6-.81-4.46-2.42-5.33-1.61-.87-2.67-1.05-6.26-1.05h-.62l-27.15.31v-10.85l29.14-.37h.81c6.45,0,9.92.81,12.71,3.04,3.41,2.67,5.58,8.06,5.58,13.76,0,6.7-3.1,13.21-8,16.99-3.72,2.85-8.18,4.09-14.82,4.09h-20.77v-10.66Zm.37-43.03l36.14-.43v10.29l-36.14.43v-10.29Z"/><path class="ao" d="m46.17,85.18h5.78l1.77-6.26h11.15l-1.97,6.26h7.28v15.98c.14,5.03-1.97,7.14-7,7.21h-6.32v2.92h13.74v17.54c.07,7.34-2.11,9.52-9.38,9.32h-15.03v-52.97Zm14.35,14.55v-6.53h-3.67v6.53h3.67Zm0,27.88v-7.75h-3.67v7.75h3.67Zm24.14-23.39h-2.58v27.61h-9.66v-37.94h12.24v-4.42h-13.12v-9.86h37.12v9.86h-13.53v4.42h11.83v26.11c.07,7.14-2.24,9.72-8.5,9.66h-3.33v9.79h-10.47v-35.22Zm12.65,15.5v-15.5h-2.18v15.5h2.18Z"/></svg>