<?xml version="1.0" encoding="UTF-8"?><svg id="ai" xmlns="http://www.w3.org/2000/svg" viewBox="0 0 150 150"><defs><style>.an{fill:#fff;}.an,.ao{stroke-width:0px;}.ao{fill:#ecca22;}</style></defs><rect class="an" x="1.5" y="1.91" width="147" height="147" rx="20.74" ry="20.74"/><path class="ao" d="m127.76,3.41c10.61,0,19.24,8.63,19.24,19.24v105.53c0,10.61-8.63,19.24-19.24,19.24H22.24c-10.61,0-19.24-8.63-19.24-19.24V22.65C3,12.04,11.63,3.41,22.24,3.41h105.53m0-3H22.24C9.96.41,0,10.37,0,22.65v105.53c0,12.28,9.96,22.24,22.24,22.24h105.53c12.28,0,22.24-9.96,22.24-22.24V22.65c0-12.28-9.96-22.24-22.24-22.24h0Z"/><path class="ao" d="m38.93,43.14h5.19v-4.5c-5.51,5.56-11.76,8.8-19.66,10.23v-7.42c3.76-.74,6.57-1.85,10.39-4.03h-9.7v-6.73h9.91l-1.7-2.38h10.23l1.96,2.38h.79l6.52-3.66h-24.54v-6.46h40.7v6.15l-9.06,3.97h11.5v7.21c-.05,4.35-.37,5.62-1.86,7-1.59,1.17-2.17,1.32-7.15,1.38l-5.19.05v-6.2h5.19v-3.55h-9.33v7.1c-.05,3.82-2.28,5.67-6.84,5.62h-7.37v-6.15Zm13.94,18.76v6.41h-8.9v-6.36c-5.25,3.55-12.24,5.94-19.5,6.68v-7.58c3.76-.11,8.8-1.33,12.29-3.07h-11.66v-6.09h18.87v-2.12h8.9v2.12h18.81v6.09h-11.82c2.91,1.91,6.99,3.07,12.51,3.44v7.42c-7.95-.85-14.25-3.07-19.5-6.94Z"/><path class="ao" d="m79.9,59.04c3.44-1.22,4.66-2.33,4.98-4.5v-9.17h-4.93v-7.42h13.51v16.9c0,3.13,2.6,5.35,6.15,5.19h27.98v7.68h-25.6c-7.74-.11-9.43-.9-12.14-5.62-2.38,3.92-4.93,5.56-9.96,6.47v-9.54Zm1.27-28.99v-8.64c4.66.95,7.21,1.59,12.56,3.18v8.9c-4.35-1.43-5.46-1.75-12.56-3.44Zm15.9,1.91h8.9l1.11-1.75h-12.24v-6.41h4.93l-1.91-3.55h8.69l2.07,3.55h4.13l1.85-3.55h9.75l-2.23,3.55h5.62v6.41h-11.55l-1.11,1.75h10.55v19.55c-.11,4.72-2.23,6.73-6.89,6.68h-21.67v-26.23Zm19.98,7.21v-1.85h-11.87v1.85h11.87Zm0,6.73v-1.96h-11.87v1.96h11.87Zm0,6.78v-1.85h-11.87v1.85h11.87Z"/><path class="ao" d="m6.13,103.71v-10.6h8.21v-1.27H4.91v-5.3h9.43v-1.91h7.68v1.91h9.12v5.3h-9.65v1.27h8.27v7.58c0,2.01-1.32,3.02-4.19,3.02h-3.34c3.5,1.06,4.61,1.43,7.68,2.7v5.56c-3.18-1.48-4.13-1.91-7.9-3.34v3.5h-7.68v-3.5c-3.34,2.49-5.67,3.55-9.27,4.35v-6.57c2.54-.58,3.82-1.17,5.88-2.7h-4.82Zm-.53,22.58h7v-6.46h8.21v6.46h5.14v-7.9H7.19v-5.19h44.57v5.19h-17.12v1.64h14.79v4.72h-14.79v1.54h18.81v6.31H5.6v-6.31Zm8.74-27.03v-2.23h-1.96v2.23h1.96Zm8.9,0v-2.23h-1.75v2.23h1.75Zm20.46-14.63c-.48,1.48-.64,1.91-1.22,3.23h10.81v5.67h-2.28c-1.17,3.82-2.28,6.2-3.97,8.74,2.38,1.43,3.18,1.75,6.41,2.38v7.58c-5.83-1.01-7.9-1.8-11.29-4.45-3.55,2.86-5.78,3.82-11.13,4.61v-7.31c3.71-.9,4.34-1.17,6.57-2.54-1.11-1.22-1.8-2.23-2.86-4.03-1.54,1.11-2.01,1.43-3.71,2.49v-7.68c2.12-1.96,3.6-4.45,5.14-8.69h7.53Zm-4.24,8.9c.85,1.91,1.17,2.49,2.28,4.03.79-1.22.95-1.54,1.8-4.03h-4.08Z"/><path class="ao" d="m55.42,115.74c-1.06,1.17-1.54,1.48-3.66,2.65v-10.28c2.86-1.27,7.47-7.42,8.64-11.5-3.6,2.97-5.99,4.4-8.85,5.3v-8.58c4.56-2.23,7.42-5.09,8.85-8.85h8.96c-2.17,4.72-3.66,7-7.1,10.71h5.3v-3.44c1.85-.79,4.29-3.87,6.09-7.53h8.32l-1.33,3.13h18.76v6.41h-23.32l-1.59,1.8h22.89v10.44c.05,4.82-1.43,6.31-6.36,6.31h-5.62l-1.11,1.22h13.72v5.41c-3.29,3.34-4.03,4.03-6.2,5.41,2.97.53,4.45.69,7.95.74v7.9c-6.09-.48-9.91-1.32-16.32-3.76-5.41,2.6-10.23,3.71-17.12,3.97v-7.1c3.34.05,6.41-.42,9.64-1.43-1.59-1.11-1.86-1.27-3.29-2.6-3.13,1.22-3.66,1.38-6.2,2.07v-7.1c4.45-1.11,6.57-2.12,9.96-4.72h-6.73v-13.04c-.95.42-1.11.53-1.8.69-1.27,2.7-1.7,3.55-4.4,8.48v24.75h-8.11v-17.43Zm33.71-13.88v-1.54h-11.82v1.54h11.82Zm0,5.51v-1.7h-11.82v1.7h11.82Zm-2.76,11.92h-6.73c1.32,1.11,1.86,1.43,3.55,2.17,1.48-.85,1.75-.95,3.18-2.17Z"/><path class="ao" d="m99.3,90.4h4.5l1.38-4.88h8.69l-1.54,4.88h5.67v12.45c.11,3.92-1.54,5.56-5.46,5.62h-4.93v2.28h10.7v13.67c.05,5.72-1.64,7.42-7.31,7.26h-11.71v-41.28Zm11.18,11.34v-5.09h-2.86v5.09h2.86Zm0,21.73v-6.04h-2.86v6.04h2.86Zm18.81-18.23h-2.01v21.52h-7.53v-29.57h9.54v-3.44h-10.23v-7.68h28.93v7.68h-10.55v3.44h9.22v20.35c.05,5.56-1.75,7.58-6.62,7.53h-2.6v7.63h-8.16v-27.45Zm9.86,12.08v-12.08h-1.7v12.08h1.7Z"/></svg>