<?xml version="1.0" encoding="UTF-8"?><svg id="x" xmlns="http://www.w3.org/2000/svg" viewBox="0 0 150 150"><defs><style>.an{fill:#fff;}.an,.ao{stroke-width:0px;}.ao{fill:#ef8c98;}</style></defs><rect class="an" x="1.5" y="1.6" width="147" height="147" rx="20.74" ry="20.74"/><path class="ao" d="m127.76,3.1c10.61,0,19.24,8.63,19.24,19.24v105.53c0,10.61-8.63,19.24-19.24,19.24H22.24c-10.61,0-19.24-8.63-19.24-19.24V22.34C3,11.73,11.63,3.1,22.24,3.1h105.53m0-3H22.24C9.96.1,0,10.06,0,22.34v105.53c0,12.28,9.96,22.24,22.24,22.24h105.53c12.28,0,22.24-9.96,22.24-22.24V22.34C150,10.06,140.04.1,127.76.1h0Z"/><path class="ao" d="m22.61,55.73c-3.47,1.63-4.01,1.84-7.48,2.79v-11.63c5.37-2.24,7.48-3.6,11.36-7.34h-10.88v-8.16h17.54l1.22-2.24h-17.2v-7.34h19.99l1.02-2.24c-4.83.07-6.73.07-10.13.07l-11.15-.07v-7.68c3.26.07,5.51.07,7.41.07,4.9,0,24.27-.41,28.83-.68,5.78-.27,10.27-.61,19.45-1.56v8.77c-6.73.41-8.5.54-11.9.68-1.5.07-3.67.14-11.01.34l-.61,2.31h25.77v7.34h-28.08l-1.09,2.24h31.21v8.16h-35.76l-.95,1.5h31.55v23.73c-.27,5.24-3.13,7.07-11.22,7.07H22.61v-16.11Zm37.33-6.73v-2.38h-25.77v2.38h25.77Zm.14,7.34v-2.45h-25.91v2.45h25.91Zm0,7.68v-2.52h-25.91v2.52h25.91Z"/><path class="ao" d="m102.37,39.41l-2.58,1.84v-11.56h-23.8v-8.16h24.34v7.48c2.65-2.72,3.26-3.67,4.96-7.48h1.56v-1.7h-6.73v-6.46h6.73v-2.86h9.45v2.86h5.85v-2.86h9.18v2.86h6.73v6.46h-6.73v2.45h-2.45l-1.29,2.24h10.13v5.03h-11.56v1.77h9.59v4.35h-9.59v1.84h9.59v4.83h-9.59v1.63h11.63v5.24h-35.42v-9.79Zm-24.89,11.9h21.35v12.44c.07,5.98-2.38,8.29-8.84,8.16h-12.51v-20.6Zm.54-39.37h20.81v7.55h-20.81v-7.55Zm0,19.58h20.81v7.82h-20.81v-7.82Zm0,9.72h20.81v7.89h-20.81v-7.89Zm11.97,21.83v-4.01h-3.67v4.01h3.67Zm28.62,5.51c-6.53,2.52-10.61,3.47-18.83,4.49v-8.98c3.6-.2,5.98-.48,9.79-1.36-2.04-1.97-2.31-2.31-4.62-5.1h-2.58v-6.94h34v6.19c-2.99,2.86-4.62,4.15-8.09,6.25,4.56.88,6.12,1.16,10.27,1.5v8.64c-8.63-.82-14.14-2.11-19.92-4.69Zm-1.84-37.26v-1.77h-5.03v1.77h5.03Zm0,6.19v-1.84h-5.03v1.84h5.03Zm0,6.46v-1.63h-5.03v1.63h5.03Zm.95-19.45l1.22-2.79,3.2.2v-2.11h-5.85v2.45h-1.77c-.48,1.02-.61,1.22-1.22,2.24h4.42Zm4.08,33.11h-6.19c1.22.95,1.5,1.09,2.92,1.84,1.63-.75,1.83-.88,3.26-1.84Z"/><path class="ao" d="m46.48,90.38h5.78l1.77-6.26h11.15l-1.97,6.26h7.27v15.98c.14,5.03-1.97,7.14-7,7.21h-6.32v2.92h13.73v17.54c.07,7.34-2.11,9.52-9.38,9.32h-15.03v-52.97Zm14.35,14.55v-6.53h-3.67v6.53h3.67Zm0,27.88v-7.75h-3.67v7.75h3.67Zm24.14-23.39h-2.58v27.61h-9.66v-37.94h12.24v-4.42h-13.12v-9.86h37.12v9.86h-13.53v4.42h11.83v26.11c.07,7.14-2.24,9.72-8.5,9.66h-3.33v9.79h-10.47v-35.22Zm12.65,15.5v-15.5h-2.18v15.5h2.18Z"/></svg>