<?xml version="1.0" encoding="UTF-8"?>
<svg id="_レイヤー_6" data-name="レイヤー_6" xmlns="http://www.w3.org/2000/svg" viewBox="0 0 150 150">
  <defs>
    <style>
      .cls-1 {
        fill: #db401c;
      }

      .cls-2 {
        fill: #fff;
      }
    </style>
  </defs>
  <rect class="cls-1" x="-.59" y="1.06" width="150" height="150" rx="22.24" ry="22.24"/>
  <g>
    <path class="cls-2" d="M34.47,70.14c-4.67-1.98-7.23-5.89-7.23-10.81,0-2.88,1.02-6.21,2.56-8.26.9-1.15,1.34-1.6,4.35-4.42l-18.94,1.22v-8.45c5.12-1.86,18.17-8,28.16-13.31l-22.33.19v-10.11l42.56-.32v10.94l-20.09,9.79,25.79-.83v9.79l-8,.26c-7.04.13-11.39.83-14.78,2.37-4.1,1.86-6.98,5.63-6.98,9.09,0,1.6,1.15,3.14,2.75,3.58,1.34.38,4.42.64,8.32.64,5.06,0,10.88-.38,16.06-1.02v11.33c-10.75.45-11.39.45-16.83.45-8.13,0-11.65-.45-15.36-2.11Z"/>
    <path class="cls-2" d="M108.39,60.93c6.14-.19,8.96-1.15,11.26-4.03,2.3-2.75,3.71-8.06,3.71-13.82,0-4.99-1.09-9.22-3.07-12.16-1.34-1.98-2.94-2.88-6.4-3.39-2.5,15.93-3.33,20.29-5.38,27.2-1.73,5.82-3.39,9.09-5.76,11.2-2.11,1.92-4.8,3.07-7.3,3.07-4.16,0-8.96-2.62-11.9-6.4-3.01-3.97-4.86-10.5-4.86-17.34,0-6.27,1.47-12.22,4.29-16.77,4.86-8.06,13.18-12.03,25.09-12.03,17.47,0,26.37,9.02,26.37,26.75,0,10.11-3.26,18.62-8.83,23.17-4.16,3.39-9.21,4.86-16.64,4.86h-.58v-10.3ZM98.02,52.8c1.34-4.22,3.65-15.93,4.99-25.85-4.48.7-6.66,1.66-8.9,4.1-2.94,3.2-4.67,8.58-4.67,14.46,0,6.4,2.05,10.82,5.06,10.82,1.54,0,2.75-1.22,3.52-3.52Z"/>
    <path class="cls-2" d="M47.3,109.72c-1.91,1.7-2.27,1.98-5.6,4.6v-16.37c5.67-5.53,9.85-14.17,11.33-23.45h11.9c-1.28,6.94-3.05,12.11-6.66,19.48v44.7h-10.98v-28.98ZM64.79,127.22v-23.8l-4.18.42v-10.7l4.18-.5v-14.45h10.91v13.11l3.4-.5v-15.37h10.34v14.24l15.52-1.98v22.88c.21,7.37-3.33,10.49-11.83,10.2h-2.2v-10.2h2.76v-10.7l-4.25.64v22.95h-10.34v-21.68l-3.4.35v24.8h19.7c5.31-.28,8.29-1.35,11.62-4.32v11.55c-2.34,2.34-6.09,3.54-10.91,3.61h-19.62c-8.43-.14-11.9-3.26-11.69-10.56Z"/>
  </g>
</svg>