<?xml version="1.0" encoding="UTF-8"?><svg id="y" xmlns="http://www.w3.org/2000/svg" viewBox="0 0 150 150"><defs><style>.an{fill:#1c944a;}.an,.ao,.ap{stroke-width:0px;}.ao{fill:#fff;}.ap{fill:#189b4b;}</style></defs><rect class="ao" x="1.87" y="3.72" width="147" height="147" rx="20.74" ry="20.74"/><path class="an" d="m128.13,5.22c10.61,0,19.24,8.63,19.24,19.24v105.53c0,10.61-8.63,19.24-19.24,19.24H22.6c-10.61,0-19.24-8.63-19.24-19.24V24.45C3.37,13.85,12,5.22,22.6,5.22h105.53m0-3H22.6C10.32,2.22.37,12.17.37,24.45v105.53c0,12.28,9.96,22.24,22.24,22.24h105.53c12.28,0,22.24-9.96,22.24-22.24V24.45c0-12.28-9.96-22.24-22.24-22.24h0Z"/><path class="ap" d="m19.34,41.12v14.96h-2.36v4.32h2.36v5.64H4.22V31.85h15.44v5.52h-2.68v3.76h2.36Zm-7.68,0v-3.76h-1.76v3.76h1.76Zm1.76,9.6v-4.32h-3.52v4.32h3.52Zm-1.76,9.68v-4.36h-1.76v4.36h1.76Zm18-29.64l-.76,2.64h11.36v5.08h-13.52c-.4.68-.56.92-1.04,1.64h13.6v6.52c0,1.04-.36,2.04-.96,2.64-.56.56-1.72.96-3.6.96h-12.6v-6.32l-2,1.36v-7.76c1.52-1.56,3.12-4.48,3.36-6.76h6.16Zm-9.04,20.96h9.24v15.04h-9.24v-15.04Zm5.24,9.52v-4.4h-1.08v4.4h1.08Zm7.28-15.2v-2.04h-5.36v2.04h5.36Zm-2.36,5.68h9.44v11c0,3.12-1.36,4.04-3.88,4.04h-5.56v-15.04Zm5.2,9.52v-4.4h-1.12v4.4h1.12Z"/><path class="ap" d="m39.1,58.12c1.56-.96,1.96-1.92,2-4.64v-20.08h14.36v-3.12h7.28v3.12h13.6v5.88h-28.67v13.32c-.08,8.08-2.2,11.68-8.56,14.48v-8.96Zm19.28-.28c-3.28,4.08-6.12,6.16-11.08,8.12v-7.68c3.44-1.32,7.28-4.8,9.32-8.4h-7.84v-5.72h9.6v-3.8h6.84v3.8h10.68v5.72h-8.88c3.16,4.36,5.64,6.6,9.56,8.4v7.68c-4.84-1.88-7.52-3.84-11.36-8.2v9.32h-6.84v-9.24Z"/><path class="ap" d="m79.94,57c-1.76,2.84-2.6,3.84-4.64,5.48v-8.96c2.52-2.36,4.16-5.84,4.64-9.92h-4.2v-6h4.2v-6.84h6.16v6.84h3.48v6h-3.48v1.92l3.76,3.64v7.84l-3.76-3.68v14h-6.16v-10.32Zm9.24,4.44c3.08-.32,6.48-2.4,7.76-4.76h-5.84v-11.56h6.68v-1.44h-5.2v-2.2l-2.4.92v-6.04c2.72-.68,5.52-2.76,7.48-5.48h6.08c3,3.04,4.36,3.88,8.16,5.08v6.16c-1.4-.24-1.64-.28-3.16-.8v2.36h-4.96v1.44h7.04v7.76c.04,2.92-.88,3.84-3.8,3.8h-2.76c2.12,2.52,4.4,3.76,7.92,4.24v6.72c-4.8-.48-8.24-2.32-11.52-6.2-2.72,3.6-7.04,6-11.48,6.4v-6.4Zm8.6-10.08v-1.96h-1.48v1.96h1.48Zm5.56-12.68c-1.4-1.16-1.6-1.36-2.92-2.8-1.4,1.52-1.64,1.72-3.08,2.8h6Zm1.92,12.68v-1.96h-1.48v1.96h1.48Z"/><path class="ap" d="m111.3,47.36c4.6-1.6,6.56-3.24,9.32-7.84h-7.8v-5.68h13.68v-3.24h6.88v3.24h14v5.68h-8.48c1.56,2.32,2.52,3.4,4.28,4.72,1.72,1.28,2.88,1.88,5.28,2.64v6.88c-2.72-.68-3.68-1.08-5.92-2.52v9.72h5.08v5.68h-35.19v-5.68h4.96v-9.52c-2.16,1.52-3.12,1.96-6.08,3.04v-7.12Zm15.2-1.36v-4.2c-1,2-1.36,2.56-2.6,4.2h2.6Zm8.96,5.56v-1.4h-11.48v1.4h11.48Zm0,4.6v-1.4h-11.48v1.4h11.48Zm0,4.8v-1.44h-11.48v1.44h11.48Zm.8-14.96c-1.32-1.6-1.72-2.2-2.88-4.2v4.2h2.88Z"/><path class="ap" d="m32.08,121.05h3.62v-7.94l-4.79.8v-7.19l4.79-.56v-6.53h-4.79v-7h4.79v-7.75h7.52v7.75h3.52v6.81h-3.52v5.64l3.57-.66v6.72l-3.57.61v10.67c-.05,3.38-2.58,5.36-6.86,5.4h-4.28v-6.77Zm13.77-.8c4.23-1.27,5.88-2.07,9.26-4.51-3.15-4.28-4.18-6.25-5.55-10.62h-1.74v-6.39h8.41v-3.34h-8.55v-6.53h8.55v-4h7.8v4h9.31v6.53h-9.16v3.34h7.9v6.39c-1.97,4.37-3.95,7.61-6.53,10.67,3.62,2.44,5.03,3.15,8.55,4.28v7.71c-5.73-1.74-10.48-4.18-13.54-6.86-4.14,3.99-8.46,6.16-14.71,7.28v-7.94Zm17.67-15.13h-6.44c.94,2.54,1.55,3.62,3.05,5.69,1.74-2.02,2.26-2.91,3.38-5.69Z"/><path class="ap" d="m78.65,89.38h4l1.22-4.32h7.71l-1.36,4.32h5.03v11.04c.09,3.48-1.36,4.93-4.84,4.98h-4.37v2.02h9.49v12.12c.05,5.08-1.46,6.58-6.49,6.44h-10.39v-36.61Zm9.92,10.06v-4.51h-2.54v4.51h2.54Zm0,19.27v-5.36h-2.54v5.36h2.54Zm16.68-16.17h-1.79v19.08h-6.67v-26.22h8.46v-3.05h-9.07v-6.81h25.66v6.81h-9.35v3.05h8.18v18.05c.05,4.93-1.55,6.72-5.88,6.67h-2.3v6.77h-7.24v-24.34Zm8.74,10.71v-10.71h-1.5v10.71h1.5Z"/></svg>