<?xml version="1.0" encoding="UTF-8"?><svg id="aa" xmlns="http://www.w3.org/2000/svg" viewBox="0 0 150 150"><defs><style>.an{fill:#171c61;}.an,.ao,.ap{stroke-width:0px;}.ao{fill:#fff;}.ap{fill:#1c2a54;}</style></defs><rect class="ao" x="2.52" y="1.6" width="147" height="147" rx="20.74" ry="20.74"/><path class="ap" d="m128.78,3.1c10.61,0,19.24,8.63,19.24,19.24v105.53c0,10.61-8.63,19.24-19.24,19.24H23.25c-10.61,0-19.24-8.63-19.24-19.24V22.34C4.02,11.73,12.65,3.1,23.25,3.1h105.53m0-3H23.25C10.97.1,1.02,10.06,1.02,22.34v105.53c0,12.28,9.96,22.24,22.24,22.24h105.53c12.28,0,22.24-9.96,22.24-22.24V22.34C151.02,10.06,141.06.1,128.78.1h0Z"/><path class="an" d="m28.56,17.4h17.06v5.64h-17.06v-5.64Zm1.22,20.4h14.85v11.04c0,2.49-1.5,3.71-4.79,3.81h-10.06v-14.85Zm.38-13.58h14.33v5.59h-14.33v-5.59Zm0,6.86h14.33v5.45h-14.33v-5.45Zm.14-20.26h14.19v5.22h-14.19v-5.22Zm8.37,35.77v-3.1h-2.96v3.1h2.96Zm7.05-.14c9.59.33,15.32-2.26,18.89-8.41h7.57c-1.88,5.45-4.51,8.69-9.26,11.51-3.99,2.3-9.92,3.67-16.17,3.67h-1.03v-6.77Zm13.25-29.89c-3.95,4.75-6.2,6.53-12.74,10.01v-7.8c4.14-2.21,7.43-5.31,9.21-8.6h6.96c2.21,3.85,4.65,6.06,9.63,8.79v8.22c-8.37-5.12-9.87-6.3-13.06-10.62Zm-11.7,11.89c4.28-.66,7.1-2.49,9.54-6.16h7.05c-.94,3.95-2.68,6.34-6.67,9.02-3.62,2.35-6.91,3.57-9.92,3.67v-6.53Zm0,9.12c7.75-.52,12.08-3.2,14.43-8.88h7.47c-2.07,6.49-6.39,11.19-12.36,13.44-3.95,1.55-6.77,2.16-9.54,2.07v-6.63Z"/><path class="an" d="m103.42,47.29h3.43v-3.71h-9.78v-8.13l-1.79.71c-.24,8.69-3.9,14.48-10.48,16.4v-8.88c2.12-1.5,3.01-3.34,3.01-5.92,0-.66,0-.94-.05-1.6l-2.96,2.35v-7.75l2.87-2.16v-2.63l-2.87-1.93v-7.9l2.87,1.79v-5.59h15.42v-2.63h8.41v2.63h16.4v5.26h-13.77l-.24,1.79h13.68v4.37h-13.68c2.12,1.83,2.49,2.11,4.46,3.05l1.22-2.11h7l-2.35,4.09c1.79.56,2.07.66,3.67.89v6.34c-1.74-.23-2.02-.28-3.62-.75v4.37c-.09,2.77-1.22,3.81-4.23,3.95h-5.73v6.02c.05,2.82-1.22,3.81-4.98,3.85h-5.92v-6.16Zm-6.86-2.35h7.33c-1.08,2.73-1.74,4.04-3.57,7.24h-7.61c2.16-3.43,2.82-4.65,3.85-7.24Zm9.87-25.57l.33-1.79h-11.33v1.79h11Zm-8.51,8.98l-2.16-3.52h6.34l.71.71c.85-.56,1.13-.85,1.88-1.79h-9.26v5.4c1.13-.33,1.32-.38,2.49-.8Zm18.85,6.72v-1.32h-12.74v1.32h12.74Zm0,4.23v-1.32h-12.74v1.32h12.74Zm-4.56-9.16c-1.22-.99-1.36-1.17-2.4-2.16-1.03,1.18-1.22,1.36-2.35,2.16h4.75Zm4.18,14.8h7.75c1.64,3.76,2.11,4.61,3.76,7.24h-8.46c-1.74-3.85-2.02-4.46-3.05-7.24Z"/><path class="an" d="m19.45,88.57c1.95-1.25,2.65-2.54,3.16-5.73.23-1.64.58-7.76.58-10.73v-1.68h-4.06v-5.97h6.4v-4.25h6.08v4.25h5.42v5.97h-8.23v2.73h7.1v13.88c.04,4.29-.62,5.97-2.85,7.33-1.4.7-2.81.9-6.36.9v-5.54c-1.6,3.2-3.67,4.84-7.25,5.81v-6.98Zm8.5.51c1.95,0,2.54-.51,2.5-2.03v-8.27h-1.64c-.2,5.03-.7,7.68-1.91,10.3h1.05Zm17.94.86c-2.03,2.46-5.42,4.45-9.13,5.46v-6.71c3.16-1.29,4.06-1.87,5.66-3.9-1.44-2.96-1.95-4.41-2.5-7.29-1.21,1.72-1.44,1.95-2.89,3.31v-9.44c2.03-2.18,3.9-7.18,4.21-11.27h6.24c-.43,2.3-.51,2.61-1.13,4.68h8.42v5.81h-1.48c-.7,6.47-1.83,10.33-3.98,14.04,1.83,1.91,2.81,2.57,5.46,3.74v7.22c-3-.66-6.55-2.93-8.89-5.66Zm1.6-19.34h-3.78c.43,3.71,1.09,6.2,2.14,8.35.66-1.68,1.17-4.25,1.64-8.35Z"/><path class="an" d="m59.93,89.47c1.99-.97,4.29-2.92,5.66-4.84l-5.3.35v-5.3h1.83v-16.19h4.6l.98-3.24h6.04l-.94,3.24h5.03v5.81h2.54v-1.64h7.45v-7.41h5.93v7.41h2.57v5.77h-2.57v17.43c.04,3.51-1.37,4.76-5.34,4.84h-4.95v-5.62h4.37v-16.65h-7.45v-3l-2.54,4.64v16.22c.16,2.85-1.48,4.29-4.88,4.41h-4.52v-5.62h3.82v-4.95c-3,4.25-7.88,8.54-12.32,10.8v-6.47Zm12.32-20.24v-1.68h-4.45v1.68h4.45Zm0,4.95v-1.6h-4.45v1.6h4.45Zm0,4.72v-1.36h-4.45v1.79l4.45-.43Zm8.62,3.28v-6.04c2.53.78,3.59,1.21,5.77,2.34v6.4c-2.26-1.37-3.43-1.91-5.77-2.69Z"/><path class="an" d="m106.53,80.22h-5.19v-4.84h2.03l1.29-2.18-3.35-4.72c-.27-.39-.43-.82-.43-1.21,0-.35.12-.7.35-1.25l2.92-6.2h5.97l-3.55,7.1.82,1.36,2.92-5.58h5.73l-4.88,9.24h3.08l2.03,4.52v1.83c-.04,1.25-.98,1.95-2.57,1.91h-2.18v15.13h-4.99v-15.13Zm-5.03,4.1l-.04-2.26h4.06c0,3-.23,7.41-.55,9.83h-4.06c.47-3.51.58-5.15.58-7.57Zm9.95-8.93l-.97-2.15-1.17,2.15h2.14Zm1.13,6.67h3.9v9.09h-3.9v-9.09Zm9.71,7.8h2.22v-4.06c-1.64,3-5.03,7.06-7.37,8.81v-7.37c1.99-1.95,2.38-2.46,3.28-4.29h-3.28v-5.07h7.37v-1.52h-6.63v-14.51h5.77l.74-2.03h6.08l-.58,2.03h6.55v10.1c.08,2.77-1.33,4.21-4.25,4.41h-1.99v3.08l7.29-3.51v5.93l-3.67.97c1.79,2.77,2.42,3.47,4.17,4.91v6.63c-3.78-2.26-6.32-5.07-7.8-8.54v5.15c.16,2.85-1.29,4.25-4.45,4.37h-3.47v-5.5Zm8.31-22.62v-1.52h-7.33v1.52h7.33Zm0,5.03v-1.75h-7.33v1.75h7.33Z"/><path class="an" d="m34.43,138.69h3.62v-7.94l-4.79.8v-7.19l4.79-.56v-6.53h-4.79v-7h4.79v-7.75h7.52v7.75h3.52v6.81h-3.52v5.64l3.57-.66v6.72l-3.57.61v10.67c-.05,3.38-2.58,5.36-6.86,5.41h-4.28v-6.77Zm13.77-.8c4.23-1.27,5.87-2.07,9.26-4.51-3.15-4.28-4.18-6.25-5.55-10.62h-1.74v-6.39h8.41v-3.34h-8.55v-6.53h8.55v-4h7.8v4h9.31v6.53h-9.17v3.34h7.9v6.39c-1.97,4.37-3.95,7.61-6.53,10.67,3.62,2.44,5.03,3.15,8.55,4.28v7.71c-5.73-1.74-10.48-4.18-13.54-6.86-4.14,4-8.46,6.16-14.71,7.29v-7.94Zm17.67-15.13h-6.44c.94,2.54,1.55,3.62,3.06,5.69,1.74-2.02,2.26-2.91,3.38-5.69Z"/><path class="an" d="m81.01,107.01h3.99l1.22-4.32h7.71l-1.36,4.32h5.03v11.04c.09,3.48-1.36,4.93-4.84,4.98h-4.37v2.02h9.49v12.13c.05,5.08-1.46,6.58-6.49,6.44h-10.39v-36.61Zm9.92,10.06v-4.51h-2.54v4.51h2.54Zm0,19.27v-5.36h-2.54v5.36h2.54Zm16.68-16.17h-1.79v19.08h-6.67v-26.22h8.46v-3.05h-9.07v-6.81h25.66v6.81h-9.35v3.05h8.18v18.05c.05,4.94-1.55,6.72-5.88,6.67h-2.3v6.77h-7.24v-24.34Zm8.74,10.72v-10.72h-1.5v10.72h1.5Z"/></svg>