<?xml version="1.0" encoding="UTF-8"?><svg id="af" xmlns="http://www.w3.org/2000/svg" viewBox="0 0 150 150"><defs><style>.an{fill:#8da59a;}.an,.ao{stroke-width:0px;}.ao{fill:#fff;}</style></defs><rect class="ao" x="1.5" y="1.91" width="147" height="147" rx="20.74" ry="20.74"/><path class="an" d="m127.76,3.41c10.61,0,19.24,8.63,19.24,19.24v105.53c0,10.61-8.63,19.24-19.24,19.24H22.24c-10.61,0-19.24-8.63-19.24-19.24V22.65C3,12.04,11.63,3.41,22.24,3.41h105.53m0-3H22.24C9.96.41,0,10.37,0,22.65v105.53c0,12.28,9.96,22.24,22.24,22.24h105.53c12.28,0,22.24-9.96,22.24-22.24V22.65c0-12.28-9.96-22.24-22.24-22.24h0Z"/><path class="an" d="m26.53,37.79h-2.44v-7.21h5.99v-9.33h8.96v9.33h5.09v-10.92h9.38v2.23h17.17v6.52h-17.17v2.17h18.97v7.21h-2.07v21.99c.05,6.25-1.43,7.58-8.37,7.58H26.53v-29.57Zm34.92,21.89v-21.89h-26.28v21.89h26.28Zm-16.43-5.3c-3.44,2.54-5.3,3.5-7.9,4.08v-6.31c2.17-.53,2.92-.9,5.04-2.6h-5.04v-5.35h2.38l-2.01-5.19h5.62l1.91,5.03v-5.03h7.05v4.93l2.23-4.93h6.04l-2.7,5.19h2.01v5.35h-4.29c.26.21.58.42.9.69,1.33.9,1.75,1.17,3.39,1.91v6.31c-2.6-.69-3.87-1.43-7.58-4.45v4.56h-7.05v-4.19Z"/><path class="an" d="m86.26,56.55c-2.49,4.08-3.66,5.41-6.68,7.68v-11.76c2.76-2.91,4.45-6.25,5.56-10.7h-5.62v-7.9h6.73v-4.77c-2.23.11-3.6.16-4.5.16-.48,0-1.17,0-2.07-.05v-7.21c8.59-.21,10.76-.32,19.87-1.27v7.31l-2.23.16-2.44.21v5.46h4.82v7.9h-4.82v2.07c2.38,1.91,2.7,2.23,5.03,4.29v11.23c-2.33-2.54-2.7-2.92-5.03-5.19v14.36h-8.64v-11.98Zm29.89,1.38l-15.1.69v-8.37l15.1-.69v-29.46h8.53v29.09l4.13-.16v8.37l-4.13.16v11.13h-8.53v-10.76Zm-14.36-28.25v-8.64c7.1,1.75,8.64,2.23,12.14,3.71v8.85c-3.76-1.43-4.77-1.75-12.14-3.92Zm0,11.92v-8.21c5.19,1.22,7.95,2.07,12.14,3.82v8.9c-3.92-1.8-5.03-2.17-12.14-4.5Z"/><path class="an" d="m6.5,126.12h4.08v-8.96l-5.41.9v-8.11l5.41-.64v-7.37h-5.41v-7.9h5.41v-8.74h8.48v8.74h3.97v7.68h-3.97v6.36l4.03-.74v7.58l-4.03.69v12.03c-.05,3.82-2.91,6.04-7.74,6.09h-4.82v-7.63Zm15.53-.9c4.77-1.43,6.62-2.33,10.44-5.09-3.55-4.82-4.72-7.05-6.25-11.98h-1.96v-7.21h9.49v-3.76h-9.64v-7.37h9.64v-4.5h8.8v4.5h10.49v7.37h-10.33v3.76h8.9v7.21c-2.23,4.93-4.45,8.58-7.37,12.03,4.08,2.76,5.67,3.55,9.64,4.82v8.69c-6.46-1.96-11.82-4.72-15.26-7.74-4.66,4.5-9.54,6.94-16.59,8.21v-8.96Zm19.93-17.06h-7.26c1.06,2.86,1.75,4.08,3.44,6.41,1.96-2.28,2.54-3.29,3.82-6.41Z"/><path class="an" d="m52.08,121.3h19.45v-24.64h-16.85v-9.01h42.82v9.01h-16.22v24.64h18.87v9.06h-48.07v-9.06Z"/><path class="an" d="m101,123.1h17.01v-16.8h-19.08v-8.53h19.08v-11.98h10.07v11.98h18.87v8.53h-18.87v16.8h16.69v8.74h-43.77v-8.74Z"/></svg>