<?xml version="1.0" encoding="UTF-8"?>
<svg id="_レイヤー_22" data-name="レイヤー_22" xmlns="http://www.w3.org/2000/svg" viewBox="0 0 150 150">
  <defs>
    <style>
      .cls-1 {
        fill: #fff;
      }

      .cls-2 {
        fill: #636db2;
      }
    </style>
  </defs>
  <rect class="cls-2" y="-.29" width="150" height="150" rx="22.24" ry="22.24"/>
  <g>
    <path class="cls-1" d="M18.28,53.74h16.13c14.98,0,20.22-5.63,20.09-21.44v-8.58H15.79v-10.69h40.83c.06,6.34,3.39,9.86,9.47,10.18v12.48c-.13,19.58-9.41,28.54-29.89,28.61h-17.92v-10.56ZM58.15,13.94c0-4.16,3.46-7.49,7.68-7.49s7.42,3.46,7.42,7.49-3.39,7.55-7.55,7.55-7.55-3.39-7.55-7.55ZM68.58,13.94c0-1.6-1.34-2.88-2.94-2.88s-2.88,1.34-2.88,2.88,1.34,2.94,2.88,2.94c1.66,0,2.94-1.28,2.94-2.94Z"/>
    <path class="cls-1" d="M83.31,9.52h11.01v42.62h6.21c17.28-.51,21.76-6.4,22.46-29.31h11.65c-.64,13.63-2.88,22.53-7.17,29.12-6.14,8.77-13.06,11.26-31.55,11.46h-12.61V9.52Z"/>
    <path class="cls-1" d="M25.19,123.98v-18.81h-10.69v-9.73h10.69v-9.66h10.88v9.66h30.08v11.9c0,9.6-5.82,14.78-16.25,14.59h-6.85v-9.6h5.63c4.61-.06,6.27-1.34,6.27-4.99v-2.18h-18.88v17.34c-.06,6.08.96,6.85,8.58,6.78h21.76v10.24h-21.76c-15.36,0-19.33-3.2-19.45-15.55ZM52.52,83.67h5.95v9.85h-5.95v-9.85ZM60.39,83.67h6.08v9.85h-6.08v-9.85Z"/>
    <path class="cls-1" d="M82.15,128.4h17.92c7.62-.06,13.82-1.09,16.83-2.82,4.67-2.3,7.55-7.3,7.62-13.18v-21.57h11.39v19.26c-.06,11.2-3.01,18.24-9.73,23.23-5.63,4.35-12.74,6.02-26.3,6.14h-17.73v-11.07ZM82.67,96.85v-11.33c11.39,2.94,23.61,6.59,29.31,8.77v11.52c-9.92-3.39-20.99-6.78-29.31-8.96Z"/>
  </g>
</svg>