<?xml version="1.0" encoding="UTF-8"?>
<svg id="_レイヤー_44" data-name="レイヤー_44" xmlns="http://www.w3.org/2000/svg" viewBox="0 0 150 150">
  <defs>
    <style>
      .cls-1 {
        fill: #6a5e77;
      }

      .cls-2 {
        fill: #fff;
      }
    </style>
  </defs>
  <rect class="cls-1" x=".35" y=".71" width="150" height="150" rx="22.24" ry="22.24"/>
  <g>
    <path class="cls-2" d="M3.64,55.77h4.22v-7.1l-4.22.77v-7.73l4.22-.43v-6.96H3.21v-6.96h4.66v-7.06h7.92v7.06h3.98v6.96h-3.98v5.86l4.27-.67v6.96l-4.27.77v8.98c.14,5.28-1.68,6.86-8.02,7.01H3.64v-7.44ZM22.17,41.9h23.57v14.26c0,5.42-1.54,6.67-7.97,6.62h-15.6v-20.88ZM22.27,32.35v-12.38h7.59v4.42c5.57-.58,6.48-.67,15.6-2.21v6.14c-3.98,1.06-8.64,1.73-15.6,2.3v3.12h8.26c4.85-.05,5.66-.24,8.98-2.21v7.06c-1.87,1.58-2.98,1.82-9.41,1.97h-5.95c-7.63.05-9.55-1.63-9.46-8.21ZM37.77,49.53v-2.35h-7.82v2.35h7.82ZM37.77,56.73v-2.59h-7.82v2.59h7.82Z"/>
    <path class="cls-2" d="M53.13,55.58c3.55-1.58,5.14-5.42,5.52-13.2h7.83l-.24,2.02-.43,3.7-.19,1.82c1.49,2.3,2.45,2.98,5.66,4.03v-14.4h-12.62v-6.1h-4.66v-9.94h16.99v-3.7h8.59v3.7h16.61v9.98h-4.03v6.05h-12.77v3.98h12.72v6.91h-12.72v5.09h17.47v7.34h-18.72c-6.53.05-11.42-1.78-15.51-5.9-2.16,3.74-4.66,5.57-9.5,7.01v-8.4ZM87.93,33.16v-2.93h-25.63v2.93h25.63Z"/>
    <path class="cls-2" d="M119.32,56.59c5.14-1.63,6.72-2.45,9.5-4.85-2.06-3.41-2.45-4.27-3.74-8.4-2.11,2.11-2.78,2.59-4.56,3.5v4.51c-2.02-2.45-2.3-2.78-4.37-4.8v16.9h-7.35v-12.91c-2.06,3.79-3.02,4.99-5.81,7.3v-12.1c3.07-3.26,4.66-6.19,5.71-10.51h-5.18v-7.2h5.28v-7.97h7.35v7.97h4.37v7.2h-4.37v2.5c2.11,1.58,2.45,1.82,4.37,3.36v-2.69c2.54-2.35,4.08-4.66,4.66-7.15h7.01c-.58,2.78-2.11,6.05-4.08,8.78h3.36c.77,2.93,1.1,3.79,2.35,5.62,1.2-2.02,1.73-3.17,2.5-5.62h2.3c-2.26-2.93-3.12-5.04-3.7-8.78h6.62c.72,2.98,1.87,4.51,4.7,6.48v8.98c-1.82-1.25-2.11-1.44-3.6-2.64-1.15,2.93-2.02,4.56-3.84,7.44,2.54,2.4,4.46,3.46,8.3,4.46v8.59c-5.86-1.63-8.93-3.36-13.3-7.49-5.81,4.51-8.88,6.14-14.5,7.49v-7.97ZM120.76,23.23h9.12v-3.31h7.54v3.31h8.88v6.43h-25.54v-6.43Z"/>
    <path class="cls-2" d="M9.47,130.15h6.57v-10.92l-6.57.94v-10.18l6.57-.8v-9.45h-6.57v-9.45h6.57v-10.65h10.59v10.65h4.96v9.45h-4.96v7.64l4.96-1.07v9.58l-4.96,1.41v13.13c.13,6.57-3.02,9.58-9.85,9.58h-7.3v-9.85ZM35.94,106.63l-3.28,3.55v-16.01c3.22-3.75,5.23-7.97,6.7-14.14h10.72l-2.28,7.24h3.95l2.14-7.24h11.46l-3.02,7.24h8.31v9.45h-9.31v4.42h7.71v8.98h-7.71v4.56h7.71v9.11h-7.71v5.43h9.78v9.51h-35.18v-32.09ZM51.35,101.14v-4.42h-5.23v4.42h5.23ZM51.35,114.67v-4.56h-5.23v4.56h5.23ZM51.35,129.21v-5.43h-5.23v5.43h5.23Z"/>
    <path class="cls-2" d="M125.05,140.47v-.67h-5.16l-1.14-8.11h7.1l.6,2.55c2.41,0,2.61-.27,2.68-4.29h-33.63l2.68-15.54h-3.95c-.13,8.24-.6,13.06-1.54,14.94-2.14,5.16-7.57,9.51-12.8,10.25v-12.46c2.61-1,3.08-3.22,3.08-14.14v-18.89h20.97v-1.94h-10.25v-2.61h-13.8v-7.24h13.8v-3.02h10.92v3.02h11.19v-3.02h11.05v3.02h13.67v7.24h-13.67v2.61h-10.85v1.94h24.52v6.63h-15.81v1.67h15.81v6.97c0,3.48-1.41,4.96-4.62,5.03h-26.8l-.33,1.74h31.76v6.37h-32.5l-.33,1.67h32.83c-.13,7.37-.54,10.12-1.74,12.13-1.67,2.88-4.89,4.29-9.78,4.29-.54,0-.94,0-3.95-.13ZM92.02,131.69h7.57c-.27,2.81-.67,4.69-1.47,8.11h-8.98c1.61-3.55,2.21-5.36,2.88-8.11ZM98.85,102.41v-1.67h-4.29v1.67h4.29ZM98.85,108.84v-1.67h-4.29v1.67h4.29ZM100.53,131.69h7.57l.8,8.11h-7.44l-.94-8.11ZM115.8,91.76v-2.21h-11.19v2.21h11.19ZM114.26,102.41v-1.67h-4.96v1.67h4.96ZM114.26,108.84v-1.67h-4.96v1.67h4.96ZM109.84,131.69h7.04l1.21,8.11h-7.37l-.87-8.11ZM129.2,108.84v-1.67h-4.49v1.67h4.49Z"/>
  </g>
</svg>