<?xml version="1.0" encoding="UTF-8"?>
<svg id="_レイヤー_1" data-name="レイヤー_1" xmlns="http://www.w3.org/2000/svg" viewBox="0 0 160.04 160.07">
  <defs>
    <style>
      .cls-1 {
        fill: #ccc;
      }
    </style>
  </defs>
  <path class="cls-1" d="M130.04,65.02c0,14.35-4.66,27.6-12.5,38.36l39.58,39.61c3.91,3.91,3.91,10.25,0,14.16-3.91,3.91-10.25,3.91-14.16,0l-39.58-39.61c-10.75,7.88-24.01,12.5-38.36,12.5C29.1,130.04,0,100.94,0,65.02S29.1,0,65.02,0s65.02,29.1,65.02,65.02ZM65.02,110.04c24.86,0,45.01-20.15,45.01-45.01s-20.15-45.01-45.01-45.01-45.01,20.15-45.01,45.01,20.15,45.01,45.01,45.01Z"/>
</svg>