<?xml version="1.0" encoding="UTF-8"?><svg id="z" xmlns="http://www.w3.org/2000/svg" viewBox="0 0 150 150"><defs><style>.an{fill:#fff;}.an,.ao,.ap{stroke-width:0px;}.ao{fill:#537834;}.ap{fill:#527534;}</style></defs><rect class="an" x="1.5" y="1.6" width="147" height="147" rx="20.74" ry="20.74"/><path class="ao" d="m127.76,3.1c10.61,0,19.24,8.63,19.24,19.24v105.53c0,10.61-8.63,19.24-19.24,19.24H22.24c-10.61,0-19.24-8.63-19.24-19.24V22.34C3,11.73,11.63,3.1,22.24,3.1h105.53m0-3H22.24C9.96.1,0,10.06,0,22.34v105.53c0,12.28,9.96,22.24,22.24,22.24h105.53c12.28,0,22.24-9.96,22.24-22.24V22.34C150,10.06,140.04.1,127.76.1h0Z"/><path class="ap" d="m19.1,40.65v14.96h-2.36v4.32h2.36v5.64H3.98V31.37h15.44v5.52h-2.68v3.76h2.36Zm-7.68,0v-3.76h-1.76v3.76h1.76Zm1.76,9.6v-4.32h-3.52v4.32h3.52Zm-1.76,9.68v-4.36h-1.76v4.36h1.76Zm18-29.64l-.76,2.64h11.36v5.08h-13.52c-.4.68-.56.92-1.04,1.64h13.6v6.52c0,1.04-.36,2.04-.96,2.64-.56.56-1.72.96-3.6.96h-12.6v-6.32l-2,1.36v-7.76c1.52-1.56,3.12-4.48,3.36-6.76h6.16Zm-9.04,20.96h9.24v15.04h-9.24v-15.04Zm5.24,9.52v-4.4h-1.08v4.4h1.08Zm7.28-15.2v-2.04h-5.36v2.04h5.36Zm-2.36,5.68h9.44v11c0,3.12-1.36,4.04-3.88,4.04h-5.56v-15.04Zm5.2,9.52v-4.4h-1.12v4.4h1.12Z"/><path class="ap" d="m38.86,57.65c1.56-.96,1.96-1.92,2-4.64v-20.08h14.36v-3.12h7.28v3.12h13.6v5.88h-28.68v13.32c-.08,8.08-2.2,11.68-8.56,14.48v-8.96Zm19.28-.28c-3.28,4.08-6.12,6.16-11.08,8.12v-7.68c3.44-1.32,7.28-4.8,9.32-8.4h-7.84v-5.72h9.6v-3.8h6.84v3.8h10.68v5.72h-8.88c3.16,4.36,5.64,6.6,9.56,8.4v7.68c-4.84-1.88-7.52-3.84-11.36-8.2v9.32h-6.84v-9.24Z"/><path class="ap" d="m75.58,57.81h14.68v-18.6h-12.72v-6.8h32.31v6.8h-12.24v18.6h14.24v6.84h-36.27v-6.84Z"/><path class="ap" d="m120.02,60.41h6.4v-2.76h-14.88v-5.76h14.88v-2.84c3-.92,3.84-1.28,5.56-2.2h-16.44v-3.52h-3.44v-8.4h4.08l-2.12-4.8h6.6l2.16,4.8h3.24l-2.08-4.8h6.88l2,4.8h2.72l2.76-4.8h7.72l-2.68,4.8h3.64v8.56h-3.04v3.6c-5.32,2.44-6.04,2.76-10.2,4.56v.24h14.04v5.76h-14.04v2.32c.16,5-1.4,6.52-6.8,6.56h-6.96v-6.12Zm20.24-18.52v-1.84h-21.28v1.84h21.28Z"/><path class="ap" d="m31.83,120.58h3.62v-7.94l-4.79.8v-7.19l4.79-.56v-6.53h-4.79v-7h4.79v-7.75h7.52v7.75h3.52v6.81h-3.52v5.64l3.57-.66v6.72l-3.57.61v10.67c-.05,3.38-2.58,5.36-6.86,5.41h-4.28v-6.77Zm13.77-.8c4.23-1.27,5.87-2.07,9.26-4.51-3.15-4.28-4.18-6.25-5.55-10.62h-1.74v-6.39h8.41v-3.34h-8.55v-6.53h8.55v-4h7.8v4h9.31v6.53h-9.17v3.34h7.9v6.39c-1.97,4.37-3.95,7.61-6.53,10.67,3.62,2.44,5.03,3.15,8.55,4.28v7.71c-5.73-1.74-10.48-4.18-13.54-6.86-4.14,4-8.46,6.16-14.71,7.29v-7.94Zm17.67-15.13h-6.44c.94,2.54,1.55,3.62,3.06,5.69,1.74-2.02,2.26-2.91,3.38-5.69Z"/><path class="ap" d="m78.41,88.9h3.99l1.22-4.32h7.71l-1.36,4.32h5.03v11.04c.09,3.48-1.36,4.93-4.84,4.98h-4.37v2.02h9.49v12.13c.05,5.08-1.46,6.58-6.49,6.44h-10.39v-36.61Zm9.92,10.06v-4.51h-2.54v4.51h2.54Zm0,19.27v-5.36h-2.54v5.36h2.54Zm16.68-16.17h-1.79v19.08h-6.67v-26.22h8.46v-3.05h-9.07v-6.81h25.66v6.81h-9.35v3.05h8.18v18.05c.05,4.93-1.55,6.72-5.88,6.67h-2.3v6.77h-7.24v-24.34Zm8.74,10.72v-10.72h-1.5v10.72h1.5Z"/></svg>