<?xml version="1.0" encoding="UTF-8"?><svg id="am" xmlns="http://www.w3.org/2000/svg" viewBox="0 0 150 150"><defs><style>.an{fill:#464d9e;}.an,.ao{stroke-width:0px;}.ao{fill:#fff;}</style></defs><rect class="ao" x="1.5" y="1.5" width="147" height="147" rx="20.74" ry="20.74"/><path class="an" d="m127.76,3c10.61,0,19.24,8.63,19.24,19.24v105.53c0,10.61-8.63,19.24-19.24,19.24H22.24c-10.61,0-19.24-8.63-19.24-19.24V22.24C3,11.63,11.63,3,22.24,3h105.53m0-3H22.24C9.96,0,0,9.96,0,22.24v105.53c0,12.28,9.96,22.24,22.24,22.24h105.53c12.28,0,22.24-9.96,22.24-22.24V22.24c0-12.28-9.96-22.24-22.24-22.24h0Z"/><path class="an" d="m28.97,59.85h5.09v-7.42c-4.13,5.67-6.25,7.84-10.65,10.97v-10.7c3.29-2.33,5.99-4.93,8-7.63l-7.47-2.54v-7.47l8.27,2.38v6.31c1.27-2.17,1.48-2.76,1.85-5.19v-5.56h-10.12v-7.15h10.12v-6.62h7.63v6.62h2.33l-1.27-5.41h6.78l1.06,5.41h.79v7.15h-9.7v6.31c.64,1.54.79,1.8,1.75,3.55v-5.99l7.74-2.6v8.06l-6.62,2.01c1.96,2.54,4.61,5.19,6.41,6.36v11.66c-3.97-3.23-6.36-6.15-9.27-11.34v11.39c-.32,3.44-2.33,4.93-6.46,4.88h-6.25v-7.42Zm33.49-1.17c-4.56,5.14-6.25,6.47-10.76,8.43v-8.8c2.65-1.43,4.66-3.39,6.57-6.57-1.59-3.55-2.17-5.19-2.97-8.53-1.27,1.96-1.48,2.23-3.18,3.97v-12.35c2.6-4.77,3.66-8.06,4.82-15.37h7.42c-.48,3.34-.69,4.66-1.27,7.05h9.8v7.74h-2.07c-.42,6.15-2.07,12.51-4.45,17.54,1.8,2.76,3.55,4.24,6.52,5.62v10.23c-4.77-2.44-7.53-4.82-10.44-8.96Zm1.06-24.43h-3.18c.37,3.5.69,4.88,1.7,7.63.96-3.13,1.27-4.56,1.48-7.63Z"/><path class="an" d="m82.39,45.81h33.92v-2.17h-33.92v-5.99h33.92v-2.49h-32.17c-1.91.64-2.81.85-4.77,1.22v-8c5.67-1.7,10.33-5.35,12.19-9.59h10.23l-1.01,2.17h19.93v5.09l-3.07,3.5h7.79v14.79c-.11,5.41-2.6,7.47-8.69,7.26h-34.34v-5.78Zm1.32,8.53h8.21c-.69,4.24-2.17,9.22-3.6,12.03h-8.96c1.11-2.01,3.18-7.79,4.35-12.03Zm23.11-24.8l2.12-2.38h-13.04l-2.38,2.38h13.3Zm-13.09,31.8v-8.37h8.85v7.53h17.28c2.92-.11,5.62-.95,7.95-2.49v7c-1.48,1.59-3.39,2.17-7.47,2.28h-18.18c-6.78-.16-8.48-1.38-8.43-5.94Zm10.97-7.68h7.68l2.23,5.14h-8.06l-1.85-5.14Zm10.71,0h8l2.07,5.14h-7.63l-2.44-5.14Z"/><path class="an" d="m9.89,124.6h5.09v-7.42c-4.13,5.67-6.25,7.84-10.65,10.97v-10.7c3.29-2.33,5.99-4.93,8-7.63l-7.47-2.54v-7.47l8.27,2.38v6.31c1.27-2.17,1.48-2.76,1.85-5.19v-5.56H4.86v-7.15h10.12v-6.62h7.63v6.62h2.33l-1.27-5.41h6.78l1.06,5.41h.79v7.15h-9.7v6.31c.64,1.54.79,1.8,1.75,3.55v-5.99l7.74-2.6v8.06l-6.62,2.01c1.96,2.54,4.61,5.19,6.41,6.36v11.66c-3.97-3.23-6.36-6.15-9.27-11.34v11.39c-.32,3.45-2.33,4.93-6.46,4.88h-6.25v-7.42Zm33.49-1.17c-4.56,5.14-6.25,6.46-10.76,8.43v-8.8c2.65-1.43,4.66-3.39,6.57-6.57-1.59-3.55-2.17-5.19-2.97-8.53-1.27,1.96-1.48,2.23-3.18,3.97v-12.35c2.6-4.77,3.66-8.05,4.82-15.37h7.42c-.48,3.34-.69,4.66-1.27,7.05h9.8v7.74h-2.07c-.42,6.15-2.07,12.51-4.45,17.54,1.8,2.76,3.55,4.24,6.52,5.62v10.23c-4.77-2.44-7.53-4.82-10.44-8.96Zm1.06-24.43h-3.18c.37,3.5.69,4.88,1.7,7.63.96-3.13,1.27-4.56,1.48-7.63Z"/><path class="an" d="m52.13,96.35c8.8-2.76,14.41-6.41,18.76-12.24h10.23c4.56,5.67,11.66,10.17,18.71,11.82v8.8c-5.25-1.27-6.89-1.8-10.55-3.6v2.65h-27.61v-2.38c-3.5,1.7-5.41,2.38-9.54,3.55v-8.58Zm2.38,9.86h19.29v14.2c-.05,5.67-1.75,7.37-7.58,7.31h-11.71v-21.52Zm11.66,13.57v-5.83h-3.92v5.83h3.92Zm14.63-23.85c-1.96-1.7-2.28-2.07-5.14-5.03-1.64,2.01-2.7,3.07-4.77,5.03h9.91Zm-4.08,10.28h21.67v13.73c.05,5.46-1.59,7.21-6.84,7.37h-6.36v5.62h-8.48v-26.71Zm13.04,14.04v-6.89h-4.56v6.89h4.56Z"/><path class="an" d="m101,122.69h17.01v-16.8h-19.08v-8.53h19.08v-11.98h10.07v11.98h18.87v8.53h-18.87v16.8h16.69v8.74h-43.77v-8.74Z"/></svg>