<?xml version="1.0" encoding="UTF-8"?><svg id="ad" xmlns="http://www.w3.org/2000/svg" viewBox="0 0 150 150"><defs><style>.an{fill:#fff;}.an,.ao{stroke-width:0px;}.ao{fill:#8f3632;}</style></defs><rect class="an" x="2.24" y="2.38" width="147" height="147" rx="20.74" ry="20.74"/><path class="ao" d="m128.51,3.88c10.61,0,19.24,8.63,19.24,19.24v105.53c0,10.61-8.63,19.24-19.24,19.24H22.98c-10.61,0-19.24-8.63-19.24-19.24V23.12C3.74,12.51,12.37,3.88,22.98,3.88h105.53m0-3H22.98C10.7.88.74,10.84.74,23.12v105.53c0,12.28,9.96,22.24,22.24,22.24h105.53c12.28,0,22.24-9.96,22.24-22.24V23.12c0-12.28-9.96-22.24-22.24-22.24h0Z"/><path class="ao" d="m25.84,29.68h47.96v6.41H25.84v-6.41Zm4.03,22.2h39.27v8.9c.21,5.09-1.59,6.84-6.84,6.84H29.87v-15.74Zm1.59-30.74h36.62v7.05H31.46v-7.05Zm0,16.64h36.51v5.3H31.46v-5.3Zm0,7h36.51v5.35H31.46v-5.35Zm28.78,16.27v-2.65h-21.67v2.65h21.67Z"/><path class="ao" d="m98.93,29.36v6.2h-18.81v-6.2h18.81Zm-.95,22.68v10.12c0,4.88-1.22,6.25-5.56,6.25h-10.81v-16.38h16.38Zm-.64-29.94v5.99h-15.37v-5.99h15.37Zm.05,15.05v5.99h-15.42v-5.99h15.42Zm0,7.58v5.94h-15.42v-5.94h15.42Zm-6.04,17.01v-3.34h-3.02v3.34h3.02Zm13.35-20.67l.69-3.55h-4.5v-7.05h5.94l.37-2.33h-7.05v-6.78h27.98v6.78h-12.61l-.42,2.33h10.92v10.6h3.82v6.89h-30.79v-6.89h5.67Zm22.15,8.37v11.23c0,5.99-1.43,7.42-7.42,7.42h-18.34v-18.65h25.75Zm-8.58,11.87v-5.51h-8.74v5.51h8.74Zm-.26-20.24v-3.55h-4.45l-.69,3.55h5.14Z"/><path class="ao" d="m16.36,128.4c-5.3.9-6.89,1.11-10.02,1.38v-7.37l1.85-.16v-29.15h-1.8v-7.21h18.07v7.21h-1.48v39.8h-6.62v-4.5Zm0-31.21v-4.08h-1.8v4.08h1.8Zm0,12.03v-5.14h-1.8v5.14h1.8Zm0,11.98v-4.66h-1.8v4.98l1.8-.32Zm9.7-5.14h6.62c-.42,5.78-1.22,10.7-2.49,14.79h-6.89c1.22-4.56,2.12-9.54,2.76-14.79Zm-1.17-19.4h10.28v-1.96h-10.02v-7h10.02v-3.23h8.21v3.23h11.71v7h-11.66v1.96h10.65v11.18c.16,4.72-1.54,6.36-6.57,6.46h-22.63v-17.65Zm8.48,11.18v-4.93h-1.59v4.93h1.59Zm.16,18.81v-11.5h7.15v10.02h7.95c3.55-.05,5.25-.64,6.84-2.38v7.74c-1.85,1.38-3.23,1.75-6.78,1.8h-8.53c-4.77,0-6.68-1.7-6.62-5.67Zm6.68-18.81v-4.93h-1.75v4.93h1.75Zm.79,8.21h5.51l1.59,7.05h-5.67l-1.43-7.05Zm6.2-8.21v-4.93h-1.8v4.93h1.8Zm.26,8.21h5.83l1.7,7.05h-5.62l-1.91-7.05Z"/><path class="ao" d="m52.93,125.9c7.26-.32,9.54-1.17,12.77-4.88h-7.68v-21.46h-4.29v-10.17h5.3l-2.54-4.13h10.12l2.54,4.13h4.29l-2.6-4.13h10.07l2.28,4.13h3.07l2.76-4.13h10.17l-2.65,4.13h4.82v10.17h-3.97v14.2c.05,4.56-2.6,7.15-7.42,7.26h-1.96v4.29h6.57c4.24-.16,5.78-.69,6.84-2.33v8.74c-1.8,1.11-3.34,1.43-6.84,1.48h-9.01c-4.72-.11-6.25-1.38-6.25-5.14v-7.05h-3.5c-3.44,8.43-10.81,12.61-22.89,12.98v-8.11Zm39.43-28.72v-1.7h-29.62v1.7h29.62Zm-4.03,6.31v-1.43h-21.3v1.43h21.3Zm0,5.72v-1.64h-21.3v1.64h21.3Zm0,5.88v-1.7h-21.3v1.7h21.3Z"/><path class="ao" d="m102.22,123.57h17.01v-16.8h-19.08v-8.53h19.08v-11.98h10.07v11.98h18.87v8.53h-18.87v16.8h16.69v8.74h-43.77v-8.74Z"/></svg>