<?xml version="1.0" encoding="UTF-8"?>
<svg id="_レイヤー_19" data-name="レイヤー_19" xmlns="http://www.w3.org/2000/svg" viewBox="0 0 150 150">
  <defs>
    <style>
      .cls-1 {
        fill: #fff;
      }

      .cls-2 {
        fill: #69331a;
      }
    </style>
  </defs>
  <rect class="cls-2" y=".01" width="150" height="150" rx="22.24" ry="22.24"/>
  <g>
    <path class="cls-1" d="M22.57,59.01c-3.58-1.52-5.54-4.51-5.54-8.28,0-2.2.78-4.75,1.96-6.32.69-.88,1.03-1.22,3.33-3.38l-14.5.93v-6.47c3.92-1.42,13.92-6.12,21.56-10.19l-17.1.15v-7.74l32.58-.25v8.38l-15.38,7.5,19.75-.64v7.5l-6.12.2c-5.39.1-8.72.64-11.32,1.81-3.14,1.42-5.34,4.31-5.34,6.96,0,1.22.88,2.4,2.11,2.74,1.03.29,3.38.49,6.37.49,3.87,0,8.33-.29,12.3-.78v8.67c-8.23.34-8.72.34-12.89.34-6.22,0-8.92-.34-11.76-1.62Z"/>
    <path class="cls-1" d="M76.22,51.95c4.7-.15,6.86-.88,8.62-3.09,1.76-2.11,2.84-6.17,2.84-10.58,0-3.82-.83-7.06-2.35-9.31-1.03-1.52-2.25-2.21-4.9-2.6-1.91,12.2-2.55,15.53-4.12,20.82-1.32,4.46-2.6,6.96-4.41,8.57-1.62,1.47-3.67,2.35-5.58,2.35-3.19,0-6.86-2.01-9.11-4.9-2.3-3.04-3.72-8.04-3.72-13.28,0-4.8,1.13-9.36,3.28-12.84,3.72-6.17,10.09-9.21,19.21-9.21,13.38,0,20.19,6.91,20.19,20.48,0,7.74-2.5,14.26-6.76,17.74-3.19,2.6-7.06,3.72-12.74,3.72h-.44v-7.89ZM68.29,45.73c1.03-3.23,2.79-12.2,3.82-19.79-3.43.54-5.1,1.27-6.81,3.14-2.25,2.45-3.58,6.57-3.58,11.07,0,4.9,1.57,8.28,3.87,8.28,1.18,0,2.11-.93,2.69-2.69Z"/>
    <path class="cls-1" d="M102.05,40.54c-1.32,1.18-1.57,1.37-3.87,3.18v-11.32c3.92-3.82,6.81-9.8,7.84-16.22h8.23c-.88,4.8-2.11,8.38-4.61,13.47v30.92h-7.59v-20.04ZM114.15,52.64v-16.46l-2.89.29v-7.4l2.89-.34v-10h7.55v9.06l2.35-.34v-10.63h7.15v9.85l10.73-1.37v15.83c.15,5.1-2.3,7.25-8.18,7.06h-1.52v-7.06h1.91v-7.4l-2.94.44v15.88h-7.15v-14.99l-2.35.25v17.15h13.62c3.67-.2,5.73-.93,8.04-2.99v7.99c-1.62,1.62-4.21,2.45-7.55,2.5h-13.57c-5.83-.1-8.23-2.25-8.08-7.3Z"/>
    <path class="cls-1" d="M15.01,126.17h6.23v-10.37l-6.23.89v-9.67l6.23-.76v-8.97h-6.23v-8.97h6.23v-10.11h10.05v10.11h4.71v8.97h-4.71v7.25l4.71-1.02v9.09l-4.71,1.34v12.47c.13,6.23-2.86,9.09-9.35,9.09h-6.93v-9.35ZM40.13,103.84l-3.12,3.37v-15.2c3.05-3.56,4.96-7.57,6.36-13.42h10.18l-2.16,6.87h3.75l2.04-6.87h10.88l-2.86,6.87h7.89v8.97h-8.84v4.2h7.31v8.52h-7.31v4.32h7.31v8.65h-7.31v5.15h9.29v9.03h-33.39v-30.46ZM54.76,98.63v-4.2h-4.96v4.2h4.96ZM54.76,111.47v-4.32h-4.96v4.32h4.96ZM54.76,125.27v-5.15h-4.96v5.15h4.96Z"/>
    <path class="cls-1" d="M122.18,135.96v-.64h-4.9l-1.08-7.7h6.74l.57,2.42c2.29,0,2.48-.25,2.54-4.07h-31.93l2.54-14.75h-3.75c-.13,7.82-.57,12.4-1.46,14.18-2.04,4.9-7.19,9.03-12.15,9.73v-11.83c2.48-.95,2.93-3.05,2.93-13.42v-17.93h19.91v-1.84h-9.73v-2.48h-13.1v-6.87h13.1v-2.86h10.37v2.86h10.62v-2.86h10.49v2.86h12.97v6.87h-12.97v2.48h-10.3v1.84h23.28v6.3h-15.01v1.59h15.01v6.61c0,3.31-1.33,4.71-4.39,4.77h-25.44l-.32,1.65h30.15v6.04h-30.84l-.32,1.59h31.16c-.13,7-.51,9.6-1.65,11.51-1.59,2.73-4.64,4.07-9.29,4.07-.51,0-.89,0-3.75-.13ZM90.82,127.63h7.19c-.25,2.67-.64,4.45-1.4,7.7h-8.52c1.53-3.37,2.1-5.09,2.74-7.7ZM97.31,99.83v-1.59h-4.07v1.59h4.07ZM97.31,105.94v-1.59h-4.07v1.59h4.07ZM98.9,127.63h7.19l.76,7.7h-7.06l-.89-7.7ZM113.4,89.72v-2.1h-10.62v2.1h10.62ZM111.94,99.83v-1.59h-4.71v1.59h4.71ZM111.94,105.94v-1.59h-4.71v1.59h4.71ZM107.74,127.63h6.68l1.14,7.7h-7l-.83-7.7ZM126.12,105.94v-1.59h-4.26v1.59h4.26Z"/>
  </g>
</svg>