<?xml version="1.0" encoding="UTF-8"?><svg id="ag" xmlns="http://www.w3.org/2000/svg" viewBox="0 0 150 150"><defs><style>.an{fill:#e03440;}.an,.ao{stroke-width:0px;}.ao{fill:#fff;}</style></defs><rect class="ao" x="1.5" y="1.62" width="147" height="147" rx="20.74" ry="20.74"/><path class="an" d="m127.76,3.12c10.61,0,19.24,8.63,19.24,19.24v105.53c0,10.61-8.63,19.24-19.24,19.24H22.24c-10.61,0-19.24-8.63-19.24-19.24V22.35C3,11.75,11.63,3.12,22.24,3.12h105.53m0-3H22.24C9.96.12,0,10.07,0,22.35v105.53c0,12.28,9.96,22.24,22.24,22.24h105.53c12.28,0,22.24-9.96,22.24-22.24V22.35C150,10.07,140.04.12,127.76.12h0Z"/><path class="an" d="m17,51.4c0-15.3.41-20.94,2.79-39.64h11.42c-2.24,16.79-2.92,24.55-2.92,33.52,0,14.55.13,17.2,1.22,25.09h-11.69c-.68-7.89-.82-11.02-.82-18.97Zm16.73,7.14c0-4.42,2.52-8.98,6.12-10.95,2.18-1.16,5.71-1.9,9.25-1.9.75,0,1.9.07,3.4.2v-13.19h-17.68v-10.47h17.68v-10.88h11.35v10.54h10.81v10.81h-10.68v3.6l.07,8.91.07,3.4c7.21,2.72,8.43,3.2,11.83,5.1v12.99c-4.76-3.4-7.34-4.9-11.76-6.8-.21,3.33-.75,4.9-2.04,6.6-2.52,2.99-6.73,4.69-12.03,4.69-9.59,0-16.39-5.24-16.39-12.65Zm19.17-.54c0-1.97-1.56-3.13-4.28-3.13-2.38,0-3.88,1.22-3.88,3.2s1.36,3.26,3.4,3.26c3.2,0,4.76-1.09,4.76-3.33Z"/><path class="an" d="m84.11,59.96h14.96c10.47,0,14.21-1.09,18.02-5.37,2.52-2.79,3.94-7.48,3.94-12.78,0-3.6-.48-8.98-1.02-10.95-.61-2.31-2.24-3.88-4.22-3.88-1.02,0-2.18.68-3.47,2.24-1.22,1.43-2.31,3.06-8.43,12.71-6.87,10.88-7.68,11.42-15.71,11.63h-3.74V12.3h11.97v22.37c11.76-18.09,13.87-20.19,20.81-20.19,5.98,0,10.2,2.58,12.58,7.62,1.9,4.15,3.33,12.37,3.33,19.04,0,10.88-2.72,18.22-8.7,23.53-3.13,2.72-7.14,4.69-12.31,5.92-3.33.82-6.46,1.09-12.31,1.09h-15.71v-11.69Z"/><path class="an" d="m46.17,90.4h5.78l1.77-6.25h11.15l-1.97,6.25h7.28v15.98c.14,5.03-1.97,7.14-7,7.21h-6.32v2.92h13.74v17.54c.07,7.34-2.11,9.52-9.38,9.31h-15.03v-52.97Zm14.35,14.55v-6.53h-3.67v6.53h3.67Zm0,27.88v-7.75h-3.67v7.75h3.67Zm24.14-23.39h-2.58v27.61h-9.66v-37.94h12.24v-4.42h-13.12v-9.86h37.12v9.86h-13.53v4.42h11.83v26.11c.07,7.14-2.24,9.72-8.5,9.66h-3.33v9.79h-10.47v-35.22Zm12.65,15.5v-15.5h-2.18v15.5h2.18Z"/></svg>