<?xml version="1.0" encoding="UTF-8"?>
<svg id="_レイヤー_16" data-name="レイヤー_16" xmlns="http://www.w3.org/2000/svg" viewBox="0 0 150 150">
  <defs>
    <style>
      .cls-1 {
        fill: #fff;
      }

      .cls-2 {
        fill: #38122c;
      }
    </style>
  </defs>
  <rect class="cls-2" y=".27" width="150" height="150" rx="22.24" ry="22.24"/>
  <g>
    <path class="cls-1" d="M10.76,54.28c-2.76,2.23-3.29,2.6-6.94,4.98v-11.02c4.56-2.65,8.8-6.84,12.29-12.14H4.67v-8.37h6.68v-7.42h8.64v7.42h6.15v7.05c-1.7,2.97-2.7,4.45-5.09,7.79,2.7,1.64,3.23,2.01,6.31,4.24v10.44c-3.18-2.81-4.66-3.92-7.79-5.94v17.65h-8.8v-14.68ZM23.74,59.79h10.71v-16.64h-7.15v-8.27h7.15v-13.57h8.53v13.57h7.74v8.27h-7.74v16.64h9.11v8.16h-28.35v-8.16Z"/>
    <path class="cls-1" d="M58.67,38.96c-3.07,1.06-4.35,1.43-7.9,2.23v-8.11c8.11-2.33,13.88-5.78,20.3-12.08h9.49c2.23,2.97,4.13,4.45,9.22,7.31,3.97,2.17,6.46,3.18,9.86,3.97v9.33c-3.18-.9-4.82-1.48-7.84-2.76v3.71h-33.12v-3.6ZM52.52,60.85l6.25-.11,3.55-7.05h-9.59v-7.74h44.99v7.74h-25.44l-3.71,7c9.59-.58,11.39-.74,15-1.54l-1.8-3.29h9.11c4.45,7.05,5.62,9.06,7.53,12.72h-9.59l-1.22-2.65c-7.31,2.23-12.88,2.7-35.08,3.02v-8.11ZM83.74,34.77c-3.13-1.91-4.93-3.29-8.37-6.36-3.23,2.86-5.04,4.19-8.48,6.36h16.85Z"/>
    <path class="cls-1" d="M132.39,60.9c-5.46-4.98-7.74-8.48-10.55-16.32-3.71,11.92-12.24,20.3-24.43,23.95v-10.44c6.84-2.17,11.76-6.78,15.63-14.47,2.33-4.82,3.5-11.13,3.5-19.18v-3.18h9.38v3.23c.05,8.27,1.7,15.1,4.98,20.83,3.02,5.46,10.12,11.61,14.89,12.98v10.28c-4.88-1.38-8.74-3.6-13.41-7.68Z"/>
    <path class="cls-1" d="M13.86,122.98c11.51-2.8,18.83-12.53,19.52-26.01h5.53v-8.39h-11.26v-9.92h21.62v9.41c.06,8.2,2.99,17.74,7.12,23.34,3.56,4.9,7.31,7.5,15.9,11.13v11.83c-15.07-4.52-25.82-14.25-29.57-26.97-3.18,13.67-15.2,24.87-28.87,26.97v-11.38Z"/>
    <path class="cls-1" d="M77.02,87.3h20.22v7.5h-20.22v-7.5ZM78.17,114.27h18.13v12.4c.13,5.98-1.72,7.82-7.57,7.63h-10.56v-20.03ZM78.74,96.84h17.04v7h-17.04v-7ZM78.74,105.62h17.04v7.12h-17.04v-7.12ZM78.99,78.52h16.73v7.31h-16.73v-7.31ZM88.72,125.97v-3.88h-2.67v3.88h2.67ZM116.2,104.41v7.31h-3.82v9.22l5.6-.76v9.79c-9.16,1.46-12.53,1.84-19.53,2.54v-10.37l4.58-.19v-10.24h-4.52v-9.03h17.43l-.38-3.31-.32-2.42h-16.66v-9.41h15.58c-.32-3.75-.38-3.94-.7-10.11h10.05c.19,3.62.19,3.94.7,10.11h11.07v9.41h-10.43c.95,7.31,2.1,13.99,3.24,18.19,1.78,6.61,3.43,8.78,7.63,9.73v11.07c-11.83-1.84-15.33-7.5-19.53-31.54ZM124.47,77.7h7.89c1.08,2.8,1.59,4.33,2.48,7.7h-8.4c-.83-3.62-1.08-4.58-1.97-7.7Z"/>
  </g>
</svg>