<?xml version="1.0" encoding="UTF-8"?>
<svg id="_レイヤー_13" data-name="レイヤー_13" xmlns="http://www.w3.org/2000/svg" viewBox="0 0 150 150">
  <defs>
    <style>
      .cls-1 {
        fill: #3b3390;
      }

      .cls-2 {
        fill: #fff;
      }
    </style>
  </defs>
  <rect class="cls-1" y="-.84" width="150" height="150" rx="22.24" ry="22.24"/>
  <g>
    <path class="cls-2" d="M17.1,51.67c-1.65,1.53-1.97,1.78-4.07,3.31v-13.67c5.53-5.53,8.97-12.34,10.75-21.56h10.56c-1.53,8.27-3.43,13.99-6.87,20.86v37.78h-10.37v-26.71ZM29.44,67.38c6.17-.83,9.03-4.39,9.48-11.83h-8.33v-9.73h8.33v-6.74h-5.98v-9.67h5.98l-3.24-9.03h11.51l2.8,9.03h4.58l3.43-9.03h12.27l-4.26,9.03h4.13v9.67h-3.88v6.74h6.61v9.73h-6.61v22.2h-11v-22.2h-5.66c-.51,13.42-6.8,20.42-20.16,22.58v-10.75ZM55.26,45.82v-6.74h-5.66v6.74h5.66Z"/>
    <path class="cls-2" d="M91.97,69.41h2.48v-13.16h-5.79v-24.29h5.6l.95-2.93h-7.63v20.73c-.32,7-1.02,10.81-2.35,13.55-2.04,4.39-5.28,7.57-8.46,8.4v-12.85c1.53-2.74,1.78-3.75,1.91-9.09v-29.06h31.1v8.33h-5.41l-.83,2.93h5.92v18.76c0,4.26-1.34,5.53-5.85,5.53h-.57v14.56c.06,5.02-1.97,7.06-7.19,7.06h-3.88v-8.46ZM86.82,59.62h6.17c-.45,4.07-1.53,10.05-2.35,13.29h-7c1.65-5.91,2.48-9.29,3.18-13.29ZM101.19,41.62v-2.1h-4.83v2.1h4.83ZM101.19,49.51v-2.35h-4.83v2.35h4.83ZM104.81,68.65c-.25-1.84-.57-3.75-.83-6.04-.19-1.14-.19-1.21-.45-3.5h5.66c1.53,8.33,1.97,10.62,2.54,12.72h-6.49c-.25-1.59-.25-1.65-.45-3.18ZM113.27,69.29h-1.59v-37.27h6.42l.76-2.99h-7.63v-8.33h25.63v8.33h-8.52l-.89,2.99h7.82v30.65c.06,4.13-.64,5.6-2.93,6.17,1.21,2.54,1.72,3.69,2.23,4.9.64,1.27.95,1.97,2.1,4.2h-9.35c-1.14-2.54-1.59-3.69-3.18-8.65h-2.16c-.95,3.62-1.46,5.34-2.67,8.65h-10.05c2.67-4.9,3.05-5.72,4.01-8.65ZM125.93,42.13v-2.42h-5.72v2.42h5.72ZM125.93,51.92v-2.93h-5.72v2.93h5.72ZM125.93,61.97v-2.99h-5.72v2.99h5.72Z"/>
    <path class="cls-2" d="M78.16,129.49h9.03v-36.51h-41.4v-9.73h58.19v9.73h-5.85v38.29c.06,5.21-2.8,8.2-7.89,8.2h-12.08v-9.99ZM49.67,98.58h30.91v22.9c0,5.22-2.8,7.95-8.27,8.01h-22.64v-30.91ZM70.15,119.38v-11.58h-10.43v11.58h10.43Z"/>
  </g>
</svg>