<?xml version="1.0" encoding="UTF-8"?><svg id="r" xmlns="http://www.w3.org/2000/svg" viewBox="0 0 150 150"><defs><style>.an{fill:#fff;}.an,.ao{stroke-width:0px;}.ao{fill:#e74a45;}</style></defs><rect class="an" x="1.5" y="1.93" width="147" height="147" rx="20.74" ry="20.74"/><path class="ao" d="m127.76,3.43c10.61,0,19.24,8.63,19.24,19.24v105.53c0,10.61-8.63,19.24-19.24,19.24H22.24c-10.61,0-19.24-8.63-19.24-19.24V22.66C3,12.06,11.63,3.43,22.24,3.43h105.53m0-3H22.24C9.96.43,0,10.38,0,22.66v105.53c0,12.28,9.96,22.24,22.24,22.24h105.53c12.28,0,22.24-9.96,22.24-22.24V22.66c0-12.28-9.96-22.24-22.24-22.24h0Z"/><path class="ao" d="m23.54,87.3h-9.54v-9.48h10.49v-13.1h-8.14v-9.79h8.14v-9.92h11.07v9.92h14.75v-9.92h11.13v9.92h8.78v9.79h-8.78v13.1h10.49v9.48h-8.9c1.53,3.82,3.62,7.44,8.27,14.12h-13.55c-2.35-4.39-3.24-6.3-6.74-14.12h-15.58c-2.67,5.79-4.07,8.27-7.7,14.12h-13.36c3.18-3.82,5.34-7.19,9.16-14.12Zm26.78-9.48v-13.1h-14.75v13.1h14.75Z"/><path class="ao" d="m77.35,90.93c3.12-1.08,5.41-3.69,5.53-6.49v-10.94h-5.53v-9.41h15.96v19.72c0,4.52,5.09,7.7,11.96,7.5h29.7v8.84h-30.91c-7.31.06-11.07-1.4-14.82-5.92-2.35,4.01-5.72,6.3-11.89,8.14v-11.45Zm1.4-35.68v-10.62c7.06,1.27,9.79,1.84,14.75,3.12v10.88c-7.38-1.97-10.11-2.61-14.75-3.37Zm40.13,31.35h-9.22v-6.55h-4.01v8.84h-9.03v-32.37h5.72l-2.1-2.99h10.88l2.48,2.8,5.28-3.88h-22.45v-7.76h36.57v7.5l-6.36,4.32h6.61v24.61c0,6.17-2.35,8.27-9.16,7.95h-5.21v-2.48Zm-9.22-21.31v-2.42h-4.01v2.42h4.01Zm0,8.71v-2.48h-4.01v2.48h4.01Zm13.55-8.71v-2.42h-4.07v2.42h4.07Zm0,8.71v-2.48h-4.07v2.48h4.07Zm0,8.46v-2.42h-4.07v2.42h4.07Z"/></svg>