<?xml version="1.0" encoding="UTF-8"?>
<svg id="_レイヤー_45のコピー" data-name="レイヤー_45のコピー" xmlns="http://www.w3.org/2000/svg" viewBox="0 0 150 150">
  <defs>
    <style>
      .cls-1 {
        fill: #fff;
      }

      .cls-2 {
        fill: #d463a1;
      }
    </style>
  </defs>
  <rect class="cls-2" x="-.21" y="-.17" width="150" height="150" rx="22.24" ry="22.24"/>
  <g>
    <path class="cls-1" d="M8.81,27.95h61.24v11.46H8.81v-11.46Z"/>
    <path class="cls-1" d="M78.02,52.87c1.94-2.08,2.34-4.02,2.48-11.39v-3.55l-3.08.27v-9.18l3.02-.13V8.45h6.5l1.54-5.96h10.12l-1.94,5.96h8.38v18.22l1.74-.13v-5.49c2.34-2.01,3.02-3.28,3.22-6.16.07-.87.07-.94.13-5.63V3.82h25.26v15.88h1.68c1.14-.07,2.14-.8,3.62-2.75v10.65c-2.08,1.54-2.95,1.81-6.57,1.81h-2.28c-4.82.07-6.16-.67-6.23-3.42v-13.13h-6.36c-.2,6.83-.67,8.71-2.55,11.46-2.41,3.15-5.09,4.82-9.92,6.3v5.29l-1.74.27v17.42c.2,6.23-2.14,9.04-7.71,9.45h-5.29v-9.18h4.76v-17.29l-1.47.2v14.67h-5.16v-14.14l-1.07.13c0,9.18-.27,12.8-1.14,16.28-1.67,5.63-5.03,9.45-9.92,11.32v-12.19ZM96.78,27.61v-10.99h-7.71v11.66l7.71-.67ZM90.15,25.13v-7.37l5.03,1.74v7.71l-5.03-2.08ZM122.91,57.63c-5.56,3.48-9.78,4.96-17.08,6.03v-9.58c4.62-1,6.03-1.47,9.38-3.42-2.61-3.15-3.55-4.56-6.23-9.25h-1.41v-8.91h30.89v6.77c-1.61,3.55-4.76,8.31-7.71,11.59,3.42,1.47,5.09,2.01,9.51,3.08v10.25c-6.83-1.21-12.6-3.35-17.35-6.57ZM124.99,41.41h-5.63c1.34,1.94,1.61,2.28,3.08,3.69,1.41-1.54,1.61-1.81,2.55-3.69Z"/>
    <path class="cls-1" d="M8.74,126.71c12.13-2.95,19.83-13.2,20.57-27.4h5.83v-8.84h-11.86v-10.45h22.78v9.92c.07,8.64,3.15,18.69,7.5,24.59,3.75,5.16,7.71,7.91,16.75,11.72v12.46c-15.88-4.76-27.2-15.01-31.16-28.41-3.35,14.41-16.01,26.2-30.42,28.41v-11.99Z"/>
    <path class="cls-1" d="M77.96,89.12h21.31v7.91h-21.31v-7.91ZM79.16,117.53h19.1v13.07c.13,6.3-1.81,8.24-7.97,8.04h-11.12v-21.11ZM79.76,99.17h17.96v7.37h-17.96v-7.37ZM79.76,108.42h17.96v7.5h-17.96v-7.5ZM80.03,79.88h17.62v7.71h-17.62v-7.71ZM90.28,129.86v-4.09h-2.81v4.09h2.81ZM119.23,107.15v7.71h-4.02v9.71l5.9-.8v10.32c-9.65,1.54-13.2,1.94-20.57,2.68v-10.92l4.82-.2v-10.79h-4.76v-9.51h18.36l-.4-3.48-.33-2.55h-17.55v-9.92h16.42c-.33-3.95-.4-4.15-.74-10.65h10.59c.2,3.82.2,4.15.74,10.65h11.66v9.92h-10.99c1.01,7.71,2.21,14.74,3.42,19.16,1.88,6.97,3.62,9.25,8.04,10.25v11.66c-12.46-1.94-16.15-7.91-20.57-33.23ZM127.94,79.01h8.31c1.14,2.95,1.68,4.56,2.61,8.11h-8.84c-.87-3.82-1.14-4.82-2.08-8.11Z"/>
  </g>
</svg>