<?xml version="1.0" encoding="UTF-8"?><svg id="b" xmlns="http://www.w3.org/2000/svg" viewBox="0 0 150 150"><defs><style>.z{fill:#395a9b;}.z,.aa{stroke-width:0px;}.aa{fill:#fff;}</style></defs><rect class="z" x="-.47" y="1.47" width="150" height="150" rx="22.93" ry="22.93"/><path class="aa" d="m10.43,70.85v-10.71c10.91.27,17.34-2.28,20.55-8.17H11.36v-9.24h22.16l.13-2.48H14.64V10.34h52.08v20.82c.2,6.56-2.68,9.04-10.64,9.1h-10.31l-.13,2.48h23.56c-.27,10.98-1,19.21-1.94,20.55-2.01,4.55-5.42,6.23-12.32,6.16h-9.97v-10.04h7.1c4.42-.07,4.82-.67,4.89-7.43h-13.12c-1.67,4.55-3.01,6.69-6.29,9.84-6.02,5.82-14.73,9.1-24.23,9.1-.67,0-1.61,0-2.88-.07Zm24.43-49v-2.88h-9.17v2.88h9.17Zm0,10.11v-3.21h-9.17v3.21h9.17Zm20.42-10.11v-2.88h-10.04v2.88h10.04Zm0,10.11v-3.21h-10.04v3.21h10.04Z"/><path class="aa" d="m90.35,59.54h10.84v-12.52h-23.5v-10.44h23.5v-6.56c6.69-4.82,8.23-5.96,12.58-9.51h-30.06v-9.57h47.13v10.04c-2.41,1.74-4.55,3.28-5.62,4.08-2.48,1.67-4.95,3.41-7.43,5.15l-4.82,3.35v3.01h24.03v10.44h-24.03v11.71c.27,8.5-2.48,11.38-11.11,11.58h-11.51v-10.78Z"/><path class="aa" d="m62.51,133.4h6.9v-6.29h-18.07v-9.77c-3.88,1.34-4.55,1.54-7.63,2.54v-10.11c1.74-.54,2.08-.6,4.22-1.27l-3.75-6.69h10.38l1.54,2.74c1.94-1.34,2.34-1.61,4.62-3.68h-12.32v-5.15h-3.41v-11.71h23.09v-2.88h12.12v2.88h23.96v11.51h-4.89v5.36h-13.12c2.14,2.01,2.54,2.34,5.15,4.22,1.07-1.27,1.2-1.47,2.01-2.88h10.84c-1.27,2.41-2.28,3.82-4.75,6.83,2.41.87,2.74,1,5.15,1.74v9.44c-3.28-.87-5.22-1.54-8.3-3.08v4.22c-.27,4.22-2.08,5.69-6.96,5.76h-7.97v6.76c.07,6.23-2.81,8.84-9.64,8.84h-9.17v-9.3Zm-12.05-4.28h11.18c-2.21,6.56-2.68,7.56-5.35,12.12h-12.25c3.01-4.42,3.48-5.29,6.43-12.12Zm14.79-34.61l1.41-2.48h-10.71v2.48h9.3Zm20.02,18.27v-2.14h-23.09v2.14h23.09Zm0,7.56v-2.54h-23.09v2.54h23.09Zm-6.16-14.73c-2.34-2.21-2.61-2.54-4.55-4.75-2.01,2.41-2.34,2.81-4.42,4.75h8.97Zm13.52-11.11v-2.48h-13.46l-1.27,2.48h14.73Zm-5.56,34.61h11.11c.94,3.21,2.74,7.03,5.82,12.18h-12.52c-1.74-3.48-3.35-7.83-4.42-12.18Z"/></svg>