<?xml version="1.0" encoding="UTF-8"?>
<svg id="_レイヤー_9" data-name="レイヤー_9" xmlns="http://www.w3.org/2000/svg" viewBox="0 0 150 150">
  <defs>
    <style>
      .cls-1 {
        fill: #fff;
      }

      .cls-2 {
        fill: #1a873f;
      }
    </style>
  </defs>
  <rect class="cls-2" x=".53" y="1.47" width="150" height="150" rx="22.24" ry="22.24"/>
  <path class="cls-1" d="M63.08,96.45c-8.01,2.34-12.47,3.33-20.05,4.68v-11.97c3.19-.42,3.68-.5,6.31-.92v-11.34h-5.17v-11.12h5.17v-9.85h-6.52v-9.99h22.53v9.99h-5.53v9.85h4.6v11.12h-4.6v9.56c2.05-.5,2.48-.64,5.1-1.42v9.99h16.01v-4.18h-13.32v-9.28h13.32v-4.18h-13.11v-34.43h37.97v23.95c.14,7.44-2.91,10.49-10.27,10.49h-3.68v4.18h13.67v9.28h-13.67v4.18h16.22v9.85h-44.99v-8.43ZM80.93,55.93v-3.33h-2.76v3.33h2.76ZM80.93,68.25v-3.33h-2.76v3.33h2.76ZM94.89,55.93v-3.33h-3.05v3.33h3.05ZM94.89,68.25v-3.33h-3.05v3.33h3.05Z"/>
</svg>