<?xml version="1.0" encoding="UTF-8"?>
<svg id="_レイヤー_7" data-name="レイヤー_7" xmlns="http://www.w3.org/2000/svg" viewBox="0 0 150 150">
  <defs>
    <style>
      .cls-1 {
        fill: #fff;
      }

      .cls-2 {
        fill: #549bd4;
      }
    </style>
  </defs>
  <rect class="cls-2" x="1.65" y=".44" width="150" height="150" rx="22.24" ry="22.24"/>
  <g>
    <path class="cls-1" d="M11.34,51.67h24.01l1.33-4.76H9.94v-9.52h63.92v9.52h-24.5l-1.96,4.76h24.5v34.93c0,9.1-2.66,11.97-11.27,12.04H11.34v-46.98ZM27.72,88.56v-27.72h-5.25v27.72h5.25ZM46.06,64.55v-3.71h-7.98v3.71h7.98ZM46.06,76.38v-3.78h-7.98v3.78h7.98ZM46.06,88.56v-4.13h-7.98v4.13h7.98ZM60.97,88.56v-27.72h-5.18v27.72h5.18Z"/>
    <path class="cls-1" d="M79.8,89.61h6.16v-11.62l-7.21.91v-10.22l7.21-.91v-10.5h-6.65v-9.52h6.65v-11.13h10.57v11.13h5.46v9.52h-5.46v8.61l5.46-.77v9.87l-5.46.98v14.91c.28,5.88-2.31,8.26-9.17,8.54h-7.56v-9.8ZM102.48,91.22c5.46-.28,7.63-.56,12.11-1.26l-6.44-2.45c-1.12-.42-1.89-1.54-1.89-2.73,0-.7.21-1.61.7-2.94l1.54-3.92h-5.11v-9.1h9.1l1.96-4.55h-11.06v-8.75h7.07l-1.33-5.88h-4.06v-8.89h13.09v-4.41h10.71v4.41h13.23v8.89h-2.73l-2.45,5.88h6.58v8.75h-17.64l-1.96,4.55h19.95v9.1h-4.13c-1.4,3.43-2.17,4.97-4.48,8.61,4.13,1.26,4.69,1.47,8.26,2.8v10.71c-5.6-2.1-7.49-2.73-15.68-5.25-8.05,4.06-13.3,5.46-25.34,6.65v-10.22ZM128.1,77.92h-8.05l-1.89,3.78,7,1.82c1.68-2.45,1.89-2.87,2.94-5.6ZM126.56,55.52l2.03-5.88h-9.24l1.33,5.88h5.88Z"/>
  </g>
  <g>
    <path class="cls-1" d="M11.9,114.88h19.27v15.08c0,2.76-.97,3.43-4.6,3.43h-14.67v-18.51ZM27.13,129.87v-11.64h-11.27v11.64h11.27Z"/>
    <path class="cls-1" d="M33.8,130.54c.83,0,.99-.02,1.61-.07-.37-1.36-.44-1.54-.97-3.31h3.43c.55,1.98.55,2.02.8,3.08l.55-.07.87-3.01h3.22l-.85,2.62,1.24-.25v3.29c-2.78.67-5.29.97-9.91,1.22v-3.5ZM33.98,113.75h9.89v3.2h-9.89v-3.2ZM34.33,118.03h9.31v5.31c.02,2.28-.69,3.01-2.85,2.94h-6.46v-8.26ZM40.31,123.34v-2.3h-2.64v2.3h2.64ZM45.78,130.95h-1.13v-13.18h3.01l.25-.99h-3.47v-3.08h10.76v3.08h-3.63l-.41.99h3.33v10.32c0,1.95-.18,2.37-1.31,2.74.58,1.36.92,2.02,1.77,3.43h-4.16l-.37-.99-.8-2.32h-.39c-.46,1.77-.6,2.14-1.2,3.31h-4.16c1.2-1.66,1.49-2.21,1.91-3.31ZM50.91,121.57v-.97h-2.87v.97h2.87ZM50.91,124.81v-1.13h-2.87v1.13h2.87ZM50.91,128.17v-1.22h-2.87v1.22h2.87Z"/>
    <path class="cls-1" d="M56.76,117.13h7.31v2.71h-7.31v-2.71ZM57.17,126.88h6.55v4.48c.05,2.16-.62,2.83-2.74,2.76h-3.82v-7.24ZM57.38,120.58h6.16v2.53h-6.16v-2.53ZM57.38,123.75h6.16v2.58h-6.16v-2.58ZM57.47,113.96h6.05v2.64h-6.05v-2.64ZM60.99,131.11v-1.4h-.97v1.4h.97ZM70.92,123.32v2.64h-1.38v3.33l2.02-.28v3.54c-3.31.53-4.53.67-7.06.92v-3.75l1.66-.07v-3.7h-1.63v-3.27h6.3l-.14-1.2-.11-.87h-6.03v-3.4h5.63c-.11-1.36-.14-1.43-.25-3.66h3.63c.07,1.31.07,1.43.25,3.66h4v3.4h-3.77c.34,2.64.76,5.06,1.17,6.58.64,2.39,1.24,3.17,2.76,3.52v4c-4.28-.67-5.54-2.71-7.06-11.41ZM73.91,113.66h2.85c.39,1.01.57,1.56.9,2.78h-3.04c-.3-1.31-.39-1.66-.71-2.78Z"/>
    <path class="cls-1" d="M80.35,113.91h9.45v9.18h-6v11.54h-3.45v-20.72ZM86.38,117.66v-.87h-2.58v.87h2.58ZM86.38,120.63v-.99h-2.58v.99h2.58ZM85.83,124.19h9.31v6.55c.05,1.93-.78,2.64-3.04,2.6h-6.28v-9.15ZM91.62,129.96v-2.44h-2.51v2.44h2.51ZM95.21,131.07h1.77v-7.98h-5.93v-9.18h9.59v17.27c0,2.62-.85,3.29-3.82,3.29h-1.61v-3.4ZM96.98,117.66v-.87h-2.6v.87h2.6ZM96.98,120.63v-.99h-2.6v.99h2.6Z"/>
    <path class="cls-1" d="M102.8,117.89c3.73-.78,7.01-2.41,8.92-4.42h3.08c2.28,1.95,5.52,3.45,9.08,4.19v3.52c-1.7-.28-2.62-.51-4.53-1.17v1.13h-11.61v-1.08c-1.84.6-3.36.99-4.94,1.26v-3.43ZM104.64,126.81h6.71c1.77-.85,2.37-1.2,3.52-1.93h-10.16v-3.01h17.22v2.51c-1.22.8-1.45.94-4.37,2.44h4.94v4.83c0,2-.67,2.6-2.99,2.62h-14.88v-7.45ZM118.39,131.11v-1.54h-9.52v1.54h9.52ZM115.59,118.21c-.83-.51-1.24-.8-2.23-1.56-.76.67-1.17.97-2.12,1.56h4.35Z"/>
    <path class="cls-1" d="M131.3,133.16c-1.01-.8-1.29-1.36-1.43-2.78-1.1-.28-1.75-.6-2.39-1.17-.67-.62-1.1-1.66-1.1-2.58,0-1.03.48-2.37,1.1-3.1.71-.83,1.61-1.43,2.78-1.84v-1.82h-3.5v-3.36h3.5v-2.48h3.84v2.48h3.77v3.36h-3.77v1.4c1.15.44,1.63.81,2.09,1.61.37.6.55,1.31.55,2.05,0,1.1-.51,2.3-1.36,3.31-.3.34-.46.48-1.33,1.08.16.99.48,1.22,1.72,1.22,3.04,0,4.6-.11,5.24-.41.62-.28.87-.92.87-2.18,0-.58-.05-1.22-.25-3.01h3.89c.34,3.15.34,3.24.34,4.02,0,1.77-.74,3.27-2.02,4.05-1.26.78-2.9,1.03-6.46,1.03-3.89,0-5.24-.21-6.09-.87ZM132.75,125.16c0-.46-.3-.74-.78-.74-1.01,0-1.96.87-1.96,1.82,0,.3.23.6.51.67.21.05.37.07.48.07.85,0,1.75-.92,1.75-1.82ZM141.97,120.35l-.64-1.86c-.18-.53-.53-1.43-1.15-2.83h3.82c.71,1.47,1.72,4.07,2.21,5.61h-3.91c-.16-.46-.28-.76-.32-.92Z"/>
  </g>
</svg>