<?xml version="1.0" encoding="UTF-8"?>
<svg id="_レイヤー_10" data-name="レイヤー_10" xmlns="http://www.w3.org/2000/svg" viewBox="0 0 150 150">
  <defs>
    <style>
      .cls-1 {
        fill: #fff;
      }

      .cls-2 {
        fill: #c55592;
      }
    </style>
  </defs>
  <rect class="cls-2" x="-.59" y="-.59" width="150" height="150" rx="22.24" ry="22.24"/>
  <path class="cls-1" d="M57.28,54.01h-15.02v-10.13h15.02v-4.18h11.05v4.18h12.54v-4.18h11.62v4.18h14.67v10.13h-14.67v3.33h-11.62v-3.33h-12.54v3.33h-11.05v-3.33ZM42.27,92.55c1.56.07,3.4.07,4.18.07,4.89,0,8.15-.5,11.76-1.84,3.12-1.2,4.53-2.05,6.94-4.46h-22.39v-10.49h5.46v-14.17h20.69v-4.32h11.83v4.32h20.47v14.17h5.31v10.49h-23.38c4.89,4.11,11.19,6.31,18.28,6.31,1.13,0,2.83-.07,5.1-.28v11.62h-1.7c-13.39,0-21.54-2.48-30.89-9.42-8.43,6.87-17.5,9.56-31.1,9.56h-.57v-11.55ZM68.97,75.83v-4.75h-9.28v4.75h9.28ZM88.81,75.83v-4.75h-8.08v4.75h8.08Z"/>
</svg>