<?xml version="1.0" encoding="UTF-8"?>
<svg id="_レイヤー_4" data-name="レイヤー_4" xmlns="http://www.w3.org/2000/svg" viewBox="0 0 310.56 277.98">
  <defs>
    <style>
      .cls-1 {
        fill: #ca3b6b;
      }
    </style>
  </defs>
  <g id="_ロゴ" data-name="ロゴ">
    <g>
      <path class="cls-1" d="M110.13,44.92c-4.75,0-6.67,5.96-6.94,10.25h13.2c.03-4.42-1.33-10.25-6.27-10.25Z"/>
      <path class="cls-1" d="M152.02,74.06c2.9,0,5.4-2.35,6.18-6.34.21-.96.29-2.09.29-3.31v-8.31c0-.85-.02-1.88-.16-2.77-.62-3.73-2.9-6.88-6.22-6.88-5.14,0-7.59,6.29-7.59,14.03,0,8.51,2.96,13.58,7.5,13.58Z"/>
      <path class="cls-1" d="M206.6,202.38c-2.61,0-4.45.21-5.64.5v44.61c1.14.23,2.92.24,4.43.24,11.58.08,19.58-7.07,19.58-23.83.02-13.88-6.8-21.52-18.37-21.52Z"/>
      <path class="cls-1" d="M264.23,0H46.33C20.74,0,0,20.74,0,46.33v185.32c0,25.59,20.74,46.33,46.33,46.33h217.9c25.59,0,46.33-20.74,46.33-46.33V46.33c0-25.59-20.74-46.33-46.33-46.33ZM276.09,14.62h12v70.08h-12V14.62ZM248.06,45.21c-3.83,0-7.61,1.5-10.21,3.4l-2.2-9.41c2.63-1.82,7.86-4.17,14.68-4.17,13.03,0,16.59,9.82,16.59,20.78v17.32c0,4.41.18,8.69.62,11.59h-10.77l-.69-4.83h-.24c-2.49,3.84-6.3,5.83-10.7,5.83-7.55,0-12.27-6.83-12.27-14.86,0-12.72,9.34-18.49,22.02-18.5v-.76c0-2.96-1.36-6.39-6.85-6.38ZM220.56,35.09c3.07,0,6.3.72,8.44,1.73l-1.78,10.93c-1.32-.68-3.26-1.35-6.1-1.35-6.18,0-10.06,5.76-10.02,13.88,0,8.9,4.39,13.85,10.13,13.85,2.55,0,4.55-.55,6.25-1.42l1.3,10.87c-1.91,1.08-5.64,2.02-9.89,2.02-12.15,0-19.93-9.3-19.93-24.78,0-14.48,7.82-25.75,21.62-25.75ZM202.42,109.64c.03,4.2-2.49,7.41-6.35,7.41-3.63,0-6.14-3.21-6.11-7.41-.03-4.34,2.55-7.44,6.23-7.44s6.2,3.09,6.23,7.44ZM202.18,122.96v48.68h-11.91v-48.68h11.91ZM179.7,84.71v-48.68h12v48.68h-12ZM185.67,15.26c3.76,0,6.24,3.09,6.27,7.44.03,4.2-2.51,7.41-6.4,7.41-3.66,0-6.18-3.21-6.15-7.41-.03-4.34,2.57-7.44,6.27-7.44ZM148.89,35.02c4.55,0,7.86,2.14,9.43,5.32h.16V14.62h11.97v55.59c0,5.24.16,10.87.33,14.49h-10.55l-.54-6.64h-.18c-2.21,4.86-6.58,7.65-11.31,7.65-9.21,0-15.76-10.35-15.76-25-.04-16.53,7.73-25.69,16.46-25.69ZM110.79,35.02c11.71,0,16.67,11.06,16.67,23.91,0,2.89-.2,5.03-.41,6.23h-23.8c.3,6.67,4.97,9.6,10.48,9.6,3.88,0,7.09-.72,10.04-1.94l1.6,9.96c-3.73,1.84-8.51,2.82-13.5,2.82-12.82,0-20.1-9.35-20.1-24.53,0-13.57,6.57-26.07,19.01-26.07ZM32.16,17.67h15.09l5.11,22.96c1.68,7.93,3.3,16.05,4.46,23.82h.24c1.31-7.67,2.99-16.12,4.75-23.89l5.42-22.89h14.87l3.09,67.04h-11.41l-.9-24.98c-.26-7.61-.54-16.95-.49-26h-.22c-1.53,8.16-3.61,17.31-5.37,24.41l-6.19,25.48h-9.1l-5.55-25.2c-1.57-7.15-3.3-16.32-4.51-24.69h-.18c-.24,8.58-.57,18.36-.89,26.19l-1,24.79h-10.87l3.67-67.04ZM43.84,153.02v18.63h-10.8v-67.04h13.08l10.53,25.1c2.8,6.47,5.85,14.92,8.05,21.96l.2-.02c-.65-8.31-1.03-18.13-1.03-28.91v-18.13h10.8v67.04h-12.06l-10.75-25.72c-2.86-6.76-6.12-15.32-8.37-22.62l-.24.02c.36,8.24.59,17.98.59,29.69ZM84.85,255.88c-4.17,1.48-12.26,3.35-19.96,3.35-10.95,0-18.93-2.79-24.61-8.28-6.08-5.78-9.38-14.85-9.3-25.21.15-22.93,15.79-34.85,35.57-34.85,7.64,0,13.47,1.45,16.44,2.86l-2.91,11.87c-3.2-1.41-7.14-2.45-13.31-2.45-11.57,0-20.47,6.81-20.47,22.25,0,14.52,8.05,21.94,18.62,21.94,2.77,0,4.99-.32,6.01-.77v-14.7h-9.12v-11.48h23.05v35.46ZM84.12,151.85v-28.89h11.91v26.74c0,6.9,1.62,11.12,5.57,11.12,2.9,0,4.65-2.5,5.36-4.73.32-.9.5-2.15.5-3.49v-29.64h11.91v33.3c0,6,.16,11.18.33,15.38h-10.3l-.57-6.35h-.23c-1.65,3.09-5.22,7.35-11.47,7.35-7.96,0-13.01-6.38-13.01-20.8ZM146.34,230.26c0,19.66-9.34,29.33-25.61,29.33s-24.76-9.48-24.76-29.42v-38.63h14.63v40.05c0,11.06,4.01,16.1,10.48,16.1s10.64-4.74,10.64-16.1v-40.05h14.62v38.71ZM151.82,136.06c-.88-.22-1.79-.34-3.05-.34-3.86,0-6.96,2.64-7.89,7.45-.19,1-.3,2.35-.3,3.82v24.66h-11.91v-33.05c0-6.45-.13-11.33-.33-15.63h10.24l.48,8.45h.3c1.96-6.54,6.33-9.45,9.91-9.45,1.13,0,1.7.05,2.54.27v13.84ZM173.56,258.58h-14.62v-67.04h14.62v67.04ZM167.05,172.55c-4.64,0-9.09-1.33-11.77-3.23l2.14-10.42c2.05,1.54,6.28,3.3,9.62,3.3s5.04-1.53,5.04-4.12-1.25-3.85-5.5-5.92c-7.76-3.67-10.43-9.05-10.4-14.38,0-9.03,5.97-15.83,15.3-15.83,4.27,0,7.95,1.24,10.3,2.67l-2.07,10.15c-1.72-1.13-4.71-2.51-7.73-2.51s-4.53,1.62-4.53,3.99,1.39,3.51,5.93,5.77c7.06,3.42,9.94,8.26,9.97,14.88,0,9.36-5.82,15.65-16.31,15.65ZM229.73,251.21c-6.35,5.41-15.95,8.02-27.98,8.02-6.8,0-11.99-.45-15.38-.92v-65.83c4.91-.86,11.48-1.4,18.4-1.4,11.51,0,19.14,2.24,24.97,6.83,6.64,5.19,10.61,13.57,10.61,25.76,0,13.07-4.33,22.17-10.62,27.53ZM246.89,171.64h-11.91v-28.03c0-5.62-1.52-9.81-5.6-9.81-2.92,0-4.78,2.49-5.61,5.31-.31.96-.47,2.45-.47,3.97v28.55h-11.91v-33.4c0-5.84-.16-10.84-.33-15.28h10.3l.57,6.41h.23c1.74-3.36,5.63-7.42,11.54-7.42,7.98,0,13.19,6.86,13.19,20.15v29.54ZM291.19,137.75v27.3c0,9.69-1.56,16.76-5.7,21.33-2.57,2.78-5.78,4.39-9.32,5.17h11.69v12.08h-23.28v14.4h21.99v11.86h-21.99v16.61h24.63v12.08h-39.26v-67.04h14.32c-2.64-.55-5.09-1.44-7.03-2.68l2.32-11.03c2.36,1.57,6.17,3.16,10.38,3.16,5.72,0,9.5-3.98,9.5-12.51v-3.07h-.16c-2.05,3.71-5.58,5.84-9.69,5.84-9.57,0-15.55-10.41-15.55-23.66,0-15.85,7.61-25.64,16.69-25.64,4.78,0,7.97,2.66,9.85,6.57h.16l.46-5.56h10.34c-.19,3.54-.36,7.95-.36,14.79Z"/>
      <path class="cls-1" d="M273.3,133.26c-4.31,0-7.29,5.43-7.29,13.99,0,7.8,2.69,13.15,7.22,13.15,2.66,0,4.86-2.07,5.67-5.34.31-1.13.4-2.67.4-3.95v-8.93c0-1.06-.11-2.17-.3-3.03-.75-3.43-2.74-5.89-5.7-5.89Z"/>
      <path class="cls-1" d="M244.55,69.35c0,4.19,2.15,6.06,4.64,6.06,2.66,0,5.05-2.1,5.85-5.17.18-.74.23-1.63.23-2.48v-6.28c-5.67,0-10.71,1.78-10.71,7.87Z"/>
    </g>
  </g>
</svg>