<?xml version="1.0" encoding="UTF-8"?>
<svg id="_レイヤー_15" data-name="レイヤー_15" xmlns="http://www.w3.org/2000/svg" viewBox="0 0 150 150">
  <defs>
    <style>
      .cls-1 {
        fill: #395a2c;
      }

      .cls-2 {
        fill: #fff;
      }
    </style>
  </defs>
  <rect class="cls-1" y="-.84" width="150" height="150" rx="22.24" ry="22.24"/>
  <g>
    <path class="cls-2" d="M14.24,65.98c5.47-2.48,7.57-7.12,7.7-17.17h10.49c-.45,16.47-5.98,25.44-18.19,29.32v-12.15ZM15.39,29.73v-9.67c6.04,1.15,14.5,3.12,17.04,4.01v9.73c-2.93-1.14-11.32-3.18-17.04-4.07ZM15.39,43.21v-9.73c6.93,1.33,7.44,1.4,8.97,1.72,2.04.45,3.82.83,8.08,1.84v9.79c-5.98-1.46-14.25-3.24-17.04-3.62ZM31.1,68.71l4.52-.19V25.28h11.89v-5.02h10.37v5.02h11.83v17.3c.19,6.55-1.84,8.65-8.2,8.59h-7.95c1.34,2.92,2.23,4.39,4.2,6.74l2.35-4.64h11.07l-5.98,10.24c2.35,1.33,3.31,1.78,6.74,2.99v11.38c-4.39-1.27-7.19-2.61-12.72-5.92v4.01c-8.71,1.02-16.54,1.59-28.11,2.1v-9.35ZM59.46,35.39v-2.86h-13.48v2.86h13.48ZM59.46,44.04v-2.86h-13.48v2.86h13.48ZM53.29,67.38c-2.74-2.42-6.04-7.25-7.31-10.75v11.32l7.31-.57Z"/>
    <path class="cls-2" d="M119.7,67.89c-6.55-5.98-9.29-10.18-12.66-19.59-4.45,14.31-14.69,24.36-29.32,28.75v-12.53c8.2-2.61,14.12-8.14,18.76-17.36,2.8-5.79,4.2-13.36,4.2-23.02v-3.82h11.26v3.88c.06,9.92,2.04,18.13,5.98,25,3.62,6.55,12.15,13.93,17.87,15.58v12.34c-5.85-1.65-10.49-4.32-16.09-9.22Z"/>
    <path class="cls-2" d="M78.16,129.49h9.03v-36.51h-41.4v-9.73h58.19v9.73h-5.85v38.29c.06,5.21-2.8,8.2-7.89,8.2h-12.08v-9.99ZM49.67,98.58h30.91v22.9c0,5.22-2.8,7.95-8.27,8.01h-22.64v-30.91ZM70.15,119.38v-11.58h-10.43v11.58h10.43Z"/>
  </g>
</svg>