<?xml version="1.0" encoding="UTF-8"?>
<svg id="_レイヤー_21" data-name="レイヤー_21" xmlns="http://www.w3.org/2000/svg" viewBox="0 0 150 150">
  <defs>
    <style>
      .cls-1 {
        fill: #fff;
      }

      .cls-2 {
        fill: #80bf26;
      }
    </style>
  </defs>
  <rect class="cls-2" y="0" width="150" height="150" rx="22.24" ry="22.24"/>
  <g>
    <path class="cls-1" d="M22.57,68c-3.58-1.52-5.54-4.51-5.54-8.28,0-2.2.78-4.75,1.96-6.32.69-.88,1.03-1.22,3.33-3.38l-14.5.93v-6.47c3.92-1.42,13.92-6.12,21.56-10.19l-17.1.15v-7.74l32.58-.25v8.38l-15.38,7.5,19.75-.64v7.5l-6.12.2c-5.39.1-8.72.64-11.32,1.81-3.14,1.42-5.34,4.31-5.34,6.96,0,1.22.88,2.4,2.11,2.74,1.03.29,3.38.49,6.37.49,3.87,0,8.33-.29,12.3-.78v8.67c-8.23.34-8.72.34-12.89.34-6.22,0-8.92-.34-11.76-1.62Z"/>
    <path class="cls-1" d="M76.22,60.94c4.7-.15,6.86-.88,8.62-3.09,1.76-2.11,2.84-6.17,2.84-10.58,0-3.82-.83-7.06-2.35-9.31-1.03-1.52-2.25-2.21-4.9-2.6-1.91,12.2-2.55,15.53-4.12,20.82-1.32,4.46-2.6,6.96-4.41,8.57-1.62,1.47-3.67,2.35-5.58,2.35-3.19,0-6.86-2.01-9.11-4.9-2.3-3.04-3.72-8.04-3.72-13.28,0-4.8,1.13-9.36,3.28-12.84,3.72-6.17,10.09-9.21,19.21-9.21,13.38,0,20.19,6.91,20.19,20.48,0,7.74-2.5,14.26-6.76,17.74-3.19,2.6-7.06,3.72-12.74,3.72h-.44v-7.89ZM68.29,54.72c1.03-3.23,2.79-12.2,3.82-19.79-3.43.54-5.1,1.27-6.81,3.14-2.25,2.45-3.58,6.57-3.58,11.07,0,4.9,1.57,8.28,3.87,8.28,1.18,0,2.11-.93,2.69-2.69Z"/>
    <path class="cls-1" d="M102.05,49.53c-1.32,1.18-1.57,1.37-3.87,3.18v-11.32c3.92-3.82,6.81-9.8,7.84-16.22h8.23c-.88,4.8-2.11,8.38-4.61,13.47v30.92h-7.59v-20.04ZM114.15,61.63v-16.46l-2.89.29v-7.4l2.89-.34v-10h7.55v9.06l2.35-.34v-10.63h7.15v9.85l10.73-1.37v15.83c.15,5.1-2.3,7.25-8.18,7.06h-1.52v-7.06h1.91v-7.4l-2.94.44v15.88h-7.15v-14.99l-2.35.25v17.15h13.62c3.67-.2,5.73-.93,8.04-2.99v7.99c-1.62,1.62-4.21,2.45-7.55,2.5h-13.57c-5.83-.1-8.23-2.25-8.08-7.3Z"/>
    <path class="cls-1" d="M25.12,96.67h15.58v5.78h-15.58v-5.78ZM26,117.44h13.96v9.55c.1,4.61-1.32,6.03-5.83,5.88h-8.13v-15.43ZM26.44,104.02h13.13v5.39h-13.13v-5.39ZM26.44,110.78h13.13v5.49h-13.13v-5.49ZM26.64,89.91h12.89v5.63h-12.89v-5.63ZM34.13,126.46v-2.99h-2.06v2.99h2.06ZM55.3,109.85v5.63h-2.94v7.1l4.31-.59v7.55c-7.05,1.13-9.65,1.42-15.04,1.96v-7.99l3.53-.15v-7.89h-3.48v-6.96h13.42l-.29-2.55-.25-1.86h-12.84v-7.25h12c-.25-2.89-.29-3.04-.54-7.79h7.74c.15,2.79.15,3.04.54,7.79h8.53v7.25h-8.04c.73,5.63,1.62,10.78,2.5,14.01,1.37,5.1,2.65,6.76,5.88,7.5v8.53c-9.11-1.42-11.81-5.78-15.04-24.3ZM61.67,89.27h6.08c.83,2.16,1.22,3.33,1.91,5.93h-6.47c-.64-2.79-.83-3.53-1.52-5.93Z"/>
    <path class="cls-1" d="M79.31,120.68h3.43c-.34,5.73-.44,6.81-.88,9.9h-3.67c.74-4.21.88-5.44,1.13-9.9ZM91.22,126.65h.29c0-2.11,0-2.7-.29-5.98h2.4c.25,1.96.29,2.99.44,5.24.29-1.81.29-2.16.39-6.71h-14.26v-29.4h19.75v6.12h-5.39v2.11h4.8v5.39h-4.8v2.21h4.8v5.63h-4.8v2.4h5.83v2.74c0,8.28-.25,11.07-1.18,13.13-1.22,2.74-3.58,3.92-7.99,4.07v-6.96ZM83.43,120.68h3.14v9.9h-3.14v-9.9ZM88.77,98.04v-2.11h-2.2v2.11h2.2ZM88.77,105.63v-2.21h-2.2v2.21h2.2ZM88.77,113.67v-2.4h-2.2v2.4h2.2ZM87.59,120.68h2.99v9.9h-2.99v-9.9ZM112.38,125.92c-3.28,4.17-6.42,6.22-11.71,7.69v-7.79c3.72-1.37,5.1-2.5,7.25-5.83h-6.37v-14.26h7.45v-1.67h-4.61v-3.14c-1.52.88-1.86,1.03-3.97,1.81v-7.5c3.18-1.08,6.12-3.38,8.13-6.27h7.25c2.21,2.74,4.12,4.02,8.67,5.73v8.04c-1.96-.74-2.25-.88-3.67-1.67v2.99h-5.05v1.67h7.35v9.21c.1,3.77-1.13,5.05-4.61,5.05h-2.21c1.76,2.94,4.56,5,7.94,5.83v8.08c-5.59-1.18-8.18-2.94-11.86-7.99ZM109.25,113.96v-2.99h-1.62v2.99h1.62ZM115.77,98.43c-1.57-1.18-1.86-1.42-3.58-3.14-1.62,1.71-1.91,1.96-3.38,3.14h6.96ZM116.89,113.96v-2.99h-1.62v2.99h1.62Z"/>
  </g>
</svg>