<?xml version="1.0" encoding="UTF-8"?><svg id="ae" xmlns="http://www.w3.org/2000/svg" viewBox="0 0 150 150"><defs><style>.an{fill:#5eb530;}.an,.ao{stroke-width:0px;}.ao{fill:#fff;}</style></defs><rect class="ao" x="1.5" y="2.91" width="147" height="147" rx="20.74" ry="20.74"/><path class="an" d="m127.76,4.41c10.61,0,19.24,8.63,19.24,19.24v105.53c0,10.61-8.63,19.24-19.24,19.24H22.24c-10.61,0-19.24-8.63-19.24-19.24V23.65C3,13.04,11.63,4.41,22.24,4.41h105.53m0-3H22.24C9.96,1.41,0,11.37,0,23.65v105.53c0,12.28,9.96,22.24,22.24,22.24h105.53c12.28,0,22.24-9.96,22.24-22.24V23.65c0-12.28-9.96-22.24-22.24-22.24h0Z"/><path class="an" d="m26.53,38.79h-2.44v-7.21h5.99v-9.33h8.96v9.33h5.09v-10.92h9.38v2.23h17.17v6.52h-17.17v2.17h18.97v7.21h-2.07v21.99c.05,6.25-1.43,7.58-8.37,7.58H26.53v-29.57Zm34.92,21.89v-21.89h-26.28v21.89h26.28Zm-16.43-5.3c-3.44,2.54-5.3,3.5-7.9,4.08v-6.31c2.17-.53,2.92-.9,5.04-2.6h-5.04v-5.35h2.38l-2.01-5.19h5.62l1.91,5.03v-5.03h7.05v4.93l2.23-4.93h6.04l-2.7,5.19h2.01v5.35h-4.29c.26.21.58.42.9.69,1.33.9,1.75,1.17,3.39,1.91v6.31c-2.6-.69-3.87-1.43-7.58-4.45v4.56h-7.05v-4.19Z"/><path class="an" d="m86.26,57.55c-2.49,4.08-3.66,5.41-6.68,7.68v-11.76c2.76-2.91,4.45-6.25,5.56-10.7h-5.62v-7.9h6.73v-4.77c-2.23.11-3.6.16-4.5.16-.48,0-1.17,0-2.07-.05v-7.21c8.59-.21,10.76-.32,19.87-1.27v7.31l-2.23.16-2.44.21v5.46h4.82v7.9h-4.82v2.07c2.38,1.91,2.7,2.23,5.03,4.29v11.23c-2.33-2.54-2.7-2.92-5.03-5.19v14.36h-8.64v-11.98Zm29.89,1.38l-15.1.69v-8.37l15.1-.69v-29.46h8.53v29.09l4.13-.16v8.37l-4.13.16v11.13h-8.53v-10.76Zm-14.36-28.25v-8.64c7.1,1.75,8.64,2.23,12.14,3.71v8.85c-3.76-1.43-4.77-1.75-12.14-3.92Zm0,11.92v-8.21c5.19,1.22,7.95,2.07,12.14,3.82v8.9c-3.92-1.8-5.03-2.17-12.14-4.5Z"/><path class="an" d="m21.76,86.21c-1.75,4.45-3.5,7.1-7.15,10.55h6.62l-.64,1.33h2.12l.37-2.44h-2.33v-5.62h3.07l.64-3.6h7.1l-.74,3.6h7.31v8.06h1.48v3.34h14.68v7.63h-3.44v18.18c0,5.19-1.7,6.62-8.06,6.62h-3.44v-4.45h-3.39v4.66h-7.21v-4.66h-11.23v-5.62h1.91v-7.26h9.33v-1.85h-9.43v-9.22h19.24v-1.7h-20.3c-.74,1.75-1.17,2.6-2.17,4.5v26.13h-7.79v-17.65c-1.22,1.17-1.64,1.48-3.02,2.54v-9.91c4.19-3.39,5.67-5.51,7.95-11.29-3.02,2.49-4.4,3.29-7.95,4.66v-8.53c3.92-1.7,5.88-3.6,8.32-8h8.16Zm7,37.57v-2.33h-2.33v2.33h2.33Zm2.81-12.67v-1.75h-5.03v1.75h5.03Zm0-13.04v-2.44h-1.59l-.37,2.44h1.96Zm8.16,27.71h3.29v-16.75h-4.03v2.17c0,1.7-.64,3.18-3.02,3.34v1.96h3.18v4.93h-3.18v2.33h3.76v2.01Zm0-38.1h12.93v7.53h-12.93v-7.53Z"/><path class="an" d="m51.81,124.74h20.46v-7.68h-13.83v-7.84h13.83v-7.26h-8.11c-3.02,5.41-6.25,8.37-12.45,11.39v-10.12c5.03-3.34,6.84-7.42,7.31-16.53h8.74c-.37,3.71-.48,4.24-1.11,7.42h5.62v-8.27h9.12v8.27h17.43v7.84h-17.43v7.26h14.15v7.84h-14.15v7.68h18.87v7.84h-48.44v-7.84Z"/><path class="an" d="m101,124.1h17.01v-16.8h-19.08v-8.53h19.08v-11.98h10.07v11.98h18.87v8.53h-18.87v16.8h16.69v8.74h-43.77v-8.74Z"/></svg>