<?xml version="1.0" encoding="UTF-8"?><svg id="c" xmlns="http://www.w3.org/2000/svg" viewBox="0 0 150 150"><defs><style>.z{fill:#fff;}.z,.aa{stroke-width:0px;}.aa{fill:#e7398e;}</style></defs><rect class="aa" x="1.76" y=".71" width="150" height="150" rx="21.89" ry="21.89"/><path class="z" d="m18.03,57.23c2.41.2,4.48.27,5.56.27,3.28,0,8.17-.33,11.92-.8,3.15-.47,4.89-1,8.1-2.54l-11.25-3.48c-5.42-1.74-7.1-3.08-7.1-5.89,0-1.27.27-2.34,1.41-5.22l3.61-9.51h-13.19v-10.17h16.2l4.82-12.18h12.18l-4.69,12.18h32.06v10.17h-8.03c-1.94,7.5-3.88,12.92-7.23,19.48,7.77,3.08,9.91,4.02,14.39,6.16v12.72l-21.55-9.57c-8.84,7.1-17.94,9.51-37.22,10.04v-11.65Zm39.56-27.18h-15.73l-3.95,10.78c4.69,1.54,6.29,2.08,13.66,4.82,3.01-5.76,5.02-10.98,6.02-15.6Z"/><path class="z" d="m96.82,57.36h10.84v-12.52h-23.5v-10.44h23.5v-6.56c6.69-4.82,8.23-5.96,12.58-9.51h-30.06v-9.57h47.13v10.04c-2.41,1.74-4.55,3.28-5.62,4.08-2.48,1.67-4.95,3.41-7.43,5.15l-4.82,3.35v3.01h24.03v10.44h-24.03v11.71c.27,8.5-2.48,11.38-11.11,11.58h-11.51v-10.78Z"/><path class="z" d="m68.98,131.22h6.9v-6.29h-18.07v-9.77c-3.88,1.34-4.55,1.54-7.63,2.54v-10.11c1.74-.54,2.08-.6,4.22-1.27l-3.75-6.69h10.38l1.54,2.74c1.94-1.34,2.34-1.61,4.62-3.68h-12.32v-5.15h-3.41v-11.71h23.09v-2.88h12.12v2.88h23.96v11.51h-4.89v5.36h-13.12c2.14,2.01,2.54,2.34,5.15,4.22,1.07-1.27,1.2-1.47,2.01-2.88h10.84c-1.27,2.41-2.28,3.82-4.75,6.83,2.41.87,2.74,1,5.15,1.74v9.44c-3.28-.87-5.22-1.54-8.3-3.08v4.22c-.27,4.22-2.08,5.69-6.96,5.76h-7.97v6.76c.07,6.23-2.81,8.84-9.64,8.84h-9.17v-9.3Zm-12.05-4.28h11.18c-2.21,6.56-2.68,7.56-5.35,12.12h-12.25c3.01-4.42,3.48-5.29,6.43-12.12Zm14.79-34.61l1.41-2.48h-10.71v2.48h9.3Zm20.02,18.27v-2.14h-23.09v2.14h23.09Zm0,7.56v-2.54h-23.09v2.54h23.09Zm-6.16-14.73c-2.34-2.21-2.61-2.54-4.55-4.75-2.01,2.41-2.34,2.81-4.42,4.75h8.97Zm13.52-11.11v-2.48h-13.46l-1.27,2.48h14.73Zm-5.56,34.61h11.11c.94,3.21,2.74,7.03,5.82,12.18h-12.52c-1.74-3.48-3.35-7.83-4.42-12.18Z"/></svg>