<?xml version="1.0" encoding="UTF-8"?><svg id="al" xmlns="http://www.w3.org/2000/svg" viewBox="0 0 150 150"><defs><style>.an{fill:#538ac8;}.an,.ao{stroke-width:0px;}.ao{fill:#fff;}</style></defs><rect class="ao" x="1.5" y="1.5" width="147" height="147" rx="20.74" ry="20.74"/><path class="an" d="m127.76,3c10.61,0,19.24,8.63,19.24,19.24v105.53c0,10.61-8.63,19.24-19.24,19.24H22.24c-10.61,0-19.24-8.63-19.24-19.24V22.24C3,11.63,11.63,3,22.24,3h105.53m0-3H22.24C9.96,0,0,9.96,0,22.24v105.53c0,12.28,9.96,22.24,22.24,22.24h105.53c12.28,0,22.24-9.96,22.24-22.24V22.24c0-12.28-9.96-22.24-22.24-22.24h0Z"/><path class="an" d="m59.76,64.83c-3.76,1.75-6.57,2.44-11.18,2.91v-6.94c3.02-.27,3.92-.42,5.94-1.06-1.48-2.33-2.01-3.66-2.92-6.78h-10.02v1.91c3.29-.21,3.82-.27,6.73-.74v4.98c-2.92.37-3.39.42-6.73.69v2.12c0,4.72-1.22,5.78-6.84,5.78h-7.42v-5.99h5.83v-1.43c-4.08.21-4.61.26-8.53.42v-5.14c3.87-.05,4.45-.05,8.53-.16v-2.44h-8.53v-5.03h8.53v-1.27c-3.92.11-4.35.11-5.83.11h-2.7v-4.35c11.39-.27,14.04-.42,21.46-1.32h-21.57v-5.09h19.5v-1.59h-16.32v-4.61h16.32v-1.54h-18.18v-5.51h8.32l-1.96-3.29h9.75l2.38,3.29h7.63l1.96-3.29h10.54l-2.6,3.29h8.48v5.51h-16.96v1.54h15.47v4.61h-15.47v1.59h18.34v5.09h-13.57c.26,4.24.32,4.61.74,6.84h13.46v5.03h-12.13c.37,1.54.69,2.28,1.64,3.44.9-1.06,1.01-1.22,1.75-2.38h8.53c-1.91,2.7-2.65,3.55-4.56,5.56,2.54.48,2.92.53,5.41.85v7.37c-5.25-.37-9.01-1.22-13.25-2.97Zm-9.22-16.91l-.16-1.59c-.26-2.97-.26-3.07-.32-5.25h-2.07v4.66c-2.86.21-3.39.21-6.41.37v1.8h8.96Zm9.7-6.04h7.79c.85,1.43,1.17,2.12,2.49,4.88h-7.74c-.79-1.75-1.32-2.7-2.54-4.88Z"/><path class="an" d="m78.84,59.27c2.44-1.75,2.65-2.54,2.76-9.01v-29.41h18.97v38.69c.21,5.99-1.91,8.11-7.95,8.06h-3.07v-8.06h3.07v-8.37h-3.07c-.21,6.04-.58,8-2.01,10.65-2.33,3.87-4.66,5.67-8.69,6.73v-9.27Zm13.78-26.39v-4.66h-3.07v4.66h3.07Zm0,11.66v-5.25h-3.07v5.25h3.07Zm9.17,14.68c2.97-.85,5.51-2.23,7.05-3.87-2.54-3.66-4.5-8.05-5.25-11.5h-1.33v-7.63h8.69v-3.82h-9.49v-7.58h9.49v-4.24h8.16v4.24h9.38v7.58h-9.38v3.82h7.9v6.89c-1.38,4.4-3.55,8.37-6.68,12.45,3.39,2.44,4.34,2.91,7.74,3.76v9.27c-5.67-1.17-10.02-3.39-13.67-7-4.77,4.08-7.21,5.41-12.61,7v-9.38Zm16.27-15.37h-6.41c.79,2.54,1.27,3.39,3.07,5.78,1.8-2.12,2.49-3.23,3.34-5.78Z"/><path class="an" d="m11.74,125.08c3.07-.11,3.55-.11,5.94-.26v-3.45c-3.92,2.07-6.31,2.86-11.98,4.08v-7.74c4.88-.9,7.26-1.7,11.98-4.08H5.7v-6.62h19.18v-2.91h2.07v-6.57h8.11v-2.92h-10.17v-6.41h10.17v-4.29h8.43v4.29h10.02v6.41h-10.02v2.92h8.27v6.73h-17.86v2.75h19.61v6.62h-19.45c1.59,2.23,2.38,3.02,4.93,5.09l2.28-3.71h9.91l-4.24,7.21c2.23.69,3.39.9,6.57,1.22v7.79c-6.2-.79-8.85-1.38-13.25-3.13v2.54c-8,1.22-15.26,1.85-28.51,2.33v-7.9Zm2.65-22.89l-8.16,2.38v-7.26l8.16-1.91v-.95l-8.16-2.23v-7.42l8.16,2.6v-3.44h8.48v21.04h-8.48v-2.81Zm18.65,21.67c-3.18-2.7-4.45-4.08-6.62-7.37v7.95c2.65-.16,3.23-.21,6.62-.58Z"/><path class="an" d="m60.88,125.23h-9.06v-7.26h48.65v7.26h-9.06c2.33,3.29,3.6,4.82,6.62,7.84h-11.71c-2.23-2.7-3.18-3.97-5.88-7.84h-8.8c-2.23,3.07-3.45,4.56-6.41,7.84h-11.45c3.55-3.5,4.88-4.98,7.1-7.84Zm-4.08-40.38h39.59v24.85c.11,4.72-1.64,6.62-6.2,6.73h-33.39v-31.58Zm30.58,9.59v-2.17h-21.83v2.17h21.83Zm0,7.58v-2.54h-21.83v2.54h21.83Zm0,7.05v-2.33h-21.83v2.33h21.83Z"/><path class="an" d="m101,122.69h17.01v-16.8h-19.08v-8.53h19.08v-11.98h10.07v11.98h18.87v8.53h-18.87v16.8h16.69v8.74h-43.77v-8.74Z"/></svg>