<?xml version="1.0" encoding="UTF-8"?>
<svg id="ippan" xmlns="http://www.w3.org/2000/svg" viewBox="0 0 150 150">
  <defs>
    <style>
      .cls-1 {
        fill: #e74a45;
      }

      .cls-2 {
        fill: #fff;
      }
    </style>
  </defs>
  <rect class="cls-1" y="-.17" width="150" height="150" rx="22.24" ry="22.24"/>
  <g>
    <path class="cls-2" d="M23.54,51.7h-9.54v-9.48h10.49v-13.1h-8.14v-9.79h8.14v-9.92h11.07v9.92h14.75v-9.92h11.13v9.92h8.78v9.79h-8.78v13.1h10.49v9.48h-8.9c1.53,3.82,3.62,7.44,8.27,14.12h-13.55c-2.35-4.39-3.24-6.3-6.74-14.12h-15.58c-2.67,5.79-4.07,8.27-7.7,14.12h-13.36c3.18-3.82,5.34-7.19,9.16-14.12ZM50.32,42.22v-13.1h-14.75v13.1h14.75Z"/>
    <path class="cls-2" d="M77.35,55.32c3.12-1.08,5.41-3.69,5.53-6.49v-10.94h-5.53v-9.41h15.96v19.72c0,4.52,5.09,7.7,11.96,7.5h29.7v8.84h-30.91c-7.31.06-11.07-1.4-14.82-5.92-2.35,4.01-5.72,6.3-11.89,8.14v-11.45ZM78.75,19.64v-10.62c7.06,1.27,9.79,1.84,14.75,3.12v10.88c-7.38-1.97-10.11-2.61-14.75-3.37ZM118.88,51h-9.22v-6.55h-4.01v8.84h-9.03V20.92h5.72l-2.1-2.99h10.88l2.48,2.8,5.28-3.88h-22.45v-7.76h36.57v7.5l-6.36,4.32h6.61v24.61c0,6.17-2.35,8.27-9.16,7.95h-5.21v-2.48ZM109.66,29.69v-2.42h-4.01v2.42h4.01ZM109.66,38.41v-2.48h-4.01v2.48h4.01ZM123.21,29.69v-2.42h-4.07v2.42h4.07ZM123.21,38.41v-2.48h-4.07v2.48h4.07ZM123.21,46.86v-2.42h-4.07v2.42h4.07Z"/>
    <path class="cls-2" d="M13.88,107.1h58.13v10.88H13.88v-10.88Z"/>
    <path class="cls-2" d="M77.04,130.76c1.84-1.97,2.23-3.82,2.35-10.81v-3.37l-2.93.25v-8.71l2.86-.13v-19.4h6.17l1.46-5.66h9.6l-1.84,5.66h7.95v17.3l1.65-.13v-5.21c2.23-1.91,2.86-3.12,3.05-5.85.06-.83.06-.89.13-5.34v-5.15h23.98v15.07h1.59c1.08-.06,2.04-.76,3.43-2.61v10.11c-1.97,1.46-2.8,1.72-6.23,1.72h-2.16c-4.58.06-5.85-.64-5.92-3.24v-12.47h-6.04c-.19,6.49-.64,8.27-2.42,10.88-2.29,2.99-4.83,4.58-9.41,5.98v5.02l-1.65.25v16.54c.19,5.92-2.04,8.59-7.31,8.97h-5.02v-8.71h4.52v-16.41l-1.4.19v13.93h-4.9v-13.42l-1.02.13c0,8.71-.25,12.15-1.08,15.46-1.59,5.34-4.77,8.97-9.41,10.75v-11.58ZM94.84,106.78v-10.43h-7.31v11.07l7.31-.64ZM88.55,104.43v-7l4.77,1.65v7.31l-4.77-1.97ZM119.65,135.28c-5.28,3.31-9.29,4.71-16.22,5.72v-9.09c4.39-.95,5.72-1.4,8.9-3.24-2.48-2.99-3.37-4.33-5.92-8.78h-1.34v-8.46h29.32v6.42c-1.53,3.37-4.52,7.89-7.31,11,3.24,1.4,4.83,1.91,9.03,2.93v9.73c-6.49-1.14-11.96-3.18-16.47-6.23ZM121.62,119.88h-5.34c1.27,1.84,1.53,2.16,2.93,3.5,1.34-1.46,1.53-1.72,2.42-3.5Z"/>
  </g>
</svg>