<?xml version="1.0" encoding="UTF-8"?>
<svg id="_レイヤー_40" data-name="レイヤー_40" xmlns="http://www.w3.org/2000/svg" viewBox="0 0 150 150">
  <defs>
    <style>
      .cls-1 {
        fill: #fff;
      }

      .cls-2 {
        fill: #636db2;
      }
    </style>
  </defs>
  <rect class="cls-2" y="-.29" width="150" height="150" rx="22.24" ry="22.24"/>
  <g>
    <path class="cls-1" d="M11.63,50.35c3.65-.38,4.16-.45,7.3-.9v-10.05h-6.08v-9.86h6.08v-9.09h-6.72v-9.47h22.46v9.47h-5.95v9.09h5.06v9.86h-5.06v8.51c2.37-.45,2.88-.58,5.95-1.28v8.64c-8.9,2.43-13.95,3.58-23.04,5.25v-10.17ZM30.31,57.2c7.74-1.22,9.79-3.71,10.05-12.48h-3.26V8.18h31.68v26.49c0,5.89-1.41,8.38-5.44,9.47v11.01h1.6c2.5,0,3.9-.51,6.21-2.3v9.85c-1.47,1.41-2.88,1.98-5.25,2.05h-7.17c-4.61-.06-5.63-1.22-5.57-6.14v-13.89h-3.01c-.58,7.42-1.6,11.01-3.84,14.08-3.26,4.29-8.77,6.98-16,8v-9.6ZM58.34,18.93v-2.37h-11.84v2.37h11.84ZM58.34,27.19v-2.69h-11.84v2.69h11.84ZM58.34,36.53v-2.94h-11.84v2.94h11.84Z"/>
    <path class="cls-1" d="M83.56,45.3c-1.66,1.66-2.62,2.43-4.93,4.03v-13.57c5.18-2.69,9.41-7.68,11.39-13.57-4.35,3.71-5.95,4.74-11.13,7.04v-11.07c4.99-2.94,8.51-6.85,9.66-10.62h11.33c-1.09,4.35-3.52,8.45-7.42,12.74h9.22c-.51,1.98-.64,2.24-1.28,3.97,2.69-1.22,3.26-2.5,3.39-6.98v-8.77h26.37v13.57h1.86c2.56-.13,3.14-.38,5.12-2.43v10.24c-1.92,1.92-3.14,2.3-7.81,2.43h-2.82c-5.18-.19-6.53-1.22-6.66-5.06v-10.11h-5.82c-.06,10.82-4.42,15.81-14.14,16v-7.62c-1.15,3.07-3.84,7.74-5.7,9.86v29.69h-10.62v-19.77ZM98.03,55.86c3.13-.19,7.55-1.34,11.01-3.01-3.26-3.46-4.54-5.5-6.33-9.79h-3.39v-8.96h35.9v6.85c-2.37,4.35-5.76,8.64-9.54,11.9,3.84,1.41,6.91,2.05,11.71,2.43v10.37c-7.36-.58-14.91-2.94-20.35-6.46-5.76,3.65-12.16,5.82-19.01,6.46v-9.79ZM121.26,43.06h-8c1.22,1.92,1.54,2.3,3.9,4.22,1.92-1.6,2.5-2.24,4.1-4.22Z"/>
    <path class="cls-1" d="M43.3,130.06c6.14-.19,8.96-1.15,11.26-4.03,2.3-2.75,3.71-8.06,3.71-13.82,0-4.99-1.09-9.21-3.07-12.16-1.34-1.98-2.94-2.88-6.4-3.39-2.5,15.94-3.33,20.29-5.38,27.2-1.73,5.82-3.39,9.09-5.76,11.2-2.11,1.92-4.8,3.07-7.3,3.07-4.16,0-8.96-2.62-11.9-6.4-3.01-3.97-4.86-10.5-4.86-17.34,0-6.27,1.47-12.22,4.29-16.77,4.86-8.06,13.18-12.03,25.09-12.03,17.47,0,26.37,9.02,26.37,26.75,0,10.11-3.26,18.62-8.83,23.17-4.16,3.39-9.22,4.86-16.64,4.86h-.58v-10.3ZM32.94,121.94c1.34-4.22,3.65-15.93,4.99-25.85-4.48.7-6.66,1.66-8.9,4.1-2.94,3.2-4.67,8.58-4.67,14.46,0,6.4,2.05,10.81,5.06,10.81,1.54,0,2.75-1.22,3.52-3.52Z"/>
    <path class="cls-1" d="M118.89,121.17c-4.42-1.28-6.08-1.66-10.56-2.11-3.58,13.89-8.32,19.33-16.64,19.33-3.84,0-6.59-1.09-8.7-3.33-2.24-2.5-3.52-5.89-3.52-9.54,0-4.16,1.98-8.32,5.5-11.46,3.71-3.33,8.64-5.12,15.23-5.44,1.15-5.06,1.47-7.17,1.66-11.84h-15.74v-10.3h27.77c-.51,8.25-1.6,15.87-3.26,22.65,4.67.77,5.38.9,9.92,1.86.45-3.46.58-4.99.58-8.58,0-1.02-.06-3.07-.13-5.44h10.88c-.38,8.83-.51,11.2-1.15,17.28l6.85,2.24v12.03l-8.45-3.78c-1.73,6.53-3.65,11.46-6.21,15.87h-12.74c5.18-7.29,6.85-10.94,8.7-19.45ZM95.98,123.98c.58-1.54,1.22-3.52,1.54-4.67l.26-1.02c-2.88.19-4.1.77-5.95,2.62-1.47,1.47-2.24,3.07-2.24,4.67s1.02,3.14,2.24,3.14c1.6,0,3.01-1.6,4.16-4.74Z"/>
  </g>
</svg>