<?xml version="1.0" encoding="UTF-8"?>
<svg id="_レイヤー_11" data-name="レイヤー_11" xmlns="http://www.w3.org/2000/svg" viewBox="0 0 150 150">
  <defs>
    <style>
      .cls-1 {
        fill: #fff;
      }

      .cls-2 {
        fill: #dfc246;
      }
    </style>
  </defs>
  <g>
    <rect class="cls-2" y=".82" width="150" height="150" rx="22.24" ry="22.24"/>
    <g>
      <path class="cls-1" d="M3,76.88c3.88-1.09,4.75-4.26,4.64-16.01v-6.34h9.12v5.85c-.05,9.29-.93,14.97-2.84,18.35-2.68,4.75-5.24,6.67-10.93,8.3v-10.16ZM13.98,87.53h9.07v-39.77h9.94v38.79c.05,7.1-2.57,9.72-9.83,9.72h-9.18v-8.74ZM41.46,78.41c-2.02-4.32-2.79-8.25-2.73-14.31v-9.56h9.23v8.52c-.11,7.54.98,10.71,4.53,13.22v11.25c-6.28-2.51-8.85-4.64-11.03-9.12Z"/>
      <path class="cls-1" d="M50.64,55.14h17.04v6.66h-17.04v-6.66ZM51.51,78.84h15.3v12.35c-.05,2.79-1.86,4.32-5.08,4.42h-10.22v-16.77ZM51.95,63.06h14.42v6.12h-14.42v-6.12ZM51.95,70.98h14.97v6.17h-14.97v-6.17ZM52.12,47.6h14.59v6.28h-14.59v-6.28ZM60.42,88.62v-3.39h-2.24v3.39h2.24ZM95.49,62.62v2.4h-22.56v-2.51c-2.19,1.2-2.51,1.37-4.59,2.4v-8.63c4.59-1.69,8.3-4.75,11.8-9.67h8.79c2.79,3.93,6.88,6.99,12.51,9.29v9.4c-3-1.09-3.39-1.26-5.95-2.68ZM69.21,67.04h30.7v23.22c.05,4.42-1.75,5.85-7.38,5.95h-3.17v-3.33h-4.32v-8.19h-1.47v8.19h-5.52v-8.19h-1.91v11.74h-6.94v-29.39ZM78.06,77.97v-4.26h-1.91v4.26h1.91ZM88.99,57.76c-2.24-2.19-2.57-2.51-4.53-4.59-1.91,2.24-2.19,2.57-4.32,4.59h8.85ZM85.05,77.97v-4.26h-1.47v4.26h1.47ZM92.92,77.97v-4.26h-1.91v4.26h1.91ZM92.76,89.33v-4.64h-1.75v4.64h1.75Z"/>
      <path class="cls-1" d="M123.95,88.62c-6.99,4.81-15.4,7.38-24.2,7.38h-.55v-9.07c7.05-.27,11.91-1.53,17.15-4.48-5.19-5.08-8.36-10.82-11.25-20.54h-5.08v-8.52h18.74v-6.72h10.21v6.72h18.74v8.52h-4.92c-2.84,9.78-5.13,13.93-11.25,20.48,6.67,3.28,10.76,4.37,17.04,4.59v9.07c-8.36-.16-17.81-3-24.64-7.43ZM132.64,61.91h-17.48c1.2,5.03,4.81,11.03,8.79,14.59,4.81-4.92,7.16-8.9,8.69-14.59Z"/>
    </g>
  </g>
  <g>
    <path class="cls-1" d="M32.51,122.65c-.8.97-1.22,1.33-2.37,2.14v-5.1c2.16-1.56,4.3-4.87,4.94-7.73h4c-.23,1.61-1.59,4.78-2.81,6.58v14.28h-3.77v-10.16ZM39.82,121.34c-.94,1.06-1.45,1.54-2.71,2.53v-5.13c1.45-.99,3.29-4.19,3.91-6.78h4.16c-.28.9-.37,1.17-.94,2.74h7.06v3.4h-7.5v1.77h7.11v3.45h-7.11v2.07h7.11v3.4h-7.11v4.12h-3.98v-11.57Z"/>
    <path class="cls-1" d="M63.99,129.57c-2.94,2.02-6.48,3.1-10.19,3.1h-.23v-3.82c2.97-.12,5.01-.64,7.22-1.89-2.18-2.14-3.52-4.55-4.74-8.65h-2.14v-3.59h7.89v-2.83h4.3v2.83h7.89v3.59h-2.07c-1.2,4.12-2.16,5.86-4.74,8.62,2.81,1.38,4.53,1.84,7.17,1.93v3.82c-3.52-.07-7.5-1.27-10.37-3.13ZM67.65,118.33h-7.36c.51,2.12,2.02,4.65,3.7,6.14,2.02-2.07,3.01-3.75,3.66-6.14Z"/>
    <path class="cls-1" d="M76.26,116.26c3.73-.78,7.01-2.41,8.92-4.42h3.08c2.28,1.95,5.52,3.45,9.08,4.19v3.52c-1.7-.28-2.62-.51-4.53-1.17v1.13h-11.61v-1.08c-1.84.6-3.36.99-4.94,1.26v-3.43ZM78.1,125.18h6.71c1.77-.85,2.37-1.2,3.52-1.93h-10.16v-3.01h17.22v2.51c-1.22.8-1.45.94-4.37,2.44h4.94v4.83c0,2-.67,2.6-2.99,2.62h-14.88v-7.45ZM91.85,129.48v-1.54h-9.52v1.54h9.52ZM89.04,116.58c-.83-.51-1.24-.8-2.23-1.56-.76.67-1.17.97-2.12,1.56h4.35Z"/>
    <path class="cls-1" d="M104.75,131.53c-1.01-.8-1.29-1.36-1.43-2.78-1.1-.28-1.75-.6-2.39-1.17-.67-.62-1.1-1.66-1.1-2.58,0-1.03.48-2.37,1.1-3.1.71-.83,1.61-1.43,2.78-1.84v-1.82h-3.5v-3.36h3.5v-2.48h3.84v2.48h3.77v3.36h-3.77v1.4c1.15.44,1.63.81,2.09,1.61.37.6.55,1.31.55,2.05,0,1.1-.51,2.3-1.36,3.31-.3.34-.46.48-1.33,1.08.16.99.48,1.22,1.72,1.22,3.04,0,4.6-.11,5.24-.41.62-.28.87-.92.87-2.18,0-.58-.05-1.22-.25-3.01h3.89c.34,3.15.34,3.24.34,4.02,0,1.77-.74,3.27-2.02,4.05-1.26.78-2.9,1.03-6.46,1.03-3.89,0-5.24-.21-6.09-.87ZM106.2,123.53c0-.46-.3-.74-.78-.74-1.01,0-1.96.87-1.96,1.82,0,.3.23.6.51.67.21.05.37.07.48.07.85,0,1.75-.92,1.75-1.82ZM115.42,118.72l-.64-1.86c-.18-.53-.53-1.43-1.15-2.83h3.82c.71,1.47,1.72,4.07,2.21,5.61h-3.91c-.16-.46-.28-.76-.32-.92Z"/>
  </g>
</svg>