<?xml version="1.0" encoding="UTF-8"?>
<svg id="_レイヤー_12" data-name="レイヤー_12" xmlns="http://www.w3.org/2000/svg" viewBox="0 0 150 150">
  <defs>
    <style>
      .cls-1 {
        fill: #fff;
      }

      .cls-2 {
        fill: #549bd4;
      }
    </style>
  </defs>
  <rect class="cls-2" width="150" height="150" rx="22.24" ry="22.24"/>
  <g>
    <path class="cls-1" d="M49.46,91.88h-11.41v-9.66h10.01v-5.04h-18.13l4.41,9.45h-11.9l-4.55-9.45H7.8v-8.61h40.25v-2.45H12.84v-24.99h21.49v-2.24H8.85v-8.26h25.48v-3.15h11.69v3.15h24.92v8.26h-24.92v2.24h21.77v15.75c0,6.44-2.1,8.47-8.19,9.1v2.59h12.6v8.61h-12.6v5.39c0,3.57-.42,5.46-2.1,6.86-1.96,1.68-4.34,2.45-8.05,2.45ZM34.33,50.86v-2.45h-10.57v2.45h10.57ZM34.33,58.91v-2.52h-10.57v2.52h10.57ZM56.46,50.86v-2.45h-10.43v2.45h10.43ZM56.46,58.91v-2.52h-10.43v2.52h10.43Z"/>
    <path class="cls-1" d="M93.62,82.01h2.73v-14.49h-6.37v-26.74h6.16l1.05-3.22h-8.4v22.82c-.35,7.7-1.12,11.9-2.59,14.91-2.24,4.83-5.81,8.33-9.31,9.24v-14.14c1.68-3.01,1.96-4.13,2.1-10.01v-31.99h34.23v9.17h-5.95l-.91,3.22h6.51v20.65c0,4.69-1.47,6.09-6.44,6.09h-.63v16.03c.07,5.53-2.17,7.77-7.91,7.77h-4.27v-9.31ZM87.95,71.23h6.79c-.49,4.48-1.68,11.06-2.59,14.63h-7.7c1.82-6.51,2.73-10.22,3.5-14.63ZM103.77,51.42v-2.31h-5.32v2.31h5.32ZM103.77,60.1v-2.59h-5.32v2.59h5.32ZM107.76,81.17c-.28-2.03-.63-4.13-.91-6.65-.21-1.26-.21-1.33-.49-3.85h6.23c1.68,9.17,2.17,11.69,2.8,14h-7.14c-.28-1.75-.28-1.82-.49-3.5ZM117.07,81.87h-1.75v-41.02h7.07l.84-3.29h-8.4v-9.17h28.21v9.17h-9.38l-.98,3.29h8.61v33.74c.07,4.55-.7,6.16-3.22,6.79,1.33,2.8,1.89,4.06,2.45,5.39.7,1.4,1.05,2.17,2.31,4.62h-10.29c-1.26-2.8-1.75-4.06-3.5-9.52h-2.38c-1.05,3.99-1.61,5.88-2.94,9.52h-11.06c2.94-5.39,3.36-6.3,4.41-9.52ZM131.01,51.98v-2.66h-6.3v2.66h6.3ZM131.01,62.76v-3.22h-6.3v3.22h6.3ZM131.01,73.82v-3.29h-6.3v3.29h6.3Z"/>
    <path class="cls-1" d="M57.39,125.82c3.55-.11,5.18-.67,6.51-2.33,1.33-1.59,2.15-4.66,2.15-7.99,0-2.89-.63-5.33-1.78-7.03-.78-1.15-1.7-1.67-3.7-1.96-1.44,9.21-1.92,11.73-3.11,15.73-1,3.37-1.96,5.25-3.33,6.48-1.22,1.11-2.77,1.78-4.22,1.78-2.41,0-5.18-1.52-6.88-3.7-1.74-2.29-2.81-6.07-2.81-10.03,0-3.63.85-7.07,2.48-9.69,2.81-4.66,7.62-6.96,14.5-6.96,10.1,0,15.25,5.22,15.25,15.47,0,5.85-1.89,10.77-5.11,13.4-2.41,1.96-5.33,2.81-9.62,2.81h-.33v-5.96ZM51.39,121.12c.78-2.44,2.11-9.21,2.89-14.95-2.59.41-3.85.96-5.14,2.37-1.7,1.85-2.7,4.96-2.7,8.36,0,3.7,1.18,6.25,2.92,6.25.89,0,1.59-.7,2.04-2.04Z"/>
    <path class="cls-1" d="M99.61,120.68c-2.55-.74-3.51-.96-6.11-1.22-2.07,8.03-4.81,11.17-9.62,11.17-2.22,0-3.81-.63-5.03-1.92-1.3-1.44-2.04-3.4-2.04-5.51,0-2.41,1.15-4.81,3.18-6.62,2.15-1.92,5-2.96,8.81-3.15.67-2.92.85-4.14.96-6.85h-9.1v-5.96h16.06c-.3,4.77-.92,9.18-1.89,13.1,2.7.44,3.11.52,5.74,1.07.26-2,.33-2.89.33-4.96,0-.59-.04-1.78-.07-3.15h6.29c-.22,5.11-.3,6.48-.67,9.99l3.96,1.3v6.96l-4.88-2.18c-1,3.77-2.11,6.62-3.59,9.18h-7.36c3-4.22,3.96-6.33,5.03-11.25ZM86.36,122.3c.33-.89.7-2.04.89-2.7l.15-.59c-1.67.11-2.37.44-3.44,1.52-.85.85-1.3,1.78-1.3,2.7s.59,1.81,1.3,1.81c.92,0,1.74-.93,2.4-2.74Z"/>
  </g>
</svg>