<?xml version="1.0" encoding="UTF-8"?>
<svg id="_レイヤー_2" data-name="レイヤー_2" xmlns="http://www.w3.org/2000/svg" viewBox="0 0 176 181.2">
  <path d="M58.2,14.92c-2.52-6.08-9.16-9.32-15.5-7.59l-28.78,7.85c-5.69,1.57-9.65,6.74-9.65,12.63,0,80.92,65.61,146.53,146.53,146.53,5.89,0,11.06-3.96,12.63-9.65l7.85-28.78c1.73-6.35-1.5-12.99-7.59-15.5l-31.4-13.08c-5.33-2.22-11.51-.69-15.14,3.79l-13.21,16.13c-23.03-10.89-41.67-29.54-52.56-52.56l16.13-13.18c4.48-3.66,6.02-9.81,3.79-15.14l-13.08-31.4v-.03Z"/>
</svg>