<?xml version="1.0" encoding="UTF-8"?><svg id="a" xmlns="http://www.w3.org/2000/svg" viewBox="0 0 150 150"><defs><style>.z{fill:#fff;}.z,.aa{stroke-width:0px;}.aa{fill:#323333;}</style></defs><rect class="aa" x=".53" y=".43" width="150" height="150" rx="22.24" ry="22.24"/><path class="z" d="m27.02,58.27h10.71v-4.62H12.83v-9.64h24.9v-4.75c5.02-1.54,6.43-2.14,9.3-3.68h-27.51v-5.89h-5.76v-14.06h6.83l-3.55-8.03h11.05l3.61,8.03h5.42l-3.48-8.03h11.51l3.35,8.03h4.55l4.62-8.03h12.92l-4.48,8.03h6.09v14.33h-5.09v6.02c-8.9,4.08-10.11,4.62-17.07,7.63v.4h23.5v9.64h-23.5v3.88c.27,8.37-2.34,10.91-11.38,10.98h-11.65v-10.24Zm33.87-30.99v-3.08H25.28v3.08h35.61Z"/><path class="z" d="m79.5,57h25.84v-9.71h-17.47v-9.91h17.47v-9.17h-10.24c-3.82,6.83-7.9,10.58-15.73,14.39v-12.79c6.36-4.22,8.64-9.37,9.24-20.89h11.05c-.47,4.69-.6,5.36-1.41,9.37h7.1V7.86h11.51v10.44h22.02v9.91h-22.02v9.17h17.87v9.91h-17.87v9.71h23.83v9.91h-61.18v-9.91Z"/><path class="z" d="m65.04,131.52h6.9v-6.29h-18.07v-9.77c-3.88,1.34-4.55,1.54-7.63,2.54v-10.11c1.74-.54,2.08-.6,4.22-1.27l-3.75-6.69h10.38l1.54,2.74c1.94-1.34,2.34-1.61,4.62-3.68h-12.32v-5.15h-3.41v-11.71h23.09v-2.88h12.12v2.88h23.96v11.51h-4.89v5.36h-13.12c2.14,2.01,2.54,2.34,5.15,4.22,1.07-1.27,1.2-1.47,2.01-2.88h10.84c-1.27,2.41-2.28,3.82-4.75,6.83,2.41.87,2.74,1,5.15,1.74v9.44c-3.28-.87-5.22-1.54-8.3-3.08v4.22c-.27,4.22-2.08,5.69-6.96,5.76h-7.97v6.76c.07,6.23-2.81,8.84-9.64,8.84h-9.17v-9.3Zm-12.05-4.28h11.18c-2.21,6.56-2.68,7.56-5.35,12.12h-12.25c3.01-4.42,3.48-5.29,6.43-12.12Zm14.79-34.61l1.41-2.48h-10.71v2.48h9.3Zm20.02,18.27v-2.14h-23.09v2.14h23.09Zm0,7.56v-2.54h-23.09v2.54h23.09Zm-6.16-14.73c-2.34-2.21-2.61-2.54-4.55-4.75-2.01,2.41-2.34,2.81-4.42,4.75h8.97Zm13.52-11.11v-2.48h-13.46l-1.27,2.48h14.73Zm-5.56,34.61h11.11c.94,3.21,2.74,7.03,5.82,12.18h-12.52c-1.74-3.48-3.35-7.83-4.42-12.18Z"/></svg>