<?xml version="1.0" encoding="UTF-8"?>
<svg id="_レイヤー_43" data-name="レイヤー_43" xmlns="http://www.w3.org/2000/svg" viewBox="0 0 150 150">
  <defs>
    <style>
      .cls-1 {
        fill: #fff;
      }

      .cls-2 {
        fill: #692d4c;
      }
    </style>
  </defs>
  <rect class="cls-2" x="-.18" y=".18" width="150" height="150" rx="22.24" ry="22.24"/>
  <g>
    <path class="cls-1" d="M11.34,58.33h5.76v-2.48H3.71v-5.18h13.39v-2.56c2.7-.83,3.46-1.15,5-1.98H7.31v-3.17h-3.09v-7.56h3.67l-1.91-4.32h5.94l1.94,4.32h2.92l-1.87-4.32h6.19l1.8,4.32h2.45l2.48-4.32h6.95l-2.41,4.32h3.28v7.7h-2.74v3.24c-4.79,2.2-5.44,2.48-9.18,4.1v.22h12.63v5.18h-12.63v2.09c.14,4.5-1.26,5.87-6.12,5.9h-6.26v-5.51ZM29.55,41.67v-1.66H10.4v1.66h19.15Z"/>
    <path class="cls-1" d="M53.06,58.62c3.85-1.22,5.04-1.84,7.13-3.64-1.55-2.56-1.84-3.2-2.81-6.3-1.58,1.58-2.09,1.94-3.42,2.63v3.38c-1.51-1.84-1.73-2.09-3.28-3.6v12.67h-5.51v-9.68c-1.55,2.84-2.27,3.74-4.36,5.47v-9.07c2.3-2.45,3.49-4.64,4.28-7.88h-3.89v-5.4h3.96v-5.97h5.51v5.97h3.28v5.4h-3.28v1.87c1.58,1.19,1.84,1.37,3.28,2.52v-2.02c1.91-1.76,3.06-3.49,3.49-5.36h5.26c-.43,2.09-1.58,4.54-3.06,6.59h2.52c.58,2.2.83,2.84,1.76,4.21.9-1.51,1.3-2.38,1.87-4.21h1.73c-1.69-2.2-2.34-3.78-2.77-6.59h4.97c.54,2.23,1.4,3.38,3.53,4.86v6.73c-1.37-.94-1.58-1.08-2.7-1.98-.86,2.2-1.51,3.42-2.88,5.58,1.91,1.8,3.35,2.59,6.23,3.35v6.44c-4.39-1.22-6.7-2.52-9.97-5.62-4.36,3.38-6.66,4.61-10.87,5.62v-5.97ZM54.14,33.6h6.84v-2.48h5.65v2.48h6.66v4.82h-19.15v-4.82Z"/>
    <path class="cls-1" d="M78.3,58.76h3.53v-5.87l-3.53.5v-5.47l3.53-.43v-5.08h-3.53v-5.08h3.53v-5.72h5.69v5.72h2.66v5.08h-2.66v4.1l2.66-.58v5.15l-2.66.76v7.05c.07,3.53-1.62,5.15-5.29,5.15h-3.92v-5.29ZM92.52,46.13l-1.76,1.91v-8.6c1.73-2.02,2.81-4.28,3.6-7.59h5.76l-1.22,3.89h2.12l1.15-3.89h6.16l-1.62,3.89h4.46v5.08h-5v2.38h4.14v4.82h-4.14v2.45h4.14v4.9h-4.14v2.92h5.25v5.11h-18.9v-17.24ZM100.8,43.18v-2.38h-2.81v2.38h2.81ZM100.8,50.45v-2.45h-2.81v2.45h2.81ZM100.8,58.26v-2.92h-2.81v2.92h2.81Z"/>
    <path class="cls-1" d="M140.4,64.31v-.36h-2.77l-.61-4.36h3.82l.32,1.37c1.3,0,1.4-.14,1.44-2.3h-18.07l1.44-8.35h-2.12c-.07,4.43-.32,7.02-.83,8.03-1.15,2.77-4.07,5.11-6.88,5.51v-6.7c1.4-.54,1.66-1.73,1.66-7.59v-10.15h11.27v-1.04h-5.51v-1.4h-7.42v-3.89h7.42v-1.62h5.87v1.62h6.01v-1.62h5.94v1.62h7.34v3.89h-7.34v1.4h-5.83v1.04h13.17v3.56h-8.49v.9h8.49v3.74c0,1.87-.76,2.66-2.48,2.7h-14.4l-.18.94h17.06v3.42h-17.46l-.18.9h17.64c-.07,3.96-.29,5.43-.94,6.51-.9,1.55-2.63,2.3-5.25,2.3-.29,0-.5,0-2.12-.07ZM122.65,59.59h4.07c-.14,1.51-.36,2.52-.79,4.36h-4.82c.86-1.91,1.19-2.88,1.55-4.36ZM126.32,43.86v-.9h-2.3v.9h2.3ZM126.32,47.32v-.9h-2.3v.9h2.3ZM127.22,59.59h4.07l.43,4.36h-4l-.5-4.36ZM135.43,38.14v-1.19h-6.01v1.19h6.01ZM134.6,43.86v-.9h-2.66v.9h2.66ZM134.6,47.32v-.9h-2.66v.9h2.66ZM132.22,59.59h3.78l.65,4.36h-3.96l-.47-4.36ZM142.63,47.32v-.9h-2.41v.9h2.41Z"/>
    <path class="cls-1" d="M3.71,104.41c4-2.09,6.48-5.22,7.7-9.72h6.23c-2.52,8.21-6.55,12.99-13.93,16.59v-6.88ZM4.39,121.04l4.32-.32c2.27-5.44,3.82-10.26,5-15.55h6.8c-1.44,5.44-2.66,8.78-5.4,14.94,5.11-.65,7.42-1.12,10.87-2.12-1.48-3.49-1.55-3.64-2.3-5.22h6.59c1.98,4,3.38,7.34,5.72,13.68h-6.51c-.61-1.76-.72-2.05-1.51-3.92-7.13,2.66-13.39,3.71-23.58,3.96v-5.44ZM21.63,94.59h5.87c2.2,5,4.57,7.56,8.85,9.5v6.77c-7.67-2.77-12.49-8.1-14.72-16.27Z"/>
    <path class="cls-1" d="M42.87,122.73l2.02.04c1.91,0,3.42-.14,4.57-.4.76-.18,1.15-.36,2.09-1.04h-5.51v-.97c-1.76.68-2.45.86-5.15,1.19v-4.82c2.45-.36,3.71-.79,5.9-2.16h-5.72v-4h10.66l.86-.86h-9.29v-9h5.08v-.94h-7.49v-4.1h7.49v-1.4h5.97v1.4h5.94v-1.4h6.01v1.4h7.49v4.1h-7.49v.94h5.22v6.3c-.07,1.91-1.3,2.77-3.78,2.7h-8.24l-.72.86h14.61v4h-7.27c2.66,1.73,4,2.2,7.67,2.63v4.97c-1.76-.18-2.05-.22-3.89-.68-.5,4.54-1.58,5.62-5.65,5.62h-6.08v-4h2.77c2.16.04,2.56-.25,2.56-1.76h-4.93c-1.84,4-6.52,5.94-14.43,5.94h-1.26v-4.54ZM65.48,107.08v-.86h-16.27v.86h16.27ZM65.48,104.12v-1.01h-16.16v1.01h16.16ZM53.67,117.73c.18-.94.18-1.08.32-2.09l-2.92,2.09h2.59ZM58.75,115.54l-.83-.97h-2.7l-1.12.97h4.64ZM60.3,100.71v-.94h-5.94v.94h5.94ZM61.23,117.73l-1.51-1.33-.11.65-.11.68h1.73Z"/>
    <path class="cls-1" d="M78.3,121.76h3.53v-5.87l-3.53.5v-5.47l3.53-.43v-5.08h-3.53v-5.08h3.53v-5.72h5.69v5.72h2.66v5.08h-2.66v4.1l2.66-.58v5.15l-2.66.76v7.05c.07,3.53-1.62,5.15-5.29,5.15h-3.92v-5.29ZM92.52,109.13l-1.76,1.91v-8.6c1.73-2.02,2.81-4.28,3.6-7.59h5.76l-1.22,3.89h2.12l1.15-3.89h6.16l-1.62,3.89h4.46v5.08h-5v2.38h4.14v4.82h-4.14v2.45h4.14v4.9h-4.14v2.92h5.25v5.11h-18.9v-17.24ZM100.8,106.18v-2.38h-2.81v2.38h2.81ZM100.8,113.45v-2.45h-2.81v2.45h2.81ZM100.8,121.26v-2.92h-2.81v2.92h2.81Z"/>
    <path class="cls-1" d="M140.4,127.31v-.36h-2.77l-.61-4.36h3.82l.32,1.37c1.3,0,1.4-.14,1.44-2.3h-18.07l1.44-8.35h-2.12c-.07,4.43-.32,7.02-.83,8.03-1.15,2.77-4.07,5.11-6.88,5.51v-6.7c1.4-.54,1.66-1.73,1.66-7.59v-10.15h11.27v-1.04h-5.51v-1.4h-7.42v-3.89h7.42v-1.62h5.87v1.62h6.01v-1.62h5.94v1.62h7.34v3.89h-7.34v1.4h-5.83v1.04h13.17v3.56h-8.49v.9h8.49v3.74c0,1.87-.76,2.66-2.48,2.7h-14.4l-.18.94h17.06v3.42h-17.46l-.18.9h17.64c-.07,3.96-.29,5.43-.94,6.51-.9,1.55-2.63,2.3-5.25,2.3-.29,0-.5,0-2.12-.07ZM122.65,122.59h4.07c-.14,1.51-.36,2.52-.79,4.36h-4.82c.86-1.91,1.19-2.88,1.55-4.36ZM126.32,106.86v-.9h-2.3v.9h2.3ZM126.32,110.32v-.9h-2.3v.9h2.3ZM127.22,122.59h4.07l.43,4.36h-4l-.5-4.36ZM135.43,101.14v-1.19h-6.01v1.19h6.01ZM134.6,106.86v-.9h-2.66v.9h2.66ZM134.6,110.32v-.9h-2.66v.9h2.66ZM132.22,122.59h3.78l.65,4.36h-3.96l-.47-4.36ZM142.63,110.32v-.9h-2.41v.9h2.41Z"/>
  </g>
</svg>