<?xml version="1.0" encoding="UTF-8"?><svg id="d" xmlns="http://www.w3.org/2000/svg" viewBox="0 0 150 150"><defs><style>.z{fill:#d0d447;}.z,.aa{stroke-width:0px;}.aa{fill:#fff;}</style></defs><rect class="z" x=".36" y=".51" width="150" height="150" rx="17.41" ry="17.41"/><path class="aa" d="m27.39,72.62h-11.37l-7.46-42.81h9.96l3.34,27.01,4.54-27.01h10.74l4.01,26.12,3.91-26.12h9.96l-8.13,42.81h-11.52l-3.91-25.81-4.07,25.81Z"/><path class="aa" d="m97.52,72.62h-37.28V29.82h37.28v8.19h-27.95v8.13h25.03v8.24h-25.03v10.01h27.95v8.24Z"/><path class="aa" d="m104.55,72.62V29.82h25.24c7.61,0,11.42,2.4,11.68,7.3v6.41c-.05,3.34-1.2,5.16-4.48,6.99v.1c4.12,1.82,5.16,3.34,5.21,7.56v6.67c-.05,2.76-1.46,5.11-4.01,6.47-2.14,1.15-2.92,1.25-8.03,1.3h-25.6Zm9.33-34.62v8.34h13.5c3.44-.05,4.43-.73,4.48-3.34v-2.19c-.05-2.14-.99-2.76-4.28-2.82h-13.71Zm0,16.58v9.8h12.25c5.16,0,5.89-.36,6.21-3.28v-2.92c-.05-2.82-1.36-3.55-6.52-3.6h-11.94Z"/><path class="aa" d="m27.65,108.44h8.76v12.04h9.65v-15.12h-16.68v-20.75h8.97v12.98h7.72v-15.59h9.07v15.59h7.4v-12.98h8.76v12.72c.05,6.2-1.62,7.87-7.98,8.03h-8.19v15.12h9.12v-12.04h8.6v10.84c0,7.35-1.46,8.92-8.45,8.92H27.65v-19.76Z"/><path class="aa" d="m90.16,122.57h2.03v-10.79h-4.74v-19.92h4.59l.78-2.4h-6.26v17c-.26,5.74-.83,8.86-1.93,11.11-1.67,3.6-4.33,6.2-6.93,6.88v-10.53c1.25-2.24,1.46-3.08,1.56-7.46v-23.83h25.5v6.83h-4.43l-.68,2.4h4.85v15.38c0,3.49-1.09,4.54-4.8,4.54h-.47v11.94c.05,4.12-1.62,5.79-5.89,5.79h-3.18v-6.93Zm-4.22-8.03h5.06c-.37,3.34-1.25,8.24-1.93,10.9h-5.74c1.36-4.85,2.03-7.61,2.61-10.9Zm11.78-14.76v-1.72h-3.96v1.72h3.96Zm0,6.47v-1.93h-3.96v1.93h3.96Zm2.97,15.69c-.21-1.51-.47-3.08-.68-4.95-.16-.94-.16-.99-.37-2.87h4.64c1.25,6.83,1.62,8.71,2.08,10.43h-5.32c-.21-1.3-.21-1.36-.37-2.61Zm6.93.52h-1.3v-30.55h5.27l.63-2.45h-6.26v-6.83h21.01v6.83h-6.99l-.73,2.45h6.41v25.13c.05,3.39-.52,4.59-2.4,5.06.99,2.09,1.41,3.02,1.83,4.01.52,1.04.78,1.62,1.72,3.44h-7.67c-.94-2.09-1.3-3.02-2.61-7.09h-1.77c-.78,2.97-1.2,4.38-2.19,7.09h-8.24c2.19-4.01,2.5-4.69,3.29-7.09Zm10.38-22.26v-1.98h-4.69v1.98h4.69Zm0,8.03v-2.4h-4.69v2.4h4.69Zm0,8.24v-2.45h-4.69v2.45h4.69Z"/></svg>