<?xml version="1.0" encoding="UTF-8"?><svg id="ac" xmlns="http://www.w3.org/2000/svg" viewBox="0 0 150 150"><defs><style>.an{fill:#fff;}.an,.ao{stroke-width:0px;}.ao{fill:#948a7e;}</style></defs><rect class="an" x="1.5" y="1.6" width="147" height="147" rx="20.74" ry="20.74"/><path class="ao" d="m127.76,3.1c10.61,0,19.24,8.63,19.24,19.24v105.53c0,10.61-8.63,19.24-19.24,19.24H22.24c-10.61,0-19.24-8.63-19.24-19.24V22.34C3,11.73,11.63,3.1,22.24,3.1h105.53m0-3H22.24C9.96.1,0,10.06,0,22.34v105.53c0,12.28,9.96,22.24,22.24,22.24h105.53c12.28,0,22.24-9.96,22.24-22.24V22.34C150,10.06,140.04.1,127.76.1h0Z"/><path class="ao" d="m29.55,44.63c-1.85,2.23-2.81,3.07-5.46,4.93v-11.76c4.98-3.6,9.91-11.23,11.39-17.81h9.22c-.53,3.71-3.66,11.02-6.46,15.16v32.91h-8.69v-23.42Zm16.85-3.02c-2.17,2.44-3.34,3.55-6.25,5.83v-11.82c3.34-2.28,7.58-9.65,9.01-15.63h9.59c-.64,2.07-.85,2.7-2.17,6.31h16.27v7.84h-17.28v4.08h16.38v7.95h-16.38v4.77h16.38v7.84h-16.38v9.49h-9.17v-26.66Z"/><path class="ao" d="m99.67,59.84c-5.25,4.66-11.45,7.05-19.5,7.58v-7.9c5.3-.37,9.59-1.64,12.83-3.92h-12.83v-6.47h19.5v-1.96h-17.38v-5.62h17.38v-1.8h-18.71v-5.78h9.59l-.79-2.38h-9.59v-6.31h3.87l-2.54-5.19h8.58l2.28,5.19h1.59v-5.99h8.48v5.99h3.5v-5.99h8.37v5.99h1.75l2.33-5.19h8.9l-2.76,5.19h3.66v6.31h-9.22l-1.22,2.38h9.38v5.78h-18.6v1.8h17.75v5.62h-17.75v1.96h19.66v6.47h-13.3c3.82,2.44,8.53,3.82,13.3,3.76v7.95c-9.43-1.01-13.14-2.44-19.66-7.68v8.21h-8.85v-8Zm8.27-25.86l1.48-2.38h-10.28l1.11,2.38h7.68Z"/><path class="ao" d="m27.54,126.34h3.87v-4.19h-11.02v-9.17l-2.01.79c-.27,9.8-4.4,16.32-11.82,18.5v-10.02c2.38-1.7,3.39-3.76,3.39-6.68,0-.74,0-1.06-.05-1.8l-3.34,2.65v-8.74l3.23-2.44v-2.97l-3.23-2.17v-8.9l3.23,2.01v-6.31h17.38v-2.97h9.49v2.97h18.5v5.93h-15.53l-.26,2.01h15.42v4.93h-15.42c2.38,2.07,2.81,2.38,5.03,3.44l1.38-2.38h7.9l-2.65,4.61c2.01.64,2.33.74,4.13,1.01v7.15c-1.96-.27-2.28-.32-4.08-.85v4.93c-.11,3.13-1.38,4.29-4.77,4.45h-6.47v6.78c.05,3.18-1.38,4.29-5.62,4.35h-6.68v-6.94Zm-7.74-2.65h8.27c-1.22,3.07-1.96,4.56-4.03,8.16h-8.58c2.44-3.87,3.18-5.25,4.35-8.16Zm11.13-28.83l.37-2.01h-12.77v2.01h12.4Zm-9.59,10.12l-2.44-3.97h7.15l.79.79c.95-.64,1.27-.95,2.12-2.01h-10.44v6.09c1.27-.37,1.48-.42,2.81-.9Zm21.25,7.58v-1.48h-14.36v1.48h14.36Zm0,4.77v-1.48h-14.36v1.48h14.36Zm-5.14-10.33c-1.38-1.11-1.54-1.32-2.7-2.44-1.17,1.33-1.38,1.54-2.65,2.44h5.35Zm4.72,16.69h8.74c1.85,4.24,2.38,5.19,4.24,8.16h-9.54c-1.96-4.35-2.28-5.03-3.44-8.16Z"/><path class="ao" d="m52.5,122.95c2.49-1.54,3.6-2.6,4.5-4.29,1.06-1.96,1.59-4.77,1.59-8.27,0-.37,0-.95-.05-1.7h8.37c-.16,8.85-.79,11.98-3.29,15.95-2.65,4.08-6.46,6.84-11.13,8v-9.7Zm1.11-29.94v-7.95c5.35.74,9.75,1.64,13.57,2.86v8.43c-3.07-1.11-7.95-2.33-13.57-3.34Zm0,11.02v-8.32c5.3,1.01,11.34,2.38,13.57,3.07v8.37c-4.13-1.38-8.74-2.44-13.57-3.13Zm13.78,19.98l3.82-.11,3.5-12.03h-6.2v-8h11.18v-5.83h-9.7v-7.68h9.7v-5.35h8.85v5.35h10.33v7.68h-10.33v5.83h12.4v8h-17.17l-3.5,11.29c3.39-.42,5.19-.69,8.64-1.32-.79-2.49-.9-2.7-2.76-7.31h8.8c3.18,7.05,4.5,10.81,6.25,17.49h-9.12l-.95-3.13c-8.64,2.12-12.93,2.7-23.74,3.39v-8.27Z"/><path class="ao" d="m100.41,122.79h17.01v-16.8h-19.08v-8.53h19.08v-11.98h10.07v11.98h18.87v8.53h-18.87v16.8h16.69v8.74h-43.77v-8.74Z"/></svg>