<?xml version="1.0" encoding="UTF-8"?>
<svg id="koubo" xmlns="http://www.w3.org/2000/svg" viewBox="0 0 150 150">
  <defs>
    <style>
      .cls-1 {
        fill: #e74a45;
      }

      .cls-2 {
        fill: #fff;
      }
    </style>
  </defs>
  <rect class="cls-1" y="-.17" width="150" height="150" rx="22.24" ry="22.24"/>
  <g>
    <path class="cls-2" d="M23.54,51.7h-9.54v-9.48h10.49v-13.1h-8.14v-9.79h8.14v-9.92h11.07v9.92h14.75v-9.92h11.13v9.92h8.78v9.79h-8.78v13.1h10.49v9.48h-8.9c1.53,3.82,3.62,7.44,8.27,14.12h-13.55c-2.35-4.39-3.24-6.3-6.74-14.12h-15.58c-2.67,5.79-4.07,8.27-7.7,14.12h-13.36c3.18-3.82,5.34-7.19,9.16-14.12ZM50.32,42.22v-13.1h-14.75v13.1h14.75Z"/>
    <path class="cls-2" d="M77.35,55.32c3.12-1.08,5.41-3.69,5.53-6.49v-10.94h-5.53v-9.41h15.96v19.72c0,4.52,5.09,7.7,11.96,7.5h29.7v8.84h-30.91c-7.31.06-11.07-1.4-14.82-5.92-2.35,4.01-5.72,6.3-11.89,8.14v-11.45ZM78.75,19.64v-10.62c7.06,1.27,9.79,1.84,14.75,3.12v10.88c-7.38-1.97-10.11-2.61-14.75-3.37ZM118.88,51h-9.22v-6.55h-4.01v8.84h-9.03V20.92h5.72l-2.1-2.99h10.88l2.48,2.8,5.28-3.88h-22.45v-7.76h36.57v7.5l-6.36,4.32h6.61v24.61c0,6.17-2.35,8.27-9.16,7.95h-5.21v-2.48ZM109.66,29.69v-2.42h-4.01v2.42h4.01ZM109.66,38.41v-2.48h-4.01v2.48h4.01ZM123.21,29.69v-2.42h-4.07v2.42h4.07ZM123.21,38.41v-2.48h-4.07v2.48h4.07ZM123.21,46.86v-2.42h-4.07v2.42h4.07Z"/>
    <path class="cls-2" d="M14.19,101.7c7.06-3.69,11.45-9.22,13.61-17.17h11c-4.45,14.5-11.58,22.96-24.61,29.32v-12.15ZM15.4,131.08l7.63-.57c4.01-9.6,6.74-18.12,8.84-27.47h12.02c-2.54,9.6-4.71,15.52-9.54,26.39,9.03-1.14,13.1-1.97,19.21-3.75-2.61-6.17-2.73-6.42-4.07-9.22h11.64c3.5,7.06,5.98,12.97,10.11,24.17h-11.51c-1.08-3.12-1.27-3.62-2.67-6.93-12.59,4.71-23.66,6.55-41.66,7v-9.6ZM45.87,84.33h10.37c3.88,8.84,8.08,13.36,15.65,16.79v11.96c-13.55-4.9-22.07-14.31-26.01-28.75Z"/>
    <path class="cls-2" d="M80.85,134.07l3.56.06c3.37,0,6.04-.25,8.08-.7,1.33-.32,2.04-.64,3.69-1.84h-9.73v-1.72c-3.12,1.21-4.33,1.53-9.09,2.1v-8.52c4.32-.64,6.55-1.4,10.43-3.82h-10.11v-7.06h18.83l1.53-1.53h-16.41v-15.9h8.97v-1.65h-13.23v-7.25h13.23v-2.48h10.56v2.48h10.49v-2.48h10.62v2.48h13.23v7.25h-13.23v1.65h9.22v11.13c-.13,3.37-2.29,4.9-6.68,4.77h-14.56l-1.27,1.53h25.82v7.06h-12.85c4.71,3.05,7.06,3.88,13.55,4.64v8.78c-3.12-.32-3.62-.38-6.87-1.21-.89,8.01-2.8,9.92-9.99,9.92h-10.75v-7.06h4.9c3.82.06,4.51-.45,4.51-3.12h-8.71c-3.24,7.06-11.51,10.49-25.5,10.49h-2.23v-8.01ZM120.79,106.4v-1.53h-28.75v1.53h28.75ZM120.79,101.19v-1.78h-28.56v1.78h28.56ZM99.93,125.23c.32-1.65.32-1.91.57-3.69l-5.15,3.69h4.58ZM108.9,121.35l-1.46-1.72h-4.77l-1.97,1.72h8.2ZM111.63,95.14v-1.65h-10.49v1.65h10.49ZM113.29,125.23l-2.67-2.35-.19,1.14-.19,1.21h3.05Z"/>
  </g>
</svg>