<?xml version="1.0" encoding="UTF-8"?><svg id="ak" xmlns="http://www.w3.org/2000/svg" viewBox="0 0 150 150"><defs><style>.an{fill:#5ac0c1;}.an,.ao{stroke-width:0px;}.ao{fill:#fff;}</style></defs><rect class="ao" x="1.5" y="3.68" width="147" height="147" rx="20.74" ry="20.74"/><path class="an" d="m127.76,5.18c10.61,0,19.24,8.63,19.24,19.24v105.53c0,10.61-8.63,19.24-19.24,19.24H22.24c-10.61,0-19.24-8.63-19.24-19.24V24.41C3,13.81,11.63,5.18,22.24,5.18h105.53m0-3H22.24C9.96,2.18,0,12.13,0,24.41v105.53c0,12.28,9.96,22.24,22.24,22.24h105.53c12.28,0,22.24-9.96,22.24-22.24V24.41c0-12.28-9.96-22.24-22.24-22.24h0Z"/><path class="an" d="m29.87,56.57c-2.6,2.23-3.07,2.6-6.31,4.88v-10.71c5.09-3.23,8.69-7.74,11.13-13.78h-10.6v-7.68h5.94v-7.15h8v7.15h5.51v6.25c-1.06,3.44-1.75,4.98-4.13,9.01,2.07,1.54,2.38,1.8,4.61,3.66v11.02c-3.29-3.39-4.13-4.24-6.31-5.94v17.12h-7.84v-13.83Zm11.08,6.41c5.56-1.27,7.37-3.66,7.53-10.07h-3.55v-30.05h24.8v23.74c0,4.45-.58,5.41-3.76,6.15v9.27h2.01c1.01.11,2.49-.69,4.13-2.12v7.74c-.85,2.23-2.07,2.81-6.09,2.86h-2.65c-4.19-.27-4.98-1.22-4.88-5.88v-11.71h-2.86c-.48,11.34-4.29,16-14.68,18.18v-8.11Zm20.83-31.21v-1.85h-9.12v1.85h9.12Zm0,7.05v-2.12h-9.12v2.12h9.12Zm0,7.74v-2.28h-9.12v2.28h9.12Z"/><path class="an" d="m78.68,29.22l2.76.05,2.7-7.31h8.74l-3.6,7.47h5.56l-2.12-5.14h7.53l3.18,4.98v3.29c-.11,2.97-1.54,3.92-6.04,3.87h-18.71v-7.21Zm1.11,8.69h23.21v23.58c.21,5.62-1.54,7.63-6.78,7.95h-5.25v-7.26h3.5v-2.76h-6.09v10.39h-8.58v-31.9Zm14.68,9.17v-2.38h-6.09v2.38h6.09Zm0,7.05v-2.17h-6.09v2.17h6.09Zm11.66-15.21v-16.96h8.53v4.56l11.82-1.8v7.05l-11.82,1.7v3.92h8.21c1.96-.16,2.65-.48,4.4-2.12v7.84c-1.17,1.11-2.86,1.64-5.3,1.7h-9.75c-4.08,0-6.2-2.07-6.09-5.88Zm0,23.37v-15.9h8.21v3.97l12.08-2.33v7.42l-12.08,2.49v3.55h8.27c2.44-.11,3.71-.58,4.77-1.8v8.21c-1.17,1.06-2.81,1.64-4.66,1.7h-9.54c-5.51-.11-7.1-1.75-7.05-7.31Z"/><path class="an" d="m4.38,94.24h19.92v6.57H4.38v-6.57Zm1.48,8h16.53v5.93H5.86v-5.93Zm0,7.74h16.53v6.04H5.86v-6.04Zm0,7.31h16.64v10.02c.21,4.5-1.54,6.57-5.67,6.47H5.86v-16.48Zm.42-30.31h16.11v5.94H6.29v-5.94Zm9.27,40.01v-3.34h-3.07v3.34h3.07Zm8.16-4.56c1.59-1.86,1.96-3.39,1.96-8.96v-26.5h7.63v28.83c.05,10.33-2.38,15.05-9.59,18.76v-12.14Zm11.29-33.17h7.47v38.84h-7.47v-38.84Zm9.38-2.28h7.95v46.79h-7.95v-46.79Z"/><path class="an" d="m51.28,115.81h5.3c-.11,5.93-.42,9.96-1.11,14.52h-5.4c.9-4.93,1.17-8.11,1.22-14.52Zm29.73,9.8c-2.81,3.92-6.68,6.78-10.92,8.05v-4.5h-4.19v-13.35h5.19v8.64c3.13-1.43,5.19-3.18,7.21-6.09h-6.41v-20.14h9.11v-1.7h-10.39v-4.29l-6.57,10.39h4.82l1.96,5.35v2.17c.05,3.13-1.06,4.13-4.19,4.03h-1.85v20.4h-7.21v-20.4h-6.68v-6.73h1.75l2.33-3.71-3.18-5.3c-.69-1.17-.95-1.96-.95-2.91,0-1.11.26-1.85,1.17-3.5l3.39-5.99h8.21l-5.35,8.8,1.06,2.01,3.97-6.31h7.31v-.69h10.39v-3.5h7.84v3.5h11.02v6.68h-11.02v1.7h9.64v13.46c.21,4.61-1.38,6.57-5.35,6.68h-1.64c2.97,3.5,5.19,5.25,8.37,6.57v9.27c-4.5-1.91-7.58-4.35-11.02-8.8v9.33h-7.84v-9.11Zm-17.01-18.18l-1.01-3.18-2.01,3.18h3.02Zm17.01-1.8v-1.96h-2.12v1.96h2.12Zm0,7.1v-1.96h-2.12v1.96h2.12Zm10.02-7.1v-1.96h-2.17v1.96h2.17Zm0,7.1v-1.96h-2.17v1.96h2.17Z"/><path class="an" d="m100.47,124.87h17.01v-16.8h-19.08v-8.53h19.08v-11.98h10.07v11.98h18.87v8.53h-18.87v16.8h16.69v8.74h-43.77v-8.74Z"/></svg>