<?xml version="1.0" encoding="UTF-8"?>
<svg id="_レイヤー_45" data-name="レイヤー_45" xmlns="http://www.w3.org/2000/svg" viewBox="0 0 150 150">
  <defs>
    <style>
      .cls-1 {
        fill: #fff;
      }

      .cls-2 {
        fill: #f2b335;
      }
    </style>
  </defs>
  <rect class="cls-2" x="-.12" y="0" width="150" height="150" rx="22.24" ry="22.24"/>
  <g>
    <path class="cls-1" d="M11.31,50.13c-3.07.53-3.7.62-7.54,1.15v-7.01c3.74-.48,4.32-.53,7.54-1.06v-8.83h-1.97c-1.01,3.46-3.12,5.81-6.43,7.2v-8.11c1.34-1.78,1.44-2.21,1.58-9.36l.05-2.59h5.47c0,2.98,0,3.41-.05,5.95h1.34v-8.26h7.25v8.26h3.26v6.91h-3.26v7.82l3.36-.62v6.62l-3.36.72v13.78h-7.25v-12.58ZM32.53,56.57h-6.53c-.82-3.22-1.3-4.8-2.54-7.92h7.25c1.3,3.12,1.78,4.51,2.35,7.1h3.98v-8.64h-14.35v-6.58h14.35v-2.54h-14.35v-6.05h8.59v-2.98h-7.68v-6.48h7.68v-3.22h7.25v3.22h7.92v6.48h-7.92v2.98h9.12v6.05h-3.22v2.54h3.22v6.58h-3.22v8.45c.14,5.28-1.34,7.06-6.1,7.06h-5.81v-6.05Z"/>
    <path class="cls-1" d="M57,46.34c-1.39,1.3-1.63,1.54-3.55,2.83v-9.17c4.56-3.6,7.34-7.2,8.5-11.04-3.12,2.88-5.76,4.56-8.3,5.38v-7.92c3.02-1.3,5.38-3.84,6.87-7.39h7.68c-.77,3.07-2.59,6.24-5.18,8.93h6.48l-.91,2.88h9.7v-2.54h-8.07v-6.14h8.07v-3.02h7.54v3.02h9.36v6.14h-9.36v2.54h10.9v6.1h-3.84v3.07h3.84v6.24h-3.84v8.26c.24,4.99-1.97,7.54-6.58,7.54h-6.82v-6.77h-6.77c-1.44-3.6-2.06-4.94-3.46-7.39h7.73c1.54,2.45,2.16,3.7,3.46,7.06h4.61v-8.69h-16.75v-6.24h16.75v-3.07h-16.75v-5.09c-1.25,3.26-2.06,4.99-3.6,7.54v22.99h-7.68v-16.03Z"/>
    <path class="cls-1" d="M102.99,54.41h18.53v-6.96h-12.53v-7.1h12.53v-6.58h-7.34c-2.74,4.9-5.67,7.58-11.28,10.32v-9.17c4.56-3.02,6.19-6.72,6.62-14.98h7.92c-.34,3.36-.43,3.84-1.01,6.72h5.09v-7.49h8.26v7.49h15.79v7.1h-15.79v6.58h12.82v7.1h-12.82v6.96h17.09v7.1h-43.88v-7.1Z"/>
    <path class="cls-1" d="M9.35,126.18c12.13-2.95,19.83-13.2,20.57-27.4h5.83v-8.84h-11.86v-10.45h22.78v9.92c.07,8.64,3.15,18.69,7.5,24.59,3.75,5.16,7.71,7.91,16.75,11.72v12.46c-15.88-4.76-27.2-15.01-31.16-28.41-3.35,14.41-16.01,26.2-30.42,28.41v-11.99Z"/>
    <path class="cls-1" d="M78.56,88.59h21.31v7.91h-21.31v-7.91ZM79.77,117h19.09v13.07c.13,6.3-1.81,8.24-7.97,8.04h-11.12v-21.11ZM80.37,98.64h17.96v7.37h-17.96v-7.37ZM80.37,107.89h17.96v7.5h-17.96v-7.5ZM80.64,79.35h17.62v7.71h-17.62v-7.71ZM90.89,129.33v-4.09h-2.81v4.09h2.81ZM119.84,106.62v7.71h-4.02v9.71l5.9-.8v10.32c-9.65,1.54-13.2,1.94-20.57,2.68v-10.92l4.82-.2v-10.79h-4.76v-9.51h18.36l-.4-3.48-.33-2.55h-17.55v-9.92h16.42c-.34-3.95-.4-4.15-.74-10.65h10.59c.2,3.82.2,4.15.74,10.65h11.66v9.92h-10.99c1,7.71,2.21,14.74,3.42,19.16,1.88,6.97,3.62,9.25,8.04,10.25v11.66c-12.46-1.94-16.15-7.91-20.57-33.23ZM128.55,78.48h8.31c1.14,2.95,1.67,4.56,2.61,8.11h-8.84c-.87-3.82-1.14-4.82-2.08-8.11Z"/>
  </g>
</svg>