<?xml version="1.0" encoding="UTF-8"?>
<svg id="_レイヤー_17" data-name="レイヤー_17" xmlns="http://www.w3.org/2000/svg" viewBox="0 0 150 150">
  <defs>
    <style>
      .cls-1 {
        fill: #fff;
      }

      .cls-2 {
        fill: #51c1e4;
      }
    </style>
  </defs>
  <rect class="cls-2" y="-.07" width="150" height="150" rx="22.24" ry="22.24"/>
  <g>
    <path class="cls-1" d="M4.57,52.7h2.52c6.08.04,9.2-1.48,12.16-5.92,1.96-2.76,5.04-9.16,7.04-14.64H7.33v-6.6h28.92c-2.16,6.96-3.96,11.52-6.48,16.32,4.44,6.2,7.36,11.08,10.32,17.16h-8.68c-1.76-4.2-3-6.56-5.36-10.36-3.8,6.88-9.08,10.32-16.44,10.8h-5.04v-6.76Z"/>
    <path class="cls-1" d="M39.25,51.9c2.44-.4,3.56-2.28,3.64-6.2v-5.16h6.52v4.84c0,4.04-.68,6.92-2.04,8.88-2,2.84-4.72,4.36-8.12,4.52v-6.88ZM53.61,37.42h-13.04v-6.28h13.04v-6.24h7.04v6.24h2.92c.96,1.68,2.56,2.52,4.6,2.52s3.56-.84,4.72-2.52h1.44v6.28h-13.68v22h-7.04v-22ZM63.49,27.9c0-2.6,2.12-4.68,4.8-4.68,2.52,0,4.64,2.16,4.64,4.72s-2.12,4.72-4.72,4.72-4.72-2.12-4.72-4.76ZM64.53,46.38v-5.84h6.44v5.32c0,3.32,1.24,5.12,4.24,5.96v6.96c-7.32-.76-10.64-4.64-10.68-12.4ZM70.04,27.9c0-1-.84-1.84-1.88-1.84-.96,0-1.8.84-1.8,1.88s.84,1.84,1.84,1.84,1.84-.84,1.84-1.88Z"/>
    <path class="cls-1" d="M76.29,38.46h32.75v6.8h-32.75v-6.8Z"/>
    <path class="cls-1" d="M110.45,25.79h7.2c1.28,4,3.4,11.92,4.32,16.24h-7.28c-.84-4.48-2.4-10.44-4.24-16.24ZM112.97,52.26h13.44c5.2-.08,7.92-1.16,9.4-3.72,1.24-2.08,1.56-4.2,1.76-10.68v-12.08h7.04v12.72c0,14.44-5.28,20.44-18.04,20.44h-13.6v-6.68ZM122.37,25.79h7.2c1.48,3.84,3.4,10.68,4.52,16.24h-7.12c-1.36-6.68-2.72-11.36-4.6-16.24Z"/>
    <path class="cls-1" d="M13.73,126.25h6.23v-10.37l-6.23.89v-9.67l6.23-.76v-8.97h-6.23v-8.97h6.23v-10.11h10.05v10.11h4.71v8.97h-4.71v7.25l4.71-1.02v9.09l-4.71,1.34v12.47c.13,6.23-2.86,9.09-9.35,9.09h-6.93v-9.35ZM38.86,103.93l-3.12,3.37v-15.2c3.05-3.56,4.96-7.57,6.36-13.42h10.18l-2.16,6.87h3.75l2.04-6.87h10.88l-2.86,6.87h7.89v8.97h-8.84v4.2h7.31v8.52h-7.31v4.32h7.31v8.65h-7.31v5.15h9.29v9.03h-33.39v-30.46ZM53.48,98.71v-4.2h-4.96v4.2h4.96ZM53.48,111.56v-4.32h-4.96v4.32h4.96ZM53.48,125.36v-5.15h-4.96v5.15h4.96Z"/>
    <path class="cls-1" d="M120.9,136.04v-.64h-4.9l-1.08-7.7h6.74l.57,2.42c2.29,0,2.48-.25,2.54-4.07h-31.93l2.54-14.75h-3.75c-.13,7.82-.57,12.4-1.46,14.18-2.04,4.9-7.19,9.03-12.15,9.73v-11.83c2.48-.95,2.93-3.05,2.93-13.42v-17.93h19.91v-1.84h-9.73v-2.48h-13.1v-6.87h13.1v-2.86h10.37v2.86h10.62v-2.86h10.49v2.86h12.97v6.87h-12.97v2.48h-10.3v1.84h23.28v6.3h-15.01v1.59h15.01v6.61c0,3.31-1.34,4.71-4.39,4.77h-25.44l-.32,1.65h30.15v6.04h-30.85l-.32,1.59h31.16c-.13,7-.51,9.6-1.65,11.51-1.59,2.73-4.64,4.07-9.29,4.07-.51,0-.89,0-3.75-.13ZM89.55,127.71h7.19c-.25,2.67-.64,4.45-1.4,7.7h-8.52c1.53-3.37,2.1-5.09,2.73-7.7ZM96.04,99.92v-1.59h-4.07v1.59h4.07ZM96.04,106.03v-1.59h-4.07v1.59h4.07ZM97.63,127.71h7.19l.76,7.7h-7.06l-.89-7.7ZM112.13,89.81v-2.1h-10.62v2.1h10.62ZM110.67,99.92v-1.59h-4.71v1.59h4.71ZM110.67,106.03v-1.59h-4.71v1.59h4.71ZM106.47,127.71h6.68l1.14,7.7h-7l-.83-7.7ZM124.85,106.03v-1.59h-4.26v1.59h4.26Z"/>
  </g>
</svg>