<?xml version="1.0" encoding="UTF-8"?>
<svg id="_レイヤー_42" data-name="レイヤー_42" xmlns="http://www.w3.org/2000/svg" viewBox="0 0 150 150">
  <defs>
    <style>
      .cls-1 {
        fill: #6cb92f;
      }

      .cls-2 {
        fill: #fff;
      }
    </style>
  </defs>
  <rect class="cls-1" x="-.01" y=".08" width="150" height="150" rx="22.24" ry="22.24"/>
  <g>
    <path class="cls-2" d="M3.18,41.8h3.99c-.04,4.83-.23,6.84-1.03,9.92h-3.91c.8-3.34.91-4.6.95-9.92ZM11.96,20.18l-3.72,6.42.76,1.41,2.81-5.17h5.89l-5.55,8.93h4.29l1.63,4.22v2.17c0,1.18-.72,1.86-1.98,1.86h-2.66v14.32h-5.28v-14.32H2.76v-4.94h1.86l1.14-1.98-2.58-4.37c-.34-.57-.57-1.22-.57-1.75,0-.46.23-1.06.57-1.75l2.7-5.05h6.08ZM13.06,35.07l-1.06-3.08-2.09,3.08h3.15ZM22.33,52.36h-5.09c.23-.68.42-1.37.57-2.13h-3.5v-8.81h3.65v8.17c.46-2.17.8-4.75,1.03-7.71h4.71c-.3,5.09-.65,7.9-1.37,10.49ZM37.3,38.15h-5.28l-.42-1.1c-3.53.57-8.74.99-12.96,1.1v-4.86l2.01-.04,1.71-4.67c-1.25,1.22-2.51,2.05-4.79,2.85v-5.7c2.17-1.33,3.5-3.57,4.07-5.74h5.55c-.57,2.43-1.52,4.86-3.19,6.88h4.41l-2.2,6.23c2.47-.04,2.85-.08,4.03-.23l-1.41-3.15h5.24c1.25,2.47,2.2,5.02,3.23,8.43ZM26.24,40.66l-1.06-2.32h5.62l2.28,3.95h-3.23v6.61h3.04c2.32,0,3.04-.34,4.07-1.37h-4.71l-1.56-4.33h4.83l1.67,4.03.65-.8v5.89c-.72.87-1.18,1.14-2.09,1.33-.76.15-1.98.27-2.74.27h-4.14c-3.31,0-4.33-.8-4.33-3.31v-9.95h1.71ZM33.8,19.99c.61,2.28,1.44,3.38,3.69,5.02v6.5c-2.81-1.25-4.75-2.85-6.46-5.28-1.25-1.79-2.01-3.61-2.66-6.23h5.43Z"/>
    <path class="cls-2" d="M44.86,32.72c-2.81,1.1-3.31,1.25-5.24,1.56v-6.16c4.37-1.14,11.25-5.24,14.48-8.66h6.34c2.74,3.8,7.45,6.61,13.75,8.28v6.88c-2.74-.72-3.88-1.06-5.74-1.79v2.93h-23.59v-3.04ZM42.39,38.34h28.88v9.88c0,3.8-1.75,5.4-5.97,5.4h-22.91v-15.27ZM64.66,47.57v-3.8h-15.58v3.8h15.58ZM63.56,30.17c-2.85-1.82-4.79-3.46-6.5-5.43-3.38,2.96-5.09,4.26-7.11,5.43h13.6Z"/>
    <path class="cls-2" d="M75.68,54.79v-6.72c1.1-.46,1.56-.68,2.01-1.14.57-.57,1.14-1.75,1.14-2.43v-6h-3.19v-5.89h9.35v12.5c.49.95,1.29,1.9,2.51,2.62l2.17-2.85h-3.46v-4.33h4.26v-1.41h-3.12v-4.33h3.12v-1.41c-2.28-.04-2.81-.04-3.34-.42-.57-.42-.91-1.25-.91-2.43v-5.21h6.31v-1.14h-6.19v-3.88h11.02v4.56c0,2.77-.91,3.61-3.84,3.61h-2.2v1.06h2.85c1.63,0,2.43-.3,3.38-1.22v4.03c-.49.57-.68.72-1.41.95v1.48h3.95v-1.41c-1.25-.84-1.44-1.18-1.44-2.85v-5.21h5.81v-1.14h-5.81v-3.88h11.09v5.17c0,2.2-.95,3-3.46,3h-2.43v1.06h3.72c.95,0,1.18-.11,2.7-1.29v4.33c-.76.76-1.41,1.06-2.47,1.06h-2.2v1.14h3.12v4.33h-3.12v1.41h4.03v4.33h-3.19l2.77,3h-7.07l-1.98-3h-3.95l-2.24,3h-6.16c1.18.61,2.7.99,4.64.99h18.31v5.36h-16.98c-4.64,0-6.04-.27-7.98-1.37-.87-.49-1.6-1.1-3.08-2.7-1.9,2.85-3.5,3.91-7.03,4.64ZM85.03,29.11c-2.89-.99-6.04-1.82-8.74-2.43v-6.27c3.65.68,5.09,1.06,8.74,2.17v6.53ZM100.08,40.54v-1.41h-3.95v1.41h3.95Z"/>
    <path class="cls-2" d="M112.05,48.6h3.57v-5.66l-3.76.57v-6.27l3.76-.38v-5.55h-3.76v-5.28h3.76v-6.34h5.85v6.34h3.15v5.28h-3.15v4.6l3.15-.61v6.04l-3.15.61v6.95c.08,3.95-1.18,5.17-5.43,5.21h-3.99v-5.51ZM130.86,48.14c1.86-.76,2.7-1.29,4.03-2.62-.72-1.25-.87-1.52-1.52-3.23-1.71,5.66-4.37,9.04-9.5,11.97v-7.41c3.8-3.08,5.36-8.06,5.62-17.82h-4.29v-5.24h4.29v-4.1h6.12v4.1h10.9v5.24h-11.09l-.11,2.28h11.21c-.49,5.62-1.75,9.92-4.03,13.72,1.63,1.33,2.55,1.86,4.25,2.62v6.57c-3.38-1.06-5.13-2.01-8.02-4.41-2.28,2.32-4.86,3.84-7.86,4.64v-6.31ZM139.79,36.4h-3.61c.76,2.01,1.18,2.85,2.2,4.33.76-1.48,1.06-2.39,1.41-4.33Z"/>
    <path class="cls-2" d="M30.33,116.39l-4.18,13.75h-13.68l20.09-59.12h17.71l19.58,59.12h-13.75l-4.54-13.75h-21.24ZM48.76,105.01l-7.85-24.12-7.34,24.12h15.19Z"/>
    <path class="cls-2" d="M134.73,112.65c-.36,12.31-4.82,17.21-16.06,17.5h-24.77c-4.46,0-9.29-2.02-11.52-4.82-2.02-2.45-3.17-6.98-3.17-12.53v-22.83c.43-13.83,5.62-18.94,18.94-18.94h17.35c14.19.29,19.15,5.04,19.23,18.72v22.9ZM113.06,118.77c7.2-.14,8.28-1.3,8.35-9.07v-17.42c.14-7.56-2.16-10.08-9.22-9.94h-10.94c-7.13.22-8.57,1.87-8.71,10.23v17.5c-.29,7.42.72,8.64,6.84,8.71h13.68Z"/>
  </g>
</svg>