<?xml version="1.0" encoding="UTF-8"?>
<svg id="_レイヤー_23" data-name="レイヤー_23" xmlns="http://www.w3.org/2000/svg" viewBox="0 0 150 150">
  <defs>
    <style>
      .cls-1 {
        fill: #fff;
      }

      .cls-2 {
        fill: #545555;
      }
    </style>
  </defs>
  <rect class="cls-2" y="0" width="150" height="150" rx="22.24" ry="22.24"/>
  <g>
    <path class="cls-1" d="M4.54,53.15h4.5v-8.27l-4.88.9v-8.27l4.88-.79v-7.68h-4.88v-7.47h4.88v-8.74h8.27v8.74h4.35v7.47h-4.35v6.46l4.35-.74v7.84l-4.35.74v11.24c.16,4.08-2.12,6.2-6.52,6.15h-6.25v-7.58ZM18.9,51.45c2.81-2.07,3.97-4.35,4.4-8.58h7.42c-.11.74-.21,1.38-.27,1.59-.21,1.38-.37,2.33-.48,2.76-.05.21-.16.9-.32,1.59,1.64,1.43,1.91,1.59,3.66,2.44v-9.96h-10.7v-6.31h29.94v6.31h-10.92v2.54h9.38v6.25h-9.38v2.65h10.92v7.53h-15.16c-4.66-.26-7.47-1.43-11.23-4.61-2.01,2.44-3.13,3.29-7.26,5.41v-9.59ZM24.2,13.25h26.02v15.42c.05,2.86-1.85,4.4-5.35,4.4h-20.67V13.25ZM41.84,21.41v-1.8h-9.59v1.8h9.59ZM41.84,27.39v-1.85h-9.59v1.85h9.59Z"/>
    <path class="cls-1" d="M52.18,53.1h4.82v-8.53l-5.09.9v-8.16l5.09-.48v-7.84h-5.09v-7.26h5.09v-8.53h7.9v8.53h3.71v7.26h-3.71v6.47l4.61-.9v7.26l-4.61,1.32v11.18c0,4.61-2.23,6.57-7.58,6.62h-5.14v-7.84ZM68.45,53.26c4.29-.74,7-3.23,8.11-7.58h-5.78v-6.04h27.34l-1.75,6.89h4.4c-.58,7-.85,8.43-1.85,10.44-1.64,2.86-4.29,3.92-10.12,3.87h-6.04v-6.89h4.88c3.23.11,3.6-.16,3.71-2.81h-3.92l1.22-5.46h-3.5c-3.18,9.59-8.9,14.94-16.69,15.69v-8.11ZM72,27.13l-2.33,1.48v-9.33c3.18-2.17,4.4-3.5,5.78-6.25h8.64l-1.96,2.7h3.6l1.43-2.92h8.53l-2.07,2.92h6.78v4.61h-7.21v1.11h5.94v4.13h-5.94v1.33h6.09v4.13h-6.09v1.64h7.26v5.56h-28.46v-11.13ZM85.62,21.46v-1.11h-5.78v1.11h5.78ZM85.62,26.92v-1.33h-5.78v1.33h5.78ZM85.62,32.69v-1.64h-5.78v1.64h5.78Z"/>
    <path class="cls-1" d="M99.88,51.72c8.96-.53,12.08-3.66,12.19-11.98h-10.81v-8.11h18.28v-4.93h-9.06c-3.18,2.44-4.66,3.23-7.84,4.08v-9.54c3.76-1.59,5.14-3.39,6.09-7.79h8.48c-.58,2.65-.69,3.07-1.43,5.14h3.76v-6.15h9.59v6.15h16.43v8.11h-16.43v4.93h17.97v8.11h-11.29v11.71h6.52c2.12-.11,3.71-.85,5.19-2.44v8.96c-1.54,1.48-2.7,1.91-5.19,1.96h-8.43c-5.94.11-7.37-1.01-7.58-5.83v-14.36h-5.03c-.64,9.38-1.91,12.56-6.57,16.27-3.76,2.76-8.8,4.5-14.84,5.19v-9.49Z"/>
    <path class="cls-1" d="M26.86,125.75h10.71v-4.62H12.67v-9.64h24.9v-4.75c5.02-1.54,6.43-2.14,9.3-3.68h-27.51v-5.89h-5.76v-14.06h6.83l-3.55-8.03h11.05l3.61,8.03h5.42l-3.48-8.03h11.51l3.35,8.03h4.55l4.62-8.03h12.92l-4.48,8.03h6.09v14.33h-5.09v6.02c-8.9,4.08-10.11,4.62-17.07,7.63v.4h23.5v9.64h-23.5v3.88c.27,8.37-2.34,10.91-11.38,10.98h-11.65v-10.24ZM60.74,94.75v-3.08H25.12v3.08h35.61Z"/>
    <path class="cls-1" d="M98.36,126.48h6.9v-6.29h-18.07v-9.77c-3.88,1.34-4.55,1.54-7.63,2.54v-10.11c1.74-.54,2.08-.6,4.22-1.27l-3.75-6.69h10.38l1.54,2.75c1.94-1.34,2.34-1.61,4.62-3.68h-12.32v-5.16h-3.41v-11.71h23.09v-2.88h12.12v2.88h23.96v11.51h-4.89v5.36h-13.12c2.14,2.01,2.54,2.34,5.15,4.22,1.07-1.27,1.2-1.47,2.01-2.88h10.84c-1.27,2.41-2.28,3.82-4.75,6.83,2.41.87,2.74,1,5.15,1.74v9.44c-3.28-.87-5.22-1.54-8.3-3.08v4.22c-.27,4.22-2.08,5.69-6.96,5.76h-7.97v6.76c.07,6.23-2.81,8.84-9.64,8.84h-9.17v-9.3ZM86.31,122.2h11.18c-2.21,6.56-2.68,7.56-5.35,12.12h-12.25c3.01-4.42,3.48-5.29,6.43-12.12ZM101.1,87.59l1.41-2.48h-10.71v2.48h9.3ZM121.12,105.87v-2.14h-23.09v2.14h23.09ZM121.12,113.43v-2.54h-23.09v2.54h23.09ZM114.96,98.7c-2.34-2.21-2.61-2.54-4.55-4.75-2.01,2.41-2.34,2.81-4.42,4.75h8.97ZM128.48,87.59v-2.48h-13.46l-1.27,2.48h14.73ZM122.93,122.2h11.11c.94,3.21,2.74,7.03,5.82,12.18h-12.52c-1.74-3.48-3.35-7.83-4.42-12.18Z"/>
  </g>
</svg>