<?xml version="1.0" encoding="UTF-8"?><svg id="aj" xmlns="http://www.w3.org/2000/svg" viewBox="0 0 150 150"><defs><style>.an{fill:#871b30;}.an,.ao{stroke-width:0px;}.ao{fill:#fff;}</style></defs><rect class="ao" x="1.5" y="2.79" width="147" height="147" rx="20.74" ry="20.74"/><path class="an" d="m127.76,4.29c10.61,0,19.24,8.63,19.24,19.24v105.53c0,10.61-8.63,19.24-19.24,19.24H22.24c-10.61,0-19.24-8.63-19.24-19.24V23.53C3,12.92,11.63,4.29,22.24,4.29h105.53m0-3H22.24C9.96,1.29,0,11.25,0,23.53v105.53c0,12.28,9.96,22.24,22.24,22.24h105.53c12.28,0,22.24-9.96,22.24-22.24V23.53c0-12.28-9.96-22.24-22.24-22.24h0Z"/><path class="an" d="m30.37,48.77c-2.85,2.45-4.1,3.4-5.75,4.3-2.45,1.4-5.2,2.15-7.7,2.15-5.9,0-10.05-4.9-10.05-11.8,0-5.4,2.55-10.65,6.8-14,1.05-.85,1.65-1.2,3.6-2.15l1.9-1-.05-4.6-10.75.25v-7.7l10.8-.15v-3.2h8.4l-.2,3.05,19.95-.3v7.9l-20.2.2.05,2.85c2.15-.2,3.3-.25,4.75-.25,6.25,0,11,1.4,14.2,4.25,3.25,2.85,4.9,6.7,4.9,11.35,0,5.35-2,9.65-5.75,12.4-3.6,2.6-7.7,3.8-12.95,3.8h-1.95v-7.35Zm-9.25-2.9c-.6-2.8-.6-2.9-1.05-6l-.3-2.25-.4-2.9c-2,1.4-2.8,2.25-3.65,4.2-.6,1.35-.85,2.6-.85,3.9,0,2.7,1,4.1,2.95,4.1.95,0,1.75-.25,3.3-1.05Zm11-14.3c-.7-.05-1.3-.1-1.65-.1-.75,0-1.45.1-3.05.35.2,4.45.2,4.95.6,7.5,1.95-2.6,2.35-3.35,4.1-7.75Zm6.2,15c1.55-.85,2.3-1.6,2.9-2.95.5-1.15.8-2.55.8-3.95,0-2.35-.45-3.4-2.3-5.05-1.55,3.9-4.4,8.35-8.6,13.35,3.85,0,5.1-.25,7.2-1.4Z"/><path class="an" d="m73.11,47.22c0-1.5.25-5.35.55-7.7.1-.85.15-1.75.15-2.25,0-1.45-.85-2.6-1.9-2.6-1.4,0-3.9,1.55-5.25,3.3-1.9,2.4-3,5.9-5.25,16.95h-8.85c2.35-10.6,3.6-15.2,7.1-26.5,2.4-7.8,2.7-8.75,5.1-17.05h9.3c-2.45,6.5-2.9,7.8-5.85,17.65,3.55-3.15,6-4.45,8.45-4.45,3.85,0,6.1,2.75,6.1,7.4,0,.7-.1,2.5-.25,4-.25,3.05-.4,5.35-.4,6.9,0,2.6.55,3.4,2.3,3.4,2.2,0,3.7-1.45,4.3-4.2.65-3.15.9-6.25,1.1-13.45h8.85l-.3,4.7c-.5,9.7-1.05,12.45-3.25,16.15-2.2,3.7-6.45,5.75-12.05,5.75-6.55,0-9.95-2.75-9.95-8Z"/><path class="an" d="m99.31,44.07c1.7-1.3,2.05-2.5,2.1-7V12.72h17.8v-2.55h8.7v2.45h17.25v5.6h-35.95v13.75c-.05,10.75-.3,13.1-1.8,16.1-1.85,3.4-3.75,5.05-8.1,7v-11Zm18.75,6.5h4.5v-1.8h-13.7v-4.4h13.7v-1.05h-12.4v-4.15h12.4v-1.05c-7.95.15-8.15.15-8.9.15-.5,0-1.55,0-2.8-.05v-4.4c13.2-.05,19.35-.4,27.25-1.6h-6.2v-2.55c-2.75,1.7-3.3,2-5.4,2.8v-5c1.5-.7,2.2-1.15,3.55-2.25h-3.3v-4.4h5.15v-1.9h6.9v1.9h6.05v4.4h-4.8c2,1.3,2.85,1.7,5.1,2.35v5.1c-2.5-.45-3.55-1-6.35-3.25v2.7l3.05-.35v5.2c-3.8.4-5.75.55-11.2.85v1.35h13v4.15h-13v1.05h14.65v4.4h-14.65v3.25c0,3-1.8,4.4-5.65,4.4h-6.95v-5.85Zm-8.1-23.1c1.6-.85,2.15-1.2,3.45-2.25h-3.25v-4.4h4.6v-1.9h6.55v1.9h4.5v4.4h-3.55l3.1,1.75v5.55l-4.05-3.25v2.95h-6.55v-2.55c-2.05,1.85-2.85,2.5-4.8,3.85v-6.05Z"/><path class="an" d="m4.81,79.69h7.13l1.76,2.95,1.4,2.41c8.75-.83,11.63-3.13,11.73-9.43v-2.2H2.37v-5.76h30.78v7.77c-.04,9.25-4.1,13.35-14.72,15.01,1.12,2.12,1.8,3.53,3.28,6.62h-7.06c-2.81-5.69-6.01-11.27-9.83-17.39Z"/><path class="an" d="m31.6,70.94h5.69c1.37,5,2.05,7.81,3.06,12.49h-6.19c-.68-4.46-1.44-8.31-2.56-12.49Zm1.48,20.52h13.39c5.83-.22,7.96-2.88,7.74-9.65v-11.05h5.9v11.56c0,9.97-4.25,14.61-13.25,14.61h-13.79v-5.47Zm7.88-20.52h5.83c1.29,4.5,2.41,9.07,3.06,12.49h-6.15c-.97-5.36-1.48-7.63-2.74-12.49Z"/><path class="an" d="m64.29,91.28h8.14c5.22.07,7.45-2.56,7.38-8.68v-4.25h-8.93v7.67h-6.15v-7.67h-5.98v-5.83h5.98v-6.12h6.15v6.12h8.93v-6.12h6.41v6.12h6.23v5.83h-6.23v4.21c.18,9.21-4.82,14.51-13.68,14.51h-8.24v-5.79Z"/><path class="an" d="m89.74,78.72h29.48v6.12h-29.48v-6.12Z"/><path class="an" d="m118.68,90.78h12.45c8.6-.04,10.76-2.05,10.91-10.22v-8.89h6.44v9.07c.04,6.23-1.12,9.68-4.21,12.6-2.84,2.63-6.23,3.49-13.97,3.53h-11.63v-6.08Zm.18-17.67v-5.98c5.18.76,9.18,1.44,15.3,2.66v5.9c-7.41-1.48-10.69-2.05-15.3-2.59Zm0,9.97v-6.16l2.66.47c7.38,1.26,7.85,1.37,12.63,2.41v5.98c-6.3-1.3-7.88-1.58-15.3-2.7Zm22.79-18h3.38v5.4h-3.38v-5.4Zm4.5,0h3.38v5.4h-3.38v-5.4Z"/><path class="an" d="m29.82,140.6h4.22v-7.1l-4.22.77v-7.73l4.22-.43v-6.96h-4.66v-6.96h4.66v-7.06h7.92v7.06h3.98v6.96h-3.98v5.86l4.27-.67v6.96l-4.27.77v8.98c.14,5.28-1.68,6.87-8.02,7.01h-4.13v-7.44Zm18.53-13.87h23.57v14.26c0,5.42-1.54,6.67-7.97,6.62h-15.6v-20.88Zm.1-9.55v-12.39h7.58v4.42c5.57-.58,6.48-.67,15.6-2.21v6.14c-3.98,1.06-8.64,1.73-15.6,2.3v3.12h8.26c4.85-.05,5.67-.24,8.98-2.21v7.06c-1.87,1.58-2.98,1.82-9.41,1.97h-5.95c-7.63.05-9.55-1.63-9.46-8.21Zm15.5,17.19v-2.35h-7.83v2.35h7.83Zm0,7.2v-2.59h-7.83v2.59h7.83Z"/><path class="an" d="m77.05,137.48c2.06-1.44,2.59-3.07,2.74-8.59v-23.23h41.67v7.54h-33.84v15.36c-.05,7.63-.77,11.04-2.98,13.92-1.92,2.54-4.27,4.03-7.58,4.85v-9.84Zm10.03,2.88h12.77v-9.6h-9.75v-7.1h9.75v-9.03h8.21v9.03h11.76v7.1h-11.76v9.6h13.63v7.1h-34.61v-7.1Z"/></svg>