<?xml version="1.0" encoding="UTF-8"?><svg id="ab" xmlns="http://www.w3.org/2000/svg" viewBox="0 0 150 150"><defs><style>.an{fill:#95bf23;}.an,.ao{stroke-width:0px;}.ao{fill:#fff;}</style></defs><rect class="ao" x="1.5" y="1.6" width="147" height="147" rx="20.74" ry="20.74"/><path class="an" d="m127.76,3.1c10.61,0,19.24,8.63,19.24,19.24v105.53c0,10.61-8.63,19.24-19.24,19.24H22.24c-10.61,0-19.24-8.63-19.24-19.24V22.34C3,11.73,11.63,3.1,22.24,3.1h105.53m0-3H22.24C9.96.1,0,10.06,0,22.34v105.53c0,12.28,9.96,22.24,22.24,22.24h105.53c12.28,0,22.24-9.96,22.24-22.24V22.34C150,10.06,140.04.1,127.76.1h0Z"/><path class="an" d="m38.46,60.59c-5.99,1.75-9.33,2.49-15,3.5v-8.96c2.38-.32,2.75-.37,4.72-.69v-8.48h-3.87v-8.32h3.87v-7.37h-4.88v-7.47h16.85v7.47h-4.13v7.37h3.44v8.32h-3.44v7.15c1.54-.37,1.85-.48,3.82-1.06v7.47h11.98v-3.13h-9.96v-6.94h9.96v-3.13h-9.8v-25.75h28.4v17.91c.11,5.56-2.17,7.84-7.68,7.84h-2.75v3.13h10.23v6.94h-10.23v3.13h12.13v7.37h-33.65v-6.31Zm13.35-30.31v-2.49h-2.07v2.49h2.07Zm0,9.22v-2.49h-2.07v2.49h2.07Zm10.44-9.22v-2.49h-2.28v2.49h2.28Zm0,9.22v-2.49h-2.28v2.49h2.28Z"/><path class="an" d="m90.3,59.68h8.48v-3.66h-19.71v-7.63h19.71v-3.76c3.97-1.22,5.09-1.7,7.37-2.91h-21.78v-4.66h-4.56v-11.13h5.41l-2.81-6.36h8.74l2.86,6.36h4.29l-2.75-6.36h9.11l2.65,6.36h3.6l3.66-6.36h10.23l-3.55,6.36h4.82v11.34h-4.03v4.77c-7.05,3.23-8,3.66-13.51,6.04v.32h18.6v7.63h-18.6v3.07c.21,6.62-1.86,8.64-9.01,8.69h-9.22v-8.11Zm26.82-24.54v-2.44h-28.19v2.44h28.19Z"/><path class="an" d="m24.42,124.34h3.87v-4.19h-11.02v-9.17l-2.01.79c-.27,9.8-4.4,16.32-11.82,18.5v-10.02c2.38-1.7,3.39-3.76,3.39-6.68,0-.74,0-1.06-.05-1.8l-3.34,2.65v-8.74l3.23-2.44v-2.97l-3.23-2.17v-8.9l3.23,2.01v-6.31h17.38v-2.97h9.49v2.97h18.5v5.93h-15.53l-.26,2.01h15.42v4.93h-15.42c2.38,2.07,2.81,2.38,5.03,3.44l1.38-2.38h7.9l-2.65,4.61c2.01.64,2.33.74,4.13,1.01v7.15c-1.96-.27-2.28-.32-4.08-.85v4.93c-.11,3.13-1.38,4.29-4.77,4.45h-6.47v6.78c.05,3.18-1.38,4.29-5.62,4.35h-6.68v-6.94Zm-7.74-2.65h8.27c-1.22,3.07-1.96,4.56-4.03,8.16h-8.58c2.44-3.87,3.18-5.25,4.35-8.16Zm11.13-28.83l.37-2.01h-12.77v2.01h12.4Zm-9.59,10.12l-2.44-3.97h7.15l.79.79c.95-.64,1.27-.95,2.12-2.01h-10.44v6.09c1.27-.37,1.48-.42,2.81-.9Zm21.25,7.58v-1.48h-14.36v1.48h14.36Zm0,4.77v-1.48h-14.36v1.48h14.36Zm-5.14-10.33c-1.38-1.11-1.54-1.32-2.7-2.44-1.17,1.33-1.38,1.54-2.65,2.44h5.35Zm4.72,16.69h8.74c1.85,4.24,2.38,5.19,4.24,8.16h-9.54c-1.96-4.35-2.28-5.03-3.44-8.16Z"/><path class="an" d="m51.5,120.95c2.49-1.54,3.6-2.6,4.5-4.29,1.06-1.96,1.59-4.77,1.59-8.27,0-.37,0-.95-.05-1.7h8.37c-.16,8.85-.79,11.98-3.29,15.95-2.65,4.08-6.46,6.84-11.13,8v-9.7Zm1.11-29.94v-7.95c5.35.74,9.75,1.64,13.57,2.86v8.43c-3.07-1.11-7.95-2.33-13.57-3.34Zm0,11.02v-8.32c5.3,1.01,11.34,2.38,13.57,3.07v8.37c-4.13-1.38-8.74-2.44-13.57-3.13Zm13.78,19.98l3.82-.11,3.5-12.03h-6.2v-8h11.18v-5.83h-9.7v-7.68h9.7v-5.35h8.85v5.35h10.33v7.68h-10.33v5.83h12.4v8h-17.17l-3.5,11.29c3.39-.42,5.19-.69,8.64-1.32-.79-2.49-.9-2.7-2.76-7.31h8.8c3.18,7.05,4.5,10.81,6.25,17.49h-9.12l-.95-3.13c-8.64,2.12-12.93,2.7-23.74,3.39v-8.27Z"/><path class="an" d="m101.53,120.79h17.01v-16.8h-19.08v-8.53h19.08v-11.98h10.07v11.98h18.87v8.53h-18.87v16.8h16.69v8.74h-43.77v-8.74Z"/></svg>