<?xml version="1.0" encoding="UTF-8"?>
<svg id="_レイヤー_20" data-name="レイヤー_20" xmlns="http://www.w3.org/2000/svg" viewBox="0 0 150 150">
  <defs>
    <style>
      .cls-1 {
        fill: #f2d637;
      }

      .cls-2 {
        fill: #fff;
      }
    </style>
  </defs>
  <rect class="cls-1" y=".16" width="150" height="150" rx="22.24" ry="22.24"/>
  <g>
    <path class="cls-2" d="M13.8,43h23.34v-1.46h-21.12v-5.72h21.12v-2.04h-19.14v-5.6h19.14v-1.84H13.8v-5.72h23.34v-2.29h-18.32v-5.72h18.32v-3.18h10.75v3.18h19.33v8.01h4.9v5.92h-4.9v7.25h-19.33v2.04h22v5.72h-22v1.46h24.8v5.92H13.8v-5.92ZM19.27,50.44h48.14v9.73c.19,5.98-1.78,7.5-9.54,7.5H19.27v-17.24ZM56.09,56.8v-1.78h-25.88v1.78h25.88ZM56.09,62.46v-1.84h-25.88v1.84h25.88ZM56.73,20.61v-2.29h-8.84v2.29h8.84ZM56.73,28.18v-1.84h-8.84v1.84h8.84Z"/>
    <path class="cls-2" d="M77.72,31.43c3.18-.83,5.09-1.91,7.38-4.07h-7.38v-7.7h2.73l-3.12-8.14h7.89l2.42,8.14h.57v-9.35h9.48v9.35h.64l1.97-8.14h7.89l-2.42,8.14h1.97v7.7h-6.49c2.1,1.97,2.73,2.35,6.49,4.07v8.84c-4.33-1.27-6.42-2.54-10.05-6.11v4.9h-9.48v-4.01c-3.12,2.42-6.55,4.32-10.49,5.79v-9.41ZM77.72,59.79c4.83-.25,8.14-2.73,9.86-7.38h-9.86v-7.95h10.81v-3.88h9.41v3.88h9.54v7.95h-9.54v.19l9.54,4.26v10.43l-13.74-7.12c-3.62,5.47-8.84,8.39-16.03,8.97v-9.35ZM111.94,60.3h-2.29V21.82h7.25l.7-2.1h-9.03v-8.46h27.67v8.46h-8.65l-.83,2.1h8.27v32.43c0,4.13-.45,5.15-2.73,6.04,1.21,2.86,2.1,4.33,4.52,7.89h-10.68c-1.72-2.74-2.29-4.13-3.37-7.89h-1.46c-1.46,4.26-1.97,5.34-3.5,7.89h-10.05c2.04-2.8,2.86-4.39,4.2-7.89ZM124.97,33.02v-2.93h-5.85v2.93h5.85ZM124.97,42.43v-2.73h-5.85v2.73h5.85ZM124.97,52.73v-3.5h-5.85v3.5h5.85Z"/>
    <path class="cls-2" d="M13.8,139.94v-11.26c1.84-.76,2.61-1.15,3.37-1.91.95-.95,1.91-2.93,1.91-4.07v-10.05h-5.34v-9.86h15.65v20.92c.83,1.59,2.16,3.18,4.2,4.39l3.62-4.77h-5.79v-7.25h7.12v-2.35h-5.22v-7.25h5.22v-2.35c-3.82-.06-4.71-.06-5.6-.7-.95-.7-1.53-2.1-1.53-4.07v-8.71h10.56v-1.91h-10.37v-6.49h18.44v7.63c0,4.64-1.53,6.04-6.42,6.04h-3.69v1.78h4.77c2.73,0,4.07-.51,5.66-2.04v6.74c-.83.95-1.14,1.21-2.35,1.59v2.48h6.61v-2.35c-2.1-1.4-2.42-1.97-2.42-4.77v-8.71h9.73v-1.91h-9.73v-6.49h18.57v8.65c0,3.69-1.59,5.02-5.79,5.02h-4.07v1.78h6.23c1.59,0,1.97-.19,4.52-2.16v7.25c-1.27,1.27-2.35,1.78-4.13,1.78h-3.69v1.91h5.22v7.25h-5.22v2.35h6.74v7.25h-5.34l4.64,5.02h-11.83l-3.31-5.02h-6.61l-3.75,5.02h-10.3c1.97,1.02,4.52,1.65,7.76,1.65h30.65v8.97h-28.43c-7.76,0-10.11-.45-13.36-2.29-1.46-.83-2.67-1.84-5.15-4.52-3.18,4.77-5.85,6.55-11.77,7.76ZM29.44,96.95c-4.83-1.65-10.11-3.05-14.63-4.07v-10.49c6.11,1.15,8.52,1.78,14.63,3.63v10.94ZM54.63,116.09v-2.35h-6.61v2.35h6.61Z"/>
    <path class="cls-2" d="M77.59,96.31h18.63v-2.8h-14.88v-8.33h14.88v-4.07h11.19v4.07h12.15l2.23-3.18h12.47c-2.8,5.15-7,11-9.79,14.31h11.64v8.46h-19.4l-4.39,2.67h21.43v7.89h-32.63l-.7,2.54h30.65c-.32,5.72-1.21,11.26-1.72,13.1-1.46,5.28-4.77,8.14-13.61,8.14h-27.09v-8.78h25.57c1.78,0,2.86-.13,3.5-.7.7-.64,1.02-1.59,1.34-3.31h-31.99l2.16-7.89c-3.75.89-6.87,1.4-11.64,1.78v-9.54c9.73-1.14,18.83-3.5,23.02-5.92h-23.02v-8.46ZM111.56,96.31c1.34-1.02,2.16-1.84,2.86-2.8h-7v2.8h4.13Z"/>
  </g>
</svg>