<?xml version="1.0" encoding="UTF-8"?>
<svg id="_レイヤー_2" data-name="レイヤー_2" xmlns="http://www.w3.org/2000/svg" viewBox="0 0 267.33 129.3">
  <defs>
    <style>
      .cls-1 {
        fill: #ec7980;
      }

      .cls-2 {
        fill: #fff;
      }

      .cls-3 {
        fill: #9e9e9f;
      }

      .cls-4 {
        fill: #8dc33e;
      }

      .cls-5 {
        fill: #6eb944;
      }
    </style>
  </defs>
  <rect class="cls-2" x=".66" y="1.15" width="267" height="127" rx="12" ry="12"/>
  <g>
    <g>
      <path class="cls-1" d="M164.62,89.62c-3.29-1.65-7.13-3.29-7.45-3.29-.41,0-.91.36-.91.96s.41.78.73.96c1.41.82,4.8,2.56,8.23,5.81,1.1,1.05,1.28,1.24,2.02,1.24,1.09,0,1.96-.78,1.96-1.92,0-1.46-2.2-2.56-4.57-3.75Z"/>
      <path class="cls-1" d="M150.49,72.2h-10.75c-.6,0-1.55,0-1.55,1.05s1.01,1.05,1.55,1.05h20.85c.59,0,.78.46.78.69,0,.78-8.69,12.89-24.37,15.59-1.42.23-2.01.37-2.01,1.23,0,.64.55,1.01,1.01,1.01s2.7-.46,4.07-.78c5.62-1.28,9.14-3.06,10.42-3.75v13.31c0,.64,0,2.24,1.78,2.24,1.69,0,1.69-1.6,1.69-2.29v-15.22c1.6-1.05,5.58-3.52,10.11-9.01.87-1.01,2.06-2.47,2.06-3.34,0-.55-.37-1.78-1.88-1.78h-10.29"/>
      <path class="cls-1" d="M149.9,68.13c0,1.29,1.04,2.33,2.33,2.33s2.33-1.04,2.33-2.33-1.04-2.33-2.33-2.33-2.33,1.04-2.33,2.33Z"/>
    </g>
    <path class="cls-1" d="M84.52,103.43h-21.49c-2.1,0-9.01,0-9.01-6.49v-9.83c0-2.38-.5-3.75-4.3-3.75h-4.98c-.32,0-1,.09-1,.82s.69.82,1,.82h3.2c2.24,0,2.6.5,2.6,2.61v10.65c-1.46,1.42-2.51,2.11-5.48,4.02-.55.37-.87.69-.87,1.28,0,.87.73,1.37,1.37,1.37.87,0,4.75-3.66,6.49-5.3,2.28,4.71,4.89,5.44,11.39,5.44h21.08c.32,0,1-.09,1-.82s-.64-.82-1-.82Z"/>
    <path class="cls-1" d="M47.98,72.71c.59,1.1,1.05,1.97,2.29,1.97,1.1,0,2.06-.91,2.06-2.06s-1.41-2.51-3.65-4.53c-.73-.64-3.29-2.97-3.84-2.97s-.82.41-.82.83c0,.27.14.46.28.68,1.42,1.92,2.6,3.98,3.7,6.08Z"/>
    <path class="cls-1" d="M90.46,93.19c-.32,0-1.01-.09-1.01-.82s.69-.82,1.01-.82h17.92v-2.38c0-1.23.5-2.19,1.88-2.19.54,0,1.05.23,1.46.69.78-.69,4.66-4.11,4.66-4.89,0-.41-.32-.69-.83-.69h-17.42c-.37,0-1.01-.09-1.01-.82s.69-.82,1.01-.82h20.62c2.65,0,2.65,1.64,2.65,1.87,0,.96-.73,1.46-1.14,1.78-3.48,2.56-5.81,4.02-8.18,5.3v2.15h18.15c.32,0,1.01.09,1.01.82s-.69.82-1.01.82h-18.15v8.73c0,3.43-1.83,3.98-4.94,3.98h-4.66c-.5,0-1.23-.04-1.23-.82,0-.82.73-.82,1.23-.82h2.97c2.51,0,2.93-.5,2.93-2.97v-8.09h-17.92ZM94.03,80.57c0,.69-.14,2.2-1.74,2.2-1.78,0-1.78-1.78-1.78-2.2v-2.74c0-3.34,1.1-4.25,4.89-4.25h30.08c4.02,0,4.89,1.1,4.89,4.25v2.74c0,.69-.18,2.2-1.78,2.2-1.78,0-1.78-1.78-1.78-2.2v-2.42c0-2.47-.46-2.93-2.93-2.93h-26.93c-2.47,0-2.93.5-2.93,2.93v2.42ZM100.1,68.13c1.28,1.1,1.69,1.65,1.69,2.43,0,1-.78,1.92-1.87,1.92s-1.24-.28-2.61-2.61c-.86-1.46-1.55-2.33-2.37-3.43-.14-.18-.23-.37-.23-.64,0-.5.41-.78.78-.78.09,0,.23-.05.41.05.6.27,3.02,2.01,4.2,3.06ZM111.95,70.42c0,1.05-.82,1.78-1.83,1.78-1.33,0-1.64-1.01-1.92-1.83-.64-1.97-.96-2.7-2.01-4.62-.14-.28-.23-.46-.23-.64,0-.46.37-.82.78-.82.78,0,5.21,4.48,5.21,6.13ZM125.07,66.85c0,1.37-2.93,3.84-4.99,5.53-.41.32-.73.55-1.1.55-.41,0-.82-.28-.82-.82,0-.28.05-.32.46-.96,1.1-1.55,1.51-2.51,2.7-5.03.18-.32.6-1.23,1.78-1.23.96,0,1.97.77,1.97,1.97Z"/>
    <path class="cls-1" d="M176.61,86.64c-.57-1.49-1.46-3.6-3.08-5.78-.2-.28-.36-.49-.36-.81,0-.57.4-.85.81-.85,1.17,0,6.11,7.04,6.11,8.7,0,.89-.73,1.5-1.41,1.5-1.05,0-1.18-.24-2.06-2.75Z"/>
    <path class="cls-1" d="M198.53,78.55c0,.41-.77,6.6-3.12,11.65-1.7,3.72-5.1,8.66-12.78,11.77-1.13.44-3.08,1.13-3.56,1.13-.52,0-.81-.44-.81-.85,0-.61.41-.73,1.17-.97,2.19-.65,9.22-3.07,13.11-11.24,2.14-4.49,2.51-8.78,2.71-11.37.04-.53.16-1.9,1.66-1.9.97,0,1.62.77,1.62,1.78Z"/>
    <path class="cls-1" d="M185.55,84.58c-.77-2.31-1.82-4.09-2.55-5.18-.2-.32-.44-.69-.44-1.01s.28-.77.81-.77c1.01,0,5.34,6.15,5.34,7.32,0,.89-.65,1.41-1.29,1.5-1.17.16-1.46-.69-1.86-1.86Z"/>
    <path class="cls-1" d="M211.98,101.65c0,.68,0,2.28-1.69,2.28-1.78,0-1.78-1.6-1.78-2.24v-33.01c0-.69,0-2.29,1.74-2.29s1.74,1.6,1.74,2.24v11.29c5.03,1.33,9.88,3.25,14.31,5.9,2.33,1.42,2.97,1.97,2.97,3.06,0,1-.73,1.83-1.74,1.83-.87,0-1.37-.46-2.29-1.28-3.98-3.66-8-5.85-13.26-7.5v19.71Z"/>
    <path class="cls-1" d="M83.65,96.66h-10.24v-7.13h7.86c.32,0,1.01-.05,1.01-.82,0-.73-.64-.82-1.01-.82h-7.86v-6.26h5.81c.32,0,1-.09,1-.82s-.64-.83-1-.83h-5.81v-6.26h9.47c.32,0,1.01-.09,1.01-.83s-.69-.82-1.01-.82h-11.29c1.83-1.78,4.21-4.07,4.21-5.21s-.91-1.97-1.92-1.97c-1.14,0-1.6.96-1.92,1.69-1.19,2.56-1.87,3.98-2.83,5.49h-5.49c-1,0-1.1,0-1.51.05,1.1-1.6,2.83-4.53,2.83-5.63s-.87-2.01-2.01-2.01c-1.42,0-1.83,1.19-2.24,2.47-1.05,3.11-2.42,6.49-5.44,10.47-.32.46-.51.64-.51.96,0,.46.41.82.82.82.73,0,3.06-2.61,3.75-3.47v18.84c0,2.38.5,3.75,4.3,3.75h20.03c.32,0,1-.05,1-.82,0-.73-.64-.82-1-.82ZM69.84,79.97h-4.8c.46,0,.82.37.82.83s-.37.82-.82.82h4.8v6.26h-3.15c.45,0,.82.37.82.82s-.37.82-.82.82h3.15v7.13h-4.48c-2.33,0-2.56-.6-2.56-2.61v-17.74c0-2.01.23-2.6,2.56-2.6h4.48v6.26Z"/>
    <path class="cls-1" d="M64.22,80.8c0,.45.37.82.82.82s.82-.37.82-.82-.37-.83-.82-.83-.82.37-.82.83Z"/>
    <path class="cls-1" d="M65.86,88.71c0,.45.37.82.83.82s.82-.37.82-.82-.37-.82-.82-.82-.83.37-.83.82Z"/>
    <path class="cls-1" d="M102.29,17.9c0-.75-.71-.85-1.03-.85h-13.22c-.33,0-1.03.05-1.03.85,0,.75.66.85,1.03.85h13.22c.28,0,1.03-.09,1.03-.85Z"/>
    <path class="cls-1" d="M103.33,13.51h6.3v1.55c0,.56.09,1.98,1.6,1.98s1.65-1.36,1.65-1.98v-1.55h6.3v1.51c0,.33,0,2.02,1.65,2.02,1.55,0,1.69-1.46,1.69-2.02v-1.51h6.12c.33,0,1.04-.05,1.04-.85,0-.75-.66-.85-1.04-.85h-6.12v-1.46c0-.33,0-2.02-1.69-2.02-1.5,0-1.65,1.41-1.65,2.02v1.46h-6.3v-1.51c0-.61-.14-1.97-1.65-1.97s-1.6,1.32-1.6,1.97v1.51h-6.3c-.33,0-1.08.09-1.08.85s.71.85,1.08.85Z"/>
    <path class="cls-1" d="M99.84,22.76h-10.02c-.33,0-1.03.09-1.03.85s.71.85,1.03.85h10.02c.28,0,1.03-.09,1.03-.85s-.7-.85-1.03-.85Z"/>
    <path class="cls-1" d="M129.6,49.25c-2.31-.38-6.26-1.07-10.17-2.9,3.67-2.26,6.59-4.89,6.59-6.02,0-.85-.75-1.74-2.02-1.74h-15.16c-.33,0-1.04.05-1.04.85,0,.75.66.85,1.04.85h11.73c.47,0,.71.28.71.61,0,.38-1.55,2.07-4.38,4.09-2.26-1.46-2.63-1.79-4.7-3.62-.33-.28-.61-.52-1.08-.52-.85,0-1.41.71-1.41,1.41,0,1.22,3.11,3.06,4.99,4.09-3.76,1.98-6.1,2.1-10.43,2.76-.47.09-.8.38-.8.85,0,.42.28.85.85.85.19,0,6.72-.31,12.78-3.23,6.4,2.96,12.38,3.42,12.52,3.42.61,0,.89-.47.89-.85,0-.47-.19-.8-.89-.89Z"/>
    <path class="cls-1" d="M89.83,28.47c-.33,0-1.03.09-1.03.85s.71.85,1.03.85h10.02c.28,0,1.03-.05,1.03-.85,0-.75-.7-.85-1.03-.85h-10.02Z"/>
    <path class="cls-1" d="M176.08,10.31c.33,0,1.03.09,1.03.85s-.75.85-1.03.85h-32.22c-2.92,0-3.34.61-3.34,3.34v29.4c0,2.82.52,3.34,3.34,3.34h33.07c.33,0,1.03.09,1.03.85s-.75.85-1.03.85h-35.14c-4.99,0-5.17-2.54-5.17-4.7V15.02c0-2.78.66-4.7,5.17-4.7h34.29ZM159.52,34.4c-3.43,8.51-13.78,11.48-14.16,11.48s-.8-.33-.8-.85.33-.71.75-.89c7.48-3.43,10.54-7.43,11.62-13.45h-13.08c-.33,0-1.08-.09-1.08-.85s.71-.85,1.08-.85h13.36c.14-1.46.19-3.25.19-8.7h-6.63c-1.88,2.11-4.8,4.89-5.46,4.89-.47,0-.85-.38-.85-.8,0-.28.14-.52.38-.75.99-1.18,3.06-3.62,4.99-8.18.52-1.22.94-2.16,2.31-2.16,1.22,0,1.93,1.08,1.93,1.93,0,.89-1.13,2.35-1.88,3.38h19.33c.33,0,1.03.09,1.03.89,0,.71-.66.8-1.03.8h-10.4c0,4.84-.14,7.52-.23,8.7h12.7c.33,0,1.03.09,1.03.85s-.7.85-1.03.85h-12.9l-1.17,3.72Z"/>
    <path class="cls-1" d="M184.03,21.75c1.03,1.69,1.22,2.02,2.16,2.02.8,0,1.6-.61,1.6-1.6,0-.71-.23-1.08-1.6-2.17-2.12-1.69-3.01-2.26-3.34-2.26-.47,0-.8.42-.8.8,0,.19.05.38.19.56.85,1.18,1.36,1.93,1.79,2.64Z"/>
    <path class="cls-1" d="M202.52,43.95c0-.99-.7-1.74-1.74-1.74-.66,0-1.03.28-1.36.71-2.82,3.43-5.36,4.8-6.12,5.22-.28.14-.7.38-.7.85s.42.85.85.85,3.58-1.32,6.45-3.15c2.45-1.6,2.63-2.02,2.63-2.73Z"/>
    <path class="cls-1" d="M203.32,12.01h-10.25c-4.14,0-5.04,1.13-5.04,4.37v12.51c-1.93,1.32-4,2.49-6.07,3.53-.66.33-1.13.71-1.13,1.55,0,.99.85,1.65,1.6,1.65.66,0,1.13-.33,1.5-.66,1.41-1.13,2.73-2.26,4.05-3.48-.38,8.8-2.16,13.36-5.13,16.84-.19.23-.42.47-.42.8,0,.42.38.85.89.85.75,0,2.92-2.82,3.58-3.81,1.32-1.88,4.47-6.96,4.47-15.71v-13.74c0-2.54.47-3.01,3.01-3.01h29.54c.38,0,1.04-.09,1.04-.85s-.71-.85-1.04-.85h-16.84"/>
    <path class="cls-1" d="M206.37,46.77c0,2.16-.38,2.68-2.68,2.68h-.8c-.47,0-1.27,0-1.27.85s.75.85,1.27.85h2.77c4.24,0,4.24-1.98,4.24-4.19v-7.3h-3.53v7.12Z"/>
    <path class="cls-1" d="M224.44,30.07c-3.2-1.13-4.42-1.51-6.87-3.2,3.58-2.59,3.72-3.15,3.72-3.81,0-.85-.66-1.74-1.74-1.74-.85,0-1.27.42-1.74,1.32-.24.47-1.08,1.88-1.93,2.96-2.16-1.84-3.43-3.57-4.47-5.27h12c.33,0,1.03-.09,1.03-.85,0-.8-.71-.85-1.03-.85h-14.49c.38-.66.66-1.17.66-1.79,0-1.03-.85-2.07-2.07-2.07-.85,0-1.55.52-1.88,1.18-.19.38-.89,2.31-1.03,2.68h-10.35c-.38,0-1.08.09-1.08.85s.75.85,1.03.85h9.6c-1.46,2.78-2.92,4.33-3.58,4.99-.19-.75-3.53-4-4.19-4-.47,0-.85.47-.85.8,0,.28.47.94.8,1.37.56.8,1.32,2.3,1.83,2.96.24.28.47.38.61.47-1.93,1.65-4.61,2.82-5.78,3.34-.28.09-.71.33-.71.85s.47.85.85.85c.42,0,2.68-1.03,4.99-2.3l1.69-1.08c4.85-3.25,7.39-6.82,8.33-8.19,1.22,1.88,3.81,5.36,9.27,8.42l.23.14c3.25,1.74,6.68,2.87,7.01,2.87.42,0,.85-.33.85-.89,0-.52-.38-.75-.71-.85Z"/>
    <path class="cls-1" d="M220.06,45.13c-1.83-.99-5.32-2.54-5.64-2.54-.56,0-.94.42-.94.85,0,.38.28.61.42.71,2.92,1.93,3.72,2.49,5.46,4.56.42.52.99.85,1.55.85.99,0,1.83-.66,1.83-1.74s-.7-1.6-2.68-2.68Z"/>
    <path class="cls-1" d="M94.5,12.84c.43.79.75,1.41,1.64,1.41.78,0,1.47-.65,1.47-1.47s-1.01-1.8-2.62-3.24c-.53-.46-2.36-2.13-2.75-2.13s-.59.3-.59.59c0,.2.1.33.2.49,1.01,1.38,1.86,2.85,2.65,4.35Z"/>
    <path class="cls-1" d="M169.71,43.95c-2.6-4.49-5.61-7.35-6.84-8.65-.28-.29-.65-.61-.48-1.24.18-.64.82-.88,1.25-.76.33.09,3.85,2.99,6.79,5.73,2.12,1.97,4.08,3.8,3.64,5.37-.35,1.22-1.49,1.8-2.63,1.48-.76-.22-.9-.47-1.73-1.92Z"/>
    <path class="cls-1" d="M82.79,24.05h-22.53c.8-2.07,1.03-3.06,1.6-5.27h17.78c.33,0,1.03-.09,1.03-.85s-.7-.85-1.03-.85h-17.45c.42-2.21.52-3.25.71-4.85,3.39-.05,10.11-.33,13.41-.61,1.46-.14,2.77-.23,2.77-1.79,0-.75-.52-1.6-1.51-1.6-.52,0-1.88.33-2.3.42-7.67,1.32-20.7,1.83-28.84,1.88-.94,0-1.79,0-1.79.89,0,.24.09.61.56.8.42.14,6.4.14,7.39.14.66,0,5.46-.09,6.58-.09-.14,1.55-.23,2.54-.61,4.8h-13.31c-.28,0-1.04.05-1.04.85,0,.75.71.85,1.04.85h12.98c-.52,2.54-1.03,4-1.46,5.27h-14.82c-.33,0-1.03.09-1.03.85s.71.85,1.03.85h14.11c-2.35,5.17-6.11,9.17-13.78,12.98-1.13.56-1.32.66-1.32,1.18,0,.47.38.85.8.85.19,0,4.71-1.18,10.59-6.02v11.43c0,2.44.47,3.86,4.42,3.86h17.78c3.62,0,4.37-1.13,4.37-3.86v-12.8c0-2.45-.47-3.86-4.37-3.86h-17.12c1.13-1.6,1.69-2.82,2.17-3.76h23.19c.33,0,1.04-.09,1.04-.85s-.66-.85-1.04-.85ZM58.85,31.2h13.64c2.26,0,2.63.47,2.63,2.68v11.76c0,2.07-.23,2.68-2.63,2.68h-13.64c-2.3,0-2.68-.47-2.68-2.68v-2.16h13.18c-.47,0-.85-.38-.85-.85s.38-.84.84-.85h-13.18v-4.56h15.98c-.47,0-.85-.38-.85-.85s.38-.85.85-.85h-15.98v-1.65c0-2.07.23-2.68,2.68-2.68Z"/>
    <path class="cls-1" d="M73,36.37c0-.47-.38-.85-.85-.85s-.85.38-.85.85.38.85.85.85.85-.38.85-.85Z"/>
    <path class="cls-1" d="M70.2,42.63c0-.47-.38-.84-.84-.85h-.01c-.47,0-.84.38-.84.85s.38.85.85.85.85-.38.85-.85Z"/>
    <path class="cls-1" d="M128.87,34.59h-10.3v-3.39h4.08c.33,0,1.04-.05,1.04-.85,0-.75-.66-.85-1.04-.85h-4.08v-3.06h6.89c.33,0,1.03-.09,1.03-.85s-.66-.85-1.03-.85h-6.89v-2.82h9.27c.33,0,1.03-.09,1.03-.85s-.71-.85-1.03-.85h-10.73c1.08-.85,1.36-1.32,1.36-1.88,0-.89-.71-1.6-1.6-1.6-.8,0-1.13.38-1.46.99-.75,1.41-1.27,2.17-1.46,2.49h-4.85c.42-.56.8-1.13.8-1.74,0-.75-.66-1.55-1.65-1.55-.85,0-1.32.47-1.65,1.18-1.6,3.48-2.59,5.13-5.17,7.76-.14.14-.37.38-.37.71,0,.47.37.89.85.89.61,0,2.49-1.65,4.14-3.34v8.28c0,2.45.47,3.86,4.42,3.86h18.39c.33,0,1.03-.09,1.03-.85s-.71-.85-1.03-.85ZM115.6,24.76h-2.15c.47,0,.85.38.85.85s-.38.85-.85.85h2.15v3.06h-4.27c.47,0,.85.38.85.85s-.38.85-.85.85h4.27v3.39h-4c-2.68,0-2.68-.75-2.68-3.39v-6.45c0-2.16.19-2.82,2.68-2.82h4v2.82Z"/>
    <path class="cls-1" d="M112.61,25.6c0,.47.38.85.85.85s.85-.38.85-.85-.38-.85-.85-.85-.85.38-.85.85Z"/>
    <path class="cls-1" d="M110.49,30.35c0,.47.38.85.85.85s.85-.38.85-.85-.38-.85-.85-.85-.85.38-.85.85Z"/>
    <path class="cls-2" d="M216.94,40.61c-6.54-1.65-11.57-1.65-18.11,0-1.12-4.2-1.68-6.3-2.8-10.5,7.7-2.7,16.01-2.7,23.71,0-1.12,4.2-1.68,6.3-2.8,10.5Z"/>
    <path class="cls-1" d="M216.95,41.52c-.09,0-.18-.01-.27-.04-3.24-.82-6.04-1.21-8.8-1.21s-5.56.39-8.83,1.22c-.06.02-.15.04-.24.04-.37,0-.7-.25-.8-.63l-2.95-10.44c-.13-.47.19-1,.71-1.19,4.28-1.21,8.23-1.8,12.11-1.8s7.83.59,12.09,1.79c.54.19.86.72.73,1.19l-2.95,10.44c-.11.38-.43.63-.8.63ZM207.88,38.45c2.67,0,5.37.33,8.46,1.05l2.21-8.82c-3.78-.94-7.27-1.4-10.66-1.4s-6.88.46-10.66,1.4l2.21,8.81c3.09-.72,5.78-1.05,8.46-1.05Z"/>
    <path class="cls-1" d="M216.79,41.17c-6.43-1.63-11.38-1.63-17.81,0-.27.1-.56-.07-.65-.37-1.18-4.18-1.77-6.26-2.96-10.44-.09-.3.14-.66.51-.79,8.38-2.38,15.62-2.37,24,0,.37.13.59.49.51.79-1.18,4.18-1.77,6.26-2.95,10.44-.09.3-.38.47-.65.37ZM199.19,39.89c6.24-1.49,11.14-1.49,17.38,0,.95-3.77,1.42-5.66,2.36-9.44-7.79-1.99-14.33-1.99-22.11,0,.94,3.78,1.42,5.66,2.36,9.44Z"/>
    <path class="cls-3" d="M205.77,36.03c-.09.16-.23.38-.16.76.07.37.4.69.83.74.42.05.98-.27,1.15-1.1.17-.87.09-1.83.3-2.48.21.65.12,1.61.3,2.47.16.83.72,1.14,1.15,1.1.43-.05.76-.37.83-.74.08-.38-.06-.61-.16-.76.16.1.38.23.76.16.37-.07.69-.4.74-.83.05-.42-.26-.98-1.1-1.15-.85-.17-1.81-.09-2.46-.29.65-.2,1.6-.12,2.45-.29.83-.17,1.14-.73,1.1-1.15-.05-.43-.37-.76-.74-.83-.38-.07-.6.06-.76.16.1-.16.23-.38.16-.76-.08-.37-.4-.69-.83-.74-.42-.05-.98.26-1.15,1.1-.17.85-.09,1.8-.29,2.45-.2-.65-.12-1.6-.29-2.46-.17-.83-.73-1.14-1.15-1.1-.43.05-.76.37-.83.74-.08.37.06.6.16.76-.16-.1-.38-.23-.76-.16-.37.07-.69.4-.74.83-.05.42.26.98,1.1,1.15.86.17,1.83.09,2.47.3-.65.21-1.62.13-2.48.3-.83.17-1.14.73-1.1,1.15.05.43.37.76.74.83.38.08.61-.06.76-.16Z"/>
    <path class="cls-1" d="M94.84,48.03c.07.32.19.78.76,1.15.56.37,1.38.38,1.99-.11.59-.47.91-1.57.06-2.83-.88-1.31-2.21-2.42-2.76-3.51,1.08.55,2.19,1.88,3.5,2.75,1.26.84,2.36.53,2.83-.06.48-.61.49-1.43.11-1.98-.38-.57-.84-.69-1.16-.76.32-.08.78-.19,1.15-.76.37-.56.37-1.38-.11-1.98-.47-.59-1.57-.91-2.83-.07-1.3.87-2.4,2.18-3.47,2.74.56-1.07,1.87-2.17,2.73-3.46.84-1.26.53-2.36-.06-2.83-.61-.49-1.43-.49-1.99-.11-.57.38-.69.84-.76,1.15-.08-.32-.19-.78-.76-1.16-.56-.37-1.38-.37-1.98.11-.59.47-.91,1.57-.07,2.83.86,1.29,2.17,2.39,2.73,3.46-1.07-.56-2.18-1.87-3.47-2.74-1.26-.84-2.36-.53-2.83.06-.49.61-.49,1.43-.11,1.99.38.57.84.69,1.15.76-.32.07-.78.19-1.15.76-.37.56-.37,1.38.11,1.98.47.59,1.57.91,2.83.07,1.3-.87,2.41-2.2,3.49-2.75-.55,1.08-1.88,2.2-2.76,3.51-.84,1.26-.53,2.36.07,2.83.61.49,1.43.49,1.98.11.57-.38.69-.84.76-1.15Z"/>
    <path class="cls-1" d="M100.19,48.03c1.04-.08,2-.55,2.62-1.33.92-1.15,1.08-2.73.43-4.02.65-1.28.49-2.86-.44-4.02-.62-.76-1.59-1.26-2.62-1.33-.08-1.02-.55-1.96-1.33-2.6-1.16-.93-2.74-1.09-4.02-.44-1.29-.65-2.86-.49-4.02.43-.78.62-1.26,1.57-1.33,2.61-1.04.07-2,.55-2.62,1.33-.91,1.14-1.07,2.75-.44,4.02-.65,1.28-.49,2.86.43,4.02.61.76,1.58,1.26,2.62,1.34.06.91.43,1.76,1.06,2.39.09.09.19.18.28.25,1.14.91,2.75,1.08,4.02.43,1.29.65,2.87.49,4.02-.43.79-.63,1.26-1.59,1.33-2.64Z"/>
    <path class="cls-2" d="M98.87,46.72c1.27.42,2.43.02,3.04-.74.7-.88.77-2.13.16-3.04-.06-.09-.13-.18-.2-.26.07-.08.14-.17.2-.26.61-.91.54-2.16-.16-3.04-.58-.73-1.73-1.17-3.03-.74.42-1.28,0-2.4-.75-3.01-.88-.7-2.13-.77-3.04-.16-.09.06-.18.13-.26.2-.08-.07-.17-.13-.26-.2-.91-.61-2.16-.54-3.04.16-.75.6-1.15,1.73-.74,3.01-1.31-.45-2.44,0-3.04.74-.7.88-.77,2.13-.16,3.04.06.1.13.19.2.27-.07.08-.14.17-.2.26-.61.91-.55,2.16.16,3.04.58.73,1.74,1.18,3.04.74-.4,1.19-.07,2.26.55,2.88.06.06.12.11.19.17.88.7,2.13.77,3.03.16.09-.06.18-.13.27-.2.08.07.17.13.26.2.91.61,2.16.54,3.04-.16.76-.61,1.16-1.77.73-3.05Z"/>
    <path class="cls-4" d="M94.84,48.03c.07.32.19.78.76,1.15.56.37,1.38.38,1.99-.11.59-.47.91-1.57.06-2.83-.88-1.31-2.21-2.42-2.76-3.51,1.08.55,2.19,1.88,3.5,2.75,1.26.84,2.36.53,2.83-.06.48-.61.49-1.43.11-1.98-.38-.57-.84-.69-1.16-.76.32-.08.78-.19,1.15-.76.37-.56.37-1.38-.11-1.98-.47-.59-1.57-.91-2.83-.07-1.3.87-2.4,2.18-3.47,2.74.56-1.07,1.87-2.17,2.73-3.46.84-1.26.53-2.36-.06-2.83-.61-.49-1.43-.49-1.99-.11-.57.38-.69.84-.76,1.15-.08-.32-.19-.78-.76-1.16-.56-.37-1.38-.37-1.98.11-.59.47-.91,1.57-.07,2.83.86,1.29,2.17,2.39,2.73,3.46-1.07-.56-2.18-1.87-3.47-2.74-1.26-.84-2.36-.53-2.83.06-.49.61-.49,1.43-.11,1.99.38.57.84.69,1.15.76-.32.07-.78.19-1.15.76-.37.56-.37,1.38.11,1.98.47.59,1.57.91,2.83.07,1.3-.87,2.41-2.2,3.49-2.75-.55,1.08-1.88,2.2-2.76,3.51-.84,1.26-.53,2.36.07,2.83.61.49,1.43.49,1.98.11.57-.38.69-.84.76-1.15Z"/>
    <path class="cls-1" d="M207.89,37.88c.06.23.14.58.56.86.42.28,1.03.28,1.48-.08.44-.35.68-1.17.05-2.11-.65-.97-1.64-1.8-2.05-2.61.8.41,1.63,1.4,2.6,2.04.94.63,1.75.39,2.11-.05.36-.45.36-1.06.08-1.47-.28-.42-.62-.51-.86-.56.23-.06.58-.14.86-.56.28-.42.28-1.03-.08-1.48-.35-.44-1.17-.68-2.11-.05-.96.64-1.78,1.62-2.58,2.04.42-.79,1.39-1.61,2.03-2.57.62-.94.39-1.75-.05-2.11-.45-.36-1.06-.36-1.48-.08-.42.28-.51.63-.56.86-.06-.23-.14-.58-.57-.86-.41-.28-1.03-.28-1.47.08-.44.35-.68,1.17-.05,2.11.64.96,1.61,1.78,2.03,2.57-.8-.42-1.62-1.39-2.58-2.03-.94-.63-1.75-.39-2.11.05-.36.45-.36,1.06-.08,1.48.28.42.62.51.86.56-.23.05-.58.14-.86.56-.28.42-.28,1.03.08,1.48.35.44,1.17.68,2.11.05.97-.65,1.79-1.63,2.6-2.04-.41.8-1.4,1.63-2.05,2.61-.63.94-.39,1.75.05,2.11.45.36,1.06.36,1.47.08.42-.28.51-.62.56-.86Z"/>
    <path class="cls-2" d="M211.6,37.42c1.17.39,2.24.02,2.8-.68.64-.81.7-1.96.14-2.8-.06-.09-.12-.17-.18-.24.06-.08.12-.16.18-.24.56-.84.5-1.99-.14-2.8-.54-.67-1.59-1.08-2.78-.68.38-1.18,0-2.21-.69-2.77-.81-.65-1.96-.71-2.79-.15-.09.06-.17.12-.24.18-.07-.06-.15-.12-.24-.18-.84-.56-1.99-.5-2.79.15-.69.55-1.06,1.59-.68,2.77-1.2-.41-2.25,0-2.79.68-.65.81-.71,1.96-.15,2.79.06.09.12.17.18.24-.06.08-.13.16-.18.24-.56.84-.5,1.99.14,2.8.53.67,1.59,1.08,2.79.68-.37,1.1-.07,2.08.51,2.65.05.06.11.11.17.15.81.65,1.95.71,2.79.15.09-.06.17-.12.25-.18.07.06.15.12.24.18.84.56,1.99.5,2.79-.14.7-.56,1.07-1.63.67-2.81Z"/>
    <path class="cls-4" d="M207.89,38.63c.07.29.18.71.7,1.06.52.34,1.27.34,1.83-.1.54-.44.84-1.45.06-2.61-.8-1.2-2.03-2.23-2.53-3.22.99.51,2.02,1.73,3.21,2.53,1.16.77,2.17.49,2.6-.06.45-.55.45-1.31.1-1.82-.35-.52-.77-.63-1.06-.7.29-.07.71-.17,1.06-.7.34-.52.34-1.27-.1-1.82-.44-.55-1.45-.83-2.6-.06-1.19.8-2.21,2-3.19,2.52.52-.98,1.72-1.99,2.51-3.18.77-1.16.48-2.17-.06-2.6-.56-.45-1.31-.45-1.83-.1-.52.35-.63.77-.7,1.06-.07-.29-.18-.71-.7-1.06-.51-.34-1.27-.34-1.82.1-.55.44-.84,1.44-.06,2.6.79,1.18,1.99,2.2,2.51,3.18-.99-.52-2-1.72-3.19-2.51-1.16-.77-2.17-.49-2.6.06-.45.56-.45,1.31-.1,1.83.35.52.77.63,1.06.7-.29.07-.71.18-1.06.7-.34.52-.34,1.27.1,1.83.44.55,1.45.84,2.6.06,1.2-.8,2.22-2.02,3.21-2.53-.51,1-1.73,2.02-2.53,3.22-.77,1.16-.49,2.17.06,2.6.56.45,1.31.45,1.82.1.52-.35.63-.77.7-1.06Z"/>
    <path class="cls-1" d="M205.47,9.19c0,1.13.92,2.04,2.04,2.04s2.04-.91,2.04-2.04-.91-2.04-2.04-2.04-2.04.91-2.04,2.04Z"/>
    <g>
      <path class="cls-5" d="M52.43,123.95s.17.19.17.42c0,.34-.3.62-.68.62-.22,0-.41-.1-.5-.22l-5.3-5.72-1.07.93v4.39c0,.39-.35.62-.66.62s-.66-.23-.66-.62v-10.41c0-.36.29-.62.65-.62s.68.24.68.62v5.05l6.46-5.58c.06-.04.16-.08.23-.08.19,0,.38.14.38.36,0,.1-.05.19-.14.27l-4.89,4.22,5.33,5.75Z"/>
      <path class="cls-5" d="M59.33,119.49c0-1.36-.68-2.1-1.89-2.1-1.6,0-1.93,1.28-1.98,1.45-.05.21-.14.59-.65.59-.36,0-.63-.27-.63-.56,0-.67,1.23-2.08,3.25-2.08,1.21,0,3.08.53,3.08,2.64v4.23c0,.11.05.36.08.49.03.1.17.4.17.49,0,.2-.25.35-.5.35-.44,0-.71-.49-.78-.88-.47.29-1.45.88-2.94.88-.89,0-2.72-.2-2.72-2.1,0-2.5,3.38-2.73,5.5-2.83v-.57ZM59.33,120.62c-1.32.07-4.21.24-4.21,2.3,0,1.36,1.49,1.42,1.82,1.42.9,0,1.94-.46,2.39-.83v-2.88Z"/>
      <path class="cls-5" d="M70.05,124.42c0,.34-.3.56-.58.56-.33,0-.61-.22-.61-.56v-5.14c0-1.41-.96-1.89-1.92-1.89-.26,0-1.92,0-2.56,2.08v4.95c0,.34-.3.56-.6.56-.31,0-.6-.22-.6-.56v-7.07c0-.34.3-.56.58-.56.33,0,.61.22.61.56v.92c.47-.62,1.16-1.48,2.81-1.48,1.32,0,2.86.46,2.86,2.58v5.05Z"/>
      <path class="cls-5" d="M79.22,119.08c0,1.34-1.04,2.34-3.21,2.34-.97,0-1.42-.17-1.81-.32-.13.09-.3.2-.3.59,0,.89,1.42.92,2.44.93,1.06.01,1.83.04,2.5.39.44.23,1.15.69,1.15,1.74,0,1.92-2.03,2.4-4.04,2.4-1.63,0-3.74-.36-3.74-2.28,0-1.35,1.01-1.74,1.48-1.92-.5-.16-.8-.49-.8-.99s.43-.93.94-1.12c-.66-.39-.99-1.08-.99-1.77,0-.57.28-2.28,3.29-2.28.57,0,1.49.06,2.25.59.11-.21.38-.76,1.1-.76.2,0,.75.07.75.55,0,.06,0,.5-.6.53-.63.03-.71.04-.8.12.39.53.39,1.15.39,1.28ZM73.55,124.77c0,1.16.77,1.81,2.47,1.81.69,0,2.64-.14,2.64-1.74,0-1.4-1.32-1.52-1.72-1.55-.36-.03-2.09-.08-2.47-.16-.46.26-.93.54-.93,1.63ZM77.89,119.08c0-.72-.44-1.74-1.84-1.74-1.31,0-1.9.9-1.9,1.79,0,.77.34,1.72,1.92,1.72,1.76,0,1.82-1.52,1.82-1.78Z"/>
      <path class="cls-5" d="M88.94,120.88c0,2.25-1.43,4.1-3.69,4.1s-3.7-1.88-3.7-4.1,1.4-4.09,3.7-4.09,3.69,1.87,3.69,4.09ZM82.86,120.88c0,1.1.24,3.49,2.39,3.49s2.39-2.34,2.39-3.49c0-1.08-.22-3.47-2.39-3.47s-2.39,2.32-2.39,3.47Z"/>
      <path class="cls-5" d="M97.7,124.37c0,.39-.34.62-.66.62-.33,0-.66-.23-.66-.62v-10.41c0-.39.33-.62.64-.62.34,0,.67.24.67.62v10.41Z"/>
      <path class="cls-5" d="M101.6,124.42c0,.34-.3.56-.6.56-.32,0-.6-.22-.6-.56v-7.07c0-.34.3-.56.58-.56.33,0,.61.22.61.56v.95c.14-.39.27-.64.74-.96.41-.27,1.09-.54,1.7-.54.74,0,.74.52.74.57,0,.55-.5.56-1.12.57-1.56.04-1.89.8-2.06,1.2v5.28Z"/>
      <path class="cls-5" d="M105.64,117.59c-.05-.07-.08-.17-.08-.27,0-.27.24-.53.6-.53.25,0,.44.16.5.27l3.1,5.27,2.72-5.32c.06-.13.2-.22.38-.22.24,0,.39.2.39.34,0,.06-.02.11-.03.16l-4.94,9.63c-.08.14-.2.23-.38.23-.24,0-.39-.2-.39-.36,0-.06,0-.12.03-.16l1.62-3.14-3.52-5.9Z"/>
      <path class="cls-5" d="M121.83,120.88c0,2.25-1.43,4.1-3.7,4.1s-3.69-1.88-3.69-4.1,1.4-4.09,3.69-4.09,3.7,1.87,3.7,4.09ZM115.75,120.88c0,1.1.23,3.49,2.39,3.49s2.39-2.34,2.39-3.49c0-1.08-.22-3.47-2.39-3.47s-2.39,2.32-2.39,3.47Z"/>
      <path class="cls-5" d="M136.78,115.98c0,.37-.36.62-.69.62-.6,0-.66-.43-.72-.82-.08-.52-.43-1.84-2.6-1.84-1.7,0-2.56.99-2.56,2.09,0,1.32.85,1.61,3.02,2.33,2.22.74,3.93,1.36,3.93,3.4,0,2.23-1.81,3.22-4.11,3.22s-3.39-.85-3.93-1.88c-.22-.42-.33-.83-.33-1.08,0-.39.36-.65.72-.65.69,0,.74.56.77.86.05.63.54,2.14,2.85,2.14s2.77-1.48,2.77-2.24c0-1.38-.91-1.8-3.16-2.53-1.98-.65-3.69-1.22-3.69-3.29,0-1.85,1.57-2.98,3.8-2.98,3.26,0,3.93,2.2,3.93,2.64Z"/>
      <path class="cls-5" d="M146.31,124.42c0,.34-.29.56-.58.56-.33,0-.61-.22-.61-.56v-5.14c0-1.41-.96-1.89-1.92-1.89-.27,0-1.92,0-2.56,2.08v4.95c0,.34-.3.56-.6.56s-.6-.22-.6-.56v-10.52c0-.34.3-.56.58-.56.33,0,.61.23.61.56v4.36c.47-.62,1.16-1.48,2.81-1.48,1.32,0,2.86.46,2.86,2.58v5.05Z"/>
      <path class="cls-5" d="M150.66,114.21c0,.47-.42.86-.94.86s-.94-.39-.94-.86.42-.86.94-.86.94.39.94.86ZM150.31,124.42c0,.34-.31.56-.6.56-.31,0-.6-.22-.6-.56v-7.07c0-.34.3-.56.58-.56.31,0,.61.22.61.56v7.07Z"/>
      <path class="cls-5" d="M159.99,124.42c0,.34-.3.56-.58.56-.33,0-.61-.22-.61-.56v-5.14c0-1.41-.96-1.89-1.92-1.89-.26,0-1.92,0-2.56,2.08v4.95c0,.34-.3.56-.6.56-.32,0-.6-.22-.6-.56v-7.07c0-.34.3-.56.58-.56.33,0,.61.22.61.56v.92c.47-.62,1.16-1.48,2.81-1.48,1.32,0,2.86.46,2.86,2.58v5.05Z"/>
      <path class="cls-5" d="M169.15,119.08c0,1.34-1.04,2.34-3.21,2.34-.98,0-1.42-.17-1.81-.32-.13.09-.3.2-.3.59,0,.89,1.41.92,2.44.93,1.06.01,1.83.04,2.5.39.44.23,1.15.69,1.15,1.74,0,1.92-2.03,2.4-4.04,2.4-1.63,0-3.74-.36-3.74-2.28,0-1.35,1.01-1.74,1.48-1.92-.5-.16-.8-.49-.8-.99s.43-.93.95-1.12c-.66-.39-.99-1.08-.99-1.77,0-.57.28-2.28,3.29-2.28.57,0,1.49.06,2.25.59.11-.21.38-.76,1.1-.76.2,0,.75.07.75.55,0,.06,0,.5-.6.53-.63.03-.71.04-.8.12.39.53.39,1.15.39,1.28ZM163.49,124.77c0,1.16.77,1.81,2.47,1.81.69,0,2.64-.14,2.64-1.74,0-1.4-1.32-1.52-1.71-1.55-.36-.03-2.09-.08-2.47-.16-.46.26-.93.54-.93,1.63ZM167.83,119.08c0-.72-.44-1.74-1.84-1.74-1.31,0-1.9.9-1.9,1.79,0,.77.35,1.72,1.92,1.72,1.76,0,1.82-1.52,1.82-1.78Z"/>
      <path class="cls-5" d="M176.93,119.49c0-1.36-.68-2.1-1.89-2.1-1.6,0-1.93,1.28-1.98,1.45-.05.21-.14.59-.64.59-.36,0-.63-.27-.63-.56,0-.67,1.23-2.08,3.25-2.08,1.21,0,3.09.53,3.09,2.64v4.23c0,.11.05.36.08.49.03.1.17.4.17.49,0,.2-.25.35-.5.35-.44,0-.71-.49-.79-.88-.47.29-1.45.88-2.94.88-.9,0-2.72-.2-2.72-2.1,0-2.5,3.38-2.73,5.5-2.83v-.57ZM176.93,120.62c-1.32.07-4.21.24-4.21,2.3,0,1.36,1.5,1.42,1.83,1.42.9,0,1.93-.46,2.39-.83v-2.88Z"/>
      <path class="cls-5" d="M187.75,124.11c.08.09.13.21.13.33,0,.31-.27.54-.6.54-.22,0-.39-.14-.44-.2l-3.99-4.61-.82.49v3.76c0,.34-.3.56-.6.56-.32,0-.6-.22-.6-.56v-10.52c0-.34.3-.56.6-.56s.6.23.6.56v5.93l4.94-2.98s.12-.06.2-.06c.22,0,.4.16.4.36,0,.13-.08.23-.19.29l-3.57,2.17,3.95,4.51Z"/>
      <path class="cls-5" d="M189.8,117.35c0-.34.3-.56.58-.56.33,0,.61.22.61.56v5.12c0,1.42.96,1.91,1.92,1.91.26,0,1.93,0,2.56-2.08v-4.95c0-.34.3-.56.6-.56.32,0,.6.22.6.56v7.07c0,.34-.3.56-.58.56-.33,0-.61-.22-.61-.56v-.93c-.47.63-1.16,1.49-2.81,1.49-1.31,0-2.86-.46-2.86-2.58v-5.05Z"/>
      <path class="cls-5" d="M213.53,124.08c0,.52-.38.9-.99.9-.47,0-.85-.23-1.09-.65l-5.52-9.33c-.05-.09-.14-.19-.24-.19-.14,0-.16.1-.16.19v9.57c0,.22-.17.4-.42.4-.33,0-.46-.25-.46-.4v-10.32c0-.49.46-.92,1.07-.92.44,0,.82.19,1.05.57l5.57,9.41c.08.13.14.14.17.14.11,0,.14-.07.14-.14v-9.59c0-.2.17-.4.42-.4.32,0,.44.24.44.4v10.33Z"/>
      <path class="cls-5" d="M217.02,121.12c.03,1.15.16,3.26,2.37,3.26.93,0,1.86-.37,2.06-1.63.06-.37.13-.8.69-.8.38,0,.66.29.66.59,0,.6-.77,2.46-3.41,2.46-3.4,0-3.7-2.9-3.7-4.03,0-2.31,1.23-4.16,3.73-4.16s3.46,2.2,3.46,3.24c0,.92-.57,1.09-1.43,1.09h-4.43ZM221.1,120.59c.55,0,.55-.45.55-.56,0-.5-.1-2.64-2.22-2.64s-2.36,1.82-2.42,3.2h4.09Z"/>
      <path class="cls-5" d="M227.33,123.4c0,.36.03.97.82.97.17,0,.5-.01.83-.27.08-.06.14-.09.2-.09.13,0,.22.09.22.2,0,.17-.61.76-1.78.76-.88,0-1.49-.39-1.49-1.45v-6h-1.54c-.2,0-.31-.13-.31-.26s.11-.27.31-.27h1.54v-1.82c0-.34.3-.56.6-.56s.6.22.6.56v1.82h1.76c.2,0,.3.13.3.26,0,.14-.09.27-.3.27h-1.76v5.87Z"/>
    </g>
  </g>
</svg>