<?xml version="1.0" encoding="UTF-8"?>
<svg id="_レイヤー_1" data-name="レイヤー_1" xmlns="http://www.w3.org/2000/svg" viewBox="0 0 267.33 129.3">
  <defs>
    <style>
      .cls-1 {
        fill: #fff;
      }

      .cls-2 {
        fill: #040000;
      }

      .cls-3 {
        fill: #009dc4;
      }
    </style>
  </defs>
  <path class="cls-3" d="M113.13,129.3H16.17c-8.93,0-16.17-7.24-16.17-16.17V16.17C0,7.24,7.24,0,16.17,0h96.97c8.93,0,16.17,7.24,16.17,16.17v96.97c0,8.93-7.24,16.17-16.17,16.17"/>
  <path class="cls-1" d="M18.89,41.16h7.53v7.62c.15,1.4,1.16,2.15,3.03,2.27h11.64v5.64h-11.64c-6.47-.47-9.98-3.1-10.55-7.91v-7.62ZM43.02,7.88l1.78,6.28h16.45v5.7h-14.97l4.27,16.06c.78,2.36.21,4.56-1.71,6.58-1.29,1.16-2.97,1.78-5.04,1.86h-4.5v-5.7h3.8c.16-.54.16-1.07,0-1.57l-4.5-17.22h-16.6v-5.7h15.05l-1.4-5.18,7.37-1.11Z"/>
  <path class="cls-1" d="M103.76,50.7l8.85-1.75,2.02,5.41-8.85,1.86c-.93.16-1.84.25-2.71.29-1.97-.04-3.72-.49-5.27-1.34-2.33-1.47-3.47-3.31-3.42-5.53v-12.74c0-1.13-.62-1.88-1.86-2.27h-5.35l-6.91,22-7.37-1.34,14.89-47.31,7.37,1.28-6.21,19.67h3.57c5.95.66,9.1,3.32,9.47,7.97v12.74c-.1.39.05.72.47.99.36.16.8.17,1.32.06"/>
  <path class="cls-1" d="M28.51,114.25l1.63,4.71-7.29,1.45-1.63-4.66c-1.14-3.45-1.73-6.96-1.78-10.53v-32.06h7.52v32.06c.05,3.03.57,6.03,1.55,9.02M62.34,68.11c4.91.39,7.63,2.4,8.15,6.05-.52,3.53-3.03,5.55-7.53,6.05v2.68h-6.52v5.47h6.52v5.7h-6.52v8.2h6.13v5.7h-6.13v5.12c-.47,4.69-3.78,7.35-9.93,7.97-6.21-.58-9.52-3.24-9.93-7.97v-2.85c.62-4.85,4.17-7.51,10.63-7.97h1.63v-8.2h-11.79v-5.7h11.79v-5.47h-11.79v-5.65h18.39c-.62-.85-1.01-1.88-1.16-3.08.41-3.68,3.1-5.7,8.07-6.05M48.84,113.08v-5.12h-1.63c-1.86.11-2.87.87-3.03,2.27v2.85c0,1.24.78,2,2.33,2.27,1.5-.31,2.27-1.07,2.33-2.27M62.34,77.07c2.38-.15,3.67-1.12,3.88-2.91-.21-1.78-1.5-2.74-3.88-2.85-2.43.11-3.7,1.07-3.8,2.85.16,1.79,1.42,2.75,3.8,2.91"/>
  <path class="cls-1" d="M103.53,91.73c-.21-1.4-1.22-2.15-3.03-2.27h-19.63v-5.7h19.63c6.41.46,9.95,3.12,10.63,7.97v5.99c-.1,1.94-.57,3.84-1.4,5.7-.83,1.86-1.94,3.61-3.34,5.24l-13.03,13.44-6.13-3.26,12.96-13.5c1.97-2.37,3.08-4.9,3.34-7.62v-5.99ZM83.21,77.65l2.02-5.47,21.88,4.54-2.02,5.47-21.88-4.54Z"/>
  <path class="cls-2" d="M136.43,30.19h16.26v21.53c.99,1.91,2.2,3.31,3.62,4.22,1.42.91,3.79,1.57,7.11,1.99,3.31.42,8.26.62,14.82.62h17.94l-.37,7.67h-17.66c-8.55,0-15.04-.49-19.47-1.46-4.43-.97-7.63-2.67-9.62-5.09-2.35,2.6-5.51,5.16-9.48,7.67l-4.27-7.32c3.47-2.33,6.19-4.44,8.18-6.35v-15.82h-7.06v-7.67h0ZM154.74,18.2l-6.13,5.43c-3.72-4.18-7.65-8.43-11.8-12.75l6.23-5.44c4.65,4.74,8.55,8.99,11.71,12.76M182.71,23.5h10.41v6.55h-10.41v4.95h10.41v6.55h-10.41v5.02h12.73v7.25h-38.75v-22.37l-6.69-4.25c4.89-7.81,8.46-15.8,10.69-23.98l8.55,1.05c-.74,2.97-1.27,5.32-1.58,7.04h7.53c.68-2.14,1.36-4.83,2.05-8.08l8.83.84c-.5,1.95-1.15,4.37-1.95,7.25h10.32v7.39h-11.71v4.81h0ZM165.98,23.5h7.81v-4.81h-7.81v4.81ZM173.79,30.05h-7.81v4.95h7.81v-4.95ZM165.98,46.57h7.81v-5.02h-7.81v5.02Z"/>
  <path class="cls-2" d="M232.62,56.68v-7.39h-26.49v-7.95h26.49v-4.95h6.23c1.55-1.25,3.44-2.97,5.67-5.16h-28.72v-2.65h-7.71V12.35h8.09c-.93-2-1.95-4.02-3.07-6.06l8.36-2.93c1.55,2.6,3.1,5.6,4.65,8.99h5.67c-1.05-2.42-2.2-4.67-3.44-6.76l8.27-2.93c1.55,2.42,3.19,5.65,4.93,9.69h5.02c1.61-3.11,3.16-6.18,4.65-9.2l8.46,1.95c-.99,2.28-2.11,4.69-3.35,7.25h8.08v16.24h-7.81v2.65c-3.72,3.81-7.28,7.18-10.69,10.11h20.45v7.95h-24.07v8.85c0,2.19-.05,3.78-.14,4.78-.09,1-.6,1.83-1.53,2.51-.93.67-1.98,1.07-3.16,1.18-1.18.12-3.07.17-5.67.17-1.24,0-4.93-.11-11.06-.35l-.37-7.74c5.64.23,9.02.35,10.13.35,1.18,0,1.83-.12,1.95-.35.12-.23.19-.91.19-2.02M255.11,19.53h-37.73v4.18h37.73v-4.18Z"/>
  <path class="cls-2" d="M150.9,107l-9.82,7.06-4.61-3.61,21.75-15.5c1.63-1.42,2.55-3.07,2.78-4.93v-2.03c0-1.02-.65-1.52-1.96-1.52h-18.02v-4.93h9.89v-4.22h6.64v4.22h1.49c5.24.34,8.11,2.49,8.61,6.46v2.03c-.23,3.25-1.83,6.08-4.81,8.49l-5.29,3.81v17.03h-6.64v-12.35h0ZM173.54,110.1l-5.15,3.1-10.03-9.35,5.22-3.15,9.96,9.4Z"/>
  <path class="cls-2" d="M187.84,88.35h6.03v12.81h-6.03v-12.81ZM214.2,98.41c-.14,2.44-1.11,4.69-2.91,6.76l-14.03,14.28-4.81-2.59,13.96-14.44c1.04-1.22,1.65-2.56,1.83-4.01v-11.29h5.96v11.29h0ZM196.85,88.35h5.96v12.81h-5.96v-12.81Z"/>
  <path class="cls-2" d="M261.3,96.53l6.03,4.98-4.88,3.3-6.1-4.93c-1.85-1.25-3.98-1.95-6.37-2.08h-7.25v21.55h-6.64v-42.03h6.64v15.5h7.25c4.38.14,8.15,1.37,11.32,3.71"/>
</svg>