<?xml version="1.0" encoding="UTF-8"?>
<svg xmlns="http://www.w3.org/2000/svg" version="1.1" viewBox="0 0 192 181.4">
  <!-- Generator: Adobe Illustrator 28.6.0, SVG Export Plug-In . SVG Version: 1.2.0 Build 709)  -->
  <g>
    <g id="_レイヤー_1" data-name="レイヤー_1">
      <g id="_レイヤー_5">
        <path d="M120.1,81.4c5.7,5.7,5.7,14.9,0,20.6l-72.9,72.9c-5.7,5.7-14.9,5.7-20.6,0s-5.7-14.9,0-20.6l62.6-62.6L26.7,29.1c-5.7-5.7-5.7-14.9,0-20.6s14.9-5.7,20.6,0l72.9,72.9h-.1Z"/>
        <path d="M179,81.4c5.7,5.7,5.7,14.9,0,20.6l-72.9,72.9c-5.7,5.7-14.9,5.7-20.6,0s-5.7-14.9,0-20.6l62.6-62.6-62.5-62.6c-5.7-5.7-5.7-14.9,0-20.6s14.9-5.7,20.6,0l72.9,72.9h-.1Z"/>
      </g>
    </g>
  </g>
</svg>