<?xml version="1.0" encoding="UTF-8"?><svg id="al" xmlns="http://www.w3.org/2000/svg" viewBox="0 0 433 227.32"><defs><style>.am{fill:#d86577;}.am,.an,.ao{stroke-width:0px;}.ap{fill:none;stroke:#fff;}.an{fill:#fff;}.ao{fill:#ef8e8d;}</style></defs><path class="an" d="m5.49,2.51h16.61c-4.22,5.52-5.66,7.97-6.91,11.71-1.15,3.31-1.68,6.58-1.68,10.27,0,4.08.67,7.78,2.06,11.38,1.25,3.26,2.64,5.52,6.53,10.61H5.49V2.51Z"/><path class="an" d="m29.11,12.31v-7.54h19.11c4.94,0,8.21,1.01,9.94,3.12,1.49,1.78,2.4,5.04,2.4,8.45,0,4.08-1.2,7.54-3.31,9.46-1.97,1.82-4.8,2.59-9.46,2.59h-5.14c-4.7,0-5.9,1.39-5.9,5.09v3.12h23.04v7.58H27.76v-8.79c0-10.95,4.08-15.07,14.98-15.07h4.9c3.36,0,3.98-.62,3.98-3.98s-.91-4.03-5.33-4.03h-17.19Z"/><path class="an" d="m89.06,4.77c2.74,0,5.23.96,7.1,2.69,2.21,2.16,2.93,3.98,2.93,7.97v18.58c0,6.58-3.65,10.18-10.71,10.18h-11.38c-7.15,0-10.56-3.31-10.56-10.13V15.38c0-7.06,3.02-10.61,9.94-10.61h12.67Zm-9.17,7.58c-3.5,0-4.46,1.01-4.46,4.75v14.69c0,4.32.34,4.85,4.42,4.85h6.48c3.26,0,3.74-.58,3.74-4.32v-15.46c0-3.36-1.06-4.51-4.94-4.51h-5.23Z"/><path class="an" d="m106.53,12.31v-7.54h19.11c4.94,0,8.21,1.01,9.94,3.12,1.49,1.78,2.4,5.04,2.4,8.45,0,4.08-1.2,7.54-3.31,9.46-1.97,1.82-4.8,2.59-9.46,2.59h-5.14c-4.7,0-5.9,1.39-5.9,5.09v3.12h23.04v7.58h-32.02v-8.79c0-10.95,4.08-15.07,14.98-15.07h4.9c3.36,0,3.98-.62,3.98-3.98s-.91-4.03-5.33-4.03h-17.19Z"/><path class="an" d="m143.59,27.28V4.77h31.63v7.54h-22.85v7.39h13.54c6.67.14,9.84,3.02,9.98,8.93v6.34c-.29,6.29-3.98,9.22-11.47,9.22h-20.69v-7.58h16.99c2.45,0,3.12-.05,3.89-.14l.19-.05h.14c1.34-.1,2.21-.96,2.21-2.3v-3.79c-.1-2.88-.48-3.12-5.18-3.02h-18.39Z"/><path class="an" d="m214.58,39h-21.27v-7.49h5.95v-11.86c-1.73,1.1-2.59,1.49-5.95,2.64v-8.35c4.94-2.59,7.92-6.05,9.65-11.38h8.69c-.43,1.73-.53,1.97-1.2,3.6h24.48v6.86h-11.76v4.66h9.89v7.34h-9.89v6.48h12.39v7.49h-12.39v7.25h-8.59v-7.25Zm0-21.31v-4.66h-8.16c-1.87,2.35-2.21,2.64-4.56,4.66h12.72Zm0,13.83v-6.48h-7.11v6.48h7.11Z"/><path class="an" d="m259.85,4.77V1.94h8.16v2.83h16.66v6.34h-5.47v1.97h5.38v5.62h-5.38v7.06h-24v-7.06h-4.51v10.18c0,5.95-.86,9.5-2.98,12.19-1.73,2.21-3.6,3.36-7.3,4.46v-8.64c2.26-1.58,2.74-3.65,2.74-8.16V4.77h16.71Zm-9.84,34.37c4.56-.24,5.47-.38,8.45-1.1-2.45-1.97-3.22-2.78-5.28-5.23h-1.01v-5.47h29.67v5.52c-1.97,1.92-2.78,2.54-6.62,5.28,3.89.62,5.18.77,9.36.86v7.2c-8.02-.48-11.09-1.15-17.91-3.65-5.9,2.11-9.79,2.88-16.66,3.26v-6.67Zm5.18-28.03h-4.51v1.97h4.51v-1.97Zm16.37,1.97v-1.97h-8.98v1.97h8.98Zm0,7.54v-1.92h-8.98v1.92h8.98Zm-5.38,14.59c1.68-.77,2.3-1.15,3.94-2.4h-7.54c1.49,1.2,1.97,1.54,3.6,2.4Z"/><path class="an" d="m297.81,3.52v11.09h2.3V3.52h6.72v17.52h-9.02v2.5h8.5v13.54c1.54-2.64,2.3-5.38,2.3-11.19V3.52h24.05v6.91h-16.95v4.03h16.56c-.53,7.78-1.92,13.06-4.85,18.91,2.3,2.21,3.07,2.74,5.23,3.74v9.46c-4.56-2.11-6.58-3.55-9.46-6.72-2.88,3.26-4.75,4.56-9.55,6.67v-8.26c-1.87,3.6-3.36,5.71-7.34,8.02v-2.11h-6.58v-14.11h-1.92c-.29,4.7-.86,7.34-1.92,9.79-1.58,3.65-3.46,5.42-7.68,7.49v-9.26c1.25-1.54,1.73-2.64,1.92-4.37.14-1.39.24-3.31.24-7.87V3.52h7.44Zm20.93,30.24c-1.78-3.17-2.16-3.98-3.02-6.43-.19,4.75-.53,6.86-1.92,10.51,2.45-1.49,3.41-2.26,4.94-4.08Zm1.39-12.24c.67,2.4,1.01,3.17,2.35,5.62.82-1.87,1.3-3.94,1.68-5.62h-4.03Z"/><path class="an" d="m344.08,34.77c1.15-3.31,1.68-6.62,1.68-10.27,0-4.08-.67-7.78-2.06-11.38-1.3-3.26-2.69-5.52-6.53-10.61h16.61v43.97h-16.61c4.18-5.52,5.62-7.97,6.91-11.71Z"/><path class="an" d="m7.94,118.72c-2.45,1.15-2.83,1.3-5.28,1.97v-8.21c3.79-1.58,5.28-2.54,8.02-5.18H3v-5.76h12.39l.86-1.58H4.1v-5.18h14.11l.72-1.58c-3.41.05-4.75.05-7.15.05l-7.87-.05v-5.42c2.3.05,3.89.05,5.23.05,3.46,0,17.14-.29,20.35-.48,4.08-.19,7.25-.43,13.73-1.1v6.19c-4.75.29-6,.38-8.4.48-1.06.05-2.59.1-7.78.24l-.43,1.63h18.19v5.18h-19.83l-.77,1.58h22.03v5.76h-25.25l-.67,1.06h22.27v16.75c-.19,3.7-2.21,4.99-7.92,4.99H7.94v-11.38Zm26.35-4.75v-1.68h-18.19v1.68h18.19Zm.1,5.18v-1.73h-18.29v1.73h18.29Zm0,5.42v-1.78h-18.29v1.78h18.29Z"/><path class="an" d="m69.05,107.2l-1.82,1.3v-8.16h-16.8v-5.76h17.19v5.28c1.87-1.92,2.3-2.59,3.5-5.28h1.1v-1.2h-4.75v-4.56h4.75v-2.02h6.67v2.02h4.13v-2.02h6.48v2.02h4.75v4.56h-4.75v1.73h-1.73l-.91,1.58h7.15v3.55h-8.16v1.25h6.77v3.07h-6.77v1.3h6.77v3.41h-6.77v1.15h8.21v3.7h-25.01v-6.91Zm-17.57,8.4h15.07v8.78c.05,4.22-1.68,5.86-6.24,5.76h-8.83v-14.54Zm.38-27.79h14.69v5.33h-14.69v-5.33Zm0,13.83h14.69v5.52h-14.69v-5.52Zm0,6.87h14.69v5.57h-14.69v-5.57Zm8.45,15.41v-2.83h-2.59v2.83h2.59Zm20.21,3.89c-4.61,1.78-7.49,2.45-13.3,3.17v-6.34c2.54-.14,4.22-.34,6.91-.96-1.44-1.39-1.63-1.63-3.26-3.6h-1.82v-4.9h24v4.37c-2.11,2.02-3.26,2.93-5.71,4.42,3.22.62,4.32.82,7.25,1.06v6.1c-6.1-.58-9.98-1.49-14.07-3.31Zm-1.3-26.31v-1.25h-3.55v1.25h3.55Zm0,4.37v-1.3h-3.55v1.3h3.55Zm0,4.56v-1.15h-3.55v1.15h3.55Zm.67-13.73l.86-1.97,2.26.14v-1.49h-4.13v1.73h-1.25c-.34.72-.43.86-.86,1.58h3.12Zm2.88,23.38h-4.37c.86.67,1.06.77,2.06,1.3,1.15-.53,1.3-.62,2.3-1.3Z"/><path class="an" d="m115.8,103.99h9.36v9.02h-9.36v-9.02Z"/><path class="an" d="m190.2,87.28v6.77h-16.18c-.58,1.1-.77,1.39-1.39,2.26h14.5v5.86h-10.8v2.78h12.34v6.62h-10.71c2.69,1.87,5.62,2.74,10.71,2.83v7.01c-4.22-.14-6.43-.43-9.07-1.39-2.4-.86-4.13-2.02-6.43-3.98-1.73,1.87-3.89,3.36-6.43,4.27-2.45.86-5.23,1.2-8.98,1.34v-6.77c2.5,0,4.42-.24,6.14-.77,1.78-.53,3.22-1.49,3.7-2.54h-10.22v-6.62h11.09v-2.78h-2.98c-2.02,1.06-4.61,1.87-7.15,2.3v-6.29c3.94-1.3,5.71-2.54,6.62-4.13h-9.26v27.79h34.52v7.06h-34.42c-3.12,0-4.94-.48-6.34-1.73-1.34-1.2-1.87-2.74-1.87-5.71v-34.18h42.63Z"/><path class="an" d="m213.29,124.48h3.5v-3.79h-9.98v-8.3l-1.82.72c-.24,8.88-3.98,14.79-10.71,16.75v-9.07c2.16-1.54,3.07-3.41,3.07-6.05,0-.67,0-.96-.05-1.63l-3.02,2.4v-7.92l2.93-2.21v-2.69l-2.93-1.97v-8.06l2.93,1.82v-5.71h15.75v-2.69h8.59v2.69h16.75v5.38h-14.07l-.24,1.82h13.97v4.46h-13.97c2.16,1.87,2.54,2.16,4.56,3.12l1.25-2.16h7.15l-2.4,4.18c1.82.58,2.11.67,3.74.91v6.48c-1.78-.24-2.06-.29-3.7-.77v4.46c-.1,2.83-1.25,3.89-4.32,4.03h-5.86v6.14c.05,2.88-1.25,3.89-5.09,3.94h-6.05v-6.29Zm-7.01-2.4h7.49c-1.1,2.78-1.78,4.13-3.65,7.39h-7.78c2.21-3.5,2.88-4.75,3.94-7.39Zm10.08-26.11l.34-1.82h-11.57v1.82h11.23Zm-8.69,9.17l-2.21-3.6h6.48l.72.72c.86-.58,1.15-.86,1.92-1.82h-9.46v5.52c1.15-.34,1.34-.38,2.54-.82Zm19.25,6.86v-1.34h-13.01v1.34h13.01Zm0,4.32v-1.34h-13.01v1.34h13.01Zm-4.66-9.36c-1.25-1.01-1.39-1.2-2.45-2.21-1.06,1.2-1.25,1.39-2.4,2.21h4.85Zm4.27,15.12h7.92c1.68,3.84,2.16,4.7,3.84,7.39h-8.64c-1.78-3.94-2.06-4.56-3.12-7.39Z"/><path class="an" d="m259.94,117.24c-3.17.14-3.89.19-6.48.24-.96,0-3.89.05-8.83.14l-2.35.05v-7.3h11.33l1.34-1.06-6.43-4.75c-.82-.58-1.25-1.25-1.25-1.92,0-.77.34-1.34,1.34-2.3l5.33-5.09h-10.61v-7.3l6.77-.05c16.32,0,25.44-.34,33.7-1.25v7.3c-3.84.43-6.19.62-9.07.82-.77.05-3.07.14-9.46.38l-6.82,6.34,3.46,2.3c2.78-2.26,6.14-5.47,7.58-7.3h10.99c-4.03,4.56-8.5,8.59-14.88,13.3,2.5-.34,3.94-.48,4.37-.58,1.25-.14,1.63-.19,3.46-.48l-1.1-2.74h8.26c1.78,3.46,4.22,8.83,5.33,11.71h-8.64l-1.06-2.54c-2.59.58-2.78.58-7.63,1.34v14.3h-8.64v-13.58Zm-12.38,2.02h8.4c-1.63,4.46-2.74,6.82-4.85,10.27h-8.83c2.54-4.27,3.74-6.62,5.28-10.27Zm25.3,0h8.59c2.26,4.94,3.07,6.77,4.75,10.27h-9.22c-1.49-3.36-2.21-5.14-4.13-10.27Z"/><path class="an" d="m300.79,122.76h7.68v-3.31h-17.86v-6.91h17.86v-3.41c3.6-1.1,4.61-1.54,6.67-2.64h-19.73v-4.22h-4.13v-10.08h4.9l-2.54-5.76h7.92l2.59,5.76h3.89l-2.5-5.76h8.26l2.4,5.76h3.26l3.31-5.76h9.26l-3.22,5.76h4.37v10.27h-3.65v4.32c-6.38,2.93-7.25,3.31-12.24,5.47v.29h16.85v6.91h-16.85v2.78c.19,6-1.68,7.83-8.16,7.87h-8.35v-7.34Zm24.29-22.23v-2.21h-25.54v2.21h25.54Z"/><path class="an" d="m354.5,123.14c5.14-1.63,6.72-2.45,9.5-4.85-2.06-3.41-2.45-4.27-3.75-8.4-2.11,2.11-2.78,2.59-4.56,3.5v4.51c-2.02-2.45-2.3-2.78-4.37-4.8v16.9h-7.34v-12.91c-2.06,3.79-3.02,4.99-5.81,7.3v-12.1c3.07-3.26,4.66-6.19,5.71-10.51h-5.18v-7.2h5.28v-7.97h7.34v7.97h4.37v7.2h-4.37v2.5c2.11,1.58,2.45,1.82,4.37,3.36v-2.69c2.54-2.35,4.08-4.66,4.66-7.15h7.01c-.58,2.78-2.11,6.05-4.08,8.78h3.36c.77,2.93,1.1,3.79,2.35,5.62,1.2-2.02,1.73-3.17,2.5-5.62h2.3c-2.26-2.93-3.12-5.04-3.7-8.78h6.62c.72,2.98,1.87,4.51,4.7,6.48v8.98c-1.82-1.25-2.11-1.44-3.6-2.64-1.15,2.93-2.02,4.56-3.84,7.44,2.54,2.4,4.46,3.46,8.3,4.46v8.59c-5.86-1.63-8.93-3.36-13.3-7.49-5.81,4.51-8.88,6.14-14.5,7.49v-7.97Zm1.44-33.36h9.12v-3.31h7.54v3.31h8.88v6.43h-25.54v-6.43Z"/><path class="an" d="m2.32,205.12c8.69-2.11,14.21-9.46,14.74-19.63h4.18v-6.34h-8.5v-7.49h16.32v7.1c.05,6.19,2.26,13.39,5.38,17.62,2.69,3.7,5.52,5.67,12,8.4v8.93c-11.38-3.41-19.49-10.75-22.32-20.35-2.4,10.32-11.47,18.77-21.79,20.35v-8.59Z"/><path class="an" d="m49.99,178.19h15.27v5.66h-15.27v-5.66Zm.86,20.35h13.68v9.36c.1,4.51-1.3,5.9-5.71,5.76h-7.97v-15.12Zm.43-13.15h12.87v5.28h-12.87v-5.28Zm0,6.62h12.87v5.38h-12.87v-5.38Zm.19-20.45h12.63v5.52h-12.63v-5.52Zm7.34,35.81v-2.93h-2.02v2.93h2.02Zm20.74-16.27v5.52h-2.88v6.96l4.22-.58v7.39c-6.91,1.1-9.46,1.39-14.74,1.92v-7.82l3.46-.14v-7.73h-3.41v-6.82h13.15l-.29-2.5-.24-1.82h-12.58v-7.1h11.76c-.24-2.83-.29-2.98-.53-7.63h7.58c.14,2.74.14,2.98.53,7.63h8.35v7.1h-7.87c.72,5.52,1.58,10.56,2.45,13.73,1.34,4.99,2.59,6.62,5.76,7.34v8.35c-8.93-1.39-11.57-5.67-14.74-23.81Zm6.24-20.16h5.95c.82,2.11,1.2,3.26,1.87,5.81h-6.34c-.62-2.74-.82-3.46-1.49-5.81Z"/><path class="an" d="m98.71,184.58v-4.66h5.09v3.55c0,5.71-.29,8.64-.96,11.42h-5.33c.91-2.93,1.15-4.9,1.2-10.32Zm6-14.26h7.25v9.99l3.22,2.98v1.01h10.08v-1.2h-8.69v-4.27h8.69v-1.49h-9.31v-4.7h9.31v-2.11h7.34v2.11h9.6v4.7h-9.6v1.49h8.3v4.27h-8.3v1.2h10.23v4.94h-27.65v3.46l-3.22-3.94v25.78h-7.25v-44.21Zm26.02,37.68h2.59v-1.87h-9.41v7.92h-7.25v-23.81h24.24v17.43c.14,4.8-1.44,6.48-6.24,6.67h-3.94v-6.34Zm2.59-11.67v-1.58h-9.41v1.58h9.41Zm0,5.76v-1.87h-9.41v1.87h9.41Z"/><path class="an" d="m154.58,182.32v-2.59h-6.91v-5.9h6.91v-3.41h7.2v3.41h6.19v5.9h-6.19v2.59h7.01v6.14h-1.92l-.62,3.74h2.16v6.43h-6.62v2.21h6.19v6.24h-6.19v7.49h-7.2v-7.49h-6.91v-6.24h6.91v-2.21h-8.02v-6.43h3.7l-1.1-3.74h-3.02v-6.14h8.45Zm4.9,9.89l.62-3.74h-3.84l.62,3.74h2.59Zm30.1-20.79v9.89c0,3.98-1.49,5.18-6.34,5.18h-4.22v-5.81h3.36v-2.93h-5.38v10.75h13.1c-.05,8.21-.91,11.76-2.5,15.46.86.91,2.11,1.82,2.98,2.16v8.26c-2.78-1.15-3.98-1.92-6.62-4.32-1.63,2.06-4.03,3.55-6.1,4.27v-7.92c.67-.48,1.49-1.25,1.87-1.78-.91-1.39-2.02-3.84-2.74-6.53v16.46h-7.15v-43.16h19.73Zm-8.21,22.9c.43,1.44,1.01,3.12,1.78,4.85.43-1.73.77-3.41.86-4.85h-2.64Z"/><path class="an" d="m199.6,202.1c-2.11,3.41-3.12,4.61-5.57,6.58v-10.75c3.02-2.83,4.99-7.01,5.57-11.9h-5.04v-7.2h5.04v-8.21h7.39v8.21h4.18v7.2h-4.18v2.3l4.51,4.37v9.41l-4.51-4.42v16.8h-7.39v-12.38Zm11.09,5.33c3.7-.38,7.78-2.88,9.31-5.71h-7.01v-13.87h8.02v-1.73h-6.24v-2.64l-2.88,1.1v-7.25c3.26-.82,6.62-3.31,8.98-6.58h7.3c3.6,3.65,5.23,4.66,9.79,6.1v7.39c-1.68-.29-1.97-.34-3.79-.96v2.83h-5.95v1.73h8.45v9.31c.05,3.5-1.06,4.61-4.56,4.56h-3.31c2.54,3.02,5.28,4.51,9.5,5.09v8.06c-5.76-.58-9.89-2.78-13.83-7.44-3.26,4.32-8.45,7.2-13.78,7.68v-7.68Zm10.32-12.1v-2.35h-1.78v2.35h1.78Zm6.67-15.22c-1.68-1.39-1.92-1.63-3.5-3.36-1.68,1.82-1.97,2.06-3.7,3.36h7.2Zm2.3,15.22v-2.35h-1.78v2.35h1.78Z"/><path class="an" d="m242.71,198.74c4.99,0,9.6,0,11.57-.14l1.06-.62-4.9-1.73c-1.92-.67-2.3-1.49-2.3-2.35,0-.77.34-1.49,1.44-2.26l6.96-4.99h-5.38v3.17h-7.92v-8.83h16.85v-2.11h-15.84v-5.9h15.84v-2.54h8.88v2.54h15.55v5.9h-15.55v2.11h16.8v8.83h-7.92v-3.17h-11.62c-1.87,1.54-5.09,4.08-7.3,5.71l2.54.91c1.68-1.01,4.08-3.17,5.71-4.7h9.79c-3.84,3.26-8.93,7.44-12.15,9.65,2.26-.05,5.9-.24,8.4-.53l-1.44-2.74h8.3c1.49,2.21,3.55,5.76,5.71,9.79h-8.93l-.86-1.92-7.63.58v11.18h-8.3v-10.56c-5.86.34-11.47.53-17.38.62v-5.9Zm13.3,6.82c-1.15,2.78-2.35,5.23-3.94,7.83h-8.5c2.5-3.84,3.46-5.86,4.18-7.83h8.26Zm25.25,0c1.01,2.16,2.3,4.9,4.22,7.83h-9.17c-.96-2.11-2.26-5.09-3.02-7.83h7.97Z"/><path class="an" d="m292.29,206.04c4.18-.43,7.06-2.16,9.17-5.38,1.73-2.83,2.02-4.42,2.5-12.38h-10.37v-7.78h10.56v-8.59h8.35v8.59h18.77v15.26c-.05,8.54-.77,11.81-3.12,14.21-2.02,2.16-5.71,3.31-10.71,3.31h-5.14v-7.63h3.41c5.71-.14,7.1-1.78,7.15-8.54v-8.83h-10.75c-.67,9.7-1.73,13.87-4.66,18-3.55,4.75-8.11,7.11-15.17,7.78v-8.02Zm28.8-35.67h4.51v7.3h-4.51v-7.3Zm5.9,0h4.46v7.3h-4.46v-7.3Z"/><path class="an" d="m357.29,191.97l-17.23,8.59v-9.46l26.5-12.43c3.5-1.68,4.22-2.69,4.22-5.86v-1.3h8.78v2.35c0,4.56-1.97,7.82-6.05,9.89l-7.34,3.7v26.16h-8.88v-21.65Z"/><path class="an" d="m393.43,171.95h8.88v12.87l4.03,1.1c2.64.77,5.28,1.49,7.92,2.21,2.02.53,4.18,1.2,9.84,2.93v9.07c-5.14-2.02-12-4.18-21.79-6.91v20.45h-8.88v-41.72Zm20.69-.24h4.51v7.3h-4.51v-7.3Zm6.05,0h4.46v7.3h-4.46v-7.3Z"/><path class="ao" d="m5.49,2.51h16.61c-4.22,5.52-5.66,7.97-6.91,11.71-1.15,3.31-1.68,6.58-1.68,10.27,0,4.08.67,7.78,2.06,11.38,1.25,3.26,2.64,5.52,6.53,10.61H5.49V2.51Z"/><path class="ao" d="m29.11,12.31v-7.54h19.11c4.94,0,8.21,1.01,9.94,3.12,1.49,1.78,2.4,5.04,2.4,8.45,0,4.08-1.2,7.54-3.31,9.46-1.97,1.82-4.8,2.59-9.46,2.59h-5.14c-4.7,0-5.9,1.39-5.9,5.09v3.12h23.04v7.58H27.76v-8.79c0-10.95,4.08-15.07,14.98-15.07h4.9c3.36,0,3.98-.62,3.98-3.98s-.91-4.03-5.33-4.03h-17.19Z"/><path class="ao" d="m89.06,4.77c2.74,0,5.23.96,7.1,2.69,2.21,2.16,2.93,3.98,2.93,7.97v18.58c0,6.58-3.65,10.18-10.71,10.18h-11.38c-7.15,0-10.56-3.31-10.56-10.13V15.38c0-7.06,3.02-10.61,9.94-10.61h12.67Zm-9.17,7.58c-3.5,0-4.46,1.01-4.46,4.75v14.69c0,4.32.34,4.85,4.42,4.85h6.48c3.26,0,3.74-.58,3.74-4.32v-15.46c0-3.36-1.06-4.51-4.94-4.51h-5.23Z"/><path class="ao" d="m106.53,12.31v-7.54h19.11c4.94,0,8.21,1.01,9.94,3.12,1.49,1.78,2.4,5.04,2.4,8.45,0,4.08-1.2,7.54-3.31,9.46-1.97,1.82-4.8,2.59-9.46,2.59h-5.14c-4.7,0-5.9,1.39-5.9,5.09v3.12h23.04v7.58h-32.02v-8.79c0-10.95,4.08-15.07,14.98-15.07h4.9c3.36,0,3.98-.62,3.98-3.98s-.91-4.03-5.33-4.03h-17.19Z"/><path class="ao" d="m143.59,27.28V4.77h31.63v7.54h-22.85v7.39h13.54c6.67.14,9.84,3.02,9.98,8.93v6.34c-.29,6.29-3.98,9.22-11.47,9.22h-20.69v-7.58h16.99c2.45,0,3.12-.05,3.89-.14l.19-.05h.14c1.34-.1,2.21-.96,2.21-2.3v-3.79c-.1-2.88-.48-3.12-5.18-3.02h-18.39Z"/><path class="ao" d="m214.58,39h-21.27v-7.49h5.95v-11.86c-1.73,1.1-2.59,1.49-5.95,2.64v-8.35c4.94-2.59,7.92-6.05,9.65-11.38h8.69c-.43,1.73-.53,1.97-1.2,3.6h24.48v6.86h-11.76v4.66h9.89v7.34h-9.89v6.48h12.39v7.49h-12.39v7.25h-8.59v-7.25Zm0-21.31v-4.66h-8.16c-1.87,2.35-2.21,2.64-4.56,4.66h12.72Zm0,13.83v-6.48h-7.11v6.48h7.11Z"/><path class="ao" d="m259.85,4.77V1.94h8.16v2.83h16.66v6.34h-5.47v1.97h5.38v5.62h-5.38v7.06h-24v-7.06h-4.51v10.18c0,5.95-.86,9.5-2.98,12.19-1.73,2.21-3.6,3.36-7.3,4.46v-8.64c2.26-1.58,2.74-3.65,2.74-8.16V4.77h16.71Zm-9.84,34.37c4.56-.24,5.47-.38,8.45-1.1-2.45-1.97-3.22-2.78-5.28-5.23h-1.01v-5.47h29.67v5.52c-1.97,1.92-2.78,2.54-6.62,5.28,3.89.62,5.18.77,9.36.86v7.2c-8.02-.48-11.09-1.15-17.91-3.65-5.9,2.11-9.79,2.88-16.66,3.26v-6.67Zm5.18-28.03h-4.51v1.97h4.51v-1.97Zm16.37,1.97v-1.97h-8.98v1.97h8.98Zm0,7.54v-1.92h-8.98v1.92h8.98Zm-5.38,14.59c1.68-.77,2.3-1.15,3.94-2.4h-7.54c1.49,1.2,1.97,1.54,3.6,2.4Z"/><path class="ao" d="m297.81,3.52v11.09h2.3V3.52h6.72v17.52h-9.02v2.5h8.5v13.54c1.54-2.64,2.3-5.38,2.3-11.19V3.52h24.05v6.91h-16.95v4.03h16.56c-.53,7.78-1.92,13.06-4.85,18.91,2.3,2.21,3.07,2.74,5.23,3.74v9.46c-4.56-2.11-6.58-3.55-9.46-6.72-2.88,3.26-4.75,4.56-9.55,6.67v-8.26c-1.87,3.6-3.36,5.71-7.34,8.02v-2.11h-6.58v-14.11h-1.92c-.29,4.7-.86,7.34-1.92,9.79-1.58,3.65-3.46,5.42-7.68,7.49v-9.26c1.25-1.54,1.73-2.64,1.92-4.37.14-1.39.24-3.31.24-7.87V3.52h7.44Zm20.93,30.24c-1.78-3.17-2.16-3.98-3.02-6.43-.19,4.75-.53,6.86-1.92,10.51,2.45-1.49,3.41-2.26,4.94-4.08Zm1.39-12.24c.67,2.4,1.01,3.17,2.35,5.62.82-1.87,1.3-3.94,1.68-5.62h-4.03Z"/><path class="ao" d="m344.08,34.77c1.15-3.31,1.68-6.62,1.68-10.27,0-4.08-.67-7.78-2.06-11.38-1.3-3.26-2.69-5.52-6.53-10.61h16.61v43.97h-16.61c4.18-5.52,5.62-7.97,6.91-11.71Z"/><path class="ao" d="m7.94,118.72c-2.45,1.15-2.83,1.3-5.28,1.97v-8.21c3.79-1.58,5.28-2.54,8.02-5.18H3v-5.76h12.39l.86-1.58H4.1v-5.18h14.11l.72-1.58c-3.41.05-4.75.05-7.15.05l-7.87-.05v-5.42c2.3.05,3.89.05,5.23.05,3.46,0,17.14-.29,20.35-.48,4.08-.19,7.25-.43,13.73-1.1v6.19c-4.75.29-6,.38-8.4.48-1.06.05-2.59.1-7.78.24l-.43,1.63h18.19v5.18h-19.83l-.77,1.58h22.03v5.76h-25.25l-.67,1.06h22.27v16.75c-.19,3.7-2.21,4.99-7.92,4.99H7.94v-11.38Zm26.35-4.75v-1.68h-18.19v1.68h18.19Zm.1,5.18v-1.73h-18.29v1.73h18.29Zm0,5.42v-1.78h-18.29v1.78h18.29Z"/><path class="ao" d="m69.05,107.2l-1.82,1.3v-8.16h-16.8v-5.76h17.19v5.28c1.87-1.92,2.3-2.59,3.5-5.28h1.1v-1.2h-4.75v-4.56h4.75v-2.02h6.67v2.02h4.13v-2.02h6.48v2.02h4.75v4.56h-4.75v1.73h-1.73l-.91,1.58h7.15v3.55h-8.16v1.25h6.77v3.07h-6.77v1.3h6.77v3.41h-6.77v1.15h8.21v3.7h-25.01v-6.91Zm-17.57,8.4h15.07v8.78c.05,4.22-1.68,5.86-6.24,5.76h-8.83v-14.54Zm.38-27.79h14.69v5.33h-14.69v-5.33Zm0,13.83h14.69v5.52h-14.69v-5.52Zm0,6.87h14.69v5.57h-14.69v-5.57Zm8.45,15.41v-2.83h-2.59v2.83h2.59Zm20.21,3.89c-4.61,1.78-7.49,2.45-13.3,3.17v-6.34c2.54-.14,4.22-.34,6.91-.96-1.44-1.39-1.63-1.63-3.26-3.6h-1.82v-4.9h24v4.37c-2.11,2.02-3.26,2.93-5.71,4.42,3.22.62,4.32.82,7.25,1.06v6.1c-6.1-.58-9.98-1.49-14.07-3.31Zm-1.3-26.31v-1.25h-3.55v1.25h3.55Zm0,4.37v-1.3h-3.55v1.3h3.55Zm0,4.56v-1.15h-3.55v1.15h3.55Zm.67-13.73l.86-1.97,2.26.14v-1.49h-4.13v1.73h-1.25c-.34.72-.43.86-.86,1.58h3.12Zm2.88,23.38h-4.37c.86.67,1.06.77,2.06,1.3,1.15-.53,1.3-.62,2.3-1.3Z"/><path class="ao" d="m115.8,103.99h9.36v9.02h-9.36v-9.02Z"/><path class="ao" d="m190.2,87.28v6.77h-16.18c-.58,1.1-.77,1.39-1.39,2.26h14.5v5.86h-10.8v2.78h12.34v6.62h-10.71c2.69,1.87,5.62,2.74,10.71,2.83v7.01c-4.22-.14-6.43-.43-9.07-1.39-2.4-.86-4.13-2.02-6.43-3.98-1.73,1.87-3.89,3.36-6.43,4.27-2.45.86-5.23,1.2-8.98,1.34v-6.77c2.5,0,4.42-.24,6.14-.77,1.78-.53,3.22-1.49,3.7-2.54h-10.22v-6.62h11.09v-2.78h-2.98c-2.02,1.06-4.61,1.87-7.15,2.3v-6.29c3.94-1.3,5.71-2.54,6.62-4.13h-9.26v27.79h34.52v7.06h-34.42c-3.12,0-4.94-.48-6.34-1.73-1.34-1.2-1.87-2.74-1.87-5.71v-34.18h42.63Z"/><path class="ao" d="m213.29,124.48h3.5v-3.79h-9.98v-8.3l-1.82.72c-.24,8.88-3.98,14.79-10.71,16.75v-9.07c2.16-1.54,3.07-3.41,3.07-6.05,0-.67,0-.96-.05-1.63l-3.02,2.4v-7.92l2.93-2.21v-2.69l-2.93-1.97v-8.06l2.93,1.82v-5.71h15.75v-2.69h8.59v2.69h16.75v5.38h-14.07l-.24,1.82h13.97v4.46h-13.97c2.16,1.87,2.54,2.16,4.56,3.12l1.25-2.16h7.15l-2.4,4.18c1.82.58,2.11.67,3.74.91v6.48c-1.78-.24-2.06-.29-3.7-.77v4.46c-.1,2.83-1.25,3.89-4.32,4.03h-5.86v6.14c.05,2.88-1.25,3.89-5.09,3.94h-6.05v-6.29Zm-7.01-2.4h7.49c-1.1,2.78-1.78,4.13-3.65,7.39h-7.78c2.21-3.5,2.88-4.75,3.94-7.39Zm10.08-26.11l.34-1.82h-11.57v1.82h11.23Zm-8.69,9.17l-2.21-3.6h6.48l.72.72c.86-.58,1.15-.86,1.92-1.82h-9.46v5.52c1.15-.34,1.34-.38,2.54-.82Zm19.25,6.86v-1.34h-13.01v1.34h13.01Zm0,4.32v-1.34h-13.01v1.34h13.01Zm-4.66-9.36c-1.25-1.01-1.39-1.2-2.45-2.21-1.06,1.2-1.25,1.39-2.4,2.21h4.85Zm4.27,15.12h7.92c1.68,3.84,2.16,4.7,3.84,7.39h-8.64c-1.78-3.94-2.06-4.56-3.12-7.39Z"/><path class="ao" d="m259.94,117.24c-3.17.14-3.89.19-6.48.24-.96,0-3.89.05-8.83.14l-2.35.05v-7.3h11.33l1.34-1.06-6.43-4.75c-.82-.58-1.25-1.25-1.25-1.92,0-.77.34-1.34,1.34-2.3l5.33-5.09h-10.61v-7.3l6.77-.05c16.32,0,25.44-.34,33.7-1.25v7.3c-3.84.43-6.19.62-9.07.82-.77.05-3.07.14-9.46.38l-6.82,6.34,3.46,2.3c2.78-2.26,6.14-5.47,7.58-7.3h10.99c-4.03,4.56-8.5,8.59-14.88,13.3,2.5-.34,3.94-.48,4.37-.58,1.25-.14,1.63-.19,3.46-.48l-1.1-2.74h8.26c1.78,3.46,4.22,8.83,5.33,11.71h-8.64l-1.06-2.54c-2.59.58-2.78.58-7.63,1.34v14.3h-8.64v-13.58Zm-12.38,2.02h8.4c-1.63,4.46-2.74,6.82-4.85,10.27h-8.83c2.54-4.27,3.74-6.62,5.28-10.27Zm25.3,0h8.59c2.26,4.94,3.07,6.77,4.75,10.27h-9.22c-1.49-3.36-2.21-5.14-4.13-10.27Z"/><path class="ao" d="m300.79,122.76h7.68v-3.31h-17.86v-6.91h17.86v-3.41c3.6-1.1,4.61-1.54,6.67-2.64h-19.73v-4.22h-4.13v-10.08h4.9l-2.54-5.76h7.92l2.59,5.76h3.89l-2.5-5.76h8.26l2.4,5.76h3.26l3.31-5.76h9.26l-3.22,5.76h4.37v10.27h-3.65v4.32c-6.38,2.93-7.25,3.31-12.24,5.47v.29h16.85v6.91h-16.85v2.78c.19,6-1.68,7.83-8.16,7.87h-8.35v-7.34Zm24.29-22.23v-2.21h-25.54v2.21h25.54Z"/><path class="ao" d="m354.5,123.14c5.14-1.63,6.72-2.45,9.5-4.85-2.06-3.41-2.45-4.27-3.75-8.4-2.11,2.11-2.78,2.59-4.56,3.5v4.51c-2.02-2.45-2.3-2.78-4.37-4.8v16.9h-7.34v-12.91c-2.06,3.79-3.02,4.99-5.81,7.3v-12.1c3.07-3.26,4.66-6.19,5.71-10.51h-5.18v-7.2h5.28v-7.97h7.34v7.97h4.37v7.2h-4.37v2.5c2.11,1.58,2.45,1.82,4.37,3.36v-2.69c2.54-2.35,4.08-4.66,4.66-7.15h7.01c-.58,2.78-2.11,6.05-4.08,8.78h3.36c.77,2.93,1.1,3.79,2.35,5.62,1.2-2.02,1.73-3.17,2.5-5.62h2.3c-2.26-2.93-3.12-5.04-3.7-8.78h6.62c.72,2.98,1.87,4.51,4.7,6.48v8.98c-1.82-1.25-2.11-1.44-3.6-2.64-1.15,2.93-2.02,4.56-3.84,7.44,2.54,2.4,4.46,3.46,8.3,4.46v8.59c-5.86-1.63-8.93-3.36-13.3-7.49-5.81,4.51-8.88,6.14-14.5,7.49v-7.97Zm1.44-33.36h9.12v-3.31h7.54v3.31h8.88v6.43h-25.54v-6.43Z"/><path class="ao" d="m2.32,205.12c8.69-2.11,14.21-9.46,14.74-19.63h4.18v-6.34h-8.5v-7.49h16.32v7.1c.05,6.19,2.26,13.39,5.38,17.62,2.69,3.7,5.52,5.67,12,8.4v8.93c-11.38-3.41-19.49-10.75-22.32-20.35-2.4,10.32-11.47,18.77-21.79,20.35v-8.59Z"/><path class="ao" d="m49.99,178.19h15.27v5.66h-15.27v-5.66Zm.86,20.35h13.68v9.36c.1,4.51-1.3,5.9-5.71,5.76h-7.97v-15.12Zm.43-13.15h12.87v5.28h-12.87v-5.28Zm0,6.62h12.87v5.38h-12.87v-5.38Zm.19-20.45h12.63v5.52h-12.63v-5.52Zm7.34,35.81v-2.93h-2.02v2.93h2.02Zm20.74-16.27v5.52h-2.88v6.96l4.22-.58v7.39c-6.91,1.1-9.46,1.39-14.74,1.92v-7.82l3.46-.14v-7.73h-3.41v-6.82h13.15l-.29-2.5-.24-1.82h-12.58v-7.1h11.76c-.24-2.83-.29-2.98-.53-7.63h7.58c.14,2.74.14,2.98.53,7.63h8.35v7.1h-7.87c.72,5.52,1.58,10.56,2.45,13.73,1.34,4.99,2.59,6.62,5.76,7.34v8.35c-8.93-1.39-11.57-5.67-14.74-23.81Zm6.24-20.16h5.95c.82,2.11,1.2,3.26,1.87,5.81h-6.34c-.62-2.74-.82-3.46-1.49-5.81Z"/><path class="ao" d="m98.71,184.58v-4.66h5.09v3.55c0,5.71-.29,8.64-.96,11.42h-5.33c.91-2.93,1.15-4.9,1.2-10.32Zm6-14.26h7.25v9.99l3.22,2.98v1.01h10.08v-1.2h-8.69v-4.27h8.69v-1.49h-9.31v-4.7h9.31v-2.11h7.34v2.11h9.6v4.7h-9.6v1.49h8.3v4.27h-8.3v1.2h10.23v4.94h-27.65v3.46l-3.22-3.94v25.78h-7.25v-44.21Zm26.02,37.68h2.59v-1.87h-9.41v7.92h-7.25v-23.81h24.24v17.43c.14,4.8-1.44,6.48-6.24,6.67h-3.94v-6.34Zm2.59-11.67v-1.58h-9.41v1.58h9.41Zm0,5.76v-1.87h-9.41v1.87h9.41Z"/><path class="ao" d="m154.58,182.32v-2.59h-6.91v-5.9h6.91v-3.41h7.2v3.41h6.19v5.9h-6.19v2.59h7.01v6.14h-1.92l-.62,3.74h2.16v6.43h-6.62v2.21h6.19v6.24h-6.19v7.49h-7.2v-7.49h-6.91v-6.24h6.91v-2.21h-8.02v-6.43h3.7l-1.1-3.74h-3.02v-6.14h8.45Zm4.9,9.89l.62-3.74h-3.84l.62,3.74h2.59Zm30.1-20.79v9.89c0,3.98-1.49,5.18-6.34,5.18h-4.22v-5.81h3.36v-2.93h-5.38v10.75h13.1c-.05,8.21-.91,11.76-2.5,15.46.86.91,2.11,1.82,2.98,2.16v8.26c-2.78-1.15-3.98-1.92-6.62-4.32-1.63,2.06-4.03,3.55-6.1,4.27v-7.92c.67-.48,1.49-1.25,1.87-1.78-.91-1.39-2.02-3.84-2.74-6.53v16.46h-7.15v-43.16h19.73Zm-8.21,22.9c.43,1.44,1.01,3.12,1.78,4.85.43-1.73.77-3.41.86-4.85h-2.64Z"/><path class="ao" d="m199.6,202.1c-2.11,3.41-3.12,4.61-5.57,6.58v-10.75c3.02-2.83,4.99-7.01,5.57-11.9h-5.04v-7.2h5.04v-8.21h7.39v8.21h4.18v7.2h-4.18v2.3l4.51,4.37v9.41l-4.51-4.42v16.8h-7.39v-12.38Zm11.09,5.33c3.7-.38,7.78-2.88,9.31-5.71h-7.01v-13.87h8.02v-1.73h-6.24v-2.64l-2.88,1.1v-7.25c3.26-.82,6.62-3.31,8.98-6.58h7.3c3.6,3.65,5.23,4.66,9.79,6.1v7.39c-1.68-.29-1.97-.34-3.79-.96v2.83h-5.95v1.73h8.45v9.31c.05,3.5-1.06,4.61-4.56,4.56h-3.31c2.54,3.02,5.28,4.51,9.5,5.09v8.06c-5.76-.58-9.89-2.78-13.83-7.44-3.26,4.32-8.45,7.2-13.78,7.68v-7.68Zm10.32-12.1v-2.35h-1.78v2.35h1.78Zm6.67-15.22c-1.68-1.39-1.92-1.63-3.5-3.36-1.68,1.82-1.97,2.06-3.7,3.36h7.2Zm2.3,15.22v-2.35h-1.78v2.35h1.78Z"/><path class="ao" d="m242.71,198.74c4.99,0,9.6,0,11.57-.14l1.06-.62-4.9-1.73c-1.92-.67-2.3-1.49-2.3-2.35,0-.77.34-1.49,1.44-2.26l6.96-4.99h-5.38v3.17h-7.92v-8.83h16.85v-2.11h-15.84v-5.9h15.84v-2.54h8.88v2.54h15.55v5.9h-15.55v2.11h16.8v8.83h-7.92v-3.17h-11.62c-1.87,1.54-5.09,4.08-7.3,5.71l2.54.91c1.68-1.01,4.08-3.17,5.71-4.7h9.79c-3.84,3.26-8.93,7.44-12.15,9.65,2.26-.05,5.9-.24,8.4-.53l-1.44-2.74h8.3c1.49,2.21,3.55,5.76,5.71,9.79h-8.93l-.86-1.92-7.63.58v11.18h-8.3v-10.56c-5.86.34-11.47.53-17.38.62v-5.9Zm13.3,6.82c-1.15,2.78-2.35,5.23-3.94,7.83h-8.5c2.5-3.84,3.46-5.86,4.18-7.83h8.26Zm25.25,0c1.01,2.16,2.3,4.9,4.22,7.83h-9.17c-.96-2.11-2.26-5.09-3.02-7.83h7.97Z"/><path class="ao" d="m292.29,206.04c4.18-.43,7.06-2.16,9.17-5.38,1.73-2.83,2.02-4.42,2.5-12.38h-10.37v-7.78h10.56v-8.59h8.35v8.59h18.77v15.26c-.05,8.54-.77,11.81-3.12,14.21-2.02,2.16-5.71,3.31-10.71,3.31h-5.14v-7.63h3.41c5.71-.14,7.1-1.78,7.15-8.54v-8.83h-10.75c-.67,9.7-1.73,13.87-4.66,18-3.55,4.75-8.11,7.11-15.17,7.78v-8.02Zm28.8-35.67h4.51v7.3h-4.51v-7.3Zm5.9,0h4.46v7.3h-4.46v-7.3Z"/><path class="ao" d="m357.29,191.97l-17.23,8.59v-9.46l26.5-12.43c3.5-1.68,4.22-2.69,4.22-5.86v-1.3h8.78v2.35c0,4.56-1.97,7.82-6.05,9.89l-7.34,3.7v26.16h-8.88v-21.65Z"/><path class="ao" d="m393.43,171.95h8.88v12.87l4.03,1.1c2.64.77,5.28,1.49,7.92,2.21,2.02.53,4.18,1.2,9.84,2.93v9.07c-5.14-2.02-12-4.18-21.79-6.91v20.45h-8.88v-41.72Zm20.69-.24h4.51v7.3h-4.51v-7.3Zm6.05,0h4.46v7.3h-4.46v-7.3Z"/><path class="ap" d="m5.49,2.51h16.61c-4.22,5.52-5.66,7.97-6.91,11.71-1.15,3.31-1.68,6.58-1.68,10.27,0,4.08.67,7.78,2.06,11.38,1.25,3.26,2.64,5.52,6.53,10.61H5.49V2.51Z"/><path class="ap" d="m29.11,12.31v-7.54h19.11c4.94,0,8.21,1.01,9.94,3.12,1.49,1.78,2.4,5.04,2.4,8.45,0,4.08-1.2,7.54-3.31,9.46-1.97,1.82-4.8,2.59-9.46,2.59h-5.14c-4.7,0-5.9,1.39-5.9,5.09v3.12h23.04v7.58H27.76v-8.79c0-10.95,4.08-15.07,14.98-15.07h4.9c3.36,0,3.98-.62,3.98-3.98s-.91-4.03-5.33-4.03h-17.19Z"/><path class="ap" d="m89.06,4.77c2.74,0,5.23.96,7.1,2.69,2.21,2.16,2.93,3.98,2.93,7.97v18.58c0,6.58-3.65,10.18-10.71,10.18h-11.38c-7.15,0-10.56-3.31-10.56-10.13V15.38c0-7.06,3.02-10.61,9.94-10.61h12.67Zm-9.17,7.58c-3.5,0-4.46,1.01-4.46,4.75v14.69c0,4.32.34,4.85,4.42,4.85h6.48c3.26,0,3.74-.58,3.74-4.32v-15.46c0-3.36-1.06-4.51-4.94-4.51h-5.23Z"/><path class="ap" d="m106.53,12.31v-7.54h19.11c4.94,0,8.21,1.01,9.94,3.12,1.49,1.78,2.4,5.04,2.4,8.45,0,4.08-1.2,7.54-3.31,9.46-1.97,1.82-4.8,2.59-9.46,2.59h-5.14c-4.7,0-5.9,1.39-5.9,5.09v3.12h23.04v7.58h-32.02v-8.79c0-10.95,4.08-15.07,14.98-15.07h4.9c3.36,0,3.98-.62,3.98-3.98s-.91-4.03-5.33-4.03h-17.19Z"/><path class="ap" d="m143.59,27.28V4.77h31.63v7.54h-22.85v7.39h13.54c6.67.14,9.84,3.02,9.98,8.93v6.34c-.29,6.29-3.98,9.22-11.47,9.22h-20.69v-7.58h16.99c2.45,0,3.12-.05,3.89-.14l.19-.05h.14c1.34-.1,2.21-.96,2.21-2.3v-3.79c-.1-2.88-.48-3.12-5.18-3.02h-18.39Z"/><path class="ap" d="m214.58,39h-21.27v-7.49h5.95v-11.86c-1.73,1.1-2.59,1.49-5.95,2.64v-8.35c4.94-2.59,7.92-6.05,9.65-11.38h8.69c-.43,1.73-.53,1.97-1.2,3.6h24.48v6.86h-11.76v4.66h9.89v7.34h-9.89v6.48h12.39v7.49h-12.39v7.25h-8.59v-7.25Zm0-21.31v-4.66h-8.16c-1.87,2.35-2.21,2.64-4.56,4.66h12.72Zm0,13.83v-6.48h-7.11v6.48h7.11Z"/><path class="ap" d="m259.85,4.77V1.94h8.16v2.83h16.66v6.34h-5.47v1.97h5.38v5.62h-5.38v7.06h-24v-7.06h-4.51v10.18c0,5.95-.86,9.5-2.98,12.19-1.73,2.21-3.6,3.36-7.3,4.46v-8.64c2.26-1.58,2.74-3.65,2.74-8.16V4.77h16.71Zm-9.84,34.37c4.56-.24,5.47-.38,8.45-1.1-2.45-1.97-3.22-2.78-5.28-5.23h-1.01v-5.47h29.67v5.52c-1.97,1.92-2.78,2.54-6.62,5.28,3.89.62,5.18.77,9.36.86v7.2c-8.02-.48-11.09-1.15-17.91-3.65-5.9,2.11-9.79,2.88-16.66,3.26v-6.67Zm5.18-28.03h-4.51v1.97h4.51v-1.97Zm16.37,1.97v-1.97h-8.98v1.97h8.98Zm0,7.54v-1.92h-8.98v1.92h8.98Zm-5.38,14.59c1.68-.77,2.3-1.15,3.94-2.4h-7.54c1.49,1.2,1.97,1.54,3.6,2.4Z"/><path class="ap" d="m297.81,3.52v11.09h2.3V3.52h6.72v17.52h-9.02v2.5h8.5v13.54c1.54-2.64,2.3-5.38,2.3-11.19V3.52h24.05v6.91h-16.95v4.03h16.56c-.53,7.78-1.92,13.06-4.85,18.91,2.3,2.21,3.07,2.74,5.23,3.74v9.46c-4.56-2.11-6.58-3.55-9.46-6.72-2.88,3.26-4.75,4.56-9.55,6.67v-8.26c-1.87,3.6-3.36,5.71-7.34,8.02v-2.11h-6.58v-14.11h-1.92c-.29,4.7-.86,7.34-1.92,9.79-1.58,3.65-3.46,5.42-7.68,7.49v-9.26c1.25-1.54,1.73-2.64,1.92-4.37.14-1.39.24-3.31.24-7.87V3.52h7.44Zm20.93,30.24c-1.78-3.17-2.16-3.98-3.02-6.43-.19,4.75-.53,6.86-1.92,10.51,2.45-1.49,3.41-2.26,4.94-4.08Zm1.39-12.24c.67,2.4,1.01,3.17,2.35,5.62.82-1.87,1.3-3.94,1.68-5.62h-4.03Z"/><path class="ap" d="m344.08,34.77c1.15-3.31,1.68-6.62,1.68-10.27,0-4.08-.67-7.78-2.06-11.38-1.3-3.26-2.69-5.52-6.53-10.61h16.61v43.97h-16.61c4.18-5.52,5.62-7.97,6.91-11.71Z"/><path class="ap" d="m7.94,118.72c-2.45,1.15-2.83,1.3-5.28,1.97v-8.21c3.79-1.58,5.28-2.54,8.02-5.18H3v-5.76h12.39l.86-1.58H4.1v-5.18h14.11l.72-1.58c-3.41.05-4.75.05-7.15.05l-7.87-.05v-5.42c2.3.05,3.89.05,5.23.05,3.46,0,17.14-.29,20.35-.48,4.08-.19,7.25-.43,13.73-1.1v6.19c-4.75.29-6,.38-8.4.48-1.06.05-2.59.1-7.78.24l-.43,1.63h18.19v5.18h-19.83l-.77,1.58h22.03v5.76h-25.25l-.67,1.06h22.27v16.75c-.19,3.7-2.21,4.99-7.92,4.99H7.94v-11.38Zm26.35-4.75v-1.68h-18.19v1.68h18.19Zm.1,5.18v-1.73h-18.29v1.73h18.29Zm0,5.42v-1.78h-18.29v1.78h18.29Z"/><path class="ap" d="m69.05,107.2l-1.82,1.3v-8.16h-16.8v-5.76h17.19v5.28c1.87-1.92,2.3-2.59,3.5-5.28h1.1v-1.2h-4.75v-4.56h4.75v-2.02h6.67v2.02h4.13v-2.02h6.48v2.02h4.75v4.56h-4.75v1.73h-1.73l-.91,1.58h7.15v3.55h-8.16v1.25h6.77v3.07h-6.77v1.3h6.77v3.41h-6.77v1.15h8.21v3.7h-25.01v-6.91Zm-17.57,8.4h15.07v8.78c.05,4.22-1.68,5.86-6.24,5.76h-8.83v-14.54Zm.38-27.79h14.69v5.33h-14.69v-5.33Zm0,13.83h14.69v5.52h-14.69v-5.52Zm0,6.87h14.69v5.57h-14.69v-5.57Zm8.45,15.41v-2.83h-2.59v2.83h2.59Zm20.21,3.89c-4.61,1.78-7.49,2.45-13.3,3.17v-6.34c2.54-.14,4.22-.34,6.91-.96-1.44-1.39-1.63-1.63-3.26-3.6h-1.82v-4.9h24v4.37c-2.11,2.02-3.26,2.93-5.71,4.42,3.22.62,4.32.82,7.25,1.06v6.1c-6.1-.58-9.98-1.49-14.07-3.31Zm-1.3-26.31v-1.25h-3.55v1.25h3.55Zm0,4.37v-1.3h-3.55v1.3h3.55Zm0,4.56v-1.15h-3.55v1.15h3.55Zm.67-13.73l.86-1.97,2.26.14v-1.49h-4.13v1.73h-1.25c-.34.72-.43.86-.86,1.58h3.12Zm2.88,23.38h-4.37c.86.67,1.06.77,2.06,1.3,1.15-.53,1.3-.62,2.3-1.3Z"/><path class="ap" d="m115.8,103.99h9.36v9.02h-9.36v-9.02Z"/><path class="ap" d="m190.2,87.28v6.77h-16.18c-.58,1.1-.77,1.39-1.39,2.26h14.5v5.86h-10.8v2.78h12.34v6.62h-10.71c2.69,1.87,5.62,2.74,10.71,2.83v7.01c-4.22-.14-6.43-.43-9.07-1.39-2.4-.86-4.13-2.02-6.43-3.98-1.73,1.87-3.89,3.36-6.43,4.27-2.45.86-5.23,1.2-8.98,1.34v-6.77c2.5,0,4.42-.24,6.14-.77,1.78-.53,3.22-1.49,3.7-2.54h-10.22v-6.62h11.09v-2.78h-2.98c-2.02,1.06-4.61,1.87-7.15,2.3v-6.29c3.94-1.3,5.71-2.54,6.62-4.13h-9.26v27.79h34.52v7.06h-34.42c-3.12,0-4.94-.48-6.34-1.73-1.34-1.2-1.87-2.74-1.87-5.71v-34.18h42.63Z"/><path class="ap" d="m213.29,124.48h3.5v-3.79h-9.98v-8.3l-1.82.72c-.24,8.88-3.98,14.79-10.71,16.75v-9.07c2.16-1.54,3.07-3.41,3.07-6.05,0-.67,0-.96-.05-1.63l-3.02,2.4v-7.92l2.93-2.21v-2.69l-2.93-1.97v-8.06l2.93,1.82v-5.71h15.75v-2.69h8.59v2.69h16.75v5.38h-14.07l-.24,1.82h13.97v4.46h-13.97c2.16,1.87,2.54,2.16,4.56,3.12l1.25-2.16h7.15l-2.4,4.18c1.82.58,2.11.67,3.74.91v6.48c-1.78-.24-2.06-.29-3.7-.77v4.46c-.1,2.83-1.25,3.89-4.32,4.03h-5.86v6.14c.05,2.88-1.25,3.89-5.09,3.94h-6.05v-6.29Zm-7.01-2.4h7.49c-1.1,2.78-1.78,4.13-3.65,7.39h-7.78c2.21-3.5,2.88-4.75,3.94-7.39Zm10.08-26.11l.34-1.82h-11.57v1.82h11.23Zm-8.69,9.17l-2.21-3.6h6.48l.72.72c.86-.58,1.15-.86,1.92-1.82h-9.46v5.52c1.15-.34,1.34-.38,2.54-.82Zm19.25,6.86v-1.34h-13.01v1.34h13.01Zm0,4.32v-1.34h-13.01v1.34h13.01Zm-4.66-9.36c-1.25-1.01-1.39-1.2-2.45-2.21-1.06,1.2-1.25,1.39-2.4,2.21h4.85Zm4.27,15.12h7.92c1.68,3.84,2.16,4.7,3.84,7.39h-8.64c-1.78-3.94-2.06-4.56-3.12-7.39Z"/><path class="ap" d="m259.94,117.24c-3.17.14-3.89.19-6.48.24-.96,0-3.89.05-8.83.14l-2.35.05v-7.3h11.33l1.34-1.06-6.43-4.75c-.82-.58-1.25-1.25-1.25-1.92,0-.77.34-1.34,1.34-2.3l5.33-5.09h-10.61v-7.3l6.77-.05c16.32,0,25.44-.34,33.7-1.25v7.3c-3.84.43-6.19.62-9.07.82-.77.05-3.07.14-9.46.38l-6.82,6.34,3.46,2.3c2.78-2.26,6.14-5.47,7.58-7.3h10.99c-4.03,4.56-8.5,8.59-14.88,13.3,2.5-.34,3.94-.48,4.37-.58,1.25-.14,1.63-.19,3.46-.48l-1.1-2.74h8.26c1.78,3.46,4.22,8.83,5.33,11.71h-8.64l-1.06-2.54c-2.59.58-2.78.58-7.63,1.34v14.3h-8.64v-13.58Zm-12.38,2.02h8.4c-1.63,4.46-2.74,6.82-4.85,10.27h-8.83c2.54-4.27,3.74-6.62,5.28-10.27Zm25.3,0h8.59c2.26,4.94,3.07,6.77,4.75,10.27h-9.22c-1.49-3.36-2.21-5.14-4.13-10.27Z"/><path class="ap" d="m300.79,122.76h7.68v-3.31h-17.86v-6.91h17.86v-3.41c3.6-1.1,4.61-1.54,6.67-2.64h-19.73v-4.22h-4.13v-10.08h4.9l-2.54-5.76h7.92l2.59,5.76h3.89l-2.5-5.76h8.26l2.4,5.76h3.26l3.31-5.76h9.26l-3.22,5.76h4.37v10.27h-3.65v4.32c-6.38,2.93-7.25,3.31-12.24,5.47v.29h16.85v6.91h-16.85v2.78c.19,6-1.68,7.83-8.16,7.87h-8.35v-7.34Zm24.29-22.23v-2.21h-25.54v2.21h25.54Z"/><path class="ap" d="m354.5,123.14c5.14-1.63,6.72-2.45,9.5-4.85-2.06-3.41-2.45-4.27-3.75-8.4-2.11,2.11-2.78,2.59-4.56,3.5v4.51c-2.02-2.45-2.3-2.78-4.37-4.8v16.9h-7.34v-12.91c-2.06,3.79-3.02,4.99-5.81,7.3v-12.1c3.07-3.26,4.66-6.19,5.71-10.51h-5.18v-7.2h5.28v-7.97h7.34v7.97h4.37v7.2h-4.37v2.5c2.11,1.58,2.45,1.82,4.37,3.36v-2.69c2.54-2.35,4.08-4.66,4.66-7.15h7.01c-.58,2.78-2.11,6.05-4.08,8.78h3.36c.77,2.93,1.1,3.79,2.35,5.62,1.2-2.02,1.73-3.17,2.5-5.62h2.3c-2.26-2.93-3.12-5.04-3.7-8.78h6.62c.72,2.98,1.87,4.51,4.7,6.48v8.98c-1.82-1.25-2.11-1.44-3.6-2.64-1.15,2.93-2.02,4.56-3.84,7.44,2.54,2.4,4.46,3.46,8.3,4.46v8.59c-5.86-1.63-8.93-3.36-13.3-7.49-5.81,4.51-8.88,6.14-14.5,7.49v-7.97Zm1.44-33.36h9.12v-3.31h7.54v3.31h8.88v6.43h-25.54v-6.43Z"/><path class="ap" d="m2.32,205.12c8.69-2.11,14.21-9.46,14.74-19.63h4.18v-6.34h-8.5v-7.49h16.32v7.1c.05,6.19,2.26,13.39,5.38,17.62,2.69,3.7,5.52,5.67,12,8.4v8.93c-11.38-3.41-19.49-10.75-22.32-20.35-2.4,10.32-11.47,18.77-21.79,20.35v-8.59Z"/><path class="ap" d="m49.99,178.19h15.27v5.66h-15.27v-5.66Zm.86,20.35h13.68v9.36c.1,4.51-1.3,5.9-5.71,5.76h-7.97v-15.12Zm.43-13.15h12.87v5.28h-12.87v-5.28Zm0,6.62h12.87v5.38h-12.87v-5.38Zm.19-20.45h12.63v5.52h-12.63v-5.52Zm7.34,35.81v-2.93h-2.02v2.93h2.02Zm20.74-16.27v5.52h-2.88v6.96l4.22-.58v7.39c-6.91,1.1-9.46,1.39-14.74,1.92v-7.82l3.46-.14v-7.73h-3.41v-6.82h13.15l-.29-2.5-.24-1.82h-12.58v-7.1h11.76c-.24-2.83-.29-2.98-.53-7.63h7.58c.14,2.74.14,2.98.53,7.63h8.35v7.1h-7.87c.72,5.52,1.58,10.56,2.45,13.73,1.34,4.99,2.59,6.62,5.76,7.34v8.35c-8.93-1.39-11.57-5.67-14.74-23.81Zm6.24-20.16h5.95c.82,2.11,1.2,3.26,1.87,5.81h-6.34c-.62-2.74-.82-3.46-1.49-5.81Z"/><path class="ap" d="m98.71,184.58v-4.66h5.09v3.55c0,5.71-.29,8.64-.96,11.42h-5.33c.91-2.93,1.15-4.9,1.2-10.32Zm6-14.26h7.25v9.99l3.22,2.98v1.01h10.08v-1.2h-8.69v-4.27h8.69v-1.49h-9.31v-4.7h9.31v-2.11h7.34v2.11h9.6v4.7h-9.6v1.49h8.3v4.27h-8.3v1.2h10.23v4.94h-27.65v3.46l-3.22-3.94v25.78h-7.25v-44.21Zm26.02,37.68h2.59v-1.87h-9.41v7.92h-7.25v-23.81h24.24v17.43c.14,4.8-1.44,6.48-6.24,6.67h-3.94v-6.34Zm2.59-11.67v-1.58h-9.41v1.58h9.41Zm0,5.76v-1.87h-9.41v1.87h9.41Z"/><path class="ap" d="m154.58,182.32v-2.59h-6.91v-5.9h6.91v-3.41h7.2v3.41h6.19v5.9h-6.19v2.59h7.01v6.14h-1.92l-.62,3.74h2.16v6.43h-6.62v2.21h6.19v6.24h-6.19v7.49h-7.2v-7.49h-6.91v-6.24h6.91v-2.21h-8.02v-6.43h3.7l-1.1-3.74h-3.02v-6.14h8.45Zm4.9,9.89l.62-3.74h-3.84l.62,3.74h2.59Zm30.1-20.79v9.89c0,3.98-1.49,5.18-6.34,5.18h-4.22v-5.81h3.36v-2.93h-5.38v10.75h13.1c-.05,8.21-.91,11.76-2.5,15.46.86.91,2.11,1.82,2.98,2.16v8.26c-2.78-1.15-3.98-1.92-6.62-4.32-1.63,2.06-4.03,3.55-6.1,4.27v-7.92c.67-.48,1.49-1.25,1.87-1.78-.91-1.39-2.02-3.84-2.74-6.53v16.46h-7.15v-43.16h19.73Zm-8.21,22.9c.43,1.44,1.01,3.12,1.78,4.85.43-1.73.77-3.41.86-4.85h-2.64Z"/><path class="ap" d="m199.6,202.1c-2.11,3.41-3.12,4.61-5.57,6.58v-10.75c3.02-2.83,4.99-7.01,5.57-11.9h-5.04v-7.2h5.04v-8.21h7.39v8.21h4.18v7.2h-4.18v2.3l4.51,4.37v9.41l-4.51-4.42v16.8h-7.39v-12.38Zm11.09,5.33c3.7-.38,7.78-2.88,9.31-5.71h-7.01v-13.87h8.02v-1.73h-6.24v-2.64l-2.88,1.1v-7.25c3.26-.82,6.62-3.31,8.98-6.58h7.3c3.6,3.65,5.23,4.66,9.79,6.1v7.39c-1.68-.29-1.97-.34-3.79-.96v2.83h-5.95v1.73h8.45v9.31c.05,3.5-1.06,4.61-4.56,4.56h-3.31c2.54,3.02,5.28,4.51,9.5,5.09v8.06c-5.76-.58-9.89-2.78-13.83-7.44-3.26,4.32-8.45,7.2-13.78,7.68v-7.68Zm10.32-12.1v-2.35h-1.78v2.35h1.78Zm6.67-15.22c-1.68-1.39-1.92-1.63-3.5-3.36-1.68,1.82-1.97,2.06-3.7,3.36h7.2Zm2.3,15.22v-2.35h-1.78v2.35h1.78Z"/><path class="ap" d="m242.71,198.74c4.99,0,9.6,0,11.57-.14l1.06-.62-4.9-1.73c-1.92-.67-2.3-1.49-2.3-2.35,0-.77.34-1.49,1.44-2.26l6.96-4.99h-5.38v3.17h-7.92v-8.83h16.85v-2.11h-15.84v-5.9h15.84v-2.54h8.88v2.54h15.55v5.9h-15.55v2.11h16.8v8.83h-7.92v-3.17h-11.62c-1.87,1.54-5.09,4.08-7.3,5.71l2.54.91c1.68-1.01,4.08-3.17,5.71-4.7h9.79c-3.84,3.26-8.93,7.44-12.15,9.65,2.26-.05,5.9-.24,8.4-.53l-1.44-2.74h8.3c1.49,2.21,3.55,5.76,5.71,9.79h-8.93l-.86-1.92-7.63.58v11.18h-8.3v-10.56c-5.86.34-11.47.53-17.38.62v-5.9Zm13.3,6.82c-1.15,2.78-2.35,5.23-3.94,7.83h-8.5c2.5-3.84,3.46-5.86,4.18-7.83h8.26Zm25.25,0c1.01,2.16,2.3,4.9,4.22,7.83h-9.17c-.96-2.11-2.26-5.09-3.02-7.83h7.97Z"/><path class="ap" d="m292.29,206.04c4.18-.43,7.06-2.16,9.17-5.38,1.73-2.83,2.02-4.42,2.5-12.38h-10.37v-7.78h10.56v-8.59h8.35v8.59h18.77v15.26c-.05,8.54-.77,11.81-3.12,14.21-2.02,2.16-5.71,3.31-10.71,3.31h-5.14v-7.63h3.41c5.71-.14,7.1-1.78,7.15-8.54v-8.83h-10.75c-.67,9.7-1.73,13.87-4.66,18-3.55,4.75-8.11,7.11-15.17,7.78v-8.02Zm28.8-35.67h4.51v7.3h-4.51v-7.3Zm5.9,0h4.46v7.3h-4.46v-7.3Z"/><path class="ap" d="m357.29,191.97l-17.23,8.59v-9.46l26.5-12.43c3.5-1.68,4.22-2.69,4.22-5.86v-1.3h8.78v2.35c0,4.56-1.97,7.82-6.05,9.89l-7.34,3.7v26.16h-8.88v-21.65Z"/><path class="ap" d="m393.43,171.95h8.88v12.87l4.03,1.1c2.64.77,5.28,1.49,7.92,2.21,2.02.53,4.18,1.2,9.84,2.93v9.07c-5.14-2.02-12-4.18-21.79-6.91v20.45h-8.88v-41.72Zm20.69-.24h4.51v7.3h-4.51v-7.3Zm6.05,0h4.46v7.3h-4.46v-7.3Z"/><path class="am" d="m5.49,2.51h16.61c-4.22,5.52-5.66,7.97-6.91,11.71-1.15,3.31-1.68,6.58-1.68,10.27,0,4.08.67,7.78,2.06,11.38,1.25,3.26,2.64,5.52,6.53,10.61H5.49V2.51Z"/><path class="am" d="m29.11,12.31v-7.54h19.11c4.94,0,8.21,1.01,9.94,3.12,1.49,1.78,2.4,5.04,2.4,8.45,0,4.08-1.2,7.54-3.31,9.46-1.97,1.82-4.8,2.59-9.46,2.59h-5.14c-4.7,0-5.9,1.39-5.9,5.09v3.12h23.04v7.58H27.76v-8.79c0-10.95,4.08-15.07,14.98-15.07h4.9c3.36,0,3.98-.62,3.98-3.98s-.91-4.03-5.33-4.03h-17.19Z"/><path class="am" d="m89.06,4.77c2.74,0,5.23.96,7.1,2.69,2.21,2.16,2.93,3.98,2.93,7.97v18.58c0,6.58-3.65,10.18-10.71,10.18h-11.38c-7.15,0-10.56-3.31-10.56-10.13V15.38c0-7.06,3.02-10.61,9.94-10.61h12.67Zm-9.17,7.58c-3.5,0-4.46,1.01-4.46,4.75v14.69c0,4.32.34,4.85,4.42,4.85h6.48c3.26,0,3.74-.58,3.74-4.32v-15.46c0-3.36-1.06-4.51-4.94-4.51h-5.23Z"/><path class="am" d="m106.53,12.31v-7.54h19.11c4.94,0,8.21,1.01,9.94,3.12,1.49,1.78,2.4,5.04,2.4,8.45,0,4.08-1.2,7.54-3.31,9.46-1.97,1.82-4.8,2.59-9.46,2.59h-5.14c-4.7,0-5.9,1.39-5.9,5.09v3.12h23.04v7.58h-32.02v-8.79c0-10.95,4.08-15.07,14.98-15.07h4.9c3.36,0,3.98-.62,3.98-3.98s-.91-4.03-5.33-4.03h-17.19Z"/><path class="am" d="m143.59,27.28V4.77h31.63v7.54h-22.85v7.39h13.54c6.67.14,9.84,3.02,9.98,8.93v6.34c-.29,6.29-3.98,9.22-11.47,9.22h-20.69v-7.58h16.99c2.45,0,3.12-.05,3.89-.14l.19-.05h.14c1.34-.1,2.21-.96,2.21-2.3v-3.79c-.1-2.88-.48-3.12-5.18-3.02h-18.39Z"/><path class="am" d="m214.58,39h-21.27v-7.49h5.95v-11.86c-1.73,1.1-2.59,1.49-5.95,2.64v-8.35c4.94-2.59,7.92-6.05,9.65-11.38h8.69c-.43,1.73-.53,1.97-1.2,3.6h24.48v6.86h-11.76v4.66h9.89v7.34h-9.89v6.48h12.39v7.49h-12.39v7.25h-8.59v-7.25Zm0-21.31v-4.66h-8.16c-1.87,2.35-2.21,2.64-4.56,4.66h12.72Zm0,13.83v-6.48h-7.11v6.48h7.11Z"/><path class="am" d="m259.85,4.77V1.94h8.16v2.83h16.66v6.34h-5.47v1.97h5.38v5.62h-5.38v7.06h-24v-7.06h-4.51v10.18c0,5.95-.86,9.5-2.98,12.19-1.73,2.21-3.6,3.36-7.3,4.46v-8.64c2.26-1.58,2.74-3.65,2.74-8.16V4.77h16.71Zm-9.84,34.37c4.56-.24,5.47-.38,8.45-1.1-2.45-1.97-3.22-2.78-5.28-5.23h-1.01v-5.47h29.67v5.52c-1.97,1.92-2.78,2.54-6.62,5.28,3.89.62,5.18.77,9.36.86v7.2c-8.02-.48-11.09-1.15-17.91-3.65-5.9,2.11-9.79,2.88-16.66,3.26v-6.67Zm5.18-28.03h-4.51v1.97h4.51v-1.97Zm16.37,1.97v-1.97h-8.98v1.97h8.98Zm0,7.54v-1.92h-8.98v1.92h8.98Zm-5.38,14.59c1.68-.77,2.3-1.15,3.94-2.4h-7.54c1.49,1.2,1.97,1.54,3.6,2.4Z"/><path class="am" d="m297.81,3.52v11.09h2.3V3.52h6.72v17.52h-9.02v2.5h8.5v13.54c1.54-2.64,2.3-5.38,2.3-11.19V3.52h24.05v6.91h-16.95v4.03h16.56c-.53,7.78-1.92,13.06-4.85,18.91,2.3,2.21,3.07,2.74,5.23,3.74v9.46c-4.56-2.11-6.58-3.55-9.46-6.72-2.88,3.26-4.75,4.56-9.55,6.67v-8.26c-1.87,3.6-3.36,5.71-7.34,8.02v-2.11h-6.58v-14.11h-1.92c-.29,4.7-.86,7.34-1.92,9.79-1.58,3.65-3.46,5.42-7.68,7.49v-9.26c1.25-1.54,1.73-2.64,1.92-4.37.14-1.39.24-3.31.24-7.87V3.52h7.44Zm20.93,30.24c-1.78-3.17-2.16-3.98-3.02-6.43-.19,4.75-.53,6.86-1.92,10.51,2.45-1.49,3.41-2.26,4.94-4.08Zm1.39-12.24c.67,2.4,1.01,3.17,2.35,5.62.82-1.87,1.3-3.94,1.68-5.62h-4.03Z"/><path class="am" d="m344.08,34.77c1.15-3.31,1.68-6.62,1.68-10.27,0-4.08-.67-7.78-2.06-11.38-1.3-3.26-2.69-5.52-6.53-10.61h16.61v43.97h-16.61c4.18-5.52,5.62-7.97,6.91-11.71Z"/><path class="am" d="m7.94,118.72c-2.45,1.15-2.83,1.3-5.28,1.97v-8.21c3.79-1.58,5.28-2.54,8.02-5.18H3v-5.76h12.39l.86-1.58H4.1v-5.18h14.11l.72-1.58c-3.41.05-4.75.05-7.15.05l-7.87-.05v-5.42c2.3.05,3.89.05,5.23.05,3.46,0,17.14-.29,20.35-.48,4.08-.19,7.25-.43,13.73-1.1v6.19c-4.75.29-6,.38-8.4.48-1.06.05-2.59.1-7.78.24l-.43,1.63h18.19v5.18h-19.83l-.77,1.58h22.03v5.76h-25.25l-.67,1.06h22.27v16.75c-.19,3.7-2.21,4.99-7.92,4.99H7.94v-11.38Zm26.35-4.75v-1.68h-18.19v1.68h18.19Zm.1,5.18v-1.73h-18.29v1.73h18.29Zm0,5.42v-1.78h-18.29v1.78h18.29Z"/><path class="am" d="m69.05,107.2l-1.82,1.3v-8.16h-16.8v-5.76h17.19v5.28c1.87-1.92,2.3-2.59,3.5-5.28h1.1v-1.2h-4.75v-4.56h4.75v-2.02h6.67v2.02h4.13v-2.02h6.48v2.02h4.75v4.56h-4.75v1.73h-1.73l-.91,1.58h7.15v3.55h-8.16v1.25h6.77v3.07h-6.77v1.3h6.77v3.41h-6.77v1.15h8.21v3.7h-25.01v-6.91Zm-17.57,8.4h15.07v8.78c.05,4.22-1.68,5.86-6.24,5.76h-8.83v-14.54Zm.38-27.79h14.69v5.33h-14.69v-5.33Zm0,13.83h14.69v5.52h-14.69v-5.52Zm0,6.87h14.69v5.57h-14.69v-5.57Zm8.45,15.41v-2.83h-2.59v2.83h2.59Zm20.21,3.89c-4.61,1.78-7.49,2.45-13.3,3.17v-6.34c2.54-.14,4.22-.34,6.91-.96-1.44-1.39-1.63-1.63-3.26-3.6h-1.82v-4.9h24v4.37c-2.11,2.02-3.26,2.93-5.71,4.42,3.22.62,4.32.82,7.25,1.06v6.1c-6.1-.58-9.98-1.49-14.07-3.31Zm-1.3-26.31v-1.25h-3.55v1.25h3.55Zm0,4.37v-1.3h-3.55v1.3h3.55Zm0,4.56v-1.15h-3.55v1.15h3.55Zm.67-13.73l.86-1.97,2.26.14v-1.49h-4.13v1.73h-1.25c-.34.72-.43.86-.86,1.58h3.12Zm2.88,23.38h-4.37c.86.67,1.06.77,2.06,1.3,1.15-.53,1.3-.62,2.3-1.3Z"/><path class="am" d="m115.8,103.99h9.36v9.02h-9.36v-9.02Z"/><path class="am" d="m190.2,87.28v6.77h-16.18c-.58,1.1-.77,1.39-1.39,2.26h14.5v5.86h-10.8v2.78h12.34v6.62h-10.71c2.69,1.87,5.62,2.74,10.71,2.83v7.01c-4.22-.14-6.43-.43-9.07-1.39-2.4-.86-4.13-2.02-6.43-3.98-1.73,1.87-3.89,3.36-6.43,4.27-2.45.86-5.23,1.2-8.98,1.34v-6.77c2.5,0,4.42-.24,6.14-.77,1.78-.53,3.22-1.49,3.7-2.54h-10.22v-6.62h11.09v-2.78h-2.98c-2.02,1.06-4.61,1.87-7.15,2.3v-6.29c3.94-1.3,5.71-2.54,6.62-4.13h-9.26v27.79h34.52v7.06h-34.42c-3.12,0-4.94-.48-6.34-1.73-1.34-1.2-1.87-2.74-1.87-5.71v-34.18h42.63Z"/><path class="am" d="m213.29,124.48h3.5v-3.79h-9.98v-8.3l-1.82.72c-.24,8.88-3.98,14.79-10.71,16.75v-9.07c2.16-1.54,3.07-3.41,3.07-6.05,0-.67,0-.96-.05-1.63l-3.02,2.4v-7.92l2.93-2.21v-2.69l-2.93-1.97v-8.06l2.93,1.82v-5.71h15.75v-2.69h8.59v2.69h16.75v5.38h-14.07l-.24,1.82h13.97v4.46h-13.97c2.16,1.87,2.54,2.16,4.56,3.12l1.25-2.16h7.15l-2.4,4.18c1.82.58,2.11.67,3.74.91v6.48c-1.78-.24-2.06-.29-3.7-.77v4.46c-.1,2.83-1.25,3.89-4.32,4.03h-5.86v6.14c.05,2.88-1.25,3.89-5.09,3.94h-6.05v-6.29Zm-7.01-2.4h7.49c-1.1,2.78-1.78,4.13-3.65,7.39h-7.78c2.21-3.5,2.88-4.75,3.94-7.39Zm10.08-26.11l.34-1.82h-11.57v1.82h11.23Zm-8.69,9.17l-2.21-3.6h6.48l.72.72c.86-.58,1.15-.86,1.92-1.82h-9.46v5.52c1.15-.34,1.34-.38,2.54-.82Zm19.25,6.86v-1.34h-13.01v1.34h13.01Zm0,4.32v-1.34h-13.01v1.34h13.01Zm-4.66-9.36c-1.25-1.01-1.39-1.2-2.45-2.21-1.06,1.2-1.25,1.39-2.4,2.21h4.85Zm4.27,15.12h7.92c1.68,3.84,2.16,4.7,3.84,7.39h-8.64c-1.78-3.94-2.06-4.56-3.12-7.39Z"/><path class="am" d="m259.94,117.24c-3.17.14-3.89.19-6.48.24-.96,0-3.89.05-8.83.14l-2.35.05v-7.3h11.33l1.34-1.06-6.43-4.75c-.82-.58-1.25-1.25-1.25-1.92,0-.77.34-1.34,1.34-2.3l5.33-5.09h-10.61v-7.3l6.77-.05c16.32,0,25.44-.34,33.7-1.25v7.3c-3.84.43-6.19.62-9.07.82-.77.05-3.07.14-9.46.38l-6.82,6.34,3.46,2.3c2.78-2.26,6.14-5.47,7.58-7.3h10.99c-4.03,4.56-8.5,8.59-14.88,13.3,2.5-.34,3.94-.48,4.37-.58,1.25-.14,1.63-.19,3.46-.48l-1.1-2.74h8.26c1.78,3.46,4.22,8.83,5.33,11.71h-8.64l-1.06-2.54c-2.59.58-2.78.58-7.63,1.34v14.3h-8.64v-13.58Zm-12.38,2.02h8.4c-1.63,4.46-2.74,6.82-4.85,10.27h-8.83c2.54-4.27,3.74-6.62,5.28-10.27Zm25.3,0h8.59c2.26,4.94,3.07,6.77,4.75,10.27h-9.22c-1.49-3.36-2.21-5.14-4.13-10.27Z"/><path class="am" d="m300.79,122.76h7.68v-3.31h-17.86v-6.91h17.86v-3.41c3.6-1.1,4.61-1.54,6.67-2.64h-19.73v-4.22h-4.13v-10.08h4.9l-2.54-5.76h7.92l2.59,5.76h3.89l-2.5-5.76h8.26l2.4,5.76h3.26l3.31-5.76h9.26l-3.22,5.76h4.37v10.27h-3.65v4.32c-6.38,2.93-7.25,3.31-12.24,5.47v.29h16.85v6.91h-16.85v2.78c.19,6-1.68,7.83-8.16,7.87h-8.35v-7.34Zm24.29-22.23v-2.21h-25.54v2.21h25.54Z"/><path class="am" d="m354.5,123.14c5.14-1.63,6.72-2.45,9.5-4.85-2.06-3.41-2.45-4.27-3.75-8.4-2.11,2.11-2.78,2.59-4.56,3.5v4.51c-2.02-2.45-2.3-2.78-4.37-4.8v16.9h-7.34v-12.91c-2.06,3.79-3.02,4.99-5.81,7.3v-12.1c3.07-3.26,4.66-6.19,5.71-10.51h-5.18v-7.2h5.28v-7.97h7.34v7.97h4.37v7.2h-4.37v2.5c2.11,1.58,2.45,1.82,4.37,3.36v-2.69c2.54-2.35,4.08-4.66,4.66-7.15h7.01c-.58,2.78-2.11,6.05-4.08,8.78h3.36c.77,2.93,1.1,3.79,2.35,5.62,1.2-2.02,1.73-3.17,2.5-5.62h2.3c-2.26-2.93-3.12-5.04-3.7-8.78h6.62c.72,2.98,1.87,4.51,4.7,6.48v8.98c-1.82-1.25-2.11-1.44-3.6-2.64-1.15,2.93-2.02,4.56-3.84,7.44,2.54,2.4,4.46,3.46,8.3,4.46v8.59c-5.86-1.63-8.93-3.36-13.3-7.49-5.81,4.51-8.88,6.14-14.5,7.49v-7.97Zm1.44-33.36h9.12v-3.31h7.54v3.31h8.88v6.43h-25.54v-6.43Z"/><path class="am" d="m2.32,205.12c8.69-2.11,14.21-9.46,14.74-19.63h4.18v-6.34h-8.5v-7.49h16.32v7.1c.05,6.19,2.26,13.39,5.38,17.62,2.69,3.7,5.52,5.67,12,8.4v8.93c-11.38-3.41-19.49-10.75-22.32-20.35-2.4,10.32-11.47,18.77-21.79,20.35v-8.59Z"/><path class="am" d="m49.99,178.19h15.27v5.66h-15.27v-5.66Zm.86,20.35h13.68v9.36c.1,4.51-1.3,5.9-5.71,5.76h-7.97v-15.12Zm.43-13.15h12.87v5.28h-12.87v-5.28Zm0,6.62h12.87v5.38h-12.87v-5.38Zm.19-20.45h12.63v5.52h-12.63v-5.52Zm7.34,35.81v-2.93h-2.02v2.93h2.02Zm20.74-16.27v5.52h-2.88v6.96l4.22-.58v7.39c-6.91,1.1-9.46,1.39-14.74,1.92v-7.82l3.46-.14v-7.73h-3.41v-6.82h13.15l-.29-2.5-.24-1.82h-12.58v-7.1h11.76c-.24-2.83-.29-2.98-.53-7.63h7.58c.14,2.74.14,2.98.53,7.63h8.35v7.1h-7.87c.72,5.52,1.58,10.56,2.45,13.73,1.34,4.99,2.59,6.62,5.76,7.34v8.35c-8.93-1.39-11.57-5.67-14.74-23.81Zm6.24-20.16h5.95c.82,2.11,1.2,3.26,1.87,5.81h-6.34c-.62-2.74-.82-3.46-1.49-5.81Z"/><path class="am" d="m98.71,184.58v-4.66h5.09v3.55c0,5.71-.29,8.64-.96,11.42h-5.33c.91-2.93,1.15-4.9,1.2-10.32Zm6-14.26h7.25v9.99l3.22,2.98v1.01h10.08v-1.2h-8.69v-4.27h8.69v-1.49h-9.31v-4.7h9.31v-2.11h7.34v2.11h9.6v4.7h-9.6v1.49h8.3v4.27h-8.3v1.2h10.23v4.94h-27.65v3.46l-3.22-3.94v25.78h-7.25v-44.21Zm26.02,37.68h2.59v-1.87h-9.41v7.92h-7.25v-23.81h24.24v17.43c.14,4.8-1.44,6.48-6.24,6.67h-3.94v-6.34Zm2.59-11.67v-1.58h-9.41v1.58h9.41Zm0,5.76v-1.87h-9.41v1.87h9.41Z"/><path class="am" d="m154.58,182.32v-2.59h-6.91v-5.9h6.91v-3.41h7.2v3.41h6.19v5.9h-6.19v2.59h7.01v6.14h-1.92l-.62,3.74h2.16v6.43h-6.62v2.21h6.19v6.24h-6.19v7.49h-7.2v-7.49h-6.91v-6.24h6.91v-2.21h-8.02v-6.43h3.7l-1.1-3.74h-3.02v-6.14h8.45Zm4.9,9.89l.62-3.74h-3.84l.62,3.74h2.59Zm30.1-20.79v9.89c0,3.98-1.49,5.18-6.34,5.18h-4.22v-5.81h3.36v-2.93h-5.38v10.75h13.1c-.05,8.21-.91,11.76-2.5,15.46.86.91,2.11,1.82,2.98,2.16v8.26c-2.78-1.15-3.98-1.92-6.62-4.32-1.63,2.06-4.03,3.55-6.1,4.27v-7.92c.67-.48,1.49-1.25,1.87-1.78-.91-1.39-2.02-3.84-2.74-6.53v16.46h-7.15v-43.16h19.73Zm-8.21,22.9c.43,1.44,1.01,3.12,1.78,4.85.43-1.73.77-3.41.86-4.85h-2.64Z"/><path class="am" d="m199.6,202.1c-2.11,3.41-3.12,4.61-5.57,6.58v-10.75c3.02-2.83,4.99-7.01,5.57-11.9h-5.04v-7.2h5.04v-8.21h7.39v8.21h4.18v7.2h-4.18v2.3l4.51,4.37v9.41l-4.51-4.42v16.8h-7.39v-12.38Zm11.09,5.33c3.7-.38,7.78-2.88,9.31-5.71h-7.01v-13.87h8.02v-1.73h-6.24v-2.64l-2.88,1.1v-7.25c3.26-.82,6.62-3.31,8.98-6.58h7.3c3.6,3.65,5.23,4.66,9.79,6.1v7.39c-1.68-.29-1.97-.34-3.79-.96v2.83h-5.95v1.73h8.45v9.31c.05,3.5-1.06,4.61-4.56,4.56h-3.31c2.54,3.02,5.28,4.51,9.5,5.09v8.06c-5.76-.58-9.89-2.78-13.83-7.44-3.26,4.32-8.45,7.2-13.78,7.68v-7.68Zm10.32-12.1v-2.35h-1.78v2.35h1.78Zm6.67-15.22c-1.68-1.39-1.92-1.63-3.5-3.36-1.68,1.82-1.97,2.06-3.7,3.36h7.2Zm2.3,15.22v-2.35h-1.78v2.35h1.78Z"/><path class="am" d="m242.71,198.74c4.99,0,9.6,0,11.57-.14l1.06-.62-4.9-1.73c-1.92-.67-2.3-1.49-2.3-2.35,0-.77.34-1.49,1.44-2.26l6.96-4.99h-5.38v3.17h-7.92v-8.83h16.85v-2.11h-15.84v-5.9h15.84v-2.54h8.88v2.54h15.55v5.9h-15.55v2.11h16.8v8.83h-7.92v-3.17h-11.62c-1.87,1.54-5.09,4.08-7.3,5.71l2.54.91c1.68-1.01,4.08-3.17,5.71-4.7h9.79c-3.84,3.26-8.93,7.44-12.15,9.65,2.26-.05,5.9-.24,8.4-.53l-1.44-2.74h8.3c1.49,2.21,3.55,5.76,5.71,9.79h-8.93l-.86-1.92-7.63.58v11.18h-8.3v-10.56c-5.86.34-11.47.53-17.38.62v-5.9Zm13.3,6.82c-1.15,2.78-2.35,5.23-3.94,7.83h-8.5c2.5-3.84,3.46-5.86,4.18-7.83h8.26Zm25.25,0c1.01,2.16,2.3,4.9,4.22,7.83h-9.17c-.96-2.11-2.26-5.09-3.02-7.83h7.97Z"/><path class="am" d="m292.29,206.04c4.18-.43,7.06-2.16,9.17-5.38,1.73-2.83,2.02-4.42,2.5-12.38h-10.37v-7.78h10.56v-8.59h8.35v8.59h18.77v15.26c-.05,8.54-.77,11.81-3.12,14.21-2.02,2.16-5.71,3.31-10.71,3.31h-5.14v-7.63h3.41c5.71-.14,7.1-1.78,7.15-8.54v-8.83h-10.75c-.67,9.7-1.73,13.87-4.66,18-3.55,4.75-8.11,7.11-15.17,7.78v-8.02Zm28.8-35.67h4.51v7.3h-4.51v-7.3Zm5.9,0h4.46v7.3h-4.46v-7.3Z"/><path class="am" d="m357.29,191.97l-17.23,8.59v-9.46l26.5-12.43c3.5-1.68,4.22-2.69,4.22-5.86v-1.3h8.78v2.35c0,4.56-1.97,7.82-6.05,9.89l-7.34,3.7v26.16h-8.88v-21.65Z"/><path class="am" d="m393.43,171.95h8.88v12.87l4.03,1.1c2.64.77,5.28,1.49,7.92,2.21,2.02.53,4.18,1.2,9.84,2.93v9.07c-5.14-2.02-12-4.18-21.79-6.91v20.45h-8.88v-41.72Zm20.69-.24h4.51v7.3h-4.51v-7.3Zm6.05,0h4.46v7.3h-4.46v-7.3Z"/></svg>