<?xml version="1.0" encoding="UTF-8"?>
<svg id="_レイヤー_1" data-name="レイヤー_1" xmlns="http://www.w3.org/2000/svg" xmlns:xlink="http://www.w3.org/1999/xlink" viewBox="0 0 568.59 308.5">
  <defs>
    <style>
      .cls-1 {
        fill: #1d479c;
      }

      .cls-1, .cls-2, .cls-3, .cls-4 {
        stroke-miterlimit: 10;
      }

      .cls-1, .cls-2, .cls-4 {
        stroke: #fff;
      }

      .cls-2 {
        fill: #fff;
      }

      .cls-3 {
        fill: #efdd26;
        filter: url(#drop-shadow-1);
        stroke: #ef8e8d;
        stroke-width: 7px;
      }

      .cls-4 {
        fill: #d73b71;
      }
    </style>
    <filter id="drop-shadow-1" filterUnits="userSpaceOnUse">
      <feOffset dx="7" dy="7"/>
      <feGaussianBlur result="blur" stdDeviation="5"/>
      <feFlood flood-color="#231815" flood-opacity=".75"/>
      <feComposite in2="blur" operator="in"/>
      <feComposite in="SourceGraphic"/>
    </filter>
  </defs>
  <ellipse class="cls-3" cx="294.56" cy="156.36" rx="210.35" ry="129.41"/>
  <g>
    <path class="cls-2" d="M251.13,73.36c.16-.41.38-.68.82-.68.49,0,1.01.33,1.01.84,0,.41-.25.93-.38,1.33-.44,1.23-.71,2.53-.9,3.84-.11.65-.38,1.23-1.14,1.23-1.06,0-1.44-1.06-1.77-2.1-.76-2.34-1.04-4.82-1.04-7.27,0-3.08.41-6.16,1.23-9.15.41-1.53.6-2.21,1.55-2.21.6,0,1.31.38,1.31,1.09,0,.27-.14.54-.22.82-1.01,3-1.61,6.24-1.61,9.42,0,1.63.14,3.19.52,4.79.19-.65.35-1.31.63-1.96ZM256.39,73.5c.52,0,.82.38,1.09.74,1.12,1.42,2.94,1.66,4.66,1.66,1.28,0,2.32-.16,3.57-.41.27-.05.44-.05.65-.05.74,0,1.23.46,1.23,1.2,0,.79-.52,1.17-1.23,1.33-1.23.27-2.56.33-3.84.33-2.01,0-4.28-.22-5.94-1.47-.63-.49-1.33-1.25-1.33-2.1,0-.65.49-1.23,1.14-1.23ZM257.26,61.57c.41,0,.87.11,1.28.16.6.08,1.01.11,1.55.11,1.55,0,2.97-.19,4.55-.52.25-.05.49-.08.68-.08.63,0,1.04.57,1.04,1.17,0,.79-.57,1.12-1.28,1.25-1.85.33-3.4.52-5.12.52-.82,0-2.15-.03-2.89-.3-.54-.19-.82-.6-.82-1.14,0-.65.35-1.17,1.01-1.17Z"/>
    <path class="cls-2" d="M283.6,75.02c.08.6.25,1.2.25,1.8,0,.65-.52,1.09-1.17,1.09-.74,0-.93-.46-1.09-1.09-1.39,1.04-3,1.99-4.77,1.99s-2.89-1.28-2.89-3.05c0-2.12,1.23-4.17,2.64-5.69,1.31-1.42,2.86-2.53,4.58-3.43.05-.9.11-1.8.22-2.7-1.53.19-3.16.44-4.71.44-.76,0-1.14-.46-1.14-1.23,0-1.01.63-1.12,1.61-1.12,1.42,0,3.02-.14,4.52-.33.11-1.01.25-1.96.52-3.05.16-.63.44-.98,1.09-.98s1.25.35,1.25,1.04c0,.52-.38,1.96-.52,2.67,1.63-.3,3.13-.6,4.85-1.09.22-.05.46-.11.71-.11.68,0,1.09.57,1.09,1.23,0,.82-.44.93-1.28,1.14-1.88.49-3.81.74-5.72,1.06-.08.71-.16,1.42-.22,2.12,1.25-.41,2.59-.6,3.92-.6,4.33,0,7.79,2.51,7.79,7.11,0,3.38-2.04,5.77-4.85,7.41-.98.57-3,1.39-3.84,1.39-.68,0-1.12-.6-1.12-1.25s.46-.9,1.33-1.14c2.94-.87,6.05-3.08,6.05-6.46,0-1.93-1.01-3.79-2.86-4.55-.41-.16-.84-.27-1.28-.35-1.2,2.83-2.83,5.5-4.96,7.74ZM277.66,72.08c-.76.98-1.53,2.21-1.53,3.46,0,.6.3,1.03.93,1.03,1.42,0,3.16-1.31,4.2-2.21-.14-1.5-.22-3-.22-4.52v-.79c-1.25.82-2.42,1.8-3.38,3.02ZM283.16,67.99c-.03.6-.03,1.2-.03,1.8,0,.9.03,1.77.08,2.64,1.25-1.58,2.31-3.35,3.08-5.23-1.09.11-2.12.38-3.13.79Z"/>
    <path class="cls-2" d="M316.64,76.55c1.17-.93,1.88-2.37,1.88-3.84,0-2.51-2.42-3.98-4.71-3.98-2.15,0-4.36.76-6.13,1.99-1.17.82-2.21,1.8-3.19,2.81-.49.52-.79.82-1.25.82-.65,0-1.25-.57-1.25-1.25,0-.52.38-.84.74-1.17,1.04-.93,2.07-1.85,3.1-2.78,2.64-2.4,5.12-4.96,7.76-7.35-1.85.27-5.42.87-7.19.87-.76,0-1.17-.52-1.17-1.23,0-1.06.68-1.12,1.82-1.14,2.34-.05,4.74-.33,7.08-.74.38-.05.76-.14,1.17-.14.93,0,1.58.74,1.58,1.63,0,1.12-1.14,1.82-1.88,2.48-1.44,1.25-2.86,2.53-4.28,3.79,1.12-.38,2.23-.68,3.43-.68,3.51,0,6.7,2.51,6.7,6.18,0,2.04-.95,3.98-2.51,5.28-1.69,1.44-4.03,1.93-6.24,1.93-2.42,0-5.69-.87-5.69-3.87,0-1.93,1.69-3.19,3.51-3.19,1.93,0,4.08,1.36,4.08,3.46,0,.49-.14.93-.33,1.36,1.06-.19,2.07-.54,2.94-1.25ZM311.87,76.71c0-1.03-.95-1.74-1.93-1.74-.74,0-1.39.49-1.39,1.28,0,1.36,1.69,1.69,2.78,1.77.3-.41.54-.82.54-1.31Z"/>
  </g>
  <g>
    <path class="cls-4" d="M187.07,103.7h14.14c1.69,0,3.02.58,3.02,2.49s-1.33,2.53-3.02,2.53h-15.29c-.13.36-.22.71-.36,1.07h17.25c2.13,0,3.33.93,3.33,2.93s-1.38,2.93-3.33,2.93h-19.92c-.18.4-.4.76-.62,1.07h14.36c4.18,0,5.91,1.78,5.91,5.96v9.43c0,4.18-1.73,5.91-5.91,5.91h-19.7c-4.14,0-5.91-1.73-5.91-5.91v-4c-1.11.71-2.13,1.2-3.47,1.2-2.62,0-4.45-2.76-4.45-5.16,0-2.22,1.16-2.98,2.89-3.96,2.13-1.2,4.18-2.71,5.91-4.53h-5.6c-2,0-3.33-.89-3.33-2.93s1.33-2.93,3.33-2.93h9.69c.18-.36.36-.71.49-1.07h-8.54c-1.73,0-3.07-.58-3.07-2.53s1.33-2.49,3.07-2.49h10.27c.09-.31.18-.62.22-.98h-9.11c-2.05,0-4-.13-4-2.76s1.82-2.89,4.31-2.89h3.69c3.82,0,9.51-.13,14.23-.31,3.65-.13,7.29-.44,10.94-.8.44-.04,1.07-.09,1.51-.09,2.13,0,3.11,1.42,3.11,3.42s-1.2,2.85-3.07,3.02c-3.78.36-8.98.31-12.85.36,0,.27-.04.62-.13,1.02ZM194.14,122.06c0-.31-.22-.49-.53-.49h-13.69c-.36,0-.53.18-.53.49v.76h14.76v-.76ZM194.14,127.66v-1.24h-14.76v1.24h14.76ZM179.38,131.97c0,.31.18.53.53.53h13.69c.31,0,.53-.22.53-.53v-.71h-14.76v.71Z"/>
    <path class="cls-4" d="M210.81,109.74c-2,0-3.33-.89-3.33-3.07s1.33-3.02,3.33-3.02h8.8c2.22,0,3.24.93,3.24,3.2,0,2.13-1.33,2.89-3.24,2.89h-8.8ZM224.9,123.48h20.1c2.4,0,3.78.8,3.78,3.33,0,2.22-1.56,3.69-3.16,4.93,3.65,0,4.71.71,4.71,3.07,0,2.49-1.33,3.64-3.78,3.64-3.25,0-8.22-.93-11.34-1.91-3.07.84-7.91,1.65-11.07,1.65-1.29,0-2.13-.27-2.8-1.38-1.02,1.11-2.45,1.2-3.87,1.2h-3.56c-4.85,0-5.51-.85-5.51-5.6v-2.62c0-4.85.76-5.6,5.6-5.6h3.47c1.65,0,3.33.13,4.22,1.73.18-1.96,1.38-2.45,3.2-2.45ZM220.63,115.92c-.67.53-1.42.58-2.22.58h-6.54c-1.87,0-3.29-.76-3.29-2.85s1.38-2.85,3.29-2.85h6.54c.71,0,1.29.04,1.96.36,1.47-1.73,1.96-2.36,3.29-4.31,1.29-1.87,1.78-2.09,2.98-2.09.18,0,.31,0,.44.04-.04-.13-.04-.22-.04-.4h-1.87c-2.05,0-3.33-.8-3.33-3.02s1.29-3.02,3.33-3.02h1.87v-.4c0-.67.53-1.42,1.02-1.69.62-.36,1.6-.53,3.11-.53,1.42,0,2.18.22,2.85.84.31.31.62.89.62,1.38v.4h3.56v-.44c0-2,1.56-2.27,4.22-2.27,1.51,0,3.38.36,3.38,2.31v.4h1.42c2.18,0,3.33.8,3.33,3.11,0,2.18-1.38,2.93-3.33,2.93h-1.42c-.13,1.33-1.42,1.78-3.33,1.82-.09.22-.13.36-.22.62h5.51c1.07,0,2.13.36,2.13,1.6s-1.07,1.65-2.13,1.65h-5.91v1.07h5.87c.89,0,1.64.27,1.64,1.29s-.76,1.29-1.64,1.29h-5.87v1.07h5.78c.89,0,1.73.27,1.73,1.29,0,1.24-1.07,1.29-2,1.29h-5.51v1.07h6.14c1.29,0,2.58.44,2.58,1.96,0,1.6-1.25,2-2.58,2h-19.07c-4.8,0-6.31-.53-6.31-5.69-.8,0-1.33-.27-1.96-.8ZM211.87,102.59c-1.96,0-3.29-.8-3.29-2.93s1.29-2.93,3.29-2.93h6.62c1.96,0,3.29.8,3.29,2.93s-1.33,2.93-3.29,2.93h-6.62ZM211.87,123.13c-1.87,0-3.29-.71-3.29-2.8,0-.76.22-1.42.8-2,.71-.71,1.51-.76,2.49-.76h6.54c1.2,0,1.96.27,2.49.76.62.58.8,1.24.8,2,0,.8-.18,1.47-.8,2.04-.53.49-1.29.76-2.71.76h-6.31ZM215.03,129.84c-.31,0-.49.18-.49.49v.98c0,.31.18.49.49.49h1.42c.31,0,.49-.18.49-.49v-.98c0-.31-.18-.49-.49-.49h-1.42ZM224.9,129.04c-1.16,0-2.05-.13-2.76-1.07v4.05c.49-.27,1.16-.36,3.64-.53-.22-.4-.36-.71-.36-1.2,0-.44.13-.84.4-1.24h-.93ZM234.59,106.85c.76-1.96,1.47-2.13,3.65-2.18-.04-.04-.04-.13-.04-.27h-3.56c-.18,1.56-1.82,1.82-4.27,1.82h-.58c.18.22.22.36.31.62h4.49ZM234.42,110.1h-3.96c-.4,0-.62.22-.62.62v.62h4.58v-1.24ZM229.84,113.66v1.24h4.58v-1.24h-4.58ZM229.84,117.21v.67c0,.4.22.58.62.58h3.96v-1.24h-4.58ZM235.84,130.42c2.04-.44,2.98-.89,2.98-1.2,0-.13-.09-.18-.44-.18h-6.05c1.16.58,2.31,1.02,3.51,1.38Z"/>
    <path class="cls-4" d="M280.74,117.17c0,4-3.25,7.25-7.25,7.25s-7.25-3.24-7.25-7.25,3.25-7.25,7.25-7.25,7.25,3.25,7.25,7.25Z"/>
    <path class="cls-4" d="M333.87,114.1c.98,0,1.82.09,2.53.8.67.67.89,1.65.89,2.62s-.22,1.91-.89,2.62c-.71.71-1.56.8-2.53.8h-6.76c1.87,1.38,3.42,1.56,5.65,1.87,2.22.36,3.87.98,3.87,3.56,0,1.2-.4,2.31-1.2,3.16,2.36.09,3.73,1.38,3.73,3.82,0,2.67-1.6,3.82-4.09,3.82h-30.59c-4.4,0-6.27-1.87-6.27-6.27v-27.65c0-4.4,1.87-6.27,6.27-6.27h29.65c2.49,0,4.09,1.16,4.09,3.82s-1.6,3.82-4.09,3.82h-16.32c.36.44.58.8.67,1.38h13.96c.98,0,1.82.13,2.53.76.76.67.89,1.69.89,2.62s-.22,1.96-.89,2.67c-.71.71-1.6.76-2.53.76h-6.94v1.29h8.36ZM309.95,120.95c-2.45,0-3.38-1.16-3.38-3.56,0-1.33.53-2.76,1.96-3.16-1.11-.76-1.82-1.87-1.82-3.25,0-1.51.8-2.27,2.71-4.18.8-.8,1.38-1.51,2-2.18h-4.58c-.36,0-.62.27-.62.62v23.65c0,.36.31.62.62.62h2.67c-.98-.76-1.56-2.31-1.56-3.56,0-2.09,1.42-2.76,3.2-3.2,1.51-.4,2.98-.89,4.27-1.82h-5.47ZM317.91,112.81h-3.6c-.44.49-.89.89-1.38,1.29h4.98v-1.29ZM314.84,129.53h14.05c-2.8-.98-5.47-2.67-7.25-5.07-1.87,2.31-4.09,3.91-6.8,5.07Z"/>
    <path class="cls-4" d="M380.2,105.96c1.96,0,3.11.36,3.11,2.58,0,1.6-.58,2.49-2.22,2.67.89.4,1.82.93,1.82,2.05,0,.89-1.02,1.91-1.64,2.53,1.82.98,2.49,1.47,2.49,2.93,0,2-1.29,3.96-3.47,3.96v1.02c0,2.31-.67,3.91-2.93,4.85.27.13.53.36.8.53,1.51,1.11,2.62,1.96,3.51,2.53,1.42.93,1.96,1.47,1.96,2.71,0,1.82-1.6,3.69-3.69,3.69-.67,0-1.42-.27-2.09-.67-1.02-.62-2.05-1.51-2.8-2.18-1.07-.89-2.4-2-2.4-3.56,0-1.11.67-2.18,1.56-2.8h-2.13v3.51c0,5.42-.93,6.31-6.54,6.31h-.71c-2.45,0-5.02-.13-5.02-3.38v-.58c-.93.76-2.36,1.87-3.78,2.62-.8.44-1.6.71-2.31.71-1.47,0-2.45-.85-2.98-2.13-.8,1.6-1.91,2.53-3.73,2.53-1.96,0-4.36-1.38-4.36-3.51,0-1.11.4-2.13,1.02-3.51.89-2,1.56-3.91,2.09-6.14-.71.22-1.38.44-2.13.44-2.45,0-3.16-2.18-3.16-4.27,0-2.31,1.24-3.29,3.16-3.91.93-.31,1.96-.62,3.02-.98.04-.89.04-1.82.04-2.71v-.4c-.18.04-.36.04-.53.04-1.78,0-2.31-1.07-2.89-2.49-.36-.89-.76-1.78-1.25-2.58-.71-1.11-1.24-1.96-1.24-2.98,0-2.18,2.36-3.73,4.05-3.73.85,0,1.47.4,2,1.07.4-3.29,2.62-4.22,5.65-4.22h8v-.13c0-2.4,2.31-2.93,4.22-2.93s3.96.71,3.96,2.93v.13h11.03c2.36,0,3.87.84,3.87,3.29s-1.91,3.07-3.87,3.07h-9.91c.09.27.13.49.13.8v.27h10.31ZM353.7,121.7c-.13,4.22-.22,5.82-1.33,9.96,1.87-1.07,2.62-1.6,4.4-2.8.4-.27.71-.44,1.11-.62-1.82-1.02-2.31-2.49-2.31-4.45v-1.07c-.76-.09-1.33-.44-1.87-1.02ZM353.96,113.39c0-1.07.98-1.91,1.91-2.22-1.29-.31-1.73-1.38-1.73-2.62,0-2.05,1.2-2.58,3.07-2.58h5.96c.09-.4.22-.76.36-1.07h-8.94c-.49,0-.8.31-.8.8v8c0,1.11,0,2.22-.04,3.33.49-.49,1.25-.98,1.82-1.38-1.11-1.07-1.6-1.65-1.6-2.27ZM357.3,111.3c.58.31,1.2,1.07,1.64,1.6.53-.53,1.02-1.02,1.47-1.6h-3.11ZM362.28,131.35c0,.18,0,.31-.04.49.31-.04.58-.04.89-.04.89,0,1.02-.04,1.02-.76v-2.22h-3.11c.71.62,1.24,1.56,1.24,2.53ZM372.64,119.26v-.71c0-.31-.18-.53-.49-.53h-8.22c-.31,0-.53.22-.53.53v.71h9.25ZM363.39,124.06c0,.31.22.49.53.49h8.22c.31,0,.49-.18.49-.49v-.76h-9.25v.76ZM369.7,113.7c-.58-.8-1.11-1.6-1.65-2.4h-.4c-.49.8-1.02,1.6-1.56,2.4h3.6ZM375.17,111.3c.71.62,1.47,1.2,2.22,1.78.36-.49,1.11-1.47,1.56-1.78h-3.78Z"/>
    <path class="cls-4" d="M390.64,113.12c-1.02-.58-1.42-1.33-1.42-2.53,0-2.13,1.69-4.22,3.87-4.22,1.16,0,2.31.62,3.29,1.16.67-.67,1.33-1.6,1.87-2.45-1.64.04-3.29.09-5.56.09-1.56,0-3.25-.04-4.18-.49-1.25-.58-1.69-2.22-1.69-3.42,0-3.47,2.36-3.82,4.94-3.82h5.38c4.18,0,8.4-.18,12.63-.36,3.82-.18,7.51-.4,11.43-.93.62-.09,1.42-.13,2.04-.13,2.49,0,3.47,1.91,3.47,4.13,0,2.04-.76,3.11-2.8,3.47-1.16.22-5.25.53-6.62.62.89.71,1.56,1.73,1.56,2.89,0,1.02-.58,1.87-1.78,3.07.71-.31,1.38-.44,2.18-.44,2.4,0,3.29,1.51,5.65,5.33,1.02,1.65,3.07,5.25,3.07,7.07,0,2.71-2.49,3.87-4.89,3.87-2.09,0-2.62-1.33-3.38-3.11-2.98.27-5.78.49-8.71.67v11.07c0,2.98-1.42,4.09-4.31,4.09-2.71,0-3.91-1.51-3.91-4.09v-10.58c-2.58.22-10.76.53-13.29.53-1.29,0-2.36-.13-3.16-1.24-.58-.8-.76-2.05-.76-3.02,0-3.51,2.04-3.82,4.49-3.87h2c1.47,0,2.98,0,4.45.04-1.47-.89-5.51-3.2-5.82-3.38ZM400.42,128.68c0,1.6-2.04,3.33-3.2,4.31-1.33,1.11-3.47,2.67-4.94,3.6-.71.44-1.29.67-2.09.67-2.49,0-4.45-2.67-4.45-4.98,0-1.73,1.2-2.58,2.58-3.38,1.6-.93,2.89-1.78,4.4-2.89,1.02-.76,2.09-1.56,3.42-1.56,2.18,0,4.27,2,4.27,4.22ZM410.38,105.12c.13-.18.31-.36.4-.44-1.02.04-2.04.09-3.07.09-1.51,2.31-3.16,4.49-5.07,6.49.53.31,1.07.62,1.64.93,2.62-2.58,3.65-3.87,6.09-7.07ZM411.01,116.19c1.6-.09,3.25-.18,4.85-.31-.44-.76-.98-1.96-.98-2.85,0-.27.04-.49.09-.71-1.29,1.29-2.67,2.67-3.96,3.87ZM423.32,137.22c-2,0-4.45-2-5.96-3.25-1.82-1.47-4.49-3.65-4.49-5.69,0-1.82,1.82-4,4.49-4,1.56,0,2.62.89,4.05,2.09.93.8,2.58,1.91,3.6,2.58,1.56.98,2.62,1.73,2.62,3.6,0,2.4-1.78,4.67-4.31,4.67Z"/>
    <path class="cls-4" d="M253.55,153.52c-.36-.93-.85-1.91-.85-2.93,0-2.4,2.98-3.11,4.89-3.11,2.04,0,2.8.8,3.65,2.62.49,1.07.98,2.22,1.16,3.42h2.58c.49-.93.85-1.96,1.2-2.98.71-2,1.38-2.85,3.65-2.85,2.13,0,4.98,1.07,4.98,3.6,0,.76-.49,1.65-.85,2.27.58.09,3.51.8,3.51,5.74v2.76c0,2.85-1.2,4-4.05,4-.27,0-.58,0-.85-.04-.13,1.82-.85,2.71-2.36,3.65-1.47.93-3.02,1.87-4.62,2.53h9.2c2.62,0,4.05,1.16,4.05,3.87s-1.65,3.65-4.05,3.65h-13.12v4.67c0,3.73-1.25,5.2-3.42,5.73-1.25.31-2.89.36-4.71.36h-1.47c-1.73,0-4.09-.04-4.98-.44-1.33-.67-1.91-2.4-1.91-3.78,0-2.4,1.38-3.78,3.78-3.78.8,0,1.65.04,2.45.04,1.25,0,1.33-.4,1.33-1.29v-1.51h-13.03c-2.71,0-4.05-1.16-4.05-3.91,0-2.58,1.64-3.6,4.05-3.6h13.07c.18-.89.84-1.38,1.64-1.65.53-.18,1.38-.44,1.38-.8,0-.22-.13-.36-.36-.36h-10.23c-1.29,0-2.27-.27-2.85-1.38-.4-.76-.49-1.29-.53-2-.22.04-.44.04-.71.04-2.8,0-4.27-.98-4.27-3.91v-2.85c0-2.93.85-5.16,4-5.65-.4-.76-.85-1.69-.85-2.53,0-2.09,2.62-3.38,4.76-3.38s3.07,1.07,3.96,2.89c.4.89.85,1.96,1.07,2.89h3.73ZM269.25,162.23v-1.16c0-.22-.18-.36-.4-.36h-23.34c-.27,0-.36.22-.36.36v1.11h22.76c.44,0,.89,0,1.33.04Z"/>
    <path class="cls-4" d="M319.09,181.97c2.76.89,4.36,1.51,4.36,3.82,0,2.04-1.29,4.62-4.4,4.62s-7.51-2.31-10.05-4.18c-2.49,1.87-6.98,4.18-10.09,4.18s-4.36-2.58-4.36-4.62c0-1.82.71-2.71,4.31-3.82,1.51-.44,2.93-1.11,4.31-1.82-1.42-2.22-3.56-6.49-3.56-9.16,0-.53.09-.84.36-1.24-.4.09-.76.18-1.16.18-2.22,0-4.05-2.4-4.05-4.49,0-1.69.67-2.31,2.76-3.56,1.2-.71,2.98-1.91,4.45-2.98.18-.13.31-.22.53-.35h-3.33c-.98,0-1.78-.04-2.49-.8.04.36.04.67.04.98,0,2.4-.71,3.91-3.33,3.91h-.27v1.91c1.25,2.18,2.76,4.27,4.36,6.18,1.29,1.51,1.64,2.13,1.64,3.29,0,1.73-1.51,3.47-3.33,3.47-1.33,0-2-.85-2.67-1.87v10.85c0,2.93-1.2,3.96-4.09,3.96-2.62,0-3.56-1.6-3.56-3.96v-6.8c-.49.85-1.07,1.29-2.09,1.29-2.49,0-3.51-2.98-3.51-5.02,0-1.6.49-2.49,1.29-3.82,2.18-3.56,3.02-5.51,4.27-9.47h-.89c-2.93,0-4.05-1.29-4.05-4.13,0-2.67,1.51-3.69,4.05-3.69h.93v-3.25c0-2.89,1.16-3.96,4-3.96,2.67,0,3.65,1.42,3.65,3.96v3.25h.27c.93,0,1.73.09,2.4.76-.04-.27-.04-.49-.04-.71,0-2.45.93-3.73,3.42-3.73h6.09v-.44c0-2.85,2.18-3.16,4.49-3.16,2.13,0,3.78.76,3.78,3.16v.44h6.09c2.67,0,3.6,1.38,3.6,3.91,0,2.4-1.29,3.51-3.6,3.51h-3.73c.22.13.53.35.93.67,1.29.98,2.18,1.6,3.2,2.22,2.8,1.64,3.56,2.27,3.56,4.09,0,2-1.78,4.45-3.91,4.45-.62,0-1.2-.13-1.78-.4.35.49.53.98.53,1.42,0,1.38-1.38,5.69-3.64,9.16,1.42.76,2.8,1.33,4.31,1.82ZM310.24,171.17c.76-2.04,1.33-3.29,3.82-3.29.4,0,.76.04,1.16.13-3.38-2.4-5.16-4-5.16-5.78s1.2-3.11,2.67-3.69h-6.94c1.47.62,2.58,2,2.58,3.64,0,1.51-1.11,2.93-5.2,5.74.27,0,.49-.04.76-.04,2.18,0,3.02.93,4.05,4.05.31.89.58,1.6,1.02,2.45.36-.76.76-1.82,1.24-3.2Z"/>
  </g>
  <g>
    <path class="cls-2" d="M347.17,176.78c-1.23,1.91-2.96,4.18-5.44,4.18-2.96,0-3.77-3.56-3.77-5.86,0-7.44,6.22-13.42,13.6-13.42,5.98,0,10.61,3.95,10.61,10.1,0,4.42-2.33,8.04-6.19,10.16-.96.51-2.48,1.26-3.56,1.26-.75,0-1.29-.69-1.29-1.41,0-.84.63-1.05,1.38-1.25,3.98-1.14,6.94-4.45,6.94-8.76,0-4.66-3.23-7.74-7.86-7.77-.6,4.18-2,8.94-4.42,12.76ZM343.46,167.61c-1.88,2.03-3.05,4.72-3.05,7.5,0,1.05.15,3.23,1.58,3.23,1.58,0,3.41-3.32,4.07-4.57,1.49-2.93,2.54-6.16,2.99-9.42-2.12.6-4.07,1.61-5.59,3.26Z"/>
    <path class="cls-2" d="M153.88,218.99c-1.64,1.7-3.59,3.23-5.68,4.33-.3.15-.57.27-.9.27-.78,0-1.34-.81-1.34-1.52,0-.66.54-.99,1.02-1.25,4.51-2.48,7.77-6.07,9.72-10.82.99-2.39,1.88-5.98,1.88-8.58,0-1.4-.6-1.49-1.82-1.49h-5.17c-.84,0-1.31-.39-1.31-1.26s.48-1.23,1.31-1.23h6.07c3.29,0,3.53,1.08,3.8,4.07.3,3.53,1.02,7.02,2.63,10.22,1.91,3.77,4.96,7.02,8.67,9.12.45.27.84.57.84,1.14,0,.81-.66,1.58-1.5,1.58-.54,0-1.17-.39-2.3-1.26-1.76-1.34-3.47-2.87-4.9-4.63-2.54-3.14-4.18-6.88-4.87-10.85-.99,4.57-2.81,8.76-6.13,12.17Z"/>
    <path class="cls-2" d="M176.66,203.47c-.72,0-1.14-.3-1.14-1.08s.42-1.08,1.14-1.08h8.13c.75,0,1.17.3,1.17,1.08s-.42,1.08-1.17,1.08h-8.13ZM177.49,199.14c-.72,0-1.17-.3-1.17-1.05s.45-1.08,1.17-1.08h6.43c.72,0,1.17.3,1.17,1.08s-.45,1.05-1.17,1.05h-6.43ZM177.49,207.69c-.75,0-1.17-.3-1.17-1.08s.42-1.08,1.17-1.08h6.46c.72,0,1.14.33,1.14,1.08s-.42,1.08-1.14,1.08h-6.46ZM177.49,211.93c-.72,0-1.17-.3-1.17-1.05s.45-1.08,1.17-1.08h6.46c.69,0,1.14.3,1.14,1.08s-.45,1.05-1.17,1.05h-6.43ZM185,220.72c0,2.06-.63,2.72-2.72,2.72h-3.11c-2.09,0-2.72-.66-2.72-2.72v-3.92c0-2.06.57-2.69,2.72-2.69h3.11c2.06,0,2.72.6,2.72,2.69v3.92ZM179.7,216.09c-.69,0-.99.39-.99.99v3.32c0,.6.3.96.99.96h2.15c.66,0,.99-.36.99-.96v-3.32c0-.63-.36-.99-.99-.99h-2.15ZM194.98,217.61c.6,0,.9.54.9,1.08,0,.81-.6.99-1.46,1.25-.99.3-3.71.96-5.71,1.38-.9.18-1.61.3-2,.3-.66,0-1.05-.63-1.05-1.25,0-.39.15-.81.54-.93.63-.21,2.36-.48,3.11-.63v-8.7h-2.39c-.78,0-1.11-.45-1.11-1.14,0-.75.45-1.11,1.17-1.11h6.61c.72,0,1.17.42,1.17,1.17,0,.69-.42,1.08-1.11,1.08h-1.94v8.25c.69-.15,2.78-.75,3.29-.75ZM197.97,209.54c.18,2.27.36,4.51.87,6.76.12.54.48,2.27,1.02,3.38.27.57.63.99.99.99.54,0,.84-1.43.93-1.94.12-.6.3-1.17.93-1.17s1.14.42,1.14,1.02c0,1.02-.63,2.72-1.08,3.62-.42.84-1.05,1.61-2.06,1.61-1.82,0-2.78-1.91-3.29-3.41-1.14-3.35-1.55-6.84-1.79-10.34-.15-2.12-.21-4.21-.27-6.34h-7.86c-.81,0-1.26-.33-1.26-1.17,0-.78.57-1.11,1.26-1.11h7.83c-.03-1.38-.06-2.75-.06-4.12,0-.84.3-1.29,1.2-1.29.48,0,1.02.18,1.14.72.09.39.09,1.97.09,3.23v1.46h4.75c.84,0,1.25.33,1.25,1.2,0,.75-.54,1.08-1.25,1.08h-4.72c.03,1.94.12,3.89.27,5.83ZM201.71,197.76c.24.24.69.63,1.05.99.27.27.45.57.45.87,0,.57-.6,1.08-1.14,1.08-.42,0-.78-.42-1.14-.84-.36-.42-.93-.99-1.38-1.41-.51-.48-.78-.75-.78-1.11,0-.54.57-.96,1.08-.96.48,0,1.2.72,1.85,1.38Z"/>
    <path class="cls-2" d="M208.19,203.05c0,1.97-.36,4.3-.81,6.25-.12.63-.27,1.41-1.05,1.41-.51,0-1.05-.3-1.05-.84,0-.18.15-.78.27-1.2.36-1.31.63-3.56.81-5.74.03-.54.27-.93.87-.93.72,0,.96.39.96,1.05ZM211.78,223.02c0,.84-.42,1.14-1.23,1.14s-1.14-.39-1.14-1.14v-25.95c0-.84.42-1.17,1.23-1.17s1.14.42,1.14,1.17v25.95ZM214.59,202.45c.36.81.72,1.61.72,2.21,0,.51-.51.87-1.02.87-.57,0-.72-.48-.99-1.29-.15-.45-.33-.93-.51-1.38-.24-.54-.33-.81-.33-1.11,0-.48.48-.81.93-.81.57,0,.78.54,1.2,1.5ZM231.66,198.06c.63,0,1.11.33,1.11.99s-.51.99-1.11.99h-6.43v1.97h5.92c.57,0,1.02.27,1.02.9s-.45.9-1.02.9h-5.92v2h6.96c.69,0,1.11.33,1.11,1.05,0,.66-.51.96-1.11.96h-16.59c-.66,0-1.11-.36-1.11-1.05s.51-.96,1.11-.96h7.2v-2h-5.89c-.66,0-.99-.3-.99-.96,0-.6.45-.84.99-.84h5.89v-1.97h-6.46c-.69,0-1.14-.33-1.14-1.05,0-.63.54-.93,1.14-.93h6.46v-1.11c0-.72.54-1.02,1.23-1.02s1.2.3,1.2,1.02v1.11h6.43ZM218.68,218.51v4.42c0,.87-.42,1.26-1.26,1.26-.78,0-1.14-.54-1.14-1.26v-10.76c0-1.97.78-2.75,2.75-2.75h10.1c1.97,0,2.75.75,2.75,2.75v8.7c0,2.66-1.14,2.81-3.47,2.81h-1.29c-1.23,0-1.85-.12-1.85-1.2,0-.78.42-1.11,1.14-1.11.66,0,1.32.03,1.94.03.72,0,1.08-.27,1.08-1.02v-1.88h-10.76ZM229.44,212.35c0-.63-.36-.99-.96-.99h-8.85c-.6,0-.96.36-.96.99v.84h10.76v-.84ZM218.68,214.92v1.85h10.76v-1.85h-10.76Z"/>
    <path class="cls-2" d="M248,199.02c.78,0,1.14.36,1.14,1.14s-.42,1.08-1.14,1.08h-4.09v3.11h4.99c.72,0,1.08.36,1.08,1.11,0,.69-.39,1.02-1.02,1.02h-1.11c-.27,1.35-.66,2.69-1.08,3.98h2.03c.69,0,1.05.42,1.05,1.14,0,.66-.39,1.05-1.05,1.05h-4.9v3.47h4.15c.72,0,1.17.33,1.17,1.11s-.45,1.11-1.17,1.11h-4.15v4.42c0,.87-.39,1.25-1.23,1.25s-1.17-.45-1.17-1.25v-4.42h-4.01c-.75,0-1.17-.33-1.17-1.11s.45-1.11,1.17-1.11h4.01v-3.47h-4.72c-.69,0-1.17-.36-1.17-1.08s.45-1.11,1.11-1.11h2.21c-.24-1.34-.69-2.69-1.17-3.98h-1.26c-.63,0-1.05-.39-1.05-1.05,0-.72.48-1.08,1.14-1.08h4.9v-3.11h-4.04c-.78,0-1.14-.36-1.14-1.14s.45-1.08,1.14-1.08h4.04v-1.79c0-.9.45-1.14,1.29-1.14.78,0,1.11.39,1.11,1.14v1.79h4.09ZM239.99,206.46c.42,1.32.87,2.66,1.17,3.98h3.41c.36-.99.81-2.9.9-3.98h-5.47ZM262.62,221.17c.33.3.6.63.6,1.08,0,.69-.57,1.38-1.29,1.38-.93,0-2.87-2.12-3.71-3.14-.9,1.2-2.51,3.02-3.32,3.02-.66,0-1.26-.69-1.26-1.32,0-.45.33-.75.63-1.02.93-.78,1.82-1.58,2.51-2.54-1.02-1.46-1.88-3.02-2.54-4.69-.42-.93-.63-1.64-.63-2.03,0-.63.51-1.02,1.11-1.02s.84.39,1.02.9c.54,1.7,1.32,3.32,2.3,4.81.87-1.58,1.49-3.26,1.88-5.02.18-.75.21-.96.21-1.2,0-.66-.6-.75-1.11-.75h-6.19v13.03c0,.84-.39,1.23-1.23,1.23-.75,0-1.11-.51-1.11-1.23v-22.39c0-2.3.87-3.2,3.2-3.2h5.86c1.61,0,2.66.6,2.66,2.36,0,1.38-.36,4.33-.93,5.32-.42.72-1.05.99-1.82,1.05-.54.06-1.11.06-1.64.06h-1.17c-.87,0-1.52-.18-1.52-1.2,0-.69.36-1.02,1.08-1.02.57,0,1.14.03,1.7.03.72,0,1.2-.09,1.46-.78.33-.81.42-1.79.42-2.66,0-.69-.33-.87-.99-.87h-4.63c-.9,0-1.34.45-1.34,1.34v6.76h6.64c1.61,0,2.84.45,2.84,2.3,0,2.63-1.46,6.43-2.78,8.7.93.99,2.03,1.82,3.08,2.69Z"/>
    <path class="cls-2" d="M276.79,199.53c.3-.66.57-1.38.9-2.03.27-.51.6-.84,1.23-.84.69,0,1.32.45,1.32,1.17,0,.57-.9,2.24-1.26,2.84,1.41-.21,2.72-.48,4.18-.9.24-.06.51-.18.81-.18.72,0,1.14.6,1.14,1.29s-.42,1.08-1.02,1.23c-1.97.54-4.33.84-6.52,1.11-.78,1.43-1.58,2.81-2.42,4.21,1.14-.69,2.27-1.35,3.65-1.35,2.06,0,3.41,1.32,3.77,3.29,1.02-.6,4.81-2.72,5.77-2.72.72,0,1.2.69,1.2,1.34,0,.96-1.26,1.26-1.97,1.58-1.61.72-3.2,1.52-4.72,2.39.09,1.17.09,2.3.09,3.5s-.06,2.06-1.29,2.06c-1.02,0-1.23-.63-1.23-1.5s.06-1.76.06-2.66c-2.09,1.26-4.33,2.78-4.33,4.69,0,2.33,3.29,2.39,4.93,2.39,1.52,0,3.02-.18,4.51-.48.33-.06.66-.12.99-.12.72,0,1.17.54,1.17,1.23,0,1.02-.48,1.2-1.97,1.44-1.52.24-2.9.33-4.36.33-3.17,0-7.74-.42-7.74-4.6,0-3.74,3.92-5.92,6.67-7.59-.15-1.26-.6-2.36-2.06-2.36s-3.08,1.29-4.15,2.24c-.99.87-1.64,1.85-2.33,2.9-.3.48-.6.96-1.23.96-.72,0-1.41-.57-1.41-1.29,0-.3.06-.57.51-1.17,1.94-2.69,3.56-5.56,5.11-8.43-1.08.12-2.18.24-3.26.24-.84,0-1.35-.45-1.35-1.29,0-1.08.72-1.26,1.61-1.26,1.43,0,2.87-.09,4.3-.21.24-.48.48-.96.72-1.46Z"/>
    <path class="cls-2" d="M305.18,211c.33.45.42.63.42.93,0,.63-.54,1.23-1.17,1.23-.42,0-.66-.15-1.23-1.14-.51-.87-.93-1.7-1.26-2.6v13.48c0,.87-.39,1.23-1.25,1.23-.75,0-1.11-.51-1.11-1.23v-12.73c-.54,1.67-1.08,2.99-2.06,4.87-.66,1.23-.99,1.43-1.46,1.43-.66,0-1.17-.63-1.17-1.29,0-.42.18-.78.42-1.11,2-2.96,3.5-6.25,4.27-9.71h-3.05c-.84,0-1.26-.36-1.26-1.2,0-.75.54-1.08,1.26-1.08h3.05v-4.84c0-.84.39-1.23,1.23-1.23s1.14.48,1.14,1.23v4.84h1.61c.72,0,1.08.48,1.08,1.17s-.39,1.11-1.08,1.11h-1.61v.93c.72,2.06,1.88,3.95,3.23,5.71ZM309.79,222.03c-1.88,1.2-3.53,1.85-4.07,1.85-.72,0-1.17-.69-1.17-1.38,0-.45.09-.69.84-.99,3.14-1.25,5.68-2.57,6.76-6.04h-3.29c-2.12,0-2.75-.72-2.75-2.81v-2.66c0-2.12.66-2.78,2.81-2.78h3.86v-2.51h-3.35c-.69,0-1.11-.24-1.14-.96-1.31.9-1.91,1.2-2.24,1.2-.69,0-1.2-.81-1.2-1.43,0-.51.33-.81.75-1.05,1.17-.69,2.33-1.4,3.38-2.3,1.14-.96,2.15-2.06,3.08-3.23.51-.69,1.02-1.02,1.88-1.02s1.4.36,1.94,1.05c2,2.57,3.65,4.01,6.52,5.56.42.24.81.54.81,1.08,0,.66-.48,1.44-1.22,1.44-.54,0-1.46-.63-2.39-1.29-.03.69-.51.96-1.14.96h-3.35v2.51h3.95c2.12,0,2.81.66,2.81,2.78v2.66c0,2.15-.69,2.81-2.81,2.81h-2.93c1.26,3.05,3.05,4.72,6.16,5.98.72.3.87.51.87,1.02,0,.66-.51,1.43-1.25,1.43-.63,0-2.12-.66-4.27-2.48-1.55-1.32-2.63-3.05-3.41-4.9-.81,2.24-2.27,4.12-4.42,5.5ZM312.78,210.56v-1.26h-3.47c-.63,0-.99.36-.99.99v2.15c0,.63.36.99.99.99h3.29c.12-.96.18-1.91.18-2.87ZM318.1,202.63c-1.38-1.14-2.63-2.51-3.71-3.92-.21-.27-.3-.33-.45-.33-.18,0-.24.06-.45.33-1.14,1.46-1.76,2.27-3.71,3.92h8.31ZM318.66,213.42c.6,0,.96-.36.96-.99v-2.15c0-.63-.36-.99-.96-.99h-3.56v1.14c0,.99-.03,2-.15,2.99h3.71Z"/>
    <path class="cls-2" d="M340.15,208.34c.51-.54,1.43-1.52,2.03-2.15.12-.12.57-.24.75-.24.63,0,1.26.57,1.26,1.2,0,.27-.15.51-.54.93-1.46,1.58-4.9,4.69-6.07,5.62,3.14-.09,6.25-.21,9.39-.36-.69-.66-1.44-1.29-2.18-1.88-.3-.24-.51-.48-.51-.84,0-.63.66-1.17,1.25-1.17.39,0,.66.21.96.42,1.05.81,2.03,1.67,3.02,2.54.84.78,1.52,1.46,2.39,2.45.24.27.45.54.45.9,0,.63-.6,1.29-1.23,1.29-.27,0-.51-.12-.72-.3-.54-.48-.99-1.05-1.5-1.55-2.9.18-5.77.33-8.67.45v7.17c0,.84-.39,1.25-1.25,1.25s-1.23-.45-1.23-1.25v-7.08c-3.77.12-7.53.21-11.3.21-.75,0-1.23-.33-1.23-1.11,0-.84.54-1.05,1.25-1.05h3.71c1.32,0,2.66,0,3.98-.03.42-.33.84-.69,1.25-1.05-1.14-.96-2.39-1.85-3.71-2.57-.57-.33-1.91-.9-1.91-1.61,0-.63.57-1.2,1.17-1.2.54,0,1.14.39,1.88.9.99-.9,1.91-1.85,2.75-2.87h-6.22c-.84,0-1.25.45-1.25,1.29v1.61c0,.84-.45,1.23-1.29,1.23s-1.2-.48-1.2-1.26v-1.79c0-2.18.87-3.08,3.08-3.08h9.03v-2.66h-10.91c-.72,0-1.17-.33-1.17-1.08s.45-1.11,1.17-1.11h10.91v-1.43c0-.87.57-1.05,1.32-1.05.69,0,1.17.33,1.17,1.05v1.43h10.94c.72,0,1.14.33,1.14,1.11s-.42,1.08-1.14,1.08h-10.94v2.66h9.06c2.18,0,3.08.87,3.08,3.05v1.82c0,.9-.42,1.26-1.29,1.26-.81,0-1.2-.45-1.2-1.23v-1.61c0-.84-.45-1.29-1.29-1.29h-9.98c-1.17,1.43-2.48,2.84-3.92,4.04.84.57,1.64,1.17,2.45,1.79,1.02-.9,2.03-1.85,2.99-2.84ZM326.22,221.02c2.36-1.23,3.65-2.18,5.65-3.89.27-.24.57-.42.93-.42.63,0,1.23.6,1.23,1.2,0,.39-.24.69-.51.96-.87.87-1.82,1.64-2.81,2.39-1.02.72-3.17,2.15-4.04,2.15-.72,0-1.26-.69-1.26-1.38,0-.51.39-.81.81-1.02ZM347.27,218.21c1.02.87,3.11,1.91,4.51,2.51.45.21.87.45.87.99,0,.69-.51,1.5-1.25,1.5-1.17,0-4.12-1.97-5.17-2.75-1.64-1.22-2.66-2.12-2.66-2.72,0-.63.63-1.2,1.23-1.2.45,0,1.55.9,2.48,1.67Z"/>
    <path class="cls-2" d="M361.23,204.13c-.93.12-2.06.42-2.96.42-.81,0-1.32-.69-1.32-1.46s.39-1.29,1.38-1.38c.99-.09,1.97-.12,2.96-.24l14.8-1.7c1.02-.12,2.09-.3,3.11-.3.87,0,1.5.48,1.5,1.38,0,1.52-1.7,1.32-2.75,1.34-2.6.09-4.75.63-6.76,2.3-2.75,2.3-4.01,5.95-4.01,9.45,0,2.12.42,4.04,2.66,4.75,1.2.39,2.45.51,3.77.54.84.03,1.64.21,1.64,1.25,0,1.11-.84,1.5-1.82,1.5-1.55,0-3.17-.18-4.63-.69-3.35-1.17-4.25-3.8-4.25-7.05,0-2.78.63-5.56,2.12-7.95.81-1.29,1.91-2.36,3.08-3.35l-8.52,1.2ZM374.41,206.22c.54,0,1.25.84,1.82,1.58.66.84,1.32,1.67,1.32,2.09,0,.51-.45.93-.96.93-.24,0-.39-.09-.66-.42-.24-.27-.27-.36-.54-.69-.48-.63-1.02-1.26-1.52-1.82-.21-.24-.42-.48-.42-.78,0-.51.48-.9.96-.9ZM377.16,204.19c.48,0,1.11.78,1.88,1.7s1.26,1.52,1.26,2c0,.51-.48.9-.96.9-.39,0-.66-.33-1.14-.99-.51-.69-1.05-1.32-1.61-1.94-.21-.24-.39-.48-.39-.78,0-.51.48-.9.96-.9Z"/>
    <path class="cls-2" d="M395.39,198.24c0-.72.69-1.2,1.38-1.2.63,0,1.02.42,1.34.93.54.81,1.02,1.67,1.5,2.51.6-.21,1.23-.48,1.91-.75.24-.09.6-.21.78-.21.75,0,1.17.66,1.17,1.38,0,.6-.39.93-.93,1.17s-1.11.45-1.67.6c.54.93,1.08,1.85,1.58,2.78,1.08-.39,2.09-.84,3.11-1.35.33-.18.69-.36,1.08-.36.75,0,1.23.66,1.23,1.34,0,.84-.78,1.17-1.43,1.44-.9.39-1.85.72-2.78,1.02.96,1.73,1.91,3.47,2.81,5.2.36.72.9,1.52.9,2.36s-.66,1.46-1.5,1.46c-.42,0-.63-.12-1.29-.48-2-1.08-4.07-1.7-6.25-1.7-1.82,0-4.51.63-4.51,2.9,0,2.63,3.8,3.02,5.71,3.02.96,0,1.88-.15,2.84-.15.78,0,1.38.42,1.38,1.26,0,.6-.36,1.14-.96,1.29-.6.15-1.23.15-1.85.15h-.63c-1.79,0-3.74-.15-5.44-.78-2.12-.78-3.59-2.21-3.59-4.72,0-3.74,3.71-5.14,6.88-5.14,2.09,0,4.07.57,6.01,1.29-.93-1.76-1.85-3.53-2.81-5.26-3.08.84-6.7,1.5-9.86,1.5-.87,0-1.38-.42-1.38-1.32,0-.96.63-1.2,1.46-1.2h.81c2.6,0,5.26-.42,7.77-1.08-.57-.96-1.14-1.91-1.7-2.87-1.85.39-3.74.66-5.62.66-.9,0-1.46-.36-1.46-1.29s.57-1.17,1.38-1.17h.24c1.38,0,2.75-.15,4.09-.36-.39-.63-1.67-2.21-1.67-2.87Z"/>
    <path class="cls-2" d="M434.07,217.91c1.29-1.02,2.06-2.6,2.06-4.21,0-2.75-2.66-4.36-5.17-4.36-2.36,0-4.78.84-6.73,2.18-1.29.9-2.42,1.97-3.5,3.08-.54.57-.87.9-1.38.9-.72,0-1.38-.63-1.38-1.38,0-.57.42-.93.81-1.29,1.14-1.02,2.27-2.03,3.41-3.05,2.9-2.63,5.62-5.44,8.52-8.07-2.03.3-5.95.96-7.89.96-.84,0-1.29-.57-1.29-1.35,0-1.17.75-1.22,2-1.25,2.57-.06,5.2-.36,7.77-.81.42-.06.84-.15,1.29-.15,1.02,0,1.73.81,1.73,1.79,0,1.23-1.26,2-2.06,2.72-1.58,1.38-3.14,2.78-4.69,4.16,1.23-.42,2.45-.75,3.77-.75,3.86,0,7.35,2.75,7.35,6.79,0,2.24-1.05,4.36-2.75,5.8-1.85,1.58-4.42,2.12-6.85,2.12-2.66,0-6.25-.96-6.25-4.25,0-2.12,1.85-3.5,3.86-3.5,2.12,0,4.48,1.49,4.48,3.8,0,.54-.15,1.02-.36,1.5,1.17-.21,2.27-.6,3.23-1.38ZM428.84,218.09c0-1.14-1.05-1.91-2.12-1.91-.81,0-1.52.54-1.52,1.41,0,1.49,1.85,1.85,3.05,1.94.33-.45.6-.9.6-1.44Z"/>
    <path class="cls-2" d="M449.55,220.15c0,1.02-.87,1.88-1.91,1.88s-1.91-.87-1.91-1.88.87-1.91,1.91-1.91,1.91.87,1.91,1.91ZM448.56,214.29c-.03.51-.36.99-.93.99s-.9-.48-.93-.99l-.54-8.67v-7.2c0-.87.6-1.43,1.46-1.43s1.46.57,1.46,1.43v7.2l-.54,8.67Z"/>
  </g>
  <g>
    <path class="cls-1" d="M93.24,68.61c-4.39.73-7.8-3.21-8.47-7.23-.6-3.57.62-5.46,3.56-7.56,1.71-1.2,3.21-2.3,5.33-3.8,4.71-3.39,8.64-7.33,12.33-11.85,3.37-4.08,5.21-6.38,10.79-7.31,4.69-.78,7.16.26,11.14,2.58,6.14,3.79,12.67,7.14,19.71,9.03,4.65,1.29,8.39,1.66,9.23,6.72.68,4.09-1.1,8.98-5.64,9.74-2.31.39-4.17-.22-6.26-.87-.55,3.15-2.96,4.24-5.79,4.71l-9.16,1.53.71,4.24,15.11-2.52c4.61-.77,7.1.8,7.88,5.49.73,4.39-1.65,6.62-5.74,7.31l-15.11,2.52.73,4.39,21.58-3.6c5.21-.87,7.16,1.18,7.99,6.16.76,4.54-1.4,6.74-5.72,7.46l-58.13,9.7c-5.14.86-7.17-1.25-7.99-6.16-.76-4.54,1.4-6.74,5.72-7.46l22.11-3.69-.73-4.39-15.26,2.55c-4.76.79-7.03-.89-7.83-5.66-.74-4.47,1.6-6.46,5.69-7.15l15.26-2.55-.71-4.24-9.23,1.54c-2.9.48-5.56.16-7.03-2.73-1.77,1.29-3.83,2.7-6.07,3.08ZM128.87,51.11c-2.85-1.51-4.94-2.54-7.69-4.38-.59-.36-1.28-.78-1.95-.67-.52.09-1.18.73-2.06,1.87-1.71,2.12-3.52,4.11-5.42,6.03l17.12-2.86Z"/>
    <path class="cls-1" d="M234.63,71.94c1.23,7.37-1.39,10.94-8.75,12.17l-46.29,7.73c-7.37,1.23-11-1.3-12.23-8.67l-7.7-46.14c-1.23-7.37,1.39-10.94,8.75-12.17l46.29-7.73c7.37-1.23,11,1.3,12.23,8.67l7.7,46.14ZM174.96,37.53c-.97.16-1.4.77-1.24,1.74l6.21,37.21c.16.97.77,1.4,1.74,1.24l37.73-6.3c.97-.16,1.33-.76,1.17-1.73l-6.21-37.21c-.16-.97-.7-1.41-1.66-1.25l-37.73,6.3ZM215.8,59.02c2.35.76,3.14,2.77,3.51,5,.79,4.76-1.92,5.91-5.05,6.43l-28.21,4.71c-4.09.68-6.16-.27-6.92-4.81-.86-5.14,2.29-5.97,5.05-6.43l6.33-1.06-.48-2.9-5.21.87c-3.5.58-6.03.09-6.7-3.93-.66-3.94,1.57-5.23,5.07-5.82l5.21-.87-.3-1.79-5.88.98c-3.72.62-6.13-.05-6.81-4.14-.67-4.02,1.04-6.14,4.99-6.8l27.69-4.62c3.57-.6,6.29,1.02,6.9,4.66.7,4.17-1.28,5.64-5.07,6.28l-8.63,1.44.3,1.79,7.81-1.3c3.57-.6,5.94-.15,6.61,3.87.3,1.79.06,3.59-1.35,4.74.43,1.23.87,2.46,1.15,3.71ZM203.2,57.76l.48,2.9,2.83-.47c-.16-.97-.4-1.92-.71-2.87l-2.6.43Z"/>
  </g>
</svg>